/* XPM */
static char *result[] = {
/* columns rows colors chars-per-pixel */
"75 75 256 2 ",
"   c #00360B",
".  c #012E1D",
"X  c #013315",
"o  c #01331C",
"O  c #053A18",
"+  c #153316",
"@  c #173918",
"#  c #213F17",
"$  c #022D25",
"%  c #022D2C",
"&  c #0B2928",
"*  c #0C2C2C",
"=  c #142828",
"-  c #013324",
";  c #0C3727",
":  c #013B24",
">  c #00332B",
",  c #023A2C",
"<  c #163826",
"1  c #072736",
"2  c #022C33",
"3  c #0B2B33",
"4  c #032C39",
"5  c #162B36",
"6  c #013333",
"7  c #033B33",
"8  c #03343A",
"9  c #043C3B",
"0  c #0B3938",
"q  c #1A343A",
"w  c #243431",
"e  c #27353A",
"r  c #10490E",
"t  c #1A550B",
"y  c #0A461B",
"u  c #16491A",
"i  c #195717",
"p  c #244617",
"a  c #285710",
"s  c #275A16",
"d  c #1D6E10",
"f  c #29670B",
"g  c #2F760D",
"h  c #2A6616",
"j  c #336614",
"k  c #2B7615",
"l  c #367718",
"z  c #03422C",
"x  c #094729",
"c  c #154825",
"v  c #085429",
"b  c #185628",
"n  c #044433",
"m  c #064B37",
"M  c #05433B",
"N  c #0A443C",
"B  c #0A4C3C",
"V  c #164938",
"C  c #075636",
"Z  c #05533C",
"A  c #0B543C",
"S  c #0B5B3B",
"D  c #155736",
"F  c #274624",
"G  c #255827",
"H  c #2F5034",
"J  c #0F6E34",
"K  c #07673A",
"L  c #166639",
"P  c #06743C",
"I  c #286927",
"U  c #386926",
"Y  c #2B7628",
"T  c #367927",
"R  c #286835",
"E  c #347037",
"W  c #347936",
"Q  c #41781C",
"!  c #464C3E",
"~  c #467927",
"^  c #41722D",
"/  c #083B41",
"(  c #1A3942",
")  c #283B44",
"_  c #3A3A45",
"`  c #453E49",
"'  c #074544",
"]  c #0B4443",
"[  c #064C43",
"{  c #0B4C43",
"}  c #0D4D4A",
"|  c #144944",
" . c #0B5444",
".. c #055844",
"X. c #0C5B43",
"o. c #0C534A",
"O. c #0C5C4C",
"+. c #135946",
"@. c #12544B",
"#. c #125B4C",
"$. c #124D51",
"%. c #0D5C52",
"&. c #145A53",
"*. c #3A4749",
"=. c #304B49",
"-. c #295548",
";. c #056444",
":. c #0C6343",
">. c #036B43",
",. c #0C6B44",
"<. c #05654B",
"1. c #0C634C",
"2. c #046B4B",
"3. c #0B6B4C",
"4. c #146848",
"5. c #0B744B",
"6. c #087849",
"7. c #16784A",
"8. c #066754",
"9. c #0C6252",
"0. c #146754",
"q. c #0C7851",
"w. c #127453",
"e. c #147C53",
"r. c #187B58",
"t. c #317649",
"y. c #26795B",
"u. c #464749",
"i. c #544949",
"p. c #484653",
"a. c #6B5358",
"s. c #68695C",
"d. c #3B950F",
"f. c #2D8819",
"g. c #348719",
"h. c #338B1C",
"j. c #3C951B",
"k. c #3C991A",
"l. c #0E903B",
"z. c #2D8828",
"x. c #368727",
"c. c #338B23",
"v. c #3B9424",
"b. c #3A9726",
"n. c #3A8736",
"m. c #359437",
"M. c #3EA321",
"N. c #44841B",
"B. c #469B19",
"V. c #449D1C",
"C. c #44A215",
"Z. c #49A914",
"A. c #44A31B",
"S. c #4BA719",
"D. c #53AB18",
"F. c #58B51D",
"G. c #61BB1E",
"H. c #449C23",
"J. c #489A28",
"K. c #468637",
"L. c #4E9632",
"P. c #479834",
"I. c #43A223",
"U. c #49A328",
"Y. c #54A828",
"T. c #4DB122",
"R. c #5AB626",
"E. c #58AA35",
"W. c #5BB733",
"Q. c #63BA27",
"!. c #66B837",
"~. c #69C62C",
"^. c #71C72F",
"/. c #6AC637",
"(. c #72C539",
"). c #0B874A",
"_. c #17874A",
"`. c #0B984A",
"'. c #0C9C4C",
"]. c #16974B",
"[. c #0D8653",
"{. c #138454",
"}. c #138C54",
"|. c #198758",
" X c #1B8C5B",
".X c #0D9553",
"XX c #0D9B53",
"oX c #149454",
"OX c #1C9354",
"+X c #129A54",
"@X c #15945B",
"#X c #1B925B",
"$X c #179B59",
"%X c #2B8F4E",
"&X c #258856",
"*X c #259558",
"=X c #07A548",
"-X c #0CA24C",
";X c #12AB4B",
":X c #0BA554",
">X c #16A857",
",X c #0DB455",
"<X c #17B958",
"1X c #26A75A",
"2X c #2DB253",
"3X c #26B85B",
"4X c #1C8F62",
"5X c #238A64",
"6X c #289563",
"7X c #1CAC64",
"8X c #1BBA62",
"9X c #30AF6A",
"0X c #27B866",
"qX c #35B668",
"wX c #489445",
"eX c #5AA54F",
"rX c #6AB849",
"tX c #6DB84F",
"yX c #51B16D",
"uX c #67B16E",
"iX c #14CA51",
"pX c #1BC959",
"aX c #18D359",
"sX c #26C958",
"dX c #2CD358",
"fX c #1BC763",
"gX c #1CD267",
"hX c #26C667",
"jX c #2CCB6D",
"kX c #35C966",
"lX c #37D765",
"zX c #29C773",
"xX c #41DC5D",
"cX c #70C349",
"vX c #50CB69",
"bX c #47D76A",
"nX c #58C676",
"mX c #57D975",
"MX c #66CA78",
"NX c #50E570",
"BX c #59E679",
"VX c #69EC7A",
"CX c #80F57F",
"ZX c #6CD585",
"AX c #69E983",
"SX c #78EA89",
"DX c #74F38D",
"FX c #78F78A",
"GX c #8FD88E",
"HX c #83E78F",
"JX c #88FB8A",
"KX c #95FD8D",
"LX c #89FA97",
"PX c #95FE97",
"IX c #8DFFA2",
"UX c #97FFA3",
/* pixels */
"A.V.k.k.g.d.j.B.C.C.B.S.B.S./.(.T.C.B.C.Z.C.C.Z.C.T.~./.j.h.v.C.Z.C.A.M.H.E.tXtXtXtXn.W n.P.m.c.j.B.C.Y.rXrXL.P.P.L.P.P.J.M.A.Q./.W.h.c.A.C.Z.M.M.c.c.",
"C.C.C.d.f.g.j.R.Q.F.B.D.B.B.H.j.V.C.D.R.F.Z.C.Z.A.Z.~.~.b.h.U.!.R.A.M.b.c.Y i b b c x c x x h eXW.B.V.g.t b u y c y u y i b.M.Q./.E.c.c.W.~.Z.M.b.z.h.",
"C.F.R.D.C.H.j.~.^.F.D.D.H.J.h.f.k.C.D.~.~.Z.A.A.Z.Z.~.~.j.g.E.(.Q.S.J.z.n.D o - $ $ o o o . u tXcXY.P.I X > $ % % $ $ . r b.A.Q./.E.g.j./.~.T.C.k.f.f.",
"Z.~.^.G.D.S.h.Y.G.G.G.Y.H.v.b.j.S.F.F.R.F.Z.A.A.A.Z.F.F.S.Y.Y.R.Y.I.P.I L D m m X.L 7.r.,.m D E W I I L S O.[ N 8 % x R Y M.A.T.R.Y.Y.Y.R.T.Z.Z.k.k.k.",
"C.F.G.F.F.T.h.C.Z.G.^.W.g.z.P.I.W.cXQ.B.A.A.M.M.M.A.S.T.!.(.Q.H.H.H.P.c - B 1.4. X$X0XkX6X1.@.- - - o K *X|.X.X.7 o R wXM.M.I.I.H.R.(.(.D.S.B.C.M.Z.A.",
"C.C.C.F.~.!.h.V.V.R.~.Y.x.x.n.n.P.E.E.B.A.M.M.b.c.m.n.x.E.E.L.n.n.n.t.x % M X.:.|.oX1X1X|. .$.8 4 8 7 >.@XoXl.6.C x R n.n.n.x.n.n.P.eXL.~ x.B.B.C.A.M.",
"d.B.C.F./.W.h.h.g.Y./.W.c.W y O O   i U.A.M.M.I O O O X X O v L S O - $ % 2 , , X.:.x : ; 6 4 4 8 } O.q.XX-XhXhX>X X4.O - - $ ; O O O   X   T Y.M.k.k.",
"C.C.C.F.~.~.V.h.f.W./.W.h.W O > , o b wXP.U.wXb - > > > > - m K S , 2 % % > : x L ,.x : : > 7 8 8 o.O.q.oX-XpXhX>X X4.> 2 6 > - - O z ; - X T E.A.j.b.",
"Z.C.C.R./.Q.C.V.k.b.b.M.b.m.x > +.7.L i u y c D @.o.o.o.0.7._.|.e... .6 , 4.6X9XZXZXyX*Xe. .o.o.o.' 9 ..>.l.-X+XK m { o.+.w.7.uXZXuX1X&X; o ~ rXY.c.c.",
"R.A.C.S.T.T.C.A.I.b.z.b.M.m.y - K OX7.O - : $ B O.X.<.;.|.%XOXOX}.;.1.7 ; 7.kXbXIXLXbXhX$X;.9.9.9.7 , m <.>.oX Xm , n 1.5.}.oXZXIXVXkX9X; . L.cXW.c.c.",
"~.S.V.C.C.C.C.S.I.c.z.z.U.m.y - _.1X.Xx ' 8 2 X.7.).OX].yXvXnXvXyX6.w.Z x %XBXNXBXBXmXBX9X>.%.[ [ X.4.S Z Z 1.4.B m X.w.)..X'.bXBXlX]. X, . K.!.Y.x.z.",
"R.S.C.C.C.S.D.B.V.b.z.m.U.K.y o _.kX>XP O.7 6 1.OX>XhXsXDXKXKXKXAX]. X3.S yXKXVXsXsXAXIXyX:.o.7 > e.#X,.o > > > +.1.7.*X@XXX'.pXsX;XJ S ; X T J.H.T c.",
"C.C.C.C.A.F.~.Z.A.k.c.b.U.P.z o _.kX<XP 3.9 6 O.{.'.3XsXFXKXJXVXBX:X$X2.S yXDXBXiXsXAXDXyX..o.9 n }.>Xl.v v z n  .X.4.|.}.-X=XiXsX$XK A x r h.U.H.c.h.",
"A.C.C.C.D.(.~.D.D.A.M.M.I.m.y o _.hX<X'.|.n >  .3.6.$X].SXJXNXsXaXgXzXS : 6.dXpX=X=XsXkX_.z 7 O.>.>XsXpXsX3X`.}.A : m ,.P hXpX,X-X7.: x wXP.V.C.H.M.M.",
"M.M.A.C.D.~.~.D.Z.Z.A.A.J.P.x . _.kX<X`.OXn 6 { #.w.&X*XHXLXNXpXaXaXzXZ , e.hXpX=X-X3XqX7.z z :.P 3XsXiXiXiX=X].v : m 1.6.qX0X>X*X4.X y J.V.A.M.Z.M.M.",
"z.c.k.A.Z.D.D.Q.~.F.A.H.x.n.: - 6.>X;X`.oX:.X.] n n B C 6X2XsXaXpX,X$XZ , S ).).'.oXJ S H i.t.t._.mXVXxXiXdXBXAX*X7.X.n n S S C v D W x.W.R.Z.M.T.Q.W.",
"z.z.b.I.I.I.U.cXcXE.U.m.n.t., - ,.>X`.`.oX2.2.m : ; , : 7.OX1XjX0X}.%Xy $ n K ,. X&Xn & u.s.s.%X].ZXPXVXsXdXCXJX2X].J O $ 6 6 2 * b wXL.cXcXE.U.W././.",
"z.z.b.m.c.Y E W K.W Y R R R 6 $ ,.@X.X).q.).6.6.J 4.K :.w.{._.&X_.t.t.w w =.-.-.#.4.e ) _ i.H L J yXnXnXmXVXKXKXvXvX%XJ S M ' 8 2 x E R K.K.Y Y m.W.W.",
"z.z.z.n.I X o . X X . o $ , % , ,.4X[.>.>._.].3XjX0XXX@X>.,.m o < *.! i.i.u.u.=.> % *.p._ = & o o C K 9XUXPXKXKXKXKXMX]. X<.%.9 > $ . o   o . o i U.M.",
"c.c.b.n.R $ > n m V b b x x n z 4.&Xe.>.P %X;XpXaXsX>X1X).{.Z > 5 u.` i.i.! ! =.> 0 ) _ ) 1 7 x v J J 9XHXHXHXFXGXHXyX%Xe.;.<.A m x D V x x 7 $ D U.C.",
"b.U.J.P.E . 7 9XqXMXLXAX2X3XOX&XD : v OX].HXJXbXsXlXFXDXjXqX7.- & = = a.a.! = ; +.o.0 3 ( #.w.9XsXpXpX>XP J ].%Xb x x , z <.>.$XqXmXLXSXqXqX+.- b U.A.",
"U.I.H.E.W $ ; 9XkXVXJXAXsXpX-X].S - m OX].CXKXNXdXxXFXFXlXzX7., > 2 = a.a.! ; x ;.;.7 % B 1.).sXsXaXaX;XP P OX*XC , > - x K P 1XsXbXLXDXkXzX:.$ b P.S.",
"f.f.h.x.R - , w.).1XqXsXgXaXiX0XL , B OX].JXKXCXVXBXxXlX<X7X[.Z ] 4 1 ` a.*.B ;.{.{...o.3.{.1XAXBXdXaXlXmXMX7.3.X.Z :.7._.>X;XmXAXmX2X1X_.{.Z $ b P.A.",
"d d k z.I X , X.K ).].;XgXaXaXzX,.> A *X%XHXPXKXJXVXdXaX=X=X).>...6 1 ` p.-.:.6..X.X2.<.e.OX1XFXFXlXaXNXPXHXL +.+.:.7.*X$XkXdXAXPXmX].}.,.X., X i U.M.",
"f.f.k.b.z.J D B  .3.[.XX8XiX,X8X7.n { 4.L yXMXMXmXbX<XiX,X,X:XXX[.m / ) =.4.OX'.<X;X).6.q.).OXmXmXbXNXVXKXGX-.-.| m :._.).>X3XbXmXqXl.w. .B R I l B.k.",
"M.M.M.M.U.P.wXy : [ 2.q..XXXXX.X6.1.| - : D K P l.].l.=XpXgXaXgX7X;.@.8 % q.hXaXaXpX>X$Xq.>.P ].l.AXLXKXKXGX! u.q > N :.P OX].`.]._.K X.: X wXcXW.d.d.",
"I.I.M.M.I.I.m.i x  .O.8.{.[.}. Xq.O. .% > | X.5.}.oX>X;XpXaXgXlX3XP 9.9 - ).aXaXdXlX>X}.w...1.|.].MXHXKXKXGX! *.q 0 N @.#.&X&X%X%Xy.X.+.c u J./.F.d.k.",
"M.A.A.M.A.A.M.m.%XD , 9 M n <.>.<.1. .> 2 > , Z K OXLXFXlXpXNXDXAX%X&XM o _.sXdXFXDX%XK [ 7 9 <.6.*X1XcXKXGX< 3 | &.{ 6 q =.u.H H V - c eXrXT.A.A.A.I.",
"A.A.A.S.A.J.P.m.%XR , 6 8 7 o.1.<.%.o.> 6 2 6 [ ;.&XPXJXkXsXVXUXSX%X&Xn o 7.sXlXJXLX&XX.' 4 8 &.<.|.@XnXUXGX; > D 1.[ 7 5 *.p.*.*.V & x uXtXT.C.A.H.I.",
"A.Z.C.I.j.i i c c A o.o.o.[ M 9 9 9 ]  .[ 9 7 [ ;.%XPXJXVXVXvX6X&Xv B V Z _.>X2XLXLX&X+.' 8 8 9 M 9.0.7.t.t.{ Z q.{.,.6 8 -.=.-.-.| 2 - b I f.k.k.V.B.",
"M.A.Z.I.T   o $ $ Z 3.2.<.<., , > 2 9 9.1.M 6 [ ;.%XUXKXKXPXyXL | > > @.1.e.OX2XIXIX&X:.[ 6 2 2 6 @.0.B o , X.>.).].J > 8 O.%.1.:. .> > > X Y v.j.B.S.",
"k.b.M.J.Y X ; t.t.&X}.).6.6.K A M M ' [ [ X.X.O...7.MXMXuXuXt.-.=.3 % ] { 8.r.*XyXnXOX5.+.q q % 4 ] $.| A K 5.6.-X<X6.: 9 %.<.6.q.,.S C M n b I l H.B.",
"c.h.M.P.T o V GXUXmXhX<XXXoX@X Xw.%.} 8 6 |.4Xq.;.K K K y X w u._ 2 2 2 6 [ 2.>.K P .X&Xt.*.u.3 4 1 2 +. XoXoX'.3XhX_.: 7 O.>.[.XX.X].{.,.:.z   i b.v.",
"c.c.J.L.E . x ZXFXbXiXiX=X-X'.oXq.9.$.0 , {.:X).>.6.P >.v ; H u._ 5 3 0 n S 6.6.K P `.$Xt.H _ 5 ( 1 2 K $X:X'.'.sXlX&X, 7 >.P `.'.`.=X`.P 6.x - c n.z.",
"I.k.C.J.T . : %X;XsXaXaXpXhX'.OXq.O.-.=.-.1XhX>X.X:XhX0X.X_.+.= w ` *.t.{.>X8X8X`.`.3XsX_.; w ` _ ( 6 7.qXfX-X;XmXLXyX$ n |.}..XXX,XfXgXfX0Xe.X.A O r ",
"A.C.C.I.Y   : &X].3XhXsXhXhX$XOXw.&.-.u.u.2XsX,X:X:XfXhX>X XS > 5 u.*.y.OX,XgX<X=Xl.sXkXJ ; 5 p.` ( % 7.hXpX=X].VXPXuX% M }.oXoX@X>XhXgXgXzX[.%.{ $ X ",
"W.G.T.A.b.Y E C m K L J L K w.w. .9 ) u.u.MXVXlX<X8X,X:XP Z  .| | e w +.,.`.:X,X<XiXNXSX%X& 5 a.a.) * :.>X,X<X<XVXUXuXm X. X@X).6.q.).).P ,.A M 8 % O ",
"/.~.T.C.U.P.wX; % > > > $ , O.0.' 2 q p.i.GXUXBXhXfX:X[.n % B 9.+.- -  .K ).XX=XfXsXVXUXeX& ) a.a._ % X.$X:XhXdXDXUXnX,.2.4X4Xq.2.1.>.>.O o - - $ $   ",
"Q.F.F.T.J.Y E $ 1 1 4 7 9 M { o.[ 9 ( p.u.uXMXqX>X@X6.4.' ' %.q.3.C A A  .3.[.XX<X<XvXZXy.1 ) a.a.) 1 { |.[.$XOXyXuX6X1.8.q.r.1. .{ A C R I i b b c r ",
"Z.Z.F./.L.  $ % % 2 > 9 %.O.7 6 [ #.-.u.u.-.:.,.:.S : > o.8.r.@X$X#X&Xn , m ;.6.oX.XP S N 1 5 p.p.( & 8 %...: o o o z 8.8.<.<.M % % $ O tXtXE.J.P.T z.",
"C.C.G.(.L.X * > 7 , x C 6.>.n z S 1.+.p.*.-.&.#.#.@.> 6 1.2.[.XXXX+XoXC x  .O.1. X X3.@.| 3 e ` p.0 2 M &. .7 , , z Z 3.2.>.2.Z 9 2 $ r eX~.Z.B.B.g.g.",
"B.C.Q.(.L.. , y.&X1X0X<XfX8XOX X5.;.} 3 5 8 6 , 6 6 2 : 6X0X:XXX'.XX'.3X9X7., n ,.3.M 6 ( ` _ 5 ( 4 4 4 7 0 @.X.w.{.|.#X@X0X0Xq...M - y L.I.C.C.B.B.J.",
"C.C.U.T c ; 0.&X*X$X7XjX0X$X#Xq.;.Z 6 6 % > Z ..m 2 > z 0XzX,X=X=X`.=XhXzX7.- 7 #.#.9 2 ) ` _ 5 1 1 4 4 4 7 1.3.|.oX+X+X:XfXzX[.<.[ , y K.U.I.B.B.S.B.",
"j.B.U.h O x A S A A S ,.4.C S 7.{.e.3.4. . .q.[.;.9  .Z @X,X,XfX,XiX,X,X7XJ - > 9 0 8 2 5 ) e 1 4 1 2 4 4 6 +.2.{.XX:X<X<X,X>X[.<.O.Z A b i j.S.D.Q.Q.",
"g.B.J.l u c $ 6 2 % $ > $ % : 5.$X@X@X[.2.>.[.@X5.7 1.2..XXX8XgXgXgXgX:X@XK - % 2 4 4 2 % 1 * $ % % $ 2 2 6 #.2.{.+X>XjXhX=X'.6.2.2.<.X.o   T Y.R.!.(.",
"x.H.J.l p @ $ 2 8 9 9 9 9 % , }.,X:XXX.Xq.)..XXX5.[ q.q.[.[.oX$X$X>X$X}.{.A $ $ q / 8 4 0 N m C m C m N 0 M } ..3.,.}.*XOX}.}.q.q.q.6.3.S v E T N.!.!.",
"H.H.J.l p < % > o.1.1.#.@.0 , *XzX8XXXXX@XXX.X.X[.3.4X@X2.2.Z , , : : ..0.B $ 7 #.@.0 > X.5X#XOXOX#X*Xr.0.$.6 6 , - - : , %.2.[.@X@X$X@X#X*Xv   i K.g.",
"H.H.K.U r c : z S 3.3.1.@.% 6 4XzX,XXX:X:X:X'.[.6.6.@X@X2.O.' 6 8 7 7 O.%.[ 6 n 4.4.n , ,.$XXX'.`.'.$X[.1.O.n 7 , > 7 8 9 &.%.r. X.X:X-XXXoXK y b W T ",
"Y.t O + ; x 7._.}.{.w.1.@.3 > :.6.XXfXfXfXfX).>.7.`.].OXC , 6 2 9 y.r.2.O.O...2. X X,.C }.zXpX`.'.<XfX@X;.8.|.{.r.|.w.O.o.9 9 o.5..XhXhX-X`.;XqX_.y r ",
"E.r   o - x &X&XOX&Xr.9.@.> > ..<.@XzXgXzXqX{.1.7.m.m.n.: $ % $ x %X%XJ K ;.2.2.oX@X>.K OXzXfX=X=XpXzX4X<.3. X@X@X@X).>...8 4 } 1.}.0XhX;Xl.2XlX%XO   ",
"U.g.R b > 7 A S A D { M B 4.4.3.<.q.[..X6.4.Z ' m b v A , % 2 % , D P P ).:X:X,X>X).>.Z  .4.O.C P .X[...X.r. X,.K oX>X;X-X{.n 7 @.0.r.,.b v J J v u ~ ",
"A.U.P.R o > % $ % % 4 % z |.OX6.2.2.;..., > > 3 , , > 2 4 1 2 1 > n S P 7XjXgXgXfX6.;.M 2 2 1 1 X.:.n - m OX}.x - _.jXaXaXhXv > { &.o.6 > , : o X i tX",
"b.A.U.k u x ; ; * * 3 3 n |.].).2.8.2.o.6 3 5 ( q 6 2 q q 3 1 1 4 2 M Z @X7X7X8X7XK [ 8 1 1 1 / M  .A C P >X>Xn - w.1X<XaX3Xv > M } ] 2 2 0 ; c G l !.",
"h.V.B.V.~ E @ w < ; * 2 n |.oX}.4Xr.<.O.> 3 ) *.=.$ * *.p.( 1 5 1 2 6 7 ..2.>.>.K , 6 8 1 1 1 1 6 : 4.oX-XhXqXm >  .>.).hXhXv > 6 6 6 6 $ < @ K.cX!.D.",
"h.H.B.N.~ U t # @ @ ; % 0 &X|. X4Xw.O.@.6 * H p.e $ 3 *.u.e = 5 = 5 3 1 } #.9.O.@.6 2 1 / 1 4 4 4 > 3.@X>XqX9XN 6 ] O.w.qX9Xm - > 6 6 2 > ; u ~ tX!.U.",
"b.g g f f s s U p F < % > 9 7 n n 9 8 8 4 % 5 5 3 % % 5 5 _ ` ` a.a.` *.q 8 8 8 6 2 % 1 4 / $.$.8 7  .2.:.m ] 6 4 4 7 n m m > $ N @.o.O.&.0 - c h k J.",
"H.g f t t s U U p w < % % 2 1 2 6 4 2 4 4 2 2 * % % % % & _ ` a.a.a.i.p.q 2 6 4 / 4 1 4 2 8 &.&.8 6 } 9.o.4 2 4 2 2 4 6 6 6 6 $ N 1.3.8.%.7 , x b d P.",
"b.k h s s s u u u ; 0 V ] 4 4 2 4 8 ] ] 6 4 ' | 0 2 4 ] ( ) e e ` ` e e q ] [ [ } [ / 8 2 8 ' 9 6 % } 9.} 6 2 ] { [ [ ' [ ' 7 > S e.5.8.9.9.4.A z b T ",
"z.h h h h G y @ . - N &.$.4 4 1 2 / &.&.2 2 o.&.$.6 8 &.$./ 1 1 = = = 1 { %.9.8.%.%.#.M > 6 6 6 % > Z %.o.6 6 X.1.9.9.%.9.o.9 > 4.OX[.2.<.|.6X+.- ; G ",
"c.k h h h G O ; ; M ] @.$./ / 4 4 ] &.O.M 9 } @.{ M M $.$./ 4 1 5 5 1 % X.5.8.8.8.8.8...m n > 2 7 : X.0.O.2 7 1.2.2.8.8.9.%.7 , X.{.[.2.6.[. X:.$ x U ",
"H.d t s U G . %  .O.[ 6 9 o.&./ 2 / #.O.O.&.9 2 ' O.@.9 6 8 2 e p.*.3 > w.#X{.8.8.8.2.[.6X4.% 7 +.,.e.4Xw.2 0 r.@Xq.<.9.9.%./ 4 { 1.5.&XOXoX#X:.> ; ^ ",
"H.f t i I G $ $ ..2.[ 9 9 %.&./ 4 / &.O.O.#.9 4 9 &.} 7 4 4 2 q *.*.3 > 4. X[.8.8.8.2.[. Xw.> > :.>.).@Xw.> 6 r.@Xq.2.<.8.&.8 4 ] 4.4.&X&XOX5X+.> c W ",
"k.f t h I G - > w. Xq...} 8 / 4 2 6 7 6 7 7 6 2 6 8 8 2 2 2 1 1 5 1 4 % O.8.q.[.}.[.@X6.5. .> 7 7._..X@Xw.- 6 1.2.[.}.[.2.O.9 8 8 7 , n z n n 9 > O U ",
"V.d t a h s ; 6 r.4Xe.1.o.2 2 1 2 2 % % 2 2 2 % 2 2 2 2 $ % % 1 1 / 1 8 o.8.q.4X#X#X5Xq.1.o.> 7 r.OX+X+X7.: > o.8.e. X|.<.%.8 4 * $ $ & $ - - - - y h ",
"H.k f f j G . >  .+. .m / 0 < 3 2 9 ] ] 2 2 1 6 2 2 1 % % M ] 0 1 4 2 4 / '  .O.X.+.+.Z [ 9 4 7 3.6..XoX7.- > ' M A X.A m ' 6 % * < < < < F G b u i x.",
"J.g h f j s . % * 6 4 % % < w * 2 M &.&.2 2 2 % % 2 4 % 6 [ &.} 2 2 % % % 4 3 2 2 2 2 2 6 8 4 9 X.>.{.#Xw.- 2 % 6 $ $ % % 6 % % < w F F u ^ K.U j j J.",
"J.g f j l s @ ; & * * * = w # & 2 { 0.9.6 2 6 7 7 2 4 0 M o.8.$.% * ; = ; ; 0 * 1 1 2 8 9 9 4 8 {  .3.r.4.> 2 7 0 6 2 6 9 9 7 $ @ # p p a Q ~ l f g J.",
"J.g f g ~ Q j U < < < < < F H = $  .5Xr.8 8 | 0.{ > 6 @.O.9.0.{ $ & < F F H < = = * 2 | #.| % 2 8 8 , > 2 % 6 o.@.M 2 8 %...8 2 < u p s f Q N.g f g J.",
"U.g f g N.Q f j p @ @ + # F F < $ o.5Xr.n >  .%.Z : 7 O.1.%.&.| + + # p a F w + & , , S 4.A > 2 2 1 & = & 2 > @.&.] 7 M 8.1.9 6 < u p f f Q Q g f g U.",
"c.j.k.j.N.Q t t a s j U ^ # @ & $ ] 0.w.r.r.w.9.0.r.e.2.1.Z 7 n w # F j p p @ ; ; 4.e.{.|.7.+.@.0 * = w < F w 0 8 } %.8.|.|.9 % < p a j j f f N.N.H.v.",
"z.H.J.N.N.Q t t h f Q ~ ^ + + & 2 ] &.1.5X5Xw.%.r.5X4X8.1.n - @ F p j j a p < & 9 y.*X#X#X{.1.&.2 & # # p # H & 2 } %.w.5X5X9 % c G s a f f f d.J.J.c.",
"v.v.v.j.B.Q t p t a j Q j + ; % 2 8 ] { X.X.A { { O.o.[ { 0 ; u F a a j a a c * 8 +.+.:.,.S B N * < F p j U ^ < 0 / ' [ &.$.9 $ H U l Y l l g.d.B.J.c.",
"H.c.c.v.J.J.t s u t h N.U   - $ > 2 % & $ - o - $ % > 6 $ ; @ t j f f j j s c - % $ $ $ - - - - @ + s h j ~ ~ a # + . & % % % . G ~ T x.x.H.I.C.A.b.x.",
"U.b.c.b.Y.J.h b b i h x.T r u v x x ; < 0 ; y v y c c b b u r a g.l j g g h h u u b c c x x c c s s f g g Q Q j a a p u c c c u Y L.J.x.c.A.Z.C.C.J.z.",
"/.P.g.U./.W.x.W Y Y W x.x.L.%Xm.t.W %Xt.D D n.m.m.L.L.tXtXP.x.L.!.!.J.H.x.x.N.P.L.rXtXwXW wXP.L.tX!.Y.B.B.D.B.Y.Y.!.cXrXE.wXP.K.E.(.W.z.c.W.~.R.V.H.x."
};
