/* XPM */
static char *result[] = {
/* columns rows colors chars-per-pixel */
"75 75 121 2 ",
"   c #022F27",
".  c #062F29",
"X  c #07332C",
"o  c #0B352E",
"O  c #0C3730",
"+  c #0C3A33",
"@  c #123C35",
"#  c #0E433A",
"$  c #114E44",
"%  c #115147",
"&  c #125449",
"*  c #145E52",
"=  c #2E524C",
"-  c #30554F",
";  c #156356",
":  c #176B5D",
">  c #186D5F",
",  c #197565",
"<  c #1A7768",
"1  c #1A7A6A",
"2  c #55736E",
"3  c #5A7773",
"4  c #5C7974",
"5  c #1B806F",
"6  c #1C8271",
"7  c #1D8977",
"8  c #1E8D7A",
"9  c #1F927E",
"0  c #20937F",
"q  c #1F9480",
"w  c #209581",
"e  c #239A86",
"r  c #2A9B87",
"t  c #2C9C89",
"y  c #22A48D",
"u  c #2BA48F",
"i  c #24A690",
"p  c #25AD95",
"a  c #29AB95",
"s  c #26B49B",
"d  c #2CB099",
"f  c #33B19B",
"g  c #28BBA2",
"h  c #33BEA6",
"j  c #7D9490",
"k  c #4FB8A6",
"l  c #29C1A7",
"z  c #29C3A9",
"x  c #26CBAE",
"c  c #29CBAF",
"v  c #2CCDB1",
"b  c #36CFB5",
"n  c #2CD0B3",
"m  c #2EDABC",
"M  c #38D0B5",
"N  c #33D5B9",
"B  c #3DD7BD",
"V  c #31DCBE",
"C  c #3EDABF",
"Z  c #4CC1AD",
"A  c #59C7B4",
"S  c #31DEC0",
"D  c #3FDAC0",
"F  c #3EE4C7",
"G  c #3EE5C8",
"H  c #44DEC4",
"J  c #53D8C1",
"K  c #59D9C3",
"L  c #67D2C0",
"P  c #62DCC7",
"I  c #70DBC9",
"U  c #44E1C6",
"Y  c #45EACE",
"T  c #5EE2CB",
"R  c #47ECD0",
"E  c #4AEDD1",
"W  c #57ECD3",
"Q  c #5DEED5",
"!  c #4BF1D4",
"~  c #68EFD8",
"^  c #74E7D3",
"/  c #6AF0D9",
"(  c #74F1DB",
")  c #809693",
"_  c #8B9F9C",
"`  c #8CA19D",
"'  c #94A7A4",
"]  c #94A8A4",
"[  c #8AB9B1",
"{  c #A2BEB9",
"}  c #B8C4C2",
"|  c #85EBD9",
" . c #81F2DF",
".. c #BCE4DD",
"X. c #87F3E0",
"o. c #8CF4E2",
"O. c #91F4E3",
"+. c #9DF5E6",
"@. c #A1F5E6",
"#. c #A5F6E8",
"$. c #ABF6E9",
"%. c #B4F6EB",
"&. c #BCF4EA",
"*. c #BCF8EE",
"=. c #C1CBCA",
"-. c #C6D0CE",
";. c #CBD5D3",
":. c #C1F8EF",
">. c #C6F9F0",
",. c #CBF9F1",
"<. c #DAF7F2",
"1. c #D1FAF3",
"2. c #DDFBF6",
"3. c #EBEFEE",
"4. c #EFF2F1",
"5. c #E0FCF7",
"6. c #E5FCF8",
"7. c #ECFDFA",
"8. c #F3FDFC",
"9. c #FFFFFF",
"0. c None",
/* pixels */
"0.0.0.0.0.0.0.0.0.0.0.0.0.0.0.0.0.0.0.0.0.0.0.0.0.0.0.0.0.0.0.0.0.0.0.0.0.0.0.0.0.0.0.0.0.0.0.0.0.0.0.0.0.0.0.0.0.0.0.0.0.0.0.0.0.0.0.0.0.0.0.0.0.0.0.",
"0.0.0.0.0.0.0.0.0.0.0.0.0.0.0.0.0.0.0.0.0.0.0.0.0.0.0.0.0.0.0.0.0.0.0.0.0.0.0.0.0.0.0.0.0.0.0.0.0.0.0.0.0.0.0.0.0.0.0.0.0.0.0.0.0.0.0.0.0.0.0.0.0.0.0.",
"0.0.0.0.0.0.0.0.0.0.0.0.0.0.0.0.0.0.0.0.0.0.0.0.0.0.0.0.0.0.0.0.0.0.0.0.0.0.0.0.0.0.0.0.0.0.0.0.0.0.0.0.0.0.0.0.0.0.0.0.0.0.0.0.0.0.0.0.0.0.0.0.0.0.0.",
"0.0.0.0.0.0.0.0.0.0.0.0.0.0.0.0.0.0.0.0.0.0.0.0.0.0.0.0.0.0.0.0.0.0.0.0.0.0.0.0.0.0.0.0.0.0.0.0.0.0.0.0.0.0.0.0.0.0.0.0.0.0.0.0.0.0.0.0.0.0.0.0.0.0.0.",
"0.0.0.0.0.0.0.0.0.0.0.0.0.0.0.0.0.0.0.0.0.0.0.0.0.0.0.0.0.0.0.0.0.0.0.0.0.0.0.0.0.0.0.0.0.0.0.0.0.0.0.0.0.0.0.0.0.0.0.0.0.0.0.0.0.0.0.0.0.0.0.0.0.0.0.",
"0.0.0.0.0.0.0.0.0.0.0.0.0.0.0.0.0.0.0.0.0.0.0.0.0.0.0.0.0.0.0.0.0.0.0.0.0.0.0.0.0.0.0.0.0.0.0.0.0.0.0.0.0.0.0.0.0.0.0.0.0.0.0.0.0.0.0.0.0.0.0.0.0.0.0.",
"0.0.0.0.0.0.0.0.0.0.0.0.0.0.0.0.0.0.0.0.0.0.0.0.0.0.0.0.0.0.0.0.0.0.0.0.0.0.0.0.0.0.0.0.0.0.0.0.0.0.0.0.0.0.0.0.0.0.0.0.0.0.0.0.0.0.0.0.0.0.0.0.0.0.0.",
"0.0.0.0.0.0.0.0.0.0.0.0.0.0.0.0.0.0.0.0.0.0.0.0.0.0.0.0.0.0.0.0.0.0.0.0.0.0.0.0.0.0.0.0.0.0.0.0.0.0.0.0.0.0.0.0.0.0.0.0.0.0.0.0.0.0.0.0.0.0.0.0.0.0.0.",
"0.0.0.0.0.0.0.0.0.0.0.0.0.0.0.0.0.0.0.0.0.0.0.0.0.0.0.0.0.0.0.0.0.0.0.0.0.0.0.0.0.0.0.0.0.0.0.0.0.0.0.0.0.0.0.0.0.0.0.0.0.0.0.0.0.0.0.0.0.0.0.0.0.0.0.",
"0.0.0.0.0.0.0.0.0.0.0.0.0.0.0.0.0.0.0.0.0.0.0.0.0.0.0.0.0.0.0.0.0.0.0.0.0.0.0.0.0.0.0.0.0.0.0.0.0.0.0.0.0.0.0.0.0.0.0.0.0.0.0.0.0.0.0.0.0.0.0.0.0.0.0.",
"0.0.0.0.0.0.0.0.0.0.0.0.0.0.0.0.0.0.0.0.0.0.0.0.0.0.0.0.0.0.0.0.0.0.0.0.0.0.0.0.0.0.0.0.0.0.0.0.0.0.0.0.0.0.0.0.0.0.0.0.0.0.0.0.0.0.0.0.0.0.0.0.0.0.0.",
"0.0.0.0.0.0.0.0.0.0.0.0.0.0.0.0.0.0.0.0.0.0.0.0.0.0.0.0.0.0.0.0.0.0.0.0.0.0.0.0.0.0.0.0.0.0.0.0.0.0.0.0.0.0.0.0.0.0.0.0.0.0.0.0.0.0.0.0.0.0.0.0.0.0.0.",
"0.0.0.0.0.0.0.0.0.0.0.0.0.0.0.0.0.0.0.0.0.0.0.0.0.0.0.0.0.0.0.0.0.0.0.0.0.0.0.0.0.0.0.0.0.0.0.0.0.0.0.0.0.0.0.0.0.0.0.0.0.0.0.0.0.0.0.0.0.0.0.0.0.0.0.",
"0.0.0.0.0.0.0.0.0.0.0.0.0.0.0.0.0.0.0.0.0.0.0.0.0.0.0.0.0.0.0.0.0.0.0.0.0.0.0.0.0.0.0.0.0.0.0.0.0.0.0.0.0.0.0.0.0.0.0.0.0.0.0.0.0.0.0.0.0.0.0.0.0.0.0.",
"0.0.0.0.0.0.0.0.0.0.0.0.0.0.0.0.0.0.0.0.0.0.0.0.0.0.0.0.0.0.0.0.0.0.0.0.0.0.0.0.0.0.0.0.0.0.0.0.0.0.0.0.0.0.0.0.0.0.0.0.0.0.0.0.0.0.0.0.0.0.0.0.0.0.0.",
"0.0.0.0.0.0.0.0.0.0.0.0.0.0.0.0.0.0.0.0.0.0.0.0.0.0.0.0.0.0.O O O O O O O O O O O O O O O 0.0.0.0.0.0.0.0.0.0.0.0.0.0.0.0.0.0.0.0.0.0.0.0.0.0.0.0.0.0.",
"0.0.0.0.0.0.0.0.0.0.0.0.0.0.0.0.0.0.0.0.0.0.0.0.0.0.0.0.0.0.O O O O o o O O o o o O O O o 0.0.0.0.0.0.0.0.0.0.0.0.0.0.0.0.0.0.0.0.0.0.0.0.0.0.0.0.0.0.",
"0.0.0.0.0.0.0.0.0.0.0.0.0.0.0.0.0.0.0.0.0.0.0.0.0.0.0.0.0.0.@ @ @ @ @ @ @ @ @ @ @ @ @ @ @ 0.0.0.0.0.0.0.0.0.0.0.0.0.0.0.0.0.0.0.0.0.0.0.0.0.0.0.0.0.0.",
"0.0.0.0.0.0.0.0.0.0.0.0.0.0.0.0.0.0.0.0.0.0.0.0.0.0.0.O O X j ;.;.;.;.;.;.;.;.;.;.;.;.;.j X O O 0.0.0.0.0.0.0.0.0.0.0.0.0.0.0.0.0.0.0.0.0.0.0.0.0.0.0.",
"0.0.0.0.0.0.0.0.0.0.0.0.0.0.0.0.0.0.0.0.0.0.0.0.0.0.0.O O X ` 9.9.9.9.9.9.9.9.9.9.9.9.9.` X O o 0.0.0.0.0.0.0.0.0.0.0.0.0.0.0.0.0.0.0.0.0.0.0.0.0.0.0.",
"0.0.0.0.0.0.0.0.0.0.0.0.0.0.0.0.0.0.0.0.0.0.0.0.0.0.0.X X   _ 9.9.9.9.9.9.9.9.9.9.9.9.9.` X X o 0.0.0.0.0.0.0.0.0.0.0.0.0.0.0.0.0.0.0.0.0.0.0.0.0.0.0.",
"0.0.0.0.0.0.0.0.0.0.0.0.0.0.0.0.0.0.0.0.0.0.0.0.0.0.0.3 3 3 { 6.6.2.5.2.5.5.6.2.6.7.7.8.[ : : : 0.0.0.0.0.0.0.0.0.0.0.0.0.0.0.0.0.0.0.0.0.0.0.0.0.0.0.",
"0.0.0.0.0.0.0.0.0.0.0.0.0.0.0.0.0.0.0.0.0.0.0.O O o = 3.9.9.,.@.@.@.@.@.@.@.@.@.$.,.1.1.| m S n $ o o O 0.0.0.0.0.0.0.0.0.0.0.0.0.0.0.0.0.0.0.0.0.0.0.",
"0.0.0.0.0.0.0.0.0.0.0.0.0.0.0.0.0.0.0.0.0.0.0.o o X = 3.9.9.,.@.#.@.@.@.@.@.@.@.#.,.1.1.| m S n $ o O O 0.0.0.0.0.0.0.0.0.0.0.0.0.0.0.0.0.0.0.0.0.0.0.",
"0.0.0.0.0.0.0.0.0.0.0.0.0.0.0.0.0.0.0.0.0.0.0.@ O O - 3.9.9.,.@.@.@.#.@.@.@.#.@.#.,.,.1.| m S m $ o O O 0.0.0.0.0.0.0.0.0.0.0.0.0.0.0.0.0.0.0.0.0.0.0.",
"0.0.0.0.0.0.0.0.0.0.0.0.0.0.0.0.0.0.0.0.O O X ) ;.-.;.<.2.2.*.@.#.@.@.#.+.>.7.7.6.( / / W Y G Z $ o O O 0.0.0.0.0.0.0.0.0.0.0.0.0.0.0.0.0.0.0.0.0.0.0.",
"0.0.0.0.0.0.0.0.0.0.0.0.0.0.0.0.0.0.0.0.O O X ' 9.9.8.1.1.1.%.@.@.@.#.@.@.,.9.9.7.Q Y Y Y E ! H $ O o O 0.0.0.0.0.0.0.0.0.0.0.0.0.0.0.0.0.0.0.0.0.0.0.",
"0.0.0.0.0.0.0.0.0.0.0.0.0.0.0.0.0.0.0.0.O O X ' 9.9.8.2.1.1.%.@.@.@.+.@.@.1.9.9.7.Q Y Y Y E E H # o o o 0.0.0.0.0.0.0.0.0.0.0.0.0.0.0.0.0.0.0.0.0.0.0.",
"0.0.0.0.0.0.0.0.0.0.0.0.0.0.0.0.0.0.0.0.O O X ' 9.9.8.:.>.>.:.*.:.*.%.%.$.1.8.8.6. .( ( ~ E E U 1 : : * 0.0.0.0.0.0.0.0.0.0.0.0.0.0.0.0.0.0.0.0.0.0.0.",
"0.0.0.0.0.0.0.0.0.0.0.0.0.0.0.0.0.0.0.0.O O X ' 9.9.8.$.@.@.1.9.9.8.1.1.1.1.1.,.1.1.1.1.o.R E R D V V 0 o O O 0.0.0.0.0.0.0.0.0.0.0.0.0.0.0.0.0.0.0.0.",
"0.0.0.0.0.0.0.0.0.0.0.0.0.0.0.0.0.0.0.0.O O o ' 9.9.8.#.@.+.1.9.9.8.1.1.1.1.1.1.1.1.1.1.O.Y E R m m V 0 o o O 0.0.0.0.0.0.0.0.0.0.0.0.0.0.0.0.0.0.0.0.",
"0.0.0.0.0.0.0.0.0.0.0.0.0.0.0.0.0.0.0.0.O + o ] 9.9.8.$.@.@.1.9.9.8.1.1.1.,.1.1.1.1.1.1.O.Y R Y V m F 0 o O O 0.0.0.0.0.0.0.0.0.0.0.0.0.0.0.0.0.0.0.0.",
"0.0.0.0.0.0.0.0.0.0.0.0.0.0.0.0.0.O X - } =.=...*.&.:.7.6.6.>.#.$.$.@.+.+.+.+.+.+.+.+.+.L d a d F Y Y r o o o 0.0.0.0.0.0.0.0.0.0.0.0.0.0.0.0.0.0.0.0.",
"0.0.0.0.0.0.0.0.0.0.0.0.0.0.0.0.O O o - 4.9.9.>.+.+.$.8.9.9.>.X.o.o. .o.o.o. .o.o.o.X.o.A 9 9 e U ! ! t o o O 0.0.0.0.0.0.0.0.0.0.0.0.0.0.0.0.0.0.0.0.",
"0.0.0.0.0.0.0.0.0.0.0.0.0.0.0.0.O O X - 4.9.9.,.+.@.$.8.9.9.*.o.o.o.o.o.o.o.o.o.o.o.o.o.A 9 9 y U E ! t o o o 0.0.0.0.0.0.0.0.0.0.0.0.0.0.0.0.0.0.0.0.",
"0.0.0.0.0.0.0.0.0.0.0.0.0.0.0.0.O O X - 4.9.9.,.@.@.$.7.8.8.&.o.o.o.o.o.o.o.o.o.o.o.o.o.A 9 q q U E E f ; ; ; 0.0.0.0.0.0.0.0.0.0.0.0.0.0.0.0.0.0.0.0.",
"0.0.0.0.0.0.0.0.0.0.0.0.0.0.0.0.O O o - 4.9.9.,.+.@.$.,.1.1.$.o.o.o.o.o.o.o.o.o.o.o.o.O.A 9 0 y U E E F m m n % o O O 0.0.0.0.0.0.0.0.0.0.0.0.0.0.0.0.",
"0.0.0.0.0.0.0.0.0.0.0.0.0.0.0.0.O O X - 4.9.9.,.@.@.$.,.1.1.$.o.o.o.o.o.o.o.o.o.o.o.o.o.A 9 9 e U E E F m V n $ o O O 0.0.0.0.0.0.0.0.0.0.0.0.0.0.0.0.",
"0.0.0.0.0.0.0.0.0.0.0.0.0.0.0.0.O O o - 4.9.9.,.@.#.#.,.1.1.$.o.o.o.o.o.o.o.o.o.o.o.o.O.A 9 q e U R E U m V n % o O O 0.0.0.0.0.0.0.0.0.0.0.0.0.0.0.0.",
"0.0.0.0.0.0.0.0.0.0.0.0.0.0.0.0.O O X - 4.9.9.2.:.:.%.P K K ^ o.o.o.o.o.o.o.o.o.o.o.o.O.A q 0 0 r r r e 0 w 9 # o O O 0.0.0.0.0.0.0.0.0.0.0.0.0.0.0.0.",
"0.0.0.0.0.0.0.0.0.0.0.0.0.0.0.0.O O o - 4.9.9.6.1.1.&.b c x T o.o.o.o.o.o.o.o.o.o.o.o.o.A 9 0 9 1 < , 1 1 < , # o @ O 0.0.0.0.0.0.0.0.0.0.0.0.0.0.0.0.",
"0.0.0.0.0.0.0.0.0.0.0.0.0.0.0.0.O O X - 4.9.9.6.1.1.&.M v c T O.O.o.o.o.O.O.o.o.o.o.o.O.A 9 0 9 1 1 1 1 1 1 , # o o O 0.0.0.0.0.0.0.0.0.0.0.0.0.0.0.0.",
"0.0.0.0.0.0.0.0.0.0.0.0.0.0.0.0.O O o - 4.9.9.1.$.%.+.B N N J I I I I I I I I I I I ^ I Z y y y w 0 0 7 5 5 1 # o O O 0.0.0.0.0.0.0.0.0.0.0.0.0.0.0.0.",
"0.0.0.0.0.0.0.0.0.0.0.0.0.0.0.0.O O o - 4.9.9.+.R E E E R E h w w w w w w w w w w w w q d v c v c c v s 0 0 0 # o O O 0.0.0.0.0.0.0.0.0.0.0.0.0.0.0.0.",
"0.0.0.0.0.0.0.0.0.0.0.0.0.0.0.0.O O o - 4.9.9.+.R E E E E E h q w w w w w w w w w w w q s v c c v v v d 0 w 8 # O O O 0.0.0.0.0.0.0.0.0.0.0.0.0.0.0.0.",
"0.0.0.0.0.0.0.0.0.0.0.0.0.0.0.0.O O X - 4.9.9.O.R E E E E E h q 0 w w 0 0 9 0 0 9 w 9 w s v n n v v n s w w 0 # o O O 0.0.0.0.0.0.0.0.0.0.0.0.0.0.0.0.",
"0.0.0.0.0.0.0.0.0.0.0.0.0.0.0.0.0.0.0.0.2 2 2 k E R U u t r p g g g g g g g g g g s l s i 9 0 w z v n q % % & 0.0.0.0.0.0.0.0.0.0.0.0.0.0.0.0.0.0.0.0.",
"0.0.0.0.0.0.0.0.0.0.0.0.0.0.0.0.0.0.0.0.X X . t ! R H 6 1 1 i n v v v v n v c n n n n n y < < 5 z v n 7 o o o 0.0.0.0.0.0.0.0.0.0.0.0.0.0.0.0.0.0.0.0.",
"0.0.0.0.0.0.0.0.0.0.0.0.0.0.0.0.0.0.0.0.O O o t E E H 6 1 1 y v v v v v v v v v v v v v y 1 1 6 z v n 7 o O O 0.0.0.0.0.0.0.0.0.0.0.0.0.0.0.0.0.0.0.0.",
"0.0.0.0.0.0.0.0.0.0.0.0.0.0.0.0.0.0.0.0.O O X t R Y H 6 1 1 i v v v v c v v c v v v v v i 1 1 6 s z z 6 o O O 0.0.0.0.0.0.0.0.0.0.0.0.0.0.0.0.0.0.0.0.",
"0.0.0.0.0.0.0.0.0.0.0.0.0.0.0.0.0.0.0.0.O O o 0 V V v 6 1 1 i v v v b c v v v v v v v v i 1 1 1 9 e e : O O O 0.0.0.0.0.0.0.0.0.0.0.0.0.0.0.0.0.0.0.0.",
"0.0.0.0.0.0.0.0.0.0.0.0.0.0.0.0.0.0.0.0.O O o 0 V V v 6 1 1 i v c v c v v v v v v v v n y 1 1 5 9 q q : o O O 0.0.0.0.0.0.0.0.0.0.0.0.0.0.0.0.0.0.0.0.",
"0.0.0.0.0.0.0.0.0.0.0.0.0.0.0.0.0.0.0.0.O O o 0 F m n 6 1 1 i n b v v v v v v v v v v v i 1 1 1 9 q w : o O O 0.0.0.0.0.0.0.0.0.0.0.0.0.0.0.0.0.0.0.0.",
"0.0.0.0.0.0.0.0.0.0.0.0.0.0.0.0.0.0.0.0.0.0.0.; : : , 7 7 7 p v c c v v v v c v v v v v s 7 7 7 * & & % 0.0.0.0.0.0.0.0.0.0.0.0.0.0.0.0.0.0.0.0.0.0.0.",
"0.0.0.0.0.0.0.0.0.0.0.0.0.0.0.0.0.0.0.0.0.0.0.o X X # 7 q q s n v v v v v v v v v v v v s q q 8 # o o o 0.0.0.0.0.0.0.0.0.0.0.0.0.0.0.0.0.0.0.0.0.0.0.",
"0.0.0.0.0.0.0.0.0.0.0.0.0.0.0.0.0.0.0.0.0.0.0.O O O # 7 e q s n v v v v n v n v n v v v s q q 9 # o O O 0.0.0.0.0.0.0.0.0.0.0.0.0.0.0.0.0.0.0.0.0.0.0.",
"0.0.0.0.0.0.0.0.0.0.0.0.0.0.0.0.0.0.0.0.0.0.0.0.O o # 5 5 5 q s a p s p p p p p p p p s q 5 6 1 # o O 0.0.0.0.0.0.0.0.0.0.0.0.0.0.0.0.0.0.0.0.0.0.0.0.",
"0.0.0.0.0.0.0.0.0.0.0.0.0.0.0.0.0.0.0.0.0.0.0.0.0.0.0.+ + + + + + + + + O + + + + + + + + O + O 0.0.0.0.0.0.0.0.0.0.0.0.0.0.0.0.0.0.0.0.0.0.0.0.0.0.0.",
"0.0.0.0.0.0.0.0.0.0.0.0.0.0.0.0.0.0.0.0.0.0.0.0.0.0.0.o o o o O O o O o O o o o o O o O O o O o 0.0.0.0.0.0.0.0.0.0.0.0.0.0.0.0.0.0.0.0.0.0.0.0.0.0.0.",
"0.0.0.0.0.0.0.0.0.0.0.0.0.0.0.0.0.0.0.0.0.0.0.0.0.0.0.O O O O O O O O O O O O o O O O O O O O O 0.0.0.0.0.0.0.0.0.0.0.0.0.0.0.0.0.0.0.0.0.0.0.0.0.0.0.",
"0.0.0.0.0.0.0.0.0.0.0.0.0.0.0.0.0.0.0.0.0.0.0.0.0.0.0.0.0.0.0.0.0.0.0.0.0.0.0.0.0.0.0.0.0.0.0.0.0.0.0.0.0.0.0.0.0.0.0.0.0.0.0.0.0.0.0.0.0.0.0.0.0.0.0.",
"0.0.0.0.0.0.0.0.0.0.0.0.0.0.0.0.0.0.0.0.0.0.0.0.0.0.0.0.0.0.0.0.0.0.0.0.0.0.0.0.0.0.0.0.0.0.0.0.0.0.0.0.0.0.0.0.0.0.0.0.0.0.0.0.0.0.0.0.0.0.0.0.0.0.0.",
"0.0.0.0.0.0.0.0.0.0.0.0.0.0.0.0.0.0.0.0.0.0.0.0.0.0.0.0.0.0.0.0.0.0.0.0.0.0.0.0.0.0.0.0.0.0.0.0.0.0.0.0.0.0.0.0.0.0.0.0.0.0.0.0.0.0.0.0.0.0.0.0.0.0.0.",
"0.0.0.0.0.0.0.0.0.0.0.0.0.0.0.0.0.0.0.0.0.0.0.0.0.0.0.0.0.0.0.0.0.0.0.0.0.0.0.0.0.0.0.0.0.0.0.0.0.0.0.0.0.0.0.0.0.0.0.0.0.0.0.0.0.0.0.0.0.0.0.0.0.0.0.",
"0.0.0.0.0.0.0.0.0.0.0.0.0.0.0.0.0.0.0.0.0.0.0.0.0.0.0.0.0.0.0.0.0.0.0.0.0.0.0.0.0.0.0.0.0.0.0.0.0.0.0.0.0.0.0.0.0.0.0.0.0.0.0.0.0.0.0.0.0.0.0.0.0.0.0.",
"0.0.0.0.0.0.0.0.0.0.0.0.0.0.0.0.0.0.0.0.0.0.0.0.0.0.0.0.0.0.0.0.0.0.0.0.0.0.0.0.0.0.0.0.0.0.0.0.0.0.0.0.0.0.0.0.0.0.0.0.0.0.0.0.0.0.0.0.0.0.0.0.0.0.0.",
"0.0.0.0.0.0.0.0.0.0.0.0.0.0.0.0.0.0.0.0.0.0.0.0.0.0.0.0.0.0.0.0.0.0.0.0.0.0.0.0.0.0.0.0.0.0.0.0.0.0.0.0.0.0.0.0.0.0.0.0.0.0.0.0.0.0.0.0.0.0.0.0.0.0.0.",
"0.0.0.0.0.0.0.0.0.0.0.0.0.0.0.0.0.0.0.0.0.0.0.0.0.0.0.0.0.0.0.0.0.0.0.0.0.0.0.0.0.0.0.0.0.0.0.0.0.0.0.0.0.0.0.0.0.0.0.0.0.0.0.0.0.0.0.0.0.0.0.0.0.0.0.",
"0.0.0.0.0.0.0.0.0.0.0.0.0.0.0.0.0.0.0.0.0.0.0.0.0.0.0.0.0.0.0.0.0.0.0.0.0.0.0.0.0.0.0.0.0.0.0.0.0.0.0.0.0.0.0.0.0.0.0.0.0.0.0.0.0.0.0.0.0.0.0.0.0.0.0.",
"0.0.0.0.0.0.0.0.0.0.0.0.0.0.0.0.0.0.0.0.0.0.0.0.0.0.0.0.0.0.0.0.0.0.0.0.0.0.0.0.0.0.0.0.0.0.0.0.0.0.0.0.0.0.0.0.0.0.0.0.0.0.0.0.0.0.0.0.0.0.0.0.0.0.0.",
"0.0.0.0.0.0.0.0.0.0.0.0.0.0.0.0.0.0.0.0.0.0.0.0.0.0.0.0.0.0.0.0.0.0.0.0.0.0.0.0.0.0.0.0.0.0.0.0.0.0.0.0.0.0.0.0.0.0.0.0.0.0.0.0.0.0.0.0.0.0.0.0.0.0.0.",
"0.0.0.0.0.0.0.0.0.0.0.0.0.0.0.0.0.0.0.0.0.0.0.0.0.0.0.0.0.0.0.0.0.0.0.0.0.0.0.0.0.0.0.0.0.0.0.0.0.0.0.0.0.0.0.0.0.0.0.0.0.0.0.0.0.0.0.0.0.0.0.0.0.0.0.",
"0.0.0.0.0.0.0.0.0.0.0.0.0.0.0.0.0.0.0.0.0.0.0.0.0.0.0.0.0.0.0.0.0.0.0.0.0.0.0.0.0.0.0.0.0.0.0.0.0.0.0.0.0.0.0.0.0.0.0.0.0.0.0.0.0.0.0.0.0.0.0.0.0.0.0.",
"0.0.0.0.0.0.0.0.0.0.0.0.0.0.0.0.0.0.0.0.0.0.0.0.0.0.0.0.0.0.0.0.0.0.0.0.0.0.0.0.0.0.0.0.0.0.0.0.0.0.0.0.0.0.0.0.0.0.0.0.0.0.0.0.0.0.0.0.0.0.0.0.0.0.0.",
"0.0.0.0.0.0.0.0.0.0.0.0.0.0.0.0.0.0.0.0.0.0.0.0.0.0.0.0.0.0.0.0.0.0.0.0.0.0.0.0.0.0.0.0.0.0.0.0.0.0.0.0.0.0.0.0.0.0.0.0.0.0.0.0.0.0.0.0.0.0.0.0.0.0.0."
};
