/* XPM */
static char *result[] = {
/* columns rows colors chars-per-pixel */
"75 75 226 2 ",
"   c #3E1E22",
".  c #3F2123",
"X  c #402224",
"o  c #47272B",
"O  c #48282B",
"+  c #4A3324",
"@  c #483E24",
"#  c #523D26",
"$  c #4E2E33",
"%  c #502E36",
"&  c #453631",
"*  c #4F3135",
"=  c #513136",
"-  c #563A37",
";  c #553239",
":  c #5C373D",
">  c #5D393D",
",  c #60393F",
"<  c #3C7D1F",
"1  c #3D7E20",
"2  c #476F17",
"3  c #476E18",
"4  c #496E19",
"5  c #4C721B",
"6  c #477919",
"7  c #56761D",
"8  c #537B1F",
"9  c #534026",
"0  c #5F4A2F",
"q  c #52512C",
"w  c #5A5F2B",
"e  c #5B4331",
"r  c #5F4930",
"t  c #604A2F",
"y  c #63542B",
"u  c #695D2B",
"i  c #68473B",
"p  c #675437",
"a  c #536F23",
"s  c #537225",
"d  c #5D7422",
"f  c #567D21",
"g  c #5B7C21",
"h  c #636729",
"j  c #68602A",
"k  c #656C29",
"l  c #627427",
"z  c #706F36",
"x  c #5F3A40",
"c  c #643E43",
"v  c #683F46",
"b  c #693F48",
"n  c #664344",
"m  c #694047",
"M  c #644840",
"N  c #6A4148",
"B  c #734B47",
"V  c #71464A",
"C  c #754949",
"Z  c #685540",
"A  c #7F554C",
"S  c #7B5554",
"D  c #81534E",
"F  c #8A5A4E",
"G  c #915F48",
"H  c #855650",
"J  c #875850",
"K  c #946344",
"L  c #97694A",
"P  c #956253",
"I  c #9A6655",
"U  c #976B52",
"Y  c #946B55",
"T  c #9D6955",
"R  c #9F6D59",
"E  c #A16B4D",
"W  c #A26D56",
"Q  c #A06E59",
"!  c #A47057",
"~  c #A67359",
"^  c #B77C53",
"/  c #906E63",
"(  c #399606",
")  c #37930C",
"_  c #3A950C",
"`  c #3D9A0C",
"'  c #2D8514",
"]  c #2E861C",
"[  c #2F881C",
"{  c #338B15",
"}  c #398A13",
"|  c #31861D",
" . c #348B1C",
".. c #398E1C",
"X. c #369312",
"o. c #3B9514",
"O. c #379812",
"+. c #3E9A14",
"@. c #36911C",
"#. c #3B941C",
"$. c #3E9A1C",
"%. c #2F8621",
"&. c #328623",
"*. c #358B23",
"=. c #398D23",
"-. c #338629",
";. c #378B2A",
":. c #379023",
">. c #3C9323",
",. c #3F9922",
"<. c #3D9329",
"1. c #429D0D",
"2. c #468C15",
"3. c #468C1A",
"4. c #488819",
"5. c #50891C",
"6. c #479517",
"7. c #429D14",
"8. c #4C931A",
"9. c #439D1C",
"0. c #4A9D1B",
"q. c #52961C",
"w. c #539B1D",
"e. c #44A20E",
"r. c #48A30D",
"t. c #4DA80F",
"y. c #50AA0F",
"u. c #45A214",
"i. c #49A515",
"p. c #47A812",
"a. c #4DAA15",
"s. c #45A11A",
"d. c #4AA41B",
"f. c #4DAB1A",
"g. c #52AD14",
"h. c #55A31B",
"j. c #51AD1C",
"k. c #54B115",
"l. c #5BB614",
"z. c #55B21C",
"x. c #59B51D",
"c. c #5CB91D",
"v. c #61BC1E",
"b. c #4B8321",
"n. c #568221",
"m. c #5E8526",
"M. c #558D22",
"N. c #588E22",
"B. c #419625",
"V. c #439C22",
"C. c #449A2A",
"Z. c #459D2A",
"A. c #569723",
"S. c #608127",
"D. c #70962E",
"F. c #46A122",
"G. c #4BA423",
"H. c #4EAA22",
"J. c #47A128",
"K. c #4BA32B",
"L. c #4FA92B",
"P. c #5CA625",
"I. c #52AD23",
"U. c #52AB2B",
"Y. c #56B322",
"T. c #5AB523",
"R. c #5DBA23",
"E. c #56B12B",
"W. c #5AB42B",
"Q. c #5EBB2A",
"!. c #4FA432",
"~. c #52AA31",
"^. c #5BB433",
"/. c #5EB933",
"(. c #64AB28",
"). c #62BE25",
"_. c #66B629",
"`. c #62BE2B",
"'. c #62BD33",
"]. c #65BB37",
"[. c #67C41E",
"{. c #64C225",
"}. c #6AC827",
"|. c #65C32B",
" X c #69C52C",
".X c #6CC92C",
"XX c #70C92C",
"oX c #66C333",
"OX c #6AC633",
"+X c #6CC932",
"@X c #6BC53A",
"#X c #6CC83A",
"$X c #70C934",
"%X c #82992F",
"&X c #879B3E",
"*X c #8FAD3A",
"=X c #AF9746",
"-X c #B69C46",
";X c #B28251",
":X c #BE8154",
">X c #9BB045",
",X c #B48C6D",
"<X c #AF8A70",
"1X c #BA9977",
"2X c #BB9D7D",
"3X c #BEA17E",
"4X c #CC964E",
"5X c #C18453",
"6X c #C58B53",
"7X c #CD8C51",
"8X c #CE9152",
"9X c #D49355",
"0X c #D99553",
"qX c #DC9B57",
"wX c #D49C5F",
"eX c #E09C57",
"rX c #E3A258",
"tX c #EBAD5E",
"yX c #DFA960",
"uX c #E9AF63",
"iX c #F2B764",
"pX c #F2B865",
"aX c #F6BE6A",
"sX c #FFC467",
"dX c #FFC768",
"fX c #BEA685",
/* pixels */
"f.d.0.9.o.s.OX+Xf.u.u.u.7.{ ' ..$.H. X`.u.u.p.u.$.#.<.:.| V.G.d.0.i.{. Xx.f.d.d.0.o.o.W.+XQ.7.u.u.u.o.} @.#.+./.OXz.u.u.p.s.$.,.:. .#.F.F.s.u.Y. X{.f.",
"|.s.o.$.9.V.d.f.u.u.z.).v.a.d.#. .$.I.d.u.u.Y.oXL.:.*.,.V.@...@.d.u.f.g.R.|.T.o.7.9.0.F.d.a.u.i.).{.z.i.,.@. .H.f.d.u.f.{.Q.,.*.>.$.#.@.@.9.d.i.g.z.`.",
" Xu._ 7.d.0.9.9.u.i.x.XX{.k.j...[ @.s.s.s.u.Q.+X~.&.:.$.s.o.{ @.s.d.u.u.Q..XT._ o.d.0.9.s.u.u.y.}..Xl.j.s.@.%.J.d.s.s.j.+X#X:.%.#.s.+.{ { 0.s.d.i.f. X",
"|.u.( d.T.j.s.d.7.7.g.x.x.v.W.>.] :.F.7.7.+.j.W.J.&.:.I.z.d.o.9.d.9.7.1.R. XT.` _ Y.Y.d.d.9.7.7.z.x.c.R.L.%.%.F.d.u.+.u.Y.E.:.%.F.W.z.6.#.9.s.7.+.i. X",
"|.1.( j.+X`.s.s.+.o.+.u.a.oX@XB.[ @.s.u._ _ 7.s.,.%.@.oX.Xj.u.u.u.7._ ( T.+Xx.( (  X+XI.7.9.o.O.0.u.W.#X^.[ %.$.9.` _ _ s.V.%.*.U..X{.u.7.u.u.` ) 7.OX",
"`.7._ d.'.W.9.0.+.O.+.s.f. X@XV. .#.s.s._ _ 9.V.,.@.O.|.}.g.e.r.t.r.` ` z.|.j._ 7.W.'.H.s.7.+.O.u.u.R.oXW.{ @.s.u.7._ 7.s.V.:.@.Y..X[.u.u.i.a.e.` u.`.",
"d.7.6.@.| ..9.d.s.d.s.s.f.|.oXH.$.s.d.i.u.7.s.d.F.V.f.|.}.k.e.g..X{.k.g.i.u.7.7.#.| ..#.0.s.s.s.s.u.T.+XQ.F.V.s.d.u.u.u.s.9.F.$.T..Xv.r.u.)..XR.j.a.u.",
"d.#.>.;.&...9.s.7.7.u.s.f.|.oXf.s.s.d.i.u.u.i.d.d.u.f.|..Xk.1.k..X{.k.z.i.s.0.#.<.*.| #.s.s.e.u.u.u.W.+XQ.s.s.s.i.u.u.u.9.s.u.u.T. X`.u.i.)..XR.g.j.u.",
"0.....=.,.F.f.a.R.).Y.s.s.f.H.s.s.s.u.f.Q.Q.f.u.I.`.Q.9.9.d.u.i.a.g.|.{.g.7.6.| =.B.B.d.a.z.{.Q.p.$.f.f.f.s.s.s.u.z.`.R.u.u.R.'.H.#.9.s.u.j.f.T.|.Q.u.",
"0.=.&.>.F.i.f.y.{.+XT.u.s.s.s.s.u.u.e.p.+X.Xa.e.z.$X].{ ' #.d.s.u.a. XOXj.7.#.*.=.V.0.f.a.z.+XoXF.s.s.s.s.$.u.s.7.R.+X).u.e. X#XG.' | G.d.s.0.T.OX|.u.",
"6.*.&.B.s.i.T.c.c.T.j.s.s.s.u.f.x.a.u.p.T.z.x.z.x.R.W.H.K.B.#.$.7.u.|.+Xg.7.>.&.*.V.u.g.c.c.R.Y.p.s.s.s.d.Y.z.p.u.j.R.x.x.z.T.T.U.G.F.,.>.9.7.Y.+X`.` ",
"@.*.&.#.9.a. X.Xa.p.u.s.s.s.p.{..Xc.e.p.u.e.).+XR.u.d.OX@X0. .@.} 7. X+Xi._ ..&.*.0.u.R..Xc.p.u.s.F.s.u.j..X.Xt.e.u.7.g.OXOXg.7.T.#X^. .| ..o.I.+X`.( ",
"#.....#.u.a.|.}.a.p.s.$.,.s.u.Y.{.c.p.a.u.s.W.'.W.d.g. X X0. . .@.+.Q.|.d.o.6.*...9.r.R.}.).p.s.s.F.F.u.f.|.{.g.p.p.u.f.'.'.H.7.c..XW.[ | ..o.f.|.R._ ",
"o.} o.6.u.a.|..Xf.s.,.[ [ $.O.p.p.z.}.{.i.0.6.| =.V.i. X.XI.9.,.o.o.o.` ) ) } o.o.0.u.c..XR.u.s.[ [ @.@.+.i.r.{.}.z.u.$.....V.s.x..X{.s.V.$.@.o.o._ _ ",
"2._ o.7.u.a.|.+Xf.p.$.[ @.:.,.$.u.z.}.{.i.V.=.*.>.0.d..X.Xf.s.V.@.@.@.o.) _ _ _ 1.7.r.).+XQ.u.s.@.| :.,.6.s.r.{.XXz.9.,.*.*.V.s.T..X).s.0.#.#.o.o._ _ ",
"R.g.i.r.p.p.j.H.p.s.L./.~.:.@.$.p.p.a.f.@...>.<.#.s.u.a.j.u.+.#.*...o.O.I.Q.x.p.0.r.1.h.j.f.u.d.W.^.Z. .#.u.i.a.f.9.@.:.>.>.$.u.a.f.a.7.9.=.| ..o.7._.",
".Xl.g.y.r.u.u.0.s.u.Y.#X'.;.-.,.s.e.e.$.{ [ $.O.7.e.e.p.u.+.O.@.| *.#.o.R.+X{.k.g.r.r.u.s.s.u.i.oX@XZ.&.*.0.u.u.u.O.[  .$.+.$.p.u.u.u.O.$...&...o.s.OX",
").k.y.g.k.g.d.s.+.O.p.E.L.;.;.,.s.p.z.Y.$.$.D.D.%X%XD.d.i.f.j.F.>.<.=...H.R.x.g.g.k.z.d.9.3.3.5.*X>X&XD.D.V.u.j.T.s.o.9.H.j.7.+.u.p.u.f.H.,.>.=...9.Y.",
"r.g.g.v..X`.u.9.O.O.O.O.@.:.%.,.F.Y..X|.g.g.-XqX0X0X4Xh.p.Q.+X_.F.Z.;.&.,.u.t.g.l. X+Xz.2.3 5 5 7X0X0XeX=XZ.d. X.XT.a.Y.+XoX7.) +.u.f. X.Xf.Z.<.&.*.0.",
"r.g.k._.}.`.d.u.O.O.O.s.$.@.@.,.s.H.|.{.(.P.-XeXqXqX4XA.q._.'.T.9.B.&.&.=.9.0.d.h._._.P.4.a a d 7XeXeXeX-XA.A._.|.T.j.c.{.{.7.O.+.7.f.|.|.d.s.<.-.*.0.",
"r.v.}.x.i.d.u.d.p.O.Y.+X|.f.H.s.u.u.i.w.L U yXsXsXsXiX! U Y z 5 4 5 4 4 4 4 5 5 5 5 5 4 z T U W iXaXsXsXyXU Y 0.p.R.+X).p.s.s.s.+.` ` p.p.s.$.,.-...9.",
"r.).XXR.0.d.G.G.s.u.Y.+X|.k.k.p.u.u.u.0.U T yXsXsXsXiXT T R A M i M M M M M n M i i M M A T T Q iXsXsXsXyXT U A.u.T.+XQ.s.s.s.s.+.) O.u.e.e.u.@.] ..u.",
"r.[.XXT.s.V...>.$.+.p.H.j.R.R.p.u.3.6 f U T 9XrXrXrXqXT T T C ; x * x % * ; x ; ; ; ; ; C I T Q qXeXrXrX9XR P f 6 I.+XQ.` O.s.F.$.u.7.u.u.T.R.Y.$.$.u.",
"u.`.+XT.s.0.| | @.$.$.s.p..X.Xf.u.3.3 d ;X:XrXuXtXtXtXwXwXwX6X;X~ ;X;X;X;X;X^ ;X;X;X;X;X6XwXwXwXtXtXtXtXqX:X;Xd 4 P.+XQ._ O.$.F.d.s.i.u.r.|.+XY.u.i.f.",
"7.U.U.I.d.d.K.K.>...$.u.a.|..Xf.u.3.2 g 0X0XiXsXsXsXsXsXsXsXsXdXdXdXdXdXdXdXdXdXsXdXdXdXsXsXsXsXsXsXdXdXiX0X8Xl 3 A.T.I.o.6.$.9.9.#.9.u.u.T.R.z.l.j.u.",
"$.| | 0.j.z.OX@X<. .@.s.p.}.}.f.$.3.2 d 8X0XiXsXsXsXsXsXsXsXsXsXsXsXsXsXsXsXsXsXsXsXsXsXsXsXsXsXsXsXdXdXiX0X8X7 3 } _ _ u.u.o.$.=.| *.0.s.u.p.x.}.c.` ",
">... .9.j.x.{.'.<.%.>.9.p.{.|.f.V.b.4 k 6X7XuXaXsXsXsXiXiXiXiXiXpXpXpXiXiXiXpXiXiXiXiXiXpXiXpXpXaXaXdXaXtX8X6Xk 4 6 } 1.a.d.o.>.=.-.=.,.#.$.u.x..XR.O.",
"*.<.9.Y. X).` $.&.-..._ ( p.p.@.s p n B T W Q ,XfX3X3X! ! ! ! W ! ! ! ! ! ! ! ! ~ W W W ~ Q ! ~ fXfXwX,X! E T V v p 8 g. XoX@.| <.C.C.&.[ $.O.z. XQ...",
"*.<.9.x..X)._ @.*.| { o.( e.u.@.s p b V I I T <XfXfX1XR I I T T T T T I T T T T I I W W I I I Q fXfXfX~ W I I V b p 7 g.}.oX#.&.,.F.,.*.%.,.$.Y.+X/.*.",
"&.9.u.z..X|.7.9.@...X._ ` R.Q.F.s p m V T T R <XfXfXfXQ T T T T T T T I T T T T Q T I I W Q I T fXfXfX<XE W I V b p n.g.z.I.=.&.!./.E.,.>.;. .,.U.G.*.",
"] $.s.x..X|.i.d._ ) ) ( 1.+XOXH.d t x c A H A J / / / S H S D D H D A H H A A H D D D D D D S S / / / / D D D , , t m.p.i.9.=.&.~.#XQ.s.V.*.-.:.s.$.[ ",
"0.9.7.j.R.T.f.i.g.a.1.1.r.T.R.h.d r $ ; b b b b c c c m b b v v b b b b b b b b b b b b b b b b b c b c b b v ; % t d h.u.V.-.&.K.Q.T.z.U.;.-.>.F.s.s.",
"@Xf.1.u.7.p.j.g.{..Xc.a.g.u.u.N.k 0 % ; , , v V C C C N m m c c c x x c x c c c x n x c n m N N C C C V v , , = = t k N.u.F.*.%.:.s.a.oX#X<.*.>.s.f.oX",
"|.a.e.7.u.e.j.g.{. Xc.a.h.d.u.N.k 0 % % X X : H R T P N m N - & & & & & & & q . & & & & - m N N P T R H ,     $ % t k N.s.F.*.*.#.s.a.+XoX,.*.<.V.H.'.",
"u.1._ 1.0.p. X{.k.a.p.s.i.7.7.N.k 0 % % X   : H T R P V m N > * * * * * $ $ * * $ * * * x m m N P R T H :   X $ = t k N.u.u.9.V.F.d.f..XoXH.,.<.*.>.K.",
"7.` _ 7.0.a. X}.a.u.s.s.s.s.G.N.k 0 % % X   : H T T P N m N : $ % ; $ ; x $ & x ; $ ; * x m m N P T T J , . X $ = t k q.7.7.s.F.F.d.L.+X+Xf.J.<.-.;.Z.",
"f.0.9.9.7.u. X}.f.s.s.s.9.@.o.M.l t = $ X   : D T T P N m m : $ * $ $ * . * $ $ $ $ $ % : v m N P T I H :     $ = 0 l M.u.s.u.$.>.@.$.I.j.a.d.<.-.;.Z.",
"I.0.s.9.o.u. XOXj.u.u.+.$.{ ' 3.d t % - i i G ^ ^ :X^ W E E L K K K K K P G K G K K K K L E E E ^ :X^ ^ G i i ; = 0 k M.u.u.$.$. .[ @.s.s.u.s.>.*.-.Z.",
"E.d.9.9.7.9.W.`.f.u.f.j.f.+.$.@.s 0 $ > I T 7X0X0X0X0X0X0X0X0X0X9X0X0X0X0X0XqX9X0X0X0X0X0X0X0X0X9X0X0X0X7XQ P > * r d A.z.I.$.:.:.#.@.B.9.7.d.9.@.B.I.",
"OXu._ 7.V.d.7.7.u.u.x..X{.g.I.#.a 0 $ > I T 5X0X0X0X0X0X0X0X0X0X0X0XqX0X0X0X0X9X0X0X0X0X0X0X0X0X9X0X0X0X6XT P , * r n.f..X+X:.%.>.V.6.{ { 9.s.s.9.f.OX",
" Xu._ 7.d.d.9.d.u.u.z.}.).l.j.@.a 0 * - P I 5X9X9X9X9X9X9X8X7X7X7X7X7X7X7X7X7X7X7X7X7X7X7X9X9X9X9X9X9X9X5XI P - $ r g f.|.'.:.*.#.d.u.{ { V.0.s.u.a.|.",
"}.u.( d.OX`.u.0.+.+.7.a.g.|.oX<.a t * - N V P ,XfX3X1X~ W W F C C C B B C B C C C B C B F W W W 2X3X3X,XP V N - = r 7 O.f.F.;.%.L.OX).u.V...| #.s.f.+X",
" X7.( j.OXoXd.0.+.o.O.p.i.oX@X$.b.k 0 0 O O , A S S S C C C c ; = O O O o o o o O O % ; c C C C S S S A , O O 0 y k b.` s.V.*.| I..X[.u.0.*.*.,.s.H.+X",
"j.7.o.9.Z.V.V.0.$.$.s.s.a.|. XF.M.l j y X   : b b b b m b b > = $ . .   . .   .     $ % x m m m m m v v ,   . y u l M.u.0.0.,.$.T.}.v.r.V.;.-.>.F.d.H.",
"9.$.6.=.| ..V.s.s.s.s.u.p.|.oXf.0.m.l l 9 # - , m m m x > x ; = O X . . X . . X . . O - ; , > , m m m c = # 9 h k n.0.u.0.9.9.u.R.XX).u.s.*.&.,.9.s.0.",
"s.>.=.=.*.#.d.d.f.f.p.s.f.R.Q.f.u.w.S.S.j j + ; m m m ; = = = = $ X . . . . . . . . $ = % = = = v m v ; + u j m.S.w.j.f.s.s.f.f.I.T.E.0.0.Z.B.V.d.F.,.",
"9...| B.Z.d.j.f.|.+XY.u.s.s.u.s.u.q.S.S.j u + % m m v = = = = = $ . . X . . . . . . $ = = = = = v N N ; + u h l m._.+X).u.i.`.#XK.' ..V.s.'.#XR.I.G. .",
"0.=.&.>.s.u.g.g.{.oXY.u.s.s.s.u.i.q.S.S.j u + ; m v c ; * = = $ O X . . X . . X . . O = = = = = c v v ; # j j S.m.(..XR.p.i.`.OXH.{ =.V.G.`. Xc.z.H.[ ",
"@.*.&.>.9.p. X{.k.a.p.s.s.u.u.R.}.(.m.m.S.S.j e ; ; ; = $ = O X X . . . . . . . . X X X O = * = ; ; ; e h S.S.g f 8.i.j.{.|.j.i.Y.].^.=...d.a.z. X^.*.",
"o.=.| 3.0.g. X Xa.p.s.s.s.s.e.{..X(.m.m.m.m.k e % % = % = = O . . . . . . . . . X .   . O = = = % % % e k m.m.n.f 8.u.f.+X@Xj.u.R.OX_.{ | 9.0.R. X_.{ ",
"o.....6.u.p.}..Xa.i.$.#.#.$.+.a.l.h.S.S.S.m.k - $ = % = * * o .   . . . . . . . .   .   o * = * % $ % e k S.m.g 8 8.u.0.K.Z.V.u.x.XX`.6.B.=...I.+XQ.+.",
"_ o.o.+.u.f.}..Xf.d.#.[ [ #.$.u.r.8.n.8 N.m.l a q q q e e e - = $         .         O % - e e e q q q w l n.m.A.P.w.7.9.| | V.u.R..X`.0.Z.=.| U.#X|.i.",
"u.1.6.1.t.g.`.Q.f.s.0.V.,.<...0.u.2.4 2 8 8 f f 8 8 8 k k k j Z r 9 @ @ @ @ @ @ @ @ p Z p l k k 8 8 8 n.n.5.8.c.{.d.$.,.=.=.V.s.z.).v.7.B.;.-.K.oXT.p.",
".Xz.y.r.r.6.s.s.u.u.Y.@X].*.&.,.u.6.5 6 < 3 5 6 n.8 n.S.S.S.S.m.m.m.m.m.m.m.m.m.m.m.m.m.m.m.m.m.8 8 8 8 6 s.e.e.u.o.{ | 6.#.9.u.0.r.6.7.B.*.| <.f.u.s.",
" Xz.k.y.r.r.d.s.s.+.I.OX].=.&.B.u.u.u.s.| |  .4.8 8 8 m.S.S.S.m.m.m.m.m.m.m.m.m.m.m.m.m.m.m.m.m.g 8 8 5 6 F.u.p.p.@.{ ..7.7.7.7.7.i.0.7.6.X.} 6.s.s.s.",
"a.g.k.v.{._.u.9.O.O.O.9.,.-.-.B.9.j. X`.G.d.E.A.2 5 5 5 6 5 6 8 5 5 5 5 5 f f f f 5 f f 8 5 5 5 5 5 5 5 6 F.s.Q.|.T.d.I.`.`.7._ 7.7.g.).{.h.f.d.s.$.@.",
"1.y.y.v. X|.d.9.O.O.O.O.@.[ | B.0.Y.XX Xg.g.).A.3 3 3 3 5 2 2 3 3 3 2 5 3 5 f 8 7 3 5 8 5 4 3 3 3 3 3 2 6 V.d.|..XT.f.x. X+X+._ 7.7.g.[.[.v.g.i.s.V.[ ",
"1.v.v._.T.Y.s.s.7.O.p.E.W.s.V.s.u.d.z.Y.R.`.T.d.2.3.3.2.} 2.2.2.4.B.1 < 4.2.q.(.(.8.8.8.8.5.3.6.P.P.A.8.0.s.s.f.z.c.).).z.T.s.$.6.1.1.v.l.v.).H.#.:.,.",
"r.v.XXx.0.d.s.d.s.u.Y.+X Xg.j.u.u.u.u.p.oXOXj.u.s.s.9.O._ 1.u.e.9.9.*.| $.r.y.}. Xy.d.d.d.d.u.p.oX+XT.k.f.u.u.u.u.T..XQ.u.d.d.s.7._ 1.a.y.[.$XL.%.:.J.",
"r.}.XXR.0.G.V.V.$.u.f.|.).x.k.a.u.d.+.i.|.+Xf.s.s.F.s.` _ u.u.p.f.d.@.@.+.r.l.}. Xj.d.Z.V.9.$.u.Q.Q.c.z.k.7.u.7.7.T.+XQ.7.9.F.s.7.( 1.a.y.v._.K.&.*.V.",
"t.`.XXR.s.9.| ..$.+.$.p.j. X.Xa.u.+.) e. XOXu._ $.V.s.s.u.i.u.z..X|.f.s.s.u.z..X Xa.0.@.| @.$.+.u.u.R.oXR.u.s.O.) T.+X_._ ) 0.V.s.u.u.e.u.p.d.,.%.;.,.",
"0._.@XY.s.9...=.:.#.$.s.d. X Xf.u.$.o.+.oXOXu._ o.0.F.0.s.i.u.f.|.|.p.u.i.u.H.oX'.d.0.@.@.:.#.#.s.p.Q..XR.u.u.O.) Y.OXR.` _ 9.0.F.s.s.u.u.p.d.#.[ @.J.",
"#.,.>.V.H.Y.'./.,. .,.s.f.}.}.f.u.O._ o.7.7.7.7.o.$.#... .$.s.p.f.a.{.{.a.+.$.,.,.H.f.T.'.~.@.@.$.p.c..XR.u.u.o.) +.7.7.7.7.o.#.@. .@.s.u.R.|.T.f.F.$.",
"#. .| 6.f.z..X#X<.%.:.s.a.}. Xf.9.6.o.X.) _ 7.7.7.o.>.%.%.,.F.$.s.p.{.{.f.o...| { H.f.|.+X^.%.%.F.p.c..XQ.s.9.o.O.) _ o.u.s.o.#.*.*.:.J.d.|..Xc.k.k.e.",
":.>.$.d.`.x.j.H.=.-...+.1.k.z.$.@.#.$.O.+.` z.T.f. .=.<.<.=.>.#.O.p.{.+Xd.@.>.>.$.T.{.z.f.Z.-.&.$.1.y.x.f.#.:.$.O.O.+.i.x.T.#...=.<.<.<.#.L.x.c.{.c.e.",
"*.V.9.T.+X`._ ..*.*.{ X.( e.u.@.] :.,.+.u.e.R.+XU.] *.V.Z.=.%.*.$.7.|.OXJ.&.:.V.d.|..Xi.X.{ &.&.{ ( ` e.+.[ %.,.$.u.u.a.|.OX@.] >.Z.,.[ [ V.u.T..X|.i.",
"%.V.7.z..X).6.#.| | { _ ` p.f.$.*.:.,.#.f.u.c.Q.H.| *.K.H.,.*.;.>.,.Q./.<.%.:.9.i.{..Xf.o.#.| { X._ e.f.d.:.*.>.$.$.p.k.R.Q.>.&.B.I.G.*.=.B.V.E.+X`.$.",
"&.,.u.Y..X|.d.0.#.o.o._ e. X+XL.F.>.[ ..I.j.p.p.#.*.<.].@XH.9.,.%.*.F.s.#.%.>.0.i.|..Xz.9.9.o.o._ ( z.+XQ.F.,.*.[ $.Y.a.a.s.| *.~.@X`.0.Z.=.&.U.@X/.@.",
"{ 0.u.z.+X|.d.u.` _ ` ( e.oXoXf.F.,.%. .I.z.p.s.,.;.;.@XOXf.s.,.-.;.Z.s.@.{ @.9.i.|..Xz.u.7._ ` ( ( z.oXQ.s.F.:.[ F.I.a.i.$.:.-.~.@XQ.p.F.*.-.!.@X^. .",
"^.d.1.r.a.a.j.a.).{.z.t.a.f.f.Q.'.K.%.:./.oXf.s.<.-.%.G.a.c.oXU.-.;.Z.s.E.'.Y.e.1.a.i.g.j.z.).v.g.i.a.f.Y.Q./.:.%.L.oXQ.s.F.;.&.,.f.z.).'.>.-.B.G.H./.",
"+Xf.1.u.e.e.a.a.|..Xv.g.d.u.s.`.#XL.] @.oX+Xj.F.,.%.*.$.u.c.+XE.| *.V.9._.$X`.e.e.u.1.a.a.z..X Xk.g.f.u.j. XoX@.] L.#X{.u.F.*.%.:.s.a. XoX<.-.>.0.f.OX",
"z.e.` 1.u.a.c.c.l.T.g.d.d.u.s.Y.E.E.H.L.Y.Y.p.s.$.:.,.s.p.Q.+XE.$.B.F.s.z.T.g.( 1.7.u.z.).x.x.x.a.a.i.u.f.W.Y.L.H.Y.Y.z.s.$.#.>.$.s.f.|.|.9.>.9.s.d.z.",
"e.1.( 1.u.d..X.Xg.u.u.s.s.$.d.s.0.Y.#X Xp.7.u.u.s.s.F.F.d.Q.+XQ.d.G.0.u.u.1.1.( ` 7.7.R..XR.r.u.s.d.u.u.s.u.u.`.$Xx.7.7.u.u.9.F.F.s.H.oXoXf.s.s.u.u.1.",
"u.7._ 6.7.i.{.}.g.i.s.s.s.$.s.F.0.P.$X`.i.u.u.e.u.$.V.,.F.E.oXT.u.7.f.a.a.a.0.o.7.7.7.R.}.R.p.s.9.s.9.$.0.s.i. XXXx.u.7.u.u.u.$.V.V.G.|.Q.f.u.d.f.f.p.",
"I.s.s.9.o.i. X{.a.p.u.$.,.@.[ #._ j.+X|.u.u.u.f.s.+.$.[ [ $.u.u.u.a.{. Xz.I.f.0.9.o.` T..Xv.u.d.s.$.@.{ { 6.7.|.XXk.e.u.u.d.9.#.@.[ @.s.p.u.u.Y. X|.j."
};
