/* XPM */
static char *result[] = {
/* columns rows colors chars-per-pixel */
"75 75 229 2 ",
"   c #0D0106",
".  c #110106",
"X  c #14040A",
"o  c #130C08",
"O  c #18090B",
"+  c #15190B",
"@  c #17180B",
"#  c #1E0B16",
"$  c #210D0C",
"%  c #220F12",
"&  c #230D1C",
"*  c #251116",
"=  c #2B1515",
"-  c #25111C",
";  c #2A141D",
":  c #251F1C",
">  c #2D191B",
",  c #361D17",
"<  c #341C1E",
"1  c #1D230F",
"2  c #1A2811",
"3  c #1D3714",
"4  c #26231C",
"5  c #29251B",
"6  c #262919",
"7  c #2C2A1C",
"8  c #392014",
"9  c #36271F",
"0  c #3B211D",
"q  c #31321D",
"w  c #303C1A",
"e  c #2E1720",
"r  c #351C20",
"t  c #2F2D20",
"y  c #3C2221",
"u  c #312E20",
"i  c #43261F",
"p  c #46291F",
"a  c #4D2F1A",
"s  c #4F301A",
"d  c #53331B",
"f  c #59361D",
"g  c #5D3A1F",
"h  c #422622",
"j  c #452922",
"k  c #4A2C21",
"l  c #502F25",
"z  c #4E3020",
"x  c #523123",
"c  c #5A3721",
"v  c #5D3A22",
"b  c #5B3A28",
"n  c #613D22",
"m  c #673F29",
"M  c #1F4218",
"N  c #284B0D",
"B  c #264B18",
"V  c #344A1C",
"C  c #23541D",
"Z  c #2D5719",
"A  c #255C1E",
"S  c #355818",
"D  c #316F0C",
"F  c #3A7D0D",
"G  c #27621E",
"H  c #2A681C",
"J  c #2A6B1C",
"K  c #36691B",
"L  c #2D721C",
"P  c #2E7C1A",
"I  c #337316",
"U  c #387A18",
"Y  c #3D4B21",
"T  c #286620",
"R  c #2A6B21",
"E  c #316922",
"W  c #2D7422",
"Q  c #2F7A23",
"!  c #317720",
"~  c #307D23",
"^  c #457D1D",
"/  c #5B4029",
"(  c #654224",
")  c #684627",
"_  c #6C4429",
"`  c #6C4A29",
"'  c #714929",
"]  c #754A2C",
"[  c #784B2C",
"{  c #6E502E",
"}  c #75552C",
"|  c #78572B",
" . c #7D5C2E",
".. c #6D4A32",
"X. c #714D34",
"o. c #775535",
"O. c #815F2F",
"+. c #825E31",
"@. c #86652F",
"#. c #846432",
"$. c #8C6B30",
"%. c #886639",
"&. c #825F45",
"*. c #89664B",
"=. c #8A674E",
"-. c #916F42",
";. c #937143",
":. c #8A6750",
">. c #8D6A52",
",. c #916D55",
"<. c #997459",
"1. c #A17E5C",
"2. c #9F7B64",
"3. c #A17D66",
"4. c #A47F69",
"5. c #378B0E",
"6. c #399506",
"7. c #36940D",
"8. c #3A950D",
"9. c #3C990D",
"0. c #2E8614",
"q. c #2E861D",
"w. c #2F891C",
"e. c #318316",
"r. c #3C8716",
"t. c #338B15",
"y. c #32851C",
"u. c #348C1C",
"i. c #398D1C",
"p. c #369514",
"a. c #3B9514",
"s. c #379811",
"d. c #3C9A13",
"f. c #36911B",
"g. c #3B941C",
"h. c #3E9A1C",
"j. c #3FA013",
"k. c #2F8422",
"l. c #328523",
"z. c #358B23",
"x. c #398D23",
"c. c #328629",
"v. c #378A29",
"b. c #379023",
"n. c #3C9323",
"m. c #3F9922",
"M. c #3D9329",
"N. c #429C0D",
"B. c #438917",
"V. c #419514",
"C. c #439D14",
"Z. c #469918",
"A. c #439D1C",
"S. c #499E1B",
"D. c #44A20E",
"F. c #48A40D",
"G. c #4CAA0F",
"H. c #45A214",
"J. c #49A515",
"K. c #47A914",
"L. c #4DAA15",
"P. c #45A11A",
"I. c #4AA41B",
"U. c #4DAA1A",
"Y. c #51AD14",
"T. c #51AD1C",
"R. c #4FB01D",
"E. c #54B116",
"W. c #5BB715",
"Q. c #55B31C",
"!. c #5AB51D",
"~. c #5CBA1D",
"^. c #61BD1E",
"/. c #538F26",
"(. c #419625",
"). c #439C23",
"_. c #459B2A",
"`. c #449C29",
"'. c #46A122",
"]. c #4AA423",
"[. c #4EA922",
"{. c #47A128",
"}. c #4BA32A",
"|. c #4FAA2B",
" X c #57A526",
".X c #52AD23",
"XX c #52AB2B",
"oX c #56B322",
"OX c #5AB623",
"+X c #5DBA24",
"@X c #56B328",
"#X c #5AB52B",
"$X c #5EBB2A",
"%X c #4FA432",
"&X c #52AA32",
"*X c #5CB432",
"=X c #5EB932",
"-X c #62B826",
";X c #62BE24",
":X c #62BD2B",
">X c #62BC33",
",X c #63B936",
"<X c #67C41E",
"1X c #5FC029",
"2X c #64C225",
"3X c #68C727",
"4X c #6BC926",
"5X c #65C32B",
"6X c #69C52C",
"7X c #6CC92C",
"8X c #70C82D",
"9X c #66C332",
"0X c #6AC633",
"qX c #6CC933",
"wX c #6BC53A",
"eX c #6CC73A",
"rX c #71C935",
"tX c #A3805D",
"yX c #A6836B",
"uX c #A98668",
"iX c #A9856D",
"pX c #AD896F",
"aX c #B18D74",
"sX c #B38F79",
"dX c #B6937B",
"fX c #BA967E",
"gX c #BC987E",
"hX c #BA9680",
"jX c #BD9981",
/* pixels */
"U.I.S.A.a.A.0X0XU.H.H.H.C.t.e.f.g.[.6X:XP.H.K.H.h.h.n.z.u.).).I.I.J.2X7XQ.U.I.I.A.g.a.@XqX:XC.H.F.J.a.e.u.g.A.:X0XQ.H.H.K.P.h.m.b.u.g.).P.].P.!.3X2XY.",
"5XP.a.A.).P.U.U.H.H.Q.2X;XL.I.g.u.A.[.U.P.H.@X5X|.b.z.m.A.g.t.g.S.I.L.Y.+X5X@XC.C.A.S.I.I.L.J.J.;X;XQ.I.P.u.u.].[.I.H.L.1X1Xg.z.b.h.g.g.i.A.P.J.U.Q.:X",
"6XH.8.C.P.S.S.I.C.F.!.8X2XE.T.i.q.f.P.P.P.P.2XqXXXc.v.j.P.f.t.g.P.P.P.J.+X7XOX8.d.S.S.S.S.I.C.G.3X7XW.E.I.w.k.'.P.H.P.R.7XwXb.z.m.A.C.t.t.A.P.P.H.U.6X",
"5XH.6.I.OX.XA.P.C.C.Y.!.W.~.#Xn.l.f.P.C.d.9.U.#X{.c.z.@X!.J.f.C.I.S.C.9.+X7X~.9.9..XoXI.P.P.C.C.!.!.~.+X|.w.k.'.P.P.C.H.@X@Xz.z.'.oXT.C.h.S.S.C.C.I.6X",
"5XN.6.Y.qX:XP.S.d.a.d.H.L.9XwX(.w.b.P.P.7.6.C.I.m.w.f.9X7XY.P.C.C.N.8.D ^ /.^ D 6.6XqXT.C.S.a.d.C.H.@XeX*Xw.w.m.P.d.8.8.P.h.z.l.XXqX2XP.C.C.C.N.6.C.0X",
":XC.8.I.,X#XP.P.C.a.d.H.U.9X0X).u.g.P.P.8.8.Z.).m.u.a.5X3XE.F.D.L.F.N.6 & # & t V.*X,X[.S.C.a.a.P.P.+X0X#Xf.b.P.J.N.8.9.P.`.b.f.oX7X2XF.H.L.L.N.8.H.:X",
"P.A.g.x.u.i.A.P.S.P.P.P.U.5X0X[.A.P.H.H.P.P.S.I.'.P.I.3X4XE.D.E.3X-XI.q - e & t r.l.y.g.S.P.H.P.P.H.OX7X$X'.m.I.P.P.P.P.S.A.).P.oX4X;XF.H.;X7X+XY.U.J.",
"I.V.n.x.l.u.S.P.H.C.P.H.U.9X9XU.P.P.I.P.F.H.J.I.P.P.U.9XqXY.N.E. X7 4 ) o.{ o.) : : L h.P.P.H.P.H.H.@XqX$Xj.'.P.H.D.D.P.S.A.H.H.OX7X-XF.J.:X7X~.T.Y.J.",
"S.i.y.(.(.A.T.L.+X:XoXH.P.[.R.'.P.P.j.J.+X5XU.H..X9X-XA.A.S.H.L.B.& & ` #.#.#.` & & ~ [.L.Q.;X$XP.A.U.[.I.P.P.P.H.Q.2X#XH.H.+X>X}.V.A.I.J.U.U.OX5X+XJ.",
"S.x.l.x.).I.L.L.2XqX@XH.P.j.j.P.H.j.H.K.0X7XL.D.Q.rX,Xt.0.g.I.I.^ & - b _ ) ) b & - ^ U.L.Q.qX5XU.P.P.P.P.P.H.P.H.+XqX:XF.D.6XeX].0.u.).S.I.J.OXqX:XP.",
"V.x.l.(.I.J.~.~.~.+XU.P.P.P.P.R.~.R.D.K.OX!.Q.Q.!.+X#X[.}.).g.A.U - & a c c v k & * r.E.+X~.+XOXK.P.P.P.U.oXQ.J.H.T.OXOXQ.Q.OX#X.X}.{.g.m.A.h.@XqX:XN.",
"g.z.y.(.C.L.6X7XL.D.H.P.P.P.K.2X7X~.D.H.C.F.;XqX+XP.J.0XwX).L K Z & & h j k k y & * S /././.F U U U U I ^  X3XL.F.H.N.Y.qXqXY.N.OXeX=Xu.y.i.f.Q.qX;X6.",
"g.i.u.V.J.L.6X6XL.K.P.h.m.j.j.+X3X~.G.K.J.C.#X,X@XI.U.7X0X).B & & & & & # & & & & & & - # & & & & & & & & q -XY.L.J.H.I.>X,X[.P.+X7X#Xt.u.i.f..X5X#X8.",
"5.g.g.V.H.L.3X3XL.P.m.w.u.h.s.P.H.W.4X2XJ.Z.x.P x.B.S.-X-X).V & - - - e ; e e : ; : ; e ; e ; ; ; ; ; ; & 5 N.<X4XQ.P.h.g.u.).C.~.7X1XP.).g.a.a.h.8.8.",
"V.8.a.V.H.L.7X7XR.H.h.u.z.n.h.j.H.Q.4X2XZ.q : : : : 4 7 t t y r h m m ] o.} o.| o.} } } o.o.} ) m c x y & 7 N.3X4XQ.H.m.z.z.).P.OX7X5XP.S.g.i.a.8.8.6.",
"^.Y.G.J.D.H.[.R.P.H.[.=X&Xb.z.m.H.K.L.U.t.4 & & & & & & & # e r j X.[ +.#.#. .#.#.#.#.#.#.#. .} ] n v h & 7 C.L.L.A.f.b.n.b.A.H.K.U.J.C.V.x.i.i.a.C.-X",
"8XQ.Y.G.F.F.S.Z.P.H.@XeX,Xv.c.m.j.j.H.j.e.4 & < h j l l b b b b b ( n ` ` ` ` ` ` ` ` ` ` ` ` ) n n c h & 5 C.D.H.p.t.u.h.a.P.H.H.H.H.d.h.u.l.u.h.I.0X",
"^.E.Y.Y.E.T.S.S.d.d.K.@X|.v.c.m.H.R.Q..Xg.4 & 0 c n [ [ +.%. .] _ c c c c c c c c c c v c c c c v v n h & 5 Z.T.oXI.g.A.[.R.j.d.H.H.H.U..XV.n.g.i.V.OX",
"C.Y.Y.^.7X:XJ.C.s.s.p.p.f.z.k.m.P.oX7X6XU.5 & h n n _ _ [ | ] _ ) v c v c c c c c c v c c v v c c k k i t V Z.6XqXOXU.oXqX5Xj.7.d.P.U.6X0X[.'.M.l.x.S.",
"F.Y.W.^.6X:XJ.S.s.p.s.j.j.b.b.m.P..X6X;XT.5 & l X._ c c c c v c v c c c c c c b v c c v c c v c c < & V V.).J.;X6X!.Y.~.5X5Xd.d.d.H.U.5X5XI.).M.l.z.A.",
"F.^.4X!.J.J.S.I.j.H.oX7X5XU.U.P.H.H.H.L.,Xu & l ] _ v c c c c c c v v n b m b b n / b n v v v c c < - V I.Z.P.J.H.+XqX$XK.H.P.P.d.8.9.K.D.P.'.n.l.x.P.",
"F.;X8XOXJ.].].].P.H.oXqX5XE.L.K.H.H.P.L.:Xu & l ] _ v c c c c c m |  .3.iXiXiXiXiXiX%.O.` v v v c j r u 9 w Z.C.H.@X7X5XP.P.P.P.d.6.9.H.H.H.H.p.l.t.P.",
"F.2X8X!.I.).i.b.g.C.P.R.Q.1X1XK.H.d.8.H.,Xt & k ] _ c c c c c f n #.%.pXhXhXhXhXfXdX-.@.' c v v c k y r & 7 Z.C.9.+XqX+X8.a.).'.A.C.F.H.D.+X$X[.h.j.P.",
"J.:XqXOXP.A.y.u.g.h.d.P.K.5X7XU.P.d.8.V.:Xt & l ] _ v v ` ] &.,.,.1.1.sXhX2.&.>.dXdXuXtX-.} ` v n x x y & 7 V.s.7.oXrX+X8.p.A.P.S.I.P.H.H.2X7X+XK.H.P.",
"C..XXX[.I.I.].}.n.g.g.P.K.3X7XU.H.d.s.d. X7 & x ] _ v v  .O.1.fXhXhXhXhXhX:.d ..dXfXhXhX<.@. .b v v v j & 7 V.a.7.K.OXT.V.a.Z.A.).g.A.P.D.!.+XQ.Q.L.P.",
"h.i.y.)..XQ.0XwXM.u.g.P.K.3X3XU.P.d.s.8.5.5 & x [ _ v v *.-.uXdXsX4.4.sXhX:.x ..2.yXdXfXuX;.%.b v v v p & 7 A.s.7.p.7.8.P.P.d.g.i.l.u.).P.H.j.~.7X^.9.",
"g.z.i.A.Q.Q.2X>XM.l.b.C.G.2X5XI.).g.f.8.r.5 - l [ ' v v 4.hXhXhX4.v m yXjX=.f c v n 4.fXgXfXuX( v v n p & 4 n.a.a.a.7.V.L.I.h.g.v.z.b.m.m.j.j.oX3X;Xd.",
"z.M.S..X6X;X9.g.z.l.z.8.6.K.K.g.u.u.A.d.V.5 & l [ _ v b 4.hXsXsX3.v v yXjX>.b ( b n yXfXfXfXiXn v v c i & 4 k.m.d.d.C.Y.6X9Xg.y.n._._.l.u.h.s.Q.7X:Xi.",
"z.m.C.!.7X;X8.g.u.l.t.s.6.D.H.f.k.z.m.h.C.7 - l [ ' b n 4.hX,...` v b yXfXaXiXiXiXiXdXfXfXhXpXn v n n i & 4 Q m.h.C.H.L.6X9Xn.l.n.'.m.l.k.n.h.@X0X=Xz.",
"l.).P.Q.7X5XC.A.g.t.t.6.9.+X$X'.m.n.u.p.S.7 - l [ m c n 4.hX*.c c c c iXjXfXfXhXhXfXfXfXfXhXiXn v v n p & 4 M.z.u.A.L.L.Y..Xi.l.%X,X#Xm.m.b.w.)..X].l.",
"q.h.P.OX7X5XJ.I.d.5.8.6.D.qX0XU.).n.w.u.].7 & l [ ' c n iXhX4.>.>.>.>.*.*.2.fXfXfXfXfXfXfXhXiXn n g n i & 7 (.z.u.).U.L.H.P.x.l.&XeX5XP.`.z.c.b.P.h.w.",
"S.A.C.Y.+XOXU.J.L.L.F.N.F.OX+XoX@X`.k.b.XXt & x [ ] n n iXjXhXhXhXhXfX..f =.hXfXfXfXgXhXgXjXiXn n g n p - q }.z.w.{.+XE.P.).v.l.}.$XQ.R.XXv.c.n.'.P.P.",
"9XU.N.F.F.H.T.L.3X7X^.Y.L.H.P.$X0X&Xk.z.,X9 & l ] _ c n <.iXaXfXfXfXdX..f :.gXfXfXdXaXaXaXpX<.( g g n a - q ,Xz.q.XXqX$XP.'.z.k.b.j.U.9XwXM.z.n.P.U.9X",
"6XL.H.H.P.P.Y.Y.;X5X~.L.U.J.J.;X9X.Xf.V.#Xq - i n c n c ] [ <.gXfXfXfX..c :.gXfXfXdX$.$.$.$.@.n n n g p - q ,Xg.u..X0X+XH.'.b.z.m.P.U.7X9Xm.z.n.).].9X",
"J.8.8.9.C.L.3X3XE.J.H.H.J.C.P.J.P.oX9X:XI.7 - i v c n n ' ] <.gXfXfXdXo.g >.gXfXgXfX-.@.@.@.O.n g n n p ; q S.:X>X!.J.H.H.H.h.m.'.I.U.7X7X{.'.M.z.b.'.",
"S.9.8.V.S.L.3X3XU.H.P.P.P.S.P.I.S.!.8X2XJ.B.B.V > 0 c c n n ,.gXfXfXdXpXuXaXgXfXgXfXo.( ) ) n n n g n p & 8 Z.:X7XQ.H.H.j.H.P.'.'.'..XqX0X[.{.M.c.v._.",
"T.S.A.A.C.J.5X3XU.H.P.P.A.g.g.V.V.Q.rX;XH.J.K.S & < v c n g >.gXgXgXfXfXfXfXgXgXgXdX{ g g g n g n n n p & 6 V.6X7XQ.H.H.H.H.j.h.g.g.h..XT.J.].n.c.v._.",
".XP.S.A.a.C.6XqXY.P.P.j.d.t.0.i.a.T.rX6XC.K S w r h c c c g >.gXaX>.>.aXgXyX*.<.fXdXo.g n n g n n g n p & 4 V.>XqXQ.H.H.H.P.h.m.z.q.u.P.J.P.I.n.v.v.).",
"OXI.C.A.A.A.#X$XI.H.U.U.U.a.g.u.g.).:XOXZ.5 & r h k n n c n ,.jXuXg v uXgX:.f ] fXgX} n n n n g g n n p & 4 r.@X:XU.H.K.R..Xh.b.b.g.g.g.A.C.J.A.b.(..X",
"0XP.8.h.S.I.C.J.H.J.!.7X2XE..Xg.y.g.].I.Z.7 ; r j k n c c g *.uX<.v ( <.iX*.c ` uXuX] g n g n n n g g i & 4 q.P.I.P.j.R.qX7Xm.k.n.A.A.y.t.A.P.P.P.U.9X",
"5XJ.8.C.I.S.S.P.C.H.!.4X;XW..Xg.y.b.P.P.S.7 ; i c g n c n g n n ( v n ( ( n g n ( ( g n n n n n v k h 0 ; 7 k.'.P.P.I.U.5X9Xb.z.g.I.P.t.t.).).S.P.L.7X",
"2XH.6.T.6X:XI.P.C.a.C.J.L.5X9Xm.q.g.P.H.7.5 - p n n g n g n g g g g g g v v v n g g g g n g g g v k h < ; 5 y.h.P.C.8.9.I.'.v.k.|.0X+XH.A.g.u.g.P.U.9X",
"6XH.6..XrX>XP.S.a.a.a.H.L.6XwXg.u.g.P.P.5.5 - j g g g g n n g n ( g v z k k k j < , % $ $ $ $ O $ # O O X @ q.A.P.N.8.8.P.).z.u..X7X2XF.S.z.l.m.P.U.0X",
".XC.s.V.].).).P.A.P.P.H.L.5X9X].g.h.H.H.V.7 - p n g n n n g n n g v ( k h h h 0 ; ; o                     @ g.P.H.H.9.C.I.).m.g.OX4X^.F.).x.c.M.).I.@X",
"S.V.V.x.q.i.A.S.P.P.P.P.K.5X7XU.S.I.J.J.C.7 ; , p i , 8 , 8 8 8 8 8 8 = = = = * # # 3 N N N N N N N S K S Z H.P.H.H.H.P.S.S.A.C.OX8X2XH.].z.l.n.P.S.S.",
"'.m.x.x.x.n.].P.K.R.U.j.I.$X$XU.H.P.P.J.J.7 - ; * &                                 L '.I.I.R.U.K.H.oX+X@XK.H.H.H.U.Y.U.C.P.U.U..X@X.XI.S.).).'.].P.m.",
"A.u.y.(.).I.T.L.5XqX@XK.j.P.P.H.H.H.H.G.:XY 9 7 q 7 1 + + + + + +     X   X X X . . r.U.Y.Q.7X9XK.H.H.P.P.P.H.H.F.OXqX2XD.J.9XwX[.e.i.).P.>XeX+XQ.].u.",
").x.c.n.P.J.L.Y.2X5XoXP.P.P.P.H.H.H.C.G.6X:XY.N.T.:X,Xt.y.g.(.A.I .   - ; ; ; *   . F L.Y.!.5X5XP.P.H.P.H.H.H.H.F.OX6X+XK.J.:X0X}.t.i.`.].:X5XOXQ.[.l.",
"f.l.l.V.P.J.3X6XE.J.P.H.P.H.H.+X3X~.D.H.K.L.;X5X+XJ.U.>X,X`.u.n.I     * > ; ; *   . F ~.3X^.K.U.H.P.H.H.L.3X2XK.K.K.H.Q.5X5XY.I.oX>X*Xi.i.I.J.!.5X*Xz.",
"h.i.y.(.S.L.3X3XL.H.I.P.I.P.j.2X4X~.F.D.H.F.:XeX$XJ.J.6X0X).w.u.L     * ; < 0 < . . F ;X7X~.K.K.I.'.P.H.L.7X4XG.F.j.H.U.qXwXU.H.+XrX#Xi.u.A.I.OX7X$Xt.",
"a.i.i.V.H.L.3X7XY.P.h.f.g.d.j.L.Q.W.~.~.H.H.'.{.'.P.U.5X7XI.g.m.I     - ; 0 p 0 . . F !.7X1XH.P.f.f.h.d.H.E.E.W.~.E.H.P.}.`.].C.!.8X-XA.(.(.i..XqX$XA.",
"5.a.a.C.P.K.7X7XL.K.h.w.u.g.h.H.H.E.4X3XH.S.g.t.p.A.K.3X7X.XS.A.I     > 0 0 d i .   5.+X7X1XH.P.u.k.f.h.d.H.K.3X4XQ.H.h.i.y.).P.OX7X;XS._.l.y. XqX5XH.",
"8.8.N.C.F.L.$X1XK.P.S.`.(.x.i.A.H.Y.;XQ.C.h.a.s.a.d.H.+X$X'.(.m.J . . 0 i d ( s . . F !.+XoXH.'.'.`.M.b.h.j.K.~.+XU.V.n.z.z.).I.Q.;X-XZ.).v.l._.9X+XK.",
"d.d.H.G.F.C.H.P.P.P..XwX,Xv.l.).P.D.D.s.s.s.s.s.s.d.C.h.z.z.l.z.H . . 0 p f ) f O X F d.d.d.H.K.=XwX{.z.b.'.H.j.H.a.u.u.g.V.S.P.C.F.C.Z.).x.l.m.P.H.j.",
"8.8.d.s.8.8.d.d.d.9.Q.0X,Xv.l.(.P.H.j.s.p.p.p.s.s.p.c.z.z.l.c.x.J   X a g } $.} > > F e.e.h.j.C.1X9X_.c.z.j.j.K.K.g.t.f.d.C.C.C.S.H.S.C.Z.r.i.V.I.P.P.",
"H.K.H.s.d.d.s.s.s.d.d.C.(.c.v.(.b.z.f.p.l.L l.z.u.f.z.l.h.i.}.#XU .   d n } $.| > > U e.u.h.s.s.j.'.M.c.v.'.I.$X5XoXI..X:X:XC.8.N.S.Y.;X-XY.T.I.P.h.u.",
"N.G.Y.T.$X@Xa.d.s.7.s.s.h.c.f.z.z.c.l.z.S.P l.l.l.z.l.W x.L c.`.L . . d n } $.| > > K (.V.d.7.7.s.0.q.w.z.).I.5X7X+XU.!.7X0XC.8.C.S.Y.<X<XW.Y.I.P.`.w.",
"F.^.-X^.!.oXH.H.d.d.s.s.s.f.h.g.g.x.z.S.OXx.l.z.f.u.J J l.Q R Q R . . d n | $.| > > S x.d.d.s.p.s.J P p.h.S.J.Q.Q.!.;X+XQ.oXC.A.V.N.N.^.W.^.-X[.g.b.m.",
"F.^.8X^.J.I.I.I.H.d.d.d.d.a.H.H.H.V.y.g..Xz.Q u.s.t.G J l.~ R R C   . s g | $.| > > B 0.f.t.8.s.p.H P s.s.d.h.C.H.+X7X$XP.P.P.S.Z.8.N.G.W.<X8X Xk.b.'.",
"F.;X8XOXI.`.).).d.s.d.j.j.K.E.K.P.g.~ J f.u.R P f.q.J J l.Q Q R B   . d g | $.| > > C i.e.L t.t.t.P g.K.P.f.l.h.H.oXqX$XH.S.P.'.C.6.N.L.G.^.:X_.c.z.'.",
"G.-X8X-XP.).u.z.s.s.j.P.U.7X5XU.A.g.l.P s.z.H W Q Q l.l.l.Q Q W M . . a g ' @.| < > I p.P A G A J h.+X7X+Xd.z.s.8.oXqX;X8.7.A.S.P.P.H.D.D.J.I.g.k.z.m.",
"S.:X>X@XP.A.t.x.p.s.h.'.U.5X5XU.g.u.p.5.s.l.~ l.k.W W ~ ~ ~ Q R M . . 0 a f ( f > > E l.Q R A A L V.OX7X+XC.z.p.6.Q.qX#X8.7.A.).'.P.P.H.H.J.I.g.t.f.{.",
"h.(.).).[.Q.>X=Xm.f.h.j.j.R.3XR.g.u.f.u.f.L ~ c.W T W G Q Q H A M .   0 p d ( f > > R l.Q W T J g.H.~.7X#Xz.A.8.p.a.C.C.P.C.V.g.f.u.g.P.K.+X7X@XU.].j.",
"g.u.y.Z.[.E.qXwXm.l.m.P.j.K.R.j.a.a.f.f.s.P u.u.W A W R T T 3 + +     0 j p a a > > 1 B G H Q R z.H.~.@X(.h.A.h.7.7.8.8.H.P.g.V.z.k.b.{.I.5X7X^.L.R.j.",
"z.n.g.I.:X+XU..Xx.c.i.h.6.H.j.s.s.p.p.p.s.P f.f.~ W Q ~ A C 2 X   . . , k j p i = > X @ 3 H k.T y.f.'.m.z.g.b.g.a.d.d.H.oXOXg.u.x.M.M.M.g.[.!.~.^.~.H.",
"l.).S.oXqX;X7.i.l.c.t.s.6.8.s.s.s.h.s.s.s.k.t.u.c.~ W l.A C 2   . . . = > > , = % % . . 2 R Q A y.z.z.u.k.l.k.m.h.H.H.Y.7X9Xi.q.n.`.m.u.w.`.I.OXqX5XH.",
"l.m.C.!.7X:XC.g.i.y.f.6.6.s.d.p.p.p.h.p.s.P k.z.l.W R ! A A 3 o     .   . . . . . . . . 2 J Q A Q k.H.P.M.z.z.M.h.h.K.L.;X$Xx.u.`.[.].z.z.`.(.@XqX:Xh.",
"u.).C.OX7X5XI.Z.a.f.s.7.9.j.j.h.p.p.u.c.u.W l.l.W C T W A C A 3 o o o o o o o o o o o o 2 A H A H 5.oX>X#Xm.z.w.w.P.R.L.F.S.z.l.&XwX:XP.).z.l. XeX=Xf.",
"t.A.P.oX6X5XI.d.8.s.s.s.8.j.$Xm.c.z.z.k.R A Q l.W A W W A C T W W R C B C B A R H Z B C C A H A A Q z.z.v.z.z.z.w.'.oXR.H.P.z.c.&XwX+XK.'.v.c.%XwX*Xu.",
"#XJ.N.F.L.L.U.d.d.d.d.j.j.P.U.h.j.m.p.w.J G 0.f.t.y.l.W W A R c.l.~ W A C T ~ W W A W R W l.P A A q.p.h.h.p.p.u.k.|.9X+XP.'.z.c.m.[.E.1X>Xb.c.`.].[.=X",
"0XY.N.F.H.H.L.9.j.Q.Q.J.U.P.I.H.'.j.s.p.t.t.w.f.z.u.l.W W T R c.l.~ l.Q W Q l.W W A W ~ l.z.l.Q Q u.s.d.a.s.s.p.0.|.eX1XP.'.z.k.b.H.L.7X9Xb.l.b.S.U.eX",
"!.H.9.N.H.K.~.Q.P.Y.Y.L.J.P.H.P.j.[.XX|.u.p.f.z.z.z.u.R P L Q ! W c.l.l.l.z.~ Q l.W y.y.l.l.z.g.f.p.s.s.h.f.j.[.[..X+XR.P.j.h.n.m.P.U.5X9XS.m.A.P.J.oX",
"N.6.6.N.C.Y.3X4XY.J.H.P.P.P.P.P.J. XrX:Xg.h.f.l.l.z.u.R u.`.M.Q Q l.l.l.l.z.l.k.c.z.p.u.c.z.f.j.a.s.s.p.u.z.J.:XrXQ.C.C.H.H.A.'.'.I.R.9X9XU.I.P.S.H.N.",
"I.C.V.C.C.J.6X3XL.P.P.P.P.h.m.'.Z.OXrX:XJ.H.g.z.z.u.z.l.l.XX|.z.z.z.M.(.n.z.x.z.z.z.p.m.x.f.s.s.s.h.u.c.z.z.A.6X8X!.H.H.H.H.H.h.'.m.{.1X+XL.P.J.L.L.J.",
".XI.P.C.a.P.6X3XU.P.H.j.h.u.u.g.V. XrX5XH.H.H.P.P.d.g.u.t.A.P.P.C.I.2X7XoX.X[.S.P.g.s.oXoXd.8.d.j.h.p.u.u.l.v.>X8XQ.N.J.P.J.C.g.f.w.f.I.H.P.P.oX6X5XY."
};
