/* XPM */
static char *result[] = {
/* columns rows colors chars-per-pixel */
"75 75 251 2 ",
"   c #3A280E",
".  c #3B2713",
"X  c #372913",
"o  c #3A2914",
"O  c #3D251C",
"+  c #362819",
"@  c #3B291B",
"#  c #2E3C16",
"$  c #2F371B",
"%  c #2D3C1B",
"&  c #343A1A",
"*  c #3D2823",
"=  c #2B3A22",
"-  c #333724",
";  c #43330D",
":  c #442A14",
">  c #43251C",
",  c #452919",
"<  c #4A2C1D",
"1  c #4C341A",
"2  c #47381A",
"3  c #54351C",
"4  c #59341D",
"5  c #55391A",
"6  c #4D2D23",
"7  c #482925",
"8  c #542E24",
"9  c #4B3724",
"0  c #553423",
"q  c #5A3424",
"w  c #563A23",
"e  c #5B3A24",
"r  c #573429",
"t  c #5A3C29",
"y  c #613F28",
"u  c #195015",
"i  c #38450D",
"p  c #284716",
"a  c #334415",
"s  c #384519",
"d  c #3E5A11",
"f  c #1B780A",
"g  c #1E7A0C",
"h  c #0D641D",
"j  c #156B1E",
"k  c #1E7614",
"l  c #1D7914",
"z  c #1D741B",
"x  c #1E791A",
"c  c #217C07",
"v  c #217C0D",
"b  c #25651B",
"n  c #2C641E",
"m  c #236919",
"M  c #2D6C1C",
"N  c #31691E",
"B  c #217A14",
"V  c #267619",
"C  c #227A1A",
"Z  c #39771C",
"A  c #115B26",
"S  c #334B28",
"D  c #295C29",
"F  c #36592A",
"G  c #345831",
"H  c #0E6521",
"J  c #156B23",
"K  c #1D7522",
"L  c #1F7821",
"P  c #2C6323",
"I  c #286525",
"U  c #2D6B23",
"Y  c #316526",
"T  c #336B23",
"R  c #336C2B",
"E  c #237623",
"W  c #387726",
"Q  c #3D742A",
"!  c #376C30",
"~  c #3C7433",
"^  c #464A17",
"/  c #504D14",
"(  c #4A5917",
")  c #4B6419",
"_  c #5A4225",
"`  c #5E432B",
"'  c #515228",
"]  c #674A26",
"[  c #63442D",
"{  c #654B2D",
"}  c #6A4C2D",
"|  c #6C512C",
" . c #74572C",
".. c #634631",
"X. c #654B33",
"o. c #6A4B32",
"O. c #6A4936",
"+. c #704D32",
"@. c #6D5134",
"#. c #6B5239",
"$. c #725433",
"%. c #745A34",
"&. c #7B5C34",
"*. c #755439",
"=. c #755A3A",
"-. c #7C5D3B",
";. c #417A29",
":. c #4B7232",
">. c #64752A",
",. c #7D6236",
"<. c #77613E",
"1. c #7D613B",
"2. c #775D43",
"3. c #7B5D42",
"4. c #7D6142",
"5. c #815E36",
"6. c #826435",
"7. c #856935",
"8. c #8A6C33",
"9. c #82633A",
"0. c #876B3B",
"q. c #897337",
"w. c #8D723C",
"e. c #93763D",
"r. c #866941",
"t. c #8D7444",
"y. c #927644",
"u. c #947A43",
"i. c #9A7D47",
"p. c #1F830D",
"a. c #26830D",
"s. c #379409",
"d. c #3A940D",
"f. c #3D990D",
"g. c #258113",
"h. c #2B8515",
"j. c #2D8A14",
"k. c #268119",
"l. c #2B851B",
"z. c #2E891B",
"x. c #358116",
"c. c #358F12",
"v. c #338C15",
"b. c #32861D",
"n. c #348B1D",
"m. c #398E1D",
"M. c #359314",
"N. c #3A9413",
"B. c #3D9A14",
"V. c #36921B",
"C. c #3B941B",
"Z. c #3D9A1B",
"A. c #3EA016",
"S. c #2E8724",
"D. c #328624",
"F. c #348B22",
"G. c #3A8E24",
"H. c #33852B",
"J. c #3B852C",
"K. c #348A29",
"L. c #3A8D2A",
"P. c #369123",
"I. c #3B9423",
"U. c #3E9923",
"Y. c #3C9429",
"T. c #2F8832",
"R. c #328632",
"E. c #419D0E",
"W. c #49871C",
"Q. c #52871C",
"!. c #429D15",
"~. c #45961B",
"^. c #439D1B",
"/. c #499D1D",
"(. c #45A30D",
"). c #4AA50E",
"_. c #45A214",
"`. c #49A514",
"'. c #4BAA15",
"]. c #45A21B",
"[. c #49A41B",
"{. c #4DAA1B",
"}. c #56A915",
"|. c #53AD15",
" X c #52AF15",
".X c #52AD1C",
"XX c #53B115",
"oX c #59B716",
"OX c #54B21C",
"+X c #5AB51C",
"@X c #5CBB1E",
"#X c #63BB1D",
"$X c #478827",
"%X c #4B8C2B",
"&X c #528D22",
"*X c #429423",
"=X c #439D23",
"-X c #499826",
";X c #449D2A",
":X c #549324",
">X c #589629",
",X c #4C8A33",
"<X c #528A34",
"1X c #5B9A33",
"2X c #68942B",
"3X c #46A122",
"4X c #4AA423",
"5X c #4DAA23",
"6X c #48A22A",
"7X c #57A627",
"8X c #52AD23",
"9X c #53AD2C",
"0X c #55B323",
"qX c #5AB625",
"wX c #5CBB23",
"eX c #55B22B",
"rX c #5AB52B",
"tX c #57B92D",
"yX c #5DBB2A",
"uX c #54AB30",
"iX c #5BB634",
"pX c #65A02A",
"aX c #61BD24",
"sX c #64B62B",
"dX c #62BE2B",
"fX c #66AB34",
"gX c #64B534",
"hX c #62BE32",
"jX c #76B53C",
"kX c #5EC124",
"lX c #64C225",
"zX c #69C426",
"xX c #6ACA26",
"cX c #65C32B",
"vX c #69C52B",
"bX c #6BCA2C",
"nX c #71C72E",
"mX c #66C332",
"MX c #6AC632",
"NX c #6BCA32",
"BX c #6AC936",
"VX c #6BC73A",
"CX c #72C835",
"ZX c #7AB643",
"AX c #9D833C",
"SX c #9D8244",
"DX c #9E844B",
"FX c #A28745",
"GX c #A2854B",
"HX c #AD9449",
"JX c #9EB146",
/* pixels */
"Z.d.!.].Z.n.n.;X=XG.b.n.C.E.lXBX4Xn.G.6X[.lXBX0X_.|.vXcX!.E.~./.:X:XpXQ.}.pXJXjXpX>XG.D.C.]._._._.yXBX9Xn.P.^.[.=X^.0XMXcXs.N.D.K.m.d.s.).).m.b.n.^.B.",
"C.M.!.].Z.n.b.^.].n.S.K.U.Z.cXBX;XD.G.=X`.lXvX|.d._.BXcXE.s.`.sXpX( / / / / ( ) ( ) Z D.V.].^.B.B.'.{.U.n.V.dXdX8X^..XbXdXE.N.m.b.x.c.s.E.`.C.n.G.*XZ.",
"=XZ.].].C.F.n.eXyX[.U.Y.F.P.5X9XU.D.G.[.`.aXbX.Xs._.BXcX!.c.|.JXpX; 5 ; ; 1 2 1 2 s ) J.*X^.^.B.N.!.^.Z.x.C.mXvX5X!.OXbXlX/.~.m.m.c.d.s.@XdX=X*XU.n.m.",
"3X].].].U.S.P.mXNXOX^.*XH.S.U.].C.l.n.].`.lXbX+X!.[.qXqX!.~.W.2X>.y ] ] } } { } { { ' ( ;.-X].Z.B.!._.~.B.!.vXvX5X/.+XbXvX'.^.B.d.s.s.E.vXNX8X=XU.b.b.",
"=X].].].=XU.=XeXyX[.Z.Y.L.L.3X].^.*X^./.~.7X7X8XOX{._.].~.&X) ; / { } <.9.5.4.1.,.<._ & ) 1X/./.]._.`.!.`.'.cXvX[.~.[.qX+XOX.XE.d.d.d.N.rXyX+X8X4Xn.D.",
";X^.]._.'..X.X_.].P.F.G.=X^.[.`.sXCXfXx.W T D *X+XOX'.:X;.>.' _ y X.o.%.&.&.=.%.<.%.] 5 ' >.&X}.[.`.!.`.'..XyXdXU.b.m.c.E.cXvX`.c.m.D.G.=X_.wXnX#XE.z.",
"=X].].3X].{.5X_.].C.n.V.3X].[./.aXnX#XZ W N P -XBXyX_.~.d ; | 5.*.{ X.X.X.X.{ { ] { <.1.| / ) jXMX'.E.OXMXhXC.n.n.F.F.B.!.wXcX].m.m.n.n.A._.@XbXwXE.v.",
"=X3XI.n.U.].].[.].3X=X^..X.X`.!.+XnXsX$X,X;.Q 1XMXkX_.:X^ ; +.5.=.{ X.X.X.X.X.X.| _ ,.9.} 5 / jXvX}.).OXMXhXm.b.C.=XZ.N.N.B.!.N.N.v.N.B.[._.#XbX@X'.hX",
"3X3XP.F.I.=X^._.A._._.'.{.{.]._.wXCXgX%X<X;.;.uXbXaXs.Q./ 1 [ @.o.X.X.t w w w e { ] q.i.5.< / 2X.X@XaX+X{..XiXgX4X=XZ.V.Z.M.N.s.s.d.d.E.~.E.aXNXwX'.bX",
"].].Z.U.*XI.Z.rXwX X).'.'.[.[._..X.X7X%X,XT N -XNX#Xs.Q.^ 5 y o.o.X.X.w 0 0 0 w { ] e.GX5.4 / Q.!.dXCXaX!.{.bXBX4X^.V.F.n.C.B.[.qX.X/.).).)..X8X{.{.vX",
"_._.].3X*XF.V.mXxXoXXX)._.].[.].]./.*X%X,XU b ~.0X{.E.;.i ; [ $.#.o.O.t ` ` _ _ o.] e.i.5.< ^ >X/..X8X[.!.'.vXBX[.B.v.F.F.C.B.yXNXlX}.}.).E.`.`.^.{.NX",
"_._._.].U.F.V.rXkXoXoXXX_.^.^.U.^././.*X%XV b h.d.f.s.W.# : [ 4.=.o.O.O.X.| ] ] } ] e.FX .: & <X-Xm.v.N.!.`.vXvX0X4X=XP.F.F.C.8XaX#XXXXX}.}.[./.^.].yX",
"{.{.[.].U.F.F.!.).@XxXwX)./.v.n.C././.~.*Xm j x.B.f.B.:Xi   ` <.=.$.o.$. . . . .|  .8.AX .  s <X-Xm.v.Z.^.`.cXcXmXBXyX3X;XF.F.U._.).}.}.dXbX.X].^.N._.",
"OX8X{.].Z.n.C.^._.@XbXaX!.^.G.n.C./.^.Z.~.v m b.N._.cXjX^   _ | | -.9.y.AXFXHXHXAXe.8.6.] . S ;.D.C.Z.!.[._.!.(.yXbXqX].;XK.D.U.`.).|.oXvXbX8X].B.B.].",
"cXcX5X].].{.[.].!.wXbXqXN.n.U.*XZ.N.v.v B D.L.L.C.[.BXjX^ o t o.+.9.9.u.AXHXHXHXAXFX7.6.` X % Q D.N.d.!._.]._._.].'._.].U.J.D.U.(.}.zXsX}.}.[.].]._._.",
"MXbX0X].[.|.{.].^.wXMXrXn.F.=X/.!.N.v.v c G.*XP.P.C.{.1Xs o 9 5 _ | +. .$.%.,.6.8.8.6.&.` X s 1X4XqXsX.Xd.B.].'.].]._._.Z.n.l.Z.(.XXnXvX`.=X].3X].].].",
"bXcXOX(.A.'.'.A.].{.0X5XF.K.;X]._.Z.Z.v.n.V.*XL.S.F.=X:Xs O < 3 e O.O.X.....O.O.-.9.6.-.` X i pX}.dXCX0Xs.N.!.`._._.{.wX0XZ.C.A._.XXxXcX'./.C.P.Z.!._.",
"bXbXOX(.A.].].].]._._.Z.F.n.U.].].3X=XC.^.Z.U.P.F.F./.:Xs O 7 3 w y y ..O.O.O.#.4.5.5.9.{ : d fX@XwXwX{.!.!.!.!._._.+XNXcX{.].[._.OXmXcX`./.m.n.m.Z.`.",
"kXkX X(.].Z.Z.3X].].[.].C.C.^.].^.U.=X~.Z.Z.Z.V.n.V.].:Xs @ 6 0 0 w r ..O.X.X.#.4.9.6.&.} 5 ( ZXbX.X[.[.[.!.d.d.!._.|.yXkXOX'.(.!.[.yXeX{.`.^.*XU.~._.",
"(.(.(.(.^.n.n.3X].{.{.{.].].].3XI.n.n.^.Z.B.B.M.v.C./.%Xa @ 6 0 0 r r ..X...X.X.2.3.9.7.| 1 ( jXMX.X^.^.^./.E.d.!._.]._.'.lXxX'.B.N.b.m.4X.XdXmX9XC.E.",
"E._.(._.^.V.F.6X3X5X.X{._._.].].C.n.G.C.B.B.B.!.].].3X>Xs * 8 8 t O.y O...t 5 w X.} t.DX .  i jXMX!.N.~.^.`.`.E.].=X^.].'.kXlX{.Z.m.b.v.{.'.aXmXuXm.(.",
"m.m.C.Z.[.hXdXmXcXlXlXwX_._._.(._.^.^.Z.Z.Z.Z.^._.[.].>Xs * 7 r y O.O.O.X.` w w X.} y.GX%.X s ZXCX/.c.B./.^./.!.^.]._.(._.'.'.].=XU.n.n.].`.'.'.[.].3X",
"^.*XG.n.~..X.XdXvXxXxXkX_._._._.].].3X^.Z.Z.Z.{.lX0X!.%Xa * 6 r r t t < < : > 1 t 4 w.GX$.X a >X/.!./.^.B.Z.m.m.3X{.oX#X@X_.A.C.m.I.U.Z._._.'.{.`.].3X",
"^.6XG.D.G./.).7X+XkXxXkX(._._.[.Z.I.P.^.B.B.B.qXbXwXf.$Xa @ 6 r q 0 0 : : . . , r 4 y.GX#.X a W.N.!.^.!.B.m.G.D.3XOX@XbXzX'.].P.D.L.3X].].[.{.OX{.].3X",
"_.=XG.K.G./.).:X`.aXbXwX_._._.].P.S.F.*X^.B.f.0XNXyXB.$Xa * 7 r 8 8 8 8 y t t r 8 1 6.e.|   a $X!.{.0X[.C.n.L.P.5XwX@X+X+X`.=XG.D.G.-X].Z.U.3X{.'.].].",
"_.^.m.D.m._.E.:X~.7XdXwX_.].].;XU.F.P.C.B.B.f.0XBXtXv.Q a + 7 r 8 > > 2.3.9.4.*.: :  .6._   i :X!.lXVX9Xn.n.6X;XdXxXwX_.].!.=XF.D.P.6X3Xn.F.*X].].].A.",
"`.[.C.n.M._.(.J.S.U.]._._.^.F.F.U.3X=XZ.B.N.N.8XBXiXb.Q s * 6 r 8 > > y <.1.r.=.: :  .7.]   i :X`.wXmX9Xn.n.3X].kXbXeX=X;X].].P.F.I.3X].P.F.I.=X].'.'.",
"cXcX8X^.[._.!.T.T.U.3X].].=XP.F.*X[.!.Z.C.B.N.!.].^.n.~ % @ 6 q 8 > > 2.1.q.DXt.3 3 8.i. .  i >X.X`.].U.D.P.hXmXxXbX0Xn.P.4X].3XU.A.]._.].6XP.n.3XmXkX",
"I.L.*X[.{.mXyXJ.l.U.3X].].].iXmX6Xn.v.Z.B.B.B.v.g.h.I.%Xa + 6 q 8 O , #.1.w.DXe.4 4 5.8.] o a $XZ.Z.C.U.I.P.n.l.@XzX#X}.}.sXcX.X_.(.(.(._.].n.n.C.5X{.",
"n.F.U./.8XmXBXfXiX;Xm.C.].3X3X;X;XU.U.B.B.B.B.h.f g.Y.%Xa + 7 q 6 O > #.,.q.FXw.4 4  .5.[   p $XC.B.Z.V.U.F.C x 0XzX#X}.XXnXCX}._._.(.(.(.[.C.n.P.6X3X",
"~.*XY.I.=XrXqXVXVX-Xj.M.3X].F.l.U.=X!.B.B.^.Z.m.n.l.b.W % + 7 w 6 > O #.5.w.i.e.4 4 9.u.| X p W j.V.Z.M.h.l.C k ].OX#X#X#XsXaX}._.`.'.'._._.U.U.Y.I.P.",
"=X;XL.F.G.=X].qXsX5X=X=X3X;XF.D.=X0X'.B.C.v.b.m.G.b.V P - 7 6 6 < , < } +.&.6.&.4 q  .,.{ o a M p.j.A.j.g l C h.!._.#XnX#X}.}.`._.].{.{._._.].3XY.S.F.",
"[.=XY.H.L.;X[.!._.yXVXyX].U.P.z.eXNX@XE.~.B C V W W n F ^ r 7 > > w q 3 3 4 3 0 0 0 : > < 9 ^ M v v.Z.j.B C C C.].].OXaXaX}.`.'..X{.`.`.{.5X].^.*XF.F.",
"`.4XP.J.L.=X/.[._.yXBXyX].3XF.j.0XbX@Xd.N.h.V U R R Y F 9 r 6 > < w r t e e 4 3 5 e < , 6 6 s M B j.M.z.x C C v V._.(.`._.f.d.qXmX0Xs.f.yXmX5X].^.N.d.",
"`.[.C.D.I.4X`.=X].yXNXtX].3X3X].wXbXwX!.~.b.W V b I D F - * 6 8 r ..X.*.3.-.=.&.=.=.r 0 6 7 = T l B l p.x C l f B._..XcXlX|.}.`.`.!.B.Z.V.n.Z.3X].].].",
"!._.^.^.4XdXdX6X3XrXBXyXA.].]._.yXVXiX~.%XW W U I I D G - 7 6 0 r X.X.2.r.1.1.1.1.3._ 0 6 7 - I C l l l l l g p.M._.OXxXcXXXOX`./.^.V.P.F.l.C.]._.A._.",
"=X/.]._.|.mXvX;X/..X8X{._.].tXhX5X3XL.V Z M M M b I P F - 1 y *.2.O.O.#.#.+.#.+.@. .@.$...7 - G J z l l l B z.V.^._.'.OXOXlXdX'.`.Z.n.G.Y.Z.3X'..XwXtX",
"*XZ.^.!.OXvXvX7X/.[.!._._.].cXBX4Xn.Z m b b b n P n b F ^ 5 o.4.2.y 2.O.O.....o.{ { ,.1.O.r S A H J x l f g P.U.^.].]._.{.mXBX|.^.C.b.m.3X].'.'.oXbXbX",
"F.D.*X[..XCXmX4X/./.^._._._.wXyX5X6X*XU P n n n n D D F s 3 { =.O.y O.y y [ ....{ } ,.w.#.9 s G J K x l g.j.;X6XU.U.^.Z.[.mXmX|.!.C.F.n.=XA. XoX@XkXwX",
"D.F.*X^..XhXhX6X/.].].].]._.`.).qXVXfXW Q P P n Y D A S 2 3 _ X.O.O.} q 0 0 0 r o.{ y.DX,.1 S R E z k l.U.U.iXiXI.n.n.M.!.vXBX`.N.v.D.n.]._.kXxXwX(.A.",
"K.K.U.=X^.[.6X;X=X3X].].=X^._._.wXBXfX;.;.n n n n F D S - 3 t o.X.{ { e 5 w w e o.] u.DX,.1 s T z x l l.P.U.iXiXI.F.V.V.B.cXmX_.N.m.n.v.^.).wXbX@X`.].",
"n.b.~.^./.=X;XL.K.U.3XU.n.n.].'.wXNXgX%X<XZ ;.T n D D G & : [ 3.*.O.o.X.{ { X.{ { } e.DX .o a U x x x x g.g.U.Z.U.U.U.V.M.B.B.f.c.N.m.N.!._.wXxXkX_.].",
"gXyX8X8X3Xn.L.T.H.Y.;X*Xn.n.]._.+XmXgX>X<X;.;.Y n D F G & . ..3.=.} o.{ ] ] ]  .] ] e.DX%.  # M x K L L x l I.Z.].=XZ.M.V.M.N.s.d.d.d.f.`.!.aXNXkX(.[.",
"BXBX+X.X6Xn.H.R.R.L.P.I.Z.Z._._.{.8X7X7XpX) n N W T P F - O t $.$.=.=.0.,.AXAXAXq.q.q.q.{ o % U K J H K x l l.h.V.].V.P.n.C.B.{.wX.X`.`._.).{.OX{.A._.",
"qX@X@XaX8XD.F.H.H.H.K.P.3X_._._._.^..XsXfXZ b T W W I F - @ w } +.9.7.SXSXHXHXHXFXFX7.<.` X # U K H H j x l C B M.M.M.S.F.C.B.yXCXlX|.'.(.(._.].A.A.A.",
"/.!.wXNXeXn.b.F.F.K.S.P.].'.'.XX`.^.[.7X9XV b U R U I G - * w [ ] &.%.0.1.q.AXAXe.e.,.1.`   a T L J j x k.g.C l Z.5X3XP.P.F.C.8XaX@X|.XXXX{.'.].].A.A.",
"*X_.wXBXeXM.C.=X3XL.K.P.3X'.lXxX0X].!.!.Z.C V I I I I G - * 6 5 5 } } { | { ] | 6.,.,.4.{   # N x x l l.P.P.l f eXBXrX].;XK.F.U._.`.XXXXxXMX5XA.A.s.B.",
"D.n.eXNXwX].]._.3XC.n.C.[.'.lXlXOX_.Z.C.V.g.C m b I I G - * 7 0 4 o.{ X.' #.X.#.1.,.1.1.{ : # N l p.f h.C.V.a.p.8XmX0X].U.H.D.U._.'.XXOXlXMX5XA.A.M.M.",
"K.b.fXBXyX_.(.].].A.A.{.kXkXXX'.(._.B.p.p.z.P.P.L.J.I G - * 7 w 9 r 9 ..X.X.X.X.<.1.-.5.+.3 ^ $XI.M.V.j.p.a.M.M.].'.].A.U.K.K.C.!.|.zXdX}.{.].].].A.A.",
"D.D.=X.X'._._._._._.(.XXxXlX'.(._._.M.p.p.V.U.U.*XL.b D - * 6 r r r r ..X.' X.X.<.1.1.5.} q ^ &XC.B.A.j.f p.V.B.A.].(.(.].z.z.Z.).XXxXzX[.[.4X4X]._._.",
"b.b.^.]._.].].0XyX@X@XoXXXOX_._._.A.A.j.j.V.A.j.l.E U Y = * 6 0 r r r ..X.X.' 2.2.-.-.9.y < & Z j.M.B.M.j.M.6X5X'.A.{.yX0XZ.Z.].!.XXnXvX'.[.U.V.Z.B.A.",
"~./.^.[.].C.Z.hXbXbXxX@X_.(.A.(._.].].B.A.V.U.j.v z K ! s > < 0 0 w 9 X.X.X.X.#.3.3.5.9.[ . # M f V.A.V.U.U.tXtX{.(.OXNXcX'.].].`.OXnXdX{./.m.b.n.C.B.",
"|.|.'.[.~.z.V.rXwXlXxX@X(.'.(._.].U.U.Z.B.B.A.j.g.C V R % @ < q 0 4 3 ..X.X.X.#.3.4.-.4.` @ # M l z.V.z.V.V.eXtX[.(.{.dXkXXX'._.!.[.yXrX}.[.].*X=XV.C.",
"XXOX[.^.U.F.V.:X`.@XbXkX(.A._.].C.F.S.Z.Z.A.f.B.Z.n.V U # @ 6 0 4 3 3 ..X.X.X.X.3.-.-.1.[ . # M l p.l l p.a.eXtX{._._.].'.lXlX'.N.N.n.m.4X.XdXVXuXn.b.",
"zXNX=Xn.P.3X].>X/.qXmXkX_.A.].6XP.S.P.Z.B.B.B.B.B.V.v N # , 6 3 4 q 4 X.X.X.X.@.3.1.6.9.[ . # M k x x x l j.9XtX6XU.].A.{.lXxX[.Z.G.b.m..X.XaXvX9Xb.K.",
"zXMX;XD.F.3X].J.F.=X[.'._.].M.P.U.U.Z.A.M.B.B.B.B.C.Z.$Xa @ 6 0 q [ [ X.X.X.X.@.4.1.y.i.$.. # $XF.k.l l.P.V.g.g.S.P.P.B._.cXvX3Xn.I.*X`.cXcX'.B.I.D.D.",
".X8X*XD.K.3X].T.S.Y.=X_.].].F.K.U.[.].B.B.B.M.Z.B.B.!.%Xa @ < 8 e o.o.X.X.X.o.@.3.9.u.GX%.X a $XU.B g l.Z.M.f f S.S.F.U.].mXBX;XD.I.=X`.zXbX`.N.n.D.z.",
"!.[.m.l.P.3XU.T.T.U.].].].^.F.F.4XrX{.a.j.M.B.3X5X3X^.$Xi o 8 0 q o.X.X.X.X.{ @.-.&.e.GX%.o a W.Z.M.j.M.B.B.^.;XU.P.Y.F.I.8XeXI.D.I./.`.xXbX{.!.C.V.v.",
"`./.C.C.Z.].].6X6XU.C.B.3X=XF.F.6XqX'.a.j.V.Z.C.U.Z.Z.$Xs o 6 4 q } o.o.o.#.@.%.0.w.w.y.| X a $XZ.B.Z.B.Z.Z.;X;XU.U.I.P.C.]._.3X6X^.!._.qX0X{.].].!.M.",
"].].]._._.E._.aXyX5X^.=X4X=XF.l.=X{.'.B.B.V.V.h.a.h.n.$Xa @ 6 q 4 } } o.@.%.,.7.FXSX7.1.` X p $Xv.B.Z.V.V.z.C k S.V.Z.[._._.!.wXbX+Xd.d.5X{.].4X[.!._.",
"`.!.`.'.`._._._.`.yXBXiX^.=XG.x.9XbXwXf.M.p.p.z.Z.M.p.V % @ 7 q q { { X.{ %.,.7.FXi.7.1.` X % U l M.Z.j.g C B B U.A.A.'.!.f.s.qXbXOXs.f.vXmX.X^.^.^.vX",
"^.`.wXvXaX{.0X[._.wXmXdX].=Xv.v.0XxXkXf.M.p.f j.P.z.l U % @ 6 r q X.{ X.o.%.,.7.DXSX7.1...X % I k n.U.j.g k C k V.'.A._.(.s.s.qXBX0Xs.E.hXMX8X/.!.!.cX",
"`._.qXbXlX{.5X4X].rXbXwX^.].^.^.@XbXwXE.Z.V.V.j.p.l x E % * 8 q q 4 _ ` o.o.|  .SXFX0.,...+ p R z k.g.l B C l f V.A.{.kXkX'.'.'.[._.B.Z.C.m.^.=X].!.'.",
"/./..X.X0XlXdX6X].yXBXwX_.^.`.`.wXNXdX!.^.Z.U.k.l l l I % * 6 r q 4 5 ` { { {  .DXSX7.1.X.+ = I z x x x l g l p.M.'.OXbXxX X.X'.!./.C.*Xb.b.C.[._._.[.",
"^.]._._.OXNXvX6X/..X+X{._._.OXyX5X4X;Xj.j.h.h.l l x z E % + 7 r q y [ { o.X.X.+.w.w.w.y.o.+ = D H K x z l l j.j.A.].'.OX@XkXkX]._.Z.m.G.I.Z./.{.OXOXA.",
"9X0X{.[..XqXqX4X=X[._._._.[.wXyXOX].U.h.l.x k z z K J D $ * 8 8 q y _ [ X.o.o.+.1.1.t.y.@.+ = D J K x g.h.j.4X4XZ.Z.A.A.A.mXMX{.B.Z.b.b.=X/.OX@X@X0X'.",
"xXbXwXOX{.].].;XU.=X].].U.Z._._.wXbXyX~.*XU U I D D D G - * 7 q 4 4 4 y [ [ o.#.3.5.6.0.{ o # N x g f g.M.B.eXeXU.z.V.M.A.tXdX_.N.C.n.m.^.(.wXxXwX(.(.",
"dXlX@XOXOX].=XL.S.U.3X=Xn.n.].{.wXMXsX%X,XW Q R I D D G - O 6 q q +.o.y 4 [ } o.3.-.u.DX%.o % U z l l f g a.M.B.A.U.U.Z.M.B.d.d.s.M.N.N._._.wXbXkX(.B.",
"'.`.wXvXwX_.^.R.T.L.3X*XS.P.3X{.OXcXsX$X<X;.;.Y D F D F $ @ 7 q e o.o.q 4 y X.#.3.-.i.DX%.@ % I C x x l g g.V.Z.].=XZ.V.V.M.d.d.d.d.d.E._._.wXvXkXE.M.",
"].[.yXBXyX[.;XR.H.L.n.V.U.U.A.A.{.5X4X:X<XT T ! Q ! n F $ O 7 0 0 e q [ ..X.X.X.o.+.y.GX%.X % U K H h j C B h.a.M.Z.V.S.n.C.B.0XdXqX}.`.`.).[.{.{.'.].",
"C.B.qXBXqXd.~.J.K.D.F.P.4X].A.'._.].*X%X<XT P ! :.! D F $ + < w w 9 9 ..O.o.O.X.o.} u.GX%.X % U E H H H C B l g c.M.V.F.F.V.Z.yXCXlXXX|.(.(._.].].].].",
"V.M.qXNXwXs.Z.P.Y.K.S.P.3X[.0X0X].[.*X$X;.T P Y R T Y F % + 7 0 w - s _ ` [ X.X.O.o.r.t.o.@ % U E J J L F.l.B l 3X0X3XI.I.F.V.4XqXOX|.|.+X+X{.].A.A.0X",
"V.N.[.qX{.d.Z.^.3XI.F.P.3X'.mXmX+X].*XZ Q n P n n n P F # + < 9 ^ a S 9 9 _ X.X.O.o.=.9.` @ % M C E L S.P.P.l g eXBXyX3X6XK.S.Z._.`.|.XXvXbX8X_.Z.Z.MX",
"B.C.N.N.d.d.d.!.3XC.M.C.5X{.kXkX{.^.~.Z Q T n U M P P F p S 9 2 2 p u s ^ ' X.O...} *.=.` X a Z k.C k.z.V.V.g.a.8XkX0XA.U.K.S.U._.).oX#XaXdX.X].B.A.dX",
"C.C.N.N.d.s.d.!.].A.A.OXcXcX{.]._.].m.b P Q ~ Q ;.Q P P ~ :.' s & p u ~ :.:.O...w 0 5 3 < @ a %XU.Y.Y.z.p.a.V.M.A._.(.].U.K.S.=X`.|.zXlX'.[.]._.].A.(."
};
