/* XPM */
static char *result[] = {
/* columns rows colors chars-per-pixel */
"75 75 221 2 ",
"   c #2C6D2B",
".  c #2D7329",
"X  c #32732C",
"o  c #367C28",
"O  c #2D6B35",
"+  c #306A3A",
"@  c #2F7533",
"#  c #2D723B",
"$  c #357B37",
"%  c #31723D",
"&  c #447D2B",
"*  c #447A3A",
"=  c #346546",
"-  c #316B42",
";  c #336E43",
":  c #386F55",
">  c #5B745C",
",  c #67716C",
"<  c #31890F",
"1  c #399506",
"2  c #3A9606",
"3  c #36940D",
"4  c #3A950D",
"5  c #3E9A0D",
"6  c #2E8615",
"7  c #2E861D",
"8  c #2E8A1B",
"9  c #308715",
"0  c #348C16",
"q  c #31861D",
"w  c #348B1C",
"e  c #398E1D",
"r  c #369313",
"t  c #3B9413",
"y  c #379810",
"u  c #3D9913",
"i  c #36911B",
"p  c #3B941C",
"a  c #3E991C",
"s  c #3FA11D",
"d  c #2F8623",
"f  c #2C8A26",
"g  c #2F842C",
"h  c #2E882B",
"j  c #328624",
"k  c #398424",
"l  c #348A23",
"z  c #398E23",
"x  c #33852C",
"c  c #38802A",
"v  c #348A2A",
"b  c #3A8D2A",
"n  c #369121",
"m  c #3B9323",
"M  c #3E9922",
"N  c #3C9229",
"B  c #3F9829",
"V  c #2F8630",
"C  c #338332",
"Z  c #398438",
"A  c #419D0E",
"S  c #428F1B",
"D  c #459617",
"F  c #429D14",
"G  c #42971D",
"H  c #439D1B",
"J  c #499E1C",
"K  c #45A20E",
"L  c #49A40E",
"P  c #4CA90E",
"I  c #45A214",
"U  c #49A514",
"Y  c #47A913",
"T  c #4DAA15",
"R  c #45A11B",
"E  c #49A41B",
"W  c #4DAA1B",
"Q  c #52AD14",
"!  c #53A71A",
"~  c #51AD1B",
"^  c #54B116",
"/  c #59B617",
"(  c #54B21C",
")  c #5AB51C",
"_  c #5BB91E",
"`  c #61BC1E",
"'  c #438D24",
"]  c #419525",
"[  c #439C23",
"{  c #489826",
"}  c #449B2A",
"|  c #499D2C",
" . c #549F2E",
".. c #468837",
"X. c #4B9736",
"o. c #529D33",
"O. c #589439",
"+. c #46A122",
"@. c #4AA423",
"#. c #4EAA23",
"$. c #46A02A",
"%. c #4CA42B",
"&. c #4FA82B",
"*. c #52AD23",
"=. c #5CAB24",
"-. c #57A42A",
";. c #53AD2A",
":. c #5AAC29",
">. c #55B222",
",. c #59B623",
"<. c #5DBB23",
"1. c #56B22B",
"2. c #5AB42C",
"3. c #5EBA2A",
"4. c #54A435",
"5. c #57A636",
"6. c #5CB533",
"7. c #58B135",
"8. c #5EBA32",
"9. c #62AA2D",
"0. c #62BD24",
"q. c #64B42C",
"w. c #62BD2B",
"e. c #60AD36",
"r. c #72A63B",
"t. c #63BC34",
"y. c #68BB36",
"u. c #61BC39",
"i. c #73BD36",
"p. c #61C01F",
"a. c #5FC029",
"s. c #64C225",
"d. c #6AC626",
"f. c #6CCA26",
"g. c #65C22B",
"h. c #6AC62C",
"j. c #6BC92C",
"k. c #70C62D",
"l. c #70CA2D",
"z. c #66C232",
"x. c #6BC633",
"c. c #6CC932",
"v. c #66C039",
"b. c #6BC53A",
"n. c #6DC93A",
"m. c #71C433",
"M. c #73C73B",
"N. c #3A8943",
"B. c #478746",
"V. c #508D50",
"C. c #599B59",
"Z. c #6D9846",
"A. c #668B5C",
"S. c #5EA74D",
"D. c #6CBC48",
"F. c #579371",
"G. c #7B9C65",
"H. c #5EA066",
"J. c #6BB56C",
"K. c #73B76C",
"L. c #67A977",
"P. c #77B37B",
"I. c #6DC444",
"U. c #76C344",
"Y. c #85925A",
"T. c #86B957",
"R. c #97927F",
"E. c #91B26D",
"W. c #8FC35D",
"Q. c #82D165",
"!. c #BDD177",
"~. c #CE7FB3",
"^. c #CF7BC2",
"/. c #72B086",
"(. c #6CA594",
"). c #73AD9D",
"_. c #6EA5AA",
"`. c #75ABAA",
"'. c #72A5B3",
"]. c #73A9B8",
"[. c #77A6C1",
"{. c #AC9193",
"}. c #8DAD8D",
"|. c #A8B79B",
" X c #B0B795",
".X c #B98CA8",
"XX c #9BBDA7",
"oX c #83AFB4",
"OX c #B9ADAB",
"+X c #C785B5",
"@X c #D48FB9",
"#X c #EBB4BE",
"$X c #86CA92",
"%X c #93D799",
"&X c #B6C583",
"*X c #99E296",
"=X c #89C4AE",
"-X c #ACE3BA",
";X c #B4EBB1",
":X c #D7F694",
">X c #C4CEA0",
",X c #EEC4B2",
"<X c #CAEABB",
"1X c #DAF4B4",
"2X c #E6FDA9",
"3X c #F5F0B0",
"4X c #8FB7C4",
"5X c #DBBFC4",
"6X c #EAB6D6",
"7X c #9AC8D3",
"8X c #A8DADB",
"9X c #B7DEDA",
"0X c #B4EBCC",
"qX c #B6ECDB",
"wX c #BBF3E2",
"eX c #DDCDCA",
"rX c #E6CCD2",
"tX c #F3C8D1",
"yX c #D0EFCC",
"uX c #C8EED5",
"iX c #C4EEEC",
/* pixels */
"j l M H ~ j.g.F p w q w 4 2 K U p j l M a I 5 _ j.8.8 f s +.n d v B u z.b.%.d b [ I s.j.*.u e j q 0 4 A Y R w f B a F K L d.h.M j m R [ l j m M #.x.v.",
"q j M F ~ j.h.R H p e 0 4 2 <.w.#.M B e 0 E W Q ^ s f l 7.v.;.M N l j @.#.M d n H I s.l.,.H G e t r 4 T a.3.M B m q a W T Q W p q } t.3.[ [ z l p #.#.",
"q 9 p R ~ j.h.W E D 3 1 2 2 g.n.>.+.[ q j W W Y I M l l 8.n.>.s M x x M +.p 7 i J R g.n.,.J F A 3 4 2 ~ c.h.E [ e q a ~ T K R z j | n.h.Y H b x b [ s ",
"#.#.R F U ,.) ~ E ~ ~ T A L *.,.>.>.%.j l 1.<.W R M v v ;.,.( 1.&.v v M +.p p M [ [ #.;.#.! T ! T Y L T ,.,.>.2.m f [ 3._ Y [ N h } 1.>.( 1.N x b +.R ",
"M.n.~ A A L A ~ Q 0.l.0.Q Q F F ,.n.6.7 8 z.c.( R [ f j a I >.c.6.j l [ H R [ +.| [ e q D ! ^ j.f._ T T U T n.b.} 8 @.n.s.Y [ b v v E Y g.b.} j N s H ",
"g.g.~ A F U I ~ Q <.s._ Q Q E U ,.g.1.t i 8.a.( R M l n [ Y ,.j.3.i e ] R H J H H [ e 0 J / ^ s.<.( W T Y T w.t.@.i #.g.3.E +.m l n R Y d.c.+.e m +.F ",
"K L 2 1 A F U d.j.( Y I I E F I U I ~ b.z.W I I I F [ M +.R >.j.0.R +.J H J R H t e p t ~ k.s.Y Y Y R E R R U U 3.n.,.5 Y I R +.+.+.+.Y h.z.*.E R R U ",
"I I F 2 5 H U 0.f.( Y R R E R R R J ~ j.d.T I I I I R R +.R ,.j.<.U F U I J [ H p e i 0 ! b.3.Y I R R E E J H I s.j.<.K E u R R R s +.@.z.j.~ F Y I U ",
"E *.R H H F F s.d.( I R H s i 0 p D T k.h.T K I I R u p m 0 H ~ T T T <.g.#.e j q ' q q l m M s s R R G t p t 2 <.j._ K I Y E u u p l p #.W U U T 0.s.",
"T ~ E R H t F g.c.( I F u I 0 9 e a E m.x.T I I Y I a M q q M [ E ( Q d.c.&.7 x $ o o q f g f [ u R R a 9 e p u <.j._ u I u u u a l q l +.R U F ( h.j.",
",.<.E F H G H >.,.W I Q ( ~ I a p 0 a 2.,.R I ~ >.#.p n m p m m G I Y ( 2.} g N.P.P.T.T.E.P.J.| R u D t 0 z n p #.,.( K I *.1.a i n n m p H H R W _ _ ",
"c.c.T 4 D H R H I I F ^ j.d./ ~ M 7 i @.H U I ,.c.8.f l M R p q 9 r 1 F R m o C.qXyX2X2X1XuX-Xo.R 4 r t p z l j H I I K Y c.n.+.8 n R a 0 0 G R I I U ",
"g.h.E 2 F W E R E F F Q d.s./ ( H 7 l +.Y R F ( z.1.d l R W a w w t 4 F %.H z H.9X9XyX1XyXuX-Xo.! D 0 r p e x x } R I I Y 3.v.M q p #.@.p 0 H R I I F ",
"c.g.T 2 U h.w.E H u D F U U g.z.$.7 e R F u 2 F E M v l t.j.( F H 4 u F R :.b.J.`.[.oX`.7XiX0XU.b.G q w t p v v B +.R F s R [ m 9 | x.g.R H U U F 4 1 ",
"x.b.T 1 U x.z.E R D r u H Y g.b.+.8 e R I 4 4 F R ] j i 0.j./ U F 4 t H U ,.z.K./.'.[.[.4XwX;XU.m.] q w a e l c } } R R H E H p 0 E h.h.U I F A A 2 1 ",
"W W D t a ] ] H R H F R I Y s.x.#.a H R I I F H E [ M F s.f./ U U 4 t F H _ c.y.S.L._.].`.K.D.m.i.] j l p t S z z M a t u R F F F ~ l.s.U A _ 0._ U E ",
"I R H p m j q H R I I R I Y a.c.>.s R R Y I I R J H H I g.j._ W E 4 4 H R _ j.y.-.C.(._.L.-.=.k.b.] k l p p S S ' z p p t H F L K ~ c.g.U K 0.j.s.Q ~ ",
"U R p e z z m E Y Q >.W I E ,.,.W I I I Y W >.T I E ( *.*.;.*.W E F u D F ~ w.:.' B.F.(.A...J q.q.] j x z e e ' k o k m a F A Q _ ( *.*.R I ( _ _ <.,.",
"F F p j z | R ~ T a.c.3.u R R I R R I I I d.c.( K W c.b.t 6 m | @.[ +.u 1 D ;.| . + = - = O o -.-.z g g k j q o X   . m t 4 1 <.c.>.< 0 J E I I ~ c.c.",
"F J z k m H I Q Q a.a.,.I R R I Y Y Y I I w.g.( T Q w.t.] p ] } | [ H y 4 F %.| @ # + # # O @ 4.-.z g N.V.V.O.V.B.> Z M e e 1 ,.h.:.t M ] H H R *.c.c.",
"1 t e j e R U d.j.^ Y Y I R I I _ d.p.L L I L _ j.0.U U t.y.%.l z t t u y r m v C C C $ C Z C h j k C L.0X;X:X:X<X0X$Xz 4 4 t F U *.n.t.p l p r W c.h.",
"4 t e q e R I s.j.( K Y R R R K _ j.p.L L I I 2.n.t.E U s.n.@.q w e t 4 y i j j d h h h V V V V d j c /.iXuX2X2XyXwX$Xz 4 r 5 D F ( c.t.w q w t E c.c.",
"4 e e e D J U s.j.( R R w i a D Y W ^ ` 0.U F H [ [ R R s.j.>.a G t t y r i i i n n d h V v V f 8 ;.S.P.7X4XXXXX9XqX%Xe.,.u r F U ~ j.g.H M p i F R R ",
"3 1 4 4 D F T d.c.( I a 7 7 p p s I Q f.f.T R m f n +.I s.c.>.U H D e t r r r a i n v v C h h f 8 8.M.K.(.'.'.'.8XwX*XI.t.u t F F ( l.h.R H a p p 3 4 ",
"U T I F A L ! ` ,.W R E %.| z e H F T _ <.R p n n m R R _ <.T F G e z q i r r i l l b v C C V h l q.i.D.L.(.].].=X%XQ.b.g.y t F F ~ 0._ U H p i i r y ",
"x.j._ Q Q A A J F U I ~ b.y.] k p R L K u r 8 m M a s I I I A 5 t q j x l w i m v C C x x v C V v e.m.y.4.H.)._.H.4.q.m.g.u u H U I F F u t 0 f e a u ",
"g.s._ Q P P P R R R u W z.u.b x ] R I Y E i r a R I u I I I A F p k x x x z z b C C C x C x C Z x e.i.9. .C.(.(.C. .9.h.0.t t F R R R U F R p l w i t ",
"E U Q Q ` d.w.R R a r y u a l l N [ W h.h.W R ,.z.<.y 4 F U I H H x C C C c x x x C x x x C C C c  .9.{ X + : : ; X ' ,.~ 5 u F H U J W s.z.#.$.B l w ",
"H U Q Q ` k.h.! I r y y y i w j ] H ~ m.h.Q W a.j.<.3 y I R I I [ v Z B.* & ' & * Z C x x x C C x  .5...# - - - + @ ' ;.W 5 r D R R H E j.c.W +.B d l ",
"H K / s.` ! ~ U E u u Y 3.3.E E E F U ~ ~ 0.s.,.>.W H u u y F H ] v Z }.|.&X!.&X X|.V.c g g $ C x b ] Z C ; $ V C k e H H e y F I R R R W ~ W R M x d ",
"I K ` f.0.L J E @.R I ( c.c.( W T F U I T g.c.>.s R R s u 2 u E H j * OXtX3X3X3XtXeXA.o x x x C V g x C V V g d e p t t 4 e r D Y I R R s s I I p q f ",
"I K _ l.0.J @.{ M a u W <.<./ ) T F F F F g.x.~ 5 u +.R u 5 F R R $.O.OX6X#X,X,X6XrXG.X.N o C C C V g h v v l 0 r 3 4 r r G y F I I R I Y Y W >.W p i ",
"I I <.c.w.U [ w j p t F R Y a.j.( F F 4 4 g.c.W 1 t [ E R R E R *.b.T.R.+X~.~.@X6XeXE.U.S.v C Z C x v l p p 0 r r 4 4 0 4 [ H H R I R R I I a.c.a.Y R ",
"I R 2.t.1.R E p m p p a R Y a.j.~ I H 4 4 3.g.W 4 u J [ [ +.R s ~ h.T.E.{.~.^.@X5X>XW.U.4.k C C C c l e e t 4 4 3 4 4 3 r H H R I H M [ I I <.d.<.Y Y ",
"5 u p e G *.~ w.t.| q p R Y s.j.~ I F r y u D F H D a p e w s s W h.i.r.Z.{.@X+XY.r.i.M.&.j C C x v l p r 4 4 3 4 4 r 3 3 r 3 y y p v n R R Y Y ( g.s.",
"u a w q p ~ ~ d.n.$.f n R I s.d.>.s H r r 4 1 A I I t M q f n s W h.m.9.Z.R..X{.Z.-.i.M.7.j g x x z m t 4 4 r r 0 4 4 4 4 4 4 a p m v l B +.R s ( d.d.",
"r i m M W 0.0.T E m j l u 5 T ( a i n a y u F ~ 0.;.0 z N B B i F ) 9.' * > , , * c :.q.@.7 h l z m e a H G e w e t y u y R H m l n } m b n a u T j.h.",
"f j ] H ~ j.g.u e w j q 3 3 K K p 7 l M a I A _ n.3.q l M } n 8 0 !  .o + = = = O . { =.H 7 l n p p t u R H j k z G a y 4 R [ n d n $.M l d n u ~ c.n.",
"j j M F ~ j.s.I a e w 0 r 2 Q ~ +.l n m p R Y / <.;.w l &.1.s i t E J k $ % + + # . ' ! G 9 w r t t r D R H N m z m p u y R [ N h B *.#.p n N m +.z.8.",
"q q G H ~ j.h.E H F r 4 2 2 g.n.>.+.M 7 0 E W T U a k l 6.n.>.R D A t S z b Z c C b e 4 t t r r 3 r 4 F U R R [ z w p R Y R s b h $.n.z.@.+.v d n R s ",
"i r G H ~ g.g.~ U F 5 A 2 A 0.z.>.R M j w #.~ Y R ] l v 6.x.( Y F t p D t p e w f w r u D u 5 5 2 A 2 A I Y U E m l n Y Y R [ b x | z.a.T @.N x N +.+.",
"v.t.W A K T I ~ ~ <.s._ P L U E >.x.7.7 l 8.z.( R B d l +.E >.j.6.e e ] H :.u.6.F u F F E W ~ s.w.Q T T I E s.t.N d $.z.a.R $.n h n R T s.z.} l N [ R ",
"n.n.( K F U K Q T <.j.s.Q Q U U 3.c.6.6 8 z.c.>.R M 7 f M I _ c.8.0 j [ H ,.n.g.T F R I U W ( h.h./ Q E U W c.n.a 6 +.c.z.R M n d m +.Y g.c.+.f b +.I ",
"( ( K 5 A I F <.p.) ( W U T F U W ( *.1.;.>.( Y R R p M R R >.j.w.H ] R R W ( Q A 5 U F ~ s.<.( ~ T U U I U ~ ( ;.;.>.*.~ R R M m M R T g.c.#.M ] R I ",
"F I 5 1 u H U d.j.^ Y I R R H I U U ~ m.h.T I I I I R +.@.R 2.c.0.E R U U F F A 1 r F F ,.j.s.U R R E Y F R U I w.l.,.I s I s I +.+.@.#.z.c.;.E E E Y ",
"T E F D F F U 0.g.( I R R R H G H D ~ l.g.T I I I u s R M a *.0.,.E I ~ ~ Q U U F D H H ~ h.s.U R H R H H H J D 0.k._ I I I u I H [ B +.2.<.~ U T W ~ ",
"E *.@.E H t F w.j.( I H u s 0 9 e t E m.h.U I u E R u p l q a I Y U U 0.j.<.~ #.H R a t >.j.s.R E u H p 9 0 p t q.l.,.K u I E s a n j q J U I F ~ j.j.",
"~ ~ E E H t H w.x.~ I I Y R 3 0 e p E z.g.T I Y Y R M m w i ] +.H R U <.d.<.~ *.R J G t ;.x.w.U I Y R u 0 0 p D 2.h.>.I Y I E a M m l p [ [ R I ~ g.g.",
"g.z.E F F H [ R T U U ! d.0.^ ! M q p #.W R I ,.g.2.n f M [ p 0 p E J T Q ,.z.w.u G H [ E E R U Y 0.s._ W +.0 0 R #.Y F E a.z.[ j m [ p i 0 G J U T T ",
"c.c.T 5 u J J R R H F ^ l.d.^ ~ p 7 i @.R E R ,.c.8.f n u R u 0 e +.I U I ,.h.w.A u H J H J R F U s.j.` ^ R w j M R R I T z.b.B j m R I r 0 H R R U U ",
"x.d.T 1 I 3.,.R J H F I ( ( <.0.[ d l R I u 5 T >.@.j l *.<.W D u R F F 5 ~ h.<.5 2 >.3.*.J R F F ~ ^ _ s.7.e f p R F u u ~ *.m j [ ,._ H t R U F 5 5 ",
"c.z.U 1 T m.z.E J F r u I U g.b.+.7 i R I 4 2 u H M j e t.j._ F F I F 5 1 ~ c.<.2 1 0.n.,.F D u 5 F F ) c.6.w 7 a R F 3 3 R +.n q [ j.s.U F I I 5 3 1 ",
"w.w.U 4 H 2.1.E R H u u I Y w.b.#.i p R I 5 u F +.M n p 0.j./ L U Q T K A ~ w.,.5 1 ;.2.#.H R u u H I >.x.8.i i H R F 4 u E [ M 0 W j.d.L K T Q U A 5 ",
"I F F G e q q H +.R E R I Y s.c.#.H R E I I U J J H R R s.j./ A Q j.j.( ~ T F H G a w q p +.E H R R I >.z.z.@.s R R Y I I R E [ H >.j.d.L A ` j.` Q W ",
"I R H m z l w ] E F I I R Y 3.h.>.I R Y E I U R H H I U 0.z.~ I T g.d._ ( W U H p z w q p E I I U R I >.j.a.R R R U U U U J E E R ( h.g.L L _ d.0.^ ( ",
"L D p q z } H *.W <.z.,.I R R W R R I K I 0.g.( I W w.t.H p H R U T W 0.g.) F G e e ] [ E W ~ g.w.W I E E E +.R I I ~ w.0.U U ,.z.;.t a R U U T / h.s.",
"U R e j z [ F Q T 0.c.a.I R s I I I u 5 Y g.j.( A T c.b.p q p +.J R U w.n.,.U H e j [ R T Q ^ j.z.W R R R R Y u I I ( c.g.I K <.n.:.9 q H R F I ( c.j.",
"A t z k p J U 0._ ) ( W I R I I ( _ / Y Y ( ~ _ ,._ ) :.*.&.[ p p H F g.c.( u p k q G F Q 0._ / ( E R R R Y ,.<.Y I U ( ) _ _ _ ) ;.;.;.] p a u W c.j.",
"1 r e j e J U s.j.( K I R R R I _ j.p.K K I K <.c.g.I I g.b.%.q w t u w.l.~ 4 e k q H A ) j.s.P Y R R R s Y j.j.T L I I T x.b.~ I >.c.y.0 w e 4 W c.c.",
"4 t e q D R U w.j./ Y R a a I u / s._ Q T Y F ;.t.2.E Y s.c.@.0 z e t ;.w.~ 4 e e 0 H L ( d.s.U Y s a M I Y <.p./ T Y Y R 2.6.#.R _ j.w.p 0 e e R 3.a.",
"4 0 t t D F P d.j.( Y M 8 q p u D K Q f.d.T H p q 0 +.Y a.j.>.R [ p t r r 4 A 0 t t D J / j.a.Y R i f i p y Y L p.j._ I H e q ] R ~ j.g.R [ p t t y 4 ",
"4 5 4 A F A P w.j.( H H i n N M H I Q d.g.Y a p j l [ R s.d.,.R H p e p r 4 A A 2 D F U ( c.a.Y R i w n m a R I ` j._ H ] l l ] J ~ j.g.Y R M p p r r ",
"0.w.! T I L I W E Y I #.y.6.z e a F Y Y T p w z m p R I U T I u p l w p u ~ q.0.Q P L I U W E I I 2.6.&.j i s Y Y T s 0 z ] p H I U W U u a n l 0 p u ",
"c.k.` Q Q K K R R R F ~ b.y.b k M R I 5 I 0 8 i a u I I I I A D t j j p t =.m.0.^ Q L K I R R R I z.n.4.x l R Y 5 I u 0 q p F F F I I Y u u i l l p u ",
"1.>./ Q ^ / / J s u u u *.&.b h N J T ,.,.R H #.>.#.y F I I T >.;.M N z w [ ,.! ^ Q ` / ~ E H u y W #.B v l [ R >.,.#.H R >.,.I A D U R ( >.+.m m l i ",
"H I P Q ` i.h.U R u y 3 y i l l N H ~ h.j.( W <.c.3.2 y R I ,.c.g.R } z j m J L Q Q s.k.,.F H r y y y i f l [ R s.j.s.W >.x.n.U 3 5 I E h.c.*.+.N j j ",
"R I Q / ` 0.w.E R u y u Y R p p [ D ! w.0.( ( <.s.,.u u u I ( s.<.I } b k N H P / _ 0.w.>.R H y y s R s i n +.R ,.s.<.) _ s.0.R t D F Y a.s.W +.N v l ",
"H K ` d.q.U E E Y s s ~ c.z.>.W E U I I U a.c.( I R R s u 4 u I I I [ l j p F P d.k.! U U R E R I a.z.a.W W I I I Y ( c.g.E R E H F 4 2 5 I s R M j f ",
"F L ` l.0.U @.{ @.R u ~ c.d.^ ^ U I I I Y w.c.>.R R +.R u 3 5 I I I H e q t I T d.k.~ J @.[ +.F I s.j.a.Q T K I E I >.z.g.R H H [ F 3 4 Y 5 Y R a 8 8 ",
"U A ` h.0.J [ D l p u I W ~ s.a.( F F u 5 g.c.~ 4 a R H I I I I T g.0.E H H I T h.d.~ E ] e p t u R Y _ g.a.I s u 4 W c.w.A 4 H E I I I I I ,.g.>.s s ",
"R U 3.n.3.J J w l m p H R Y g.j.( I F y y t.n.~ 1 t H +.@.R I I W j.j.W Y Y I T h.z.~ R a q e t a R s ( z.g.Y R u r W n.g.A 3 H [ E R E 5 K a.j.a.Y R ",
"F F @.%.#.W E *.&.M e p +.Y a.j.( F u 4 y W ~ E D F a H p p u I Y >.( _ ( T I I #.-.W R W &.%.e p a R ( j.s.R s t 3 F *.! F D F H ] M a R I W _ ( _ ( ",
"A a w q p *.~ x.b.| j m R Y s.j.( I H r 4 4 4 A I F r p q q m H R u Y s.d.( 5 i w 0 E W <.c.8.e q M I ( j.s.R R a r r 4 4 I R t a m q w ] R R I ( j.d.",
"t p e w G >./ <.w.} j l R K _ s.#.M a t r r 4 I W R e N z z N ] a s I a.j.W p m w i #./ ) <.1.j l M I W s.<.M M p r r y 5 T ~ a e z l b m M s u W d.d.",
"w l B H *.c.w.A r l j j 3 2 K U i 7 e a t D I _ x.2.9 w ] } N j q a u 0.c.;.q l [ E 0.c./ 3 p j d r 3 5 Y R q d m a F D U g.c.H q z | } l d i u Y h.c."
};
