/* XPM */
static char *result[] = {
/* columns rows colors chars-per-pixel */
"75 75 113 2 ",
"   c #379305",
".  c #399406",
"X  c #3B9906",
"o  c #36940C",
"O  c #3A950C",
"+  c #3D990C",
"@  c #2D8514",
"#  c #2F8813",
"$  c #2E861C",
"%  c #2F881C",
"&  c #308715",
"*  c #338B16",
"=  c #388D16",
"-  c #31861D",
";  c #348B1C",
":  c #398E1C",
">  c #369412",
",  c #3B9513",
"<  c #379811",
"1  c #3E9A14",
"2  c #36911C",
"3  c #3B941C",
"4  c #3E9A1B",
"5  c #2F8622",
"6  c #328623",
"7  c #358B23",
"8  c #398D23",
"9  c #338629",
"0  c #358A2A",
"q  c #398C2B",
"w  c #379023",
"e  c #3C9323",
"r  c #3E9922",
"t  c #3D9329",
"y  c #429D0D",
"u  c #419710",
"i  c #429D14",
"p  c #40971C",
"a  c #439D1C",
"s  c #489F1B",
"d  c #44A20E",
"f  c #49A40D",
"g  c #4CAA0F",
"h  c #50AA0F",
"j  c #45A214",
"k  c #49A514",
"l  c #47A812",
"z  c #4DAA15",
"x  c #45A11A",
"c  c #4AA41B",
"v  c #4EAB1A",
"b  c #50A717",
"n  c #52AD14",
"m  c #51AD1C",
"M  c #54B115",
"N  c #59B316",
"B  c #5FBA13",
"V  c #55B21C",
"C  c #59B51D",
"Z  c #5CBA1D",
"A  c #61BC1E",
"S  c #419725",
"D  c #439C23",
"F  c #489F26",
"G  c #41972A",
"H  c #459C2A",
"J  c #4A9F2E",
"K  c #46A122",
"L  c #4AA423",
"P  c #4EA922",
"I  c #47A128",
"U  c #4BA32B",
"Y  c #4FAA2B",
"T  c #52AD23",
"R  c #59AF22",
"E  c #52AC2B",
"W  c #55B322",
"Q  c #5AB523",
"!  c #5DBB23",
"~  c #56B22B",
"^  c #5AB42B",
"/  c #5EBB2A",
"(  c #4FA432",
")  c #53AB31",
"_  c #57B030",
"`  c #5BB433",
"'  c #5EB933",
"]  c #60B620",
"[  c #62BE24",
"{  c #62BE2B",
"}  c #62BD33",
"|  c #68BF36",
" . c #61B538",
".. c #64BD3A",
"X. c #62C01D",
"o. c #6CC81F",
"O. c #64C225",
"+. c #69C526",
"@. c #6BC926",
"#. c #65C32B",
"$. c #69C52C",
"%. c #67C82A",
"&. c #6BC92C",
"*. c #70C82D",
"=. c #66C332",
"-. c #6AC633",
";. c #6CC932",
":. c #66C33A",
">. c #6BC53A",
",. c #6DC93A",
"<. c #71C731",
"1. c #71C933",
"2. c #70CA39",
/* pixels */
"v c s p , a -.;.v j j j i * * = 2 T $.{ k j j x 4 r t 7 7 D K x x k O.$.C v c c a i = ^ ;.{ j j j k , * * 3 4 { -.T j l l x 4 r w - 3 K s x j C $.O.b ",
"#.x 1 p s x c v k j N O.! z c 2 ; 4 T c j j Q #.E 2 7 r p 2 = 3 c c v n ! #.W 1 i a s c c k k k A [ V c K ; * Y v c j z { { w 2 e r 4 2 2 D x k v V #.",
"#.j + i s a a x s j C *.O.M m 3 $ 3 x j x j / ;._ 5 7 4 x , * , c x k j [ &.Q + 1 a s a s x y b +.&.B z x % 5 K c x x m ;.,.w 7 3 j s * * D a j k v $.",
"#.j O k Q T x c i y b C N ! ^ e $ w K a 1 1 V ~ I 5 w W Q a 1 p x a i y Q $.W + + W W c x x i i C C ! ! Y % 7 K x j 1 j W _ w 5 I C m 3 1 s x s 1 k #.",
"#.d   m ;.{ x a 1 1 1 j z -.>.r % w x j O   i a e 5 3 =.$.V j j j y +   W -.C . + +.;.T a i > 1 s d ! ,._ % 2 r a 1 O O x r w 7 E ;.O.k s j j + O i -.",
"{ i O c } ^ s s 1 < 1 j v =.:.D ; 3 x j O O s F r 2 < #.@.z d f k f + + W $.V O u ` ` T a s 1 < a j Q ,.' % w 4 k y O i x r w * W @.O.d d k z j O j { ",
"s i 3 3 ; ; a c a x x x v #.$.P a x x j j j x c K K x %.@.M d n &.+.M n k j s 1 3 ; ; 3 x x x x x j Q ;./ 4 K x x j k i x a K 4 Q @.A d d { &.] m z j ",
"x p e 8 6 ; s s i j x i v #.-.P x x c k j j k x c x v #.&.m d n +.+.M m z k p 3 e 7 - p a k j j j j Q -./ x x x k j i k x a x j Q -.[ j k [ %.! M m k ",
"s : : 8 S D m z ! { W j x P v x x x j j ! { v j T { { p p x k z z m O.O.n i p ; 8 G D c m V [ / x x v v c x x x j V O.Q j k Q } P 3 a x k v m Q #./ j ",
"s 8 6 8 s k z z O.;.Q x x x x x j j d v &.;.z d m 2.| = * 3 x x k z #.-.m i p ; 6 D s b z V %.=.x x x x x x j x j Q 1.[ j j #.,.L @ ; F x s x Q ;.O.j ",
"p 7 7 S x k ! Z Z ! v j x x j m Z z j l W ! V C C ! ^ L U D 3 4 i j #.;.b i p 6 - F i V Z Z Z W x x x x c W V k j m Q C V V Q Q T U I 3 p p i W ;.{ 1 ",
"= 6 7 3 a z $.%.z f x x x x l / &.Z d j j d ! ;.[ j z -.>.D - = = i $.;.f = : 7 8 s j ] %.! l l x x x j m %.%.g d j d m ;.;.b j Q ,.` % 7 : , T ;.{ . ",
"p ; : p j z #.%.z l x 4 4 x j ! O.Z g z j s ^ } ~ x m $.;.s ; ; , 1 / { k , : 8 = a y ] &.[ j x K r x x v O.O.n z k j c } } L j Q %./ 2 ; : = P #.W O ",
"= u = p j z %.&.z x 4 % 2 2 < j l M @.O.k s 3 ; 8 s z +.%.P a r 2 , 1 1 o O , = p i y A &.O.l K 2 % w < i k f O.@.V j 4 3 ; F x Z &.{ x D 3 , , 1 + O ",
". u u u j v %.;.m x 4 % w w r 4 j V &.O.j a 8 7 t s c $.%.V x r 3 3 > > o O O O u y s A ;./ j x 2 - w r p k f +.&.V x r 7 7 D i Q &.O.k F 3 3 , , O O ",
"] n k k l l v v x l P ' ) w w 4 k l z v 2 : e e 3 a k z v j 1 r 7 - 3 < T ! C z s f f b v v j x ^ ` H ; 2 x j z z a 2 w e e 4 j k v z i p : - : , s ] ",
"<.C n h y y s s x j W ,...w 5 r x j d i % % 3 1 i s j j j y < 2 % 7 3 4 / ;.O.M n f d j c x j v =.>.( 6 8 s i d j , # ; 4 4 j j j j j + 4 ; 7 ; , c &.",
"C N n n N N x a 4 < l ~ Y 0 0 r x l V W 4 4 L W x y i i k v m c e t w 2 P ] C n n M V c x 4 < < T ^ G 9 8 D k m W x 4 a P m j < i l x m P r t 8 ; p ^ ",
"j n n A &.{ k s < > < < 2 5 5 r K W ;.#.m m O.,.W O O s j [ ;./ K t 6 5 4 a k n N +.;.V x 4 > < < , 8 6 8 D s +.;.Q v W ;.=.d o 1 j v &.&.v D e 6 ; a ",
"f n N A +.[ j s < < < x 4 2 w K x m #.O.V V O.#.T O 1 i i Q #.Q x I q 6 e j k N A [ -.m x i < < 1 a 3 ; S s s { +.Q M C #.{ i > 1 1 v #.#.v D t 9 8 s ",
"f A &.C k k x c j i W %.#.v v x j j j z -.-.V c x s a 1 < i l j x r 7 5 4 j M +.[ b b b x k i l #.-.Q v c s k j l Q ;.O.v l x x 4 + + j l x x w 9 : x ",
"f A *.C c L L L x j W ;.%.M z j j j j z #.-.m x s c a O . d x d d 4 % 7 < d M @.| b L s L K i x #.;.Z z b y j j k Q -./ j 4 x K 1 . + j d d j 4 - = j ",
"f O.*.Q k F : 8 4 1 x P m [ O.v j i + j $.-.k > 4 x x j d i j z / / x 4 x j M *.$.v s S e 3 1 i m v ! O.! j j 1 + W ;./ 1 < 4 K x 1 j j j Q { P 4 x j ",
"j #.;.Q a p ; ; w < x x l %.%.z j 4 O 1 -.;.k O , K F c x j j m ;.%.l x x j m -.| c s = - ; 3 p s j ! $.! j a < o W ;.! O o x K x x k j d #.;.W j x x ",
"s E E P c c L U e : 4 x z %.%.v j < < < T W x 1 1 p a p p x j z ! Z V V l i c ) E v c L I H : : x j ! %.Q j x 1 o c Q T 1 + i p p p a j j C ! V V n j ",
"1 ; ; p P C ;.>.r 6 3 x l %.%.v 4 i < < O O i k i 3 e - - e x x j j #.%.l < 3 % ; L m { ;.` - 7 4 j Z %.! j x < < o O > s s 1 3 8 - ; F x j d Z %.! + ",
"e 7 ; a m V O.} r 6 8 i l [ O.v D 4 < > O O j k i 3 8 8 q r r 4 x x %.&.v 3 w ; : T V ] { ) 7 7 K d V %.! 4 r < > O O y k z 3 e 8 9 q r 4 4 j V @.! 1 ",
"7 S s T $.[ + 3 9 9 ; > X l k 3 % 8 4 1 i j ! ;.E & 8 G H t 6 7 < j O.%.D 7 w K x #.$.v 1 8 6 9 > o d l x ; 5 r 4 1 i z $.=.2 ; e H G 7 % 4 < V &.{ ; ",
"6 D a C %.[ O , ; 6 * o . d j 2 $ 8 r 4 j f [ ;.E - 9 F K e 5 7 r 4 #.,.H 5 w x z +.&.c , ; 6 - >   + l 4 ; 5 r 4 i d n &.=.: 7 e I r 7 5 e 4 W ;.' 7 ",
"6 S j V &.#.s a 2 = > O + ! / K e t 7 > v z z V D 7 q ` / L r t 7 w P E e 5 w a j #.-.m a e = = >   z / W r t w ; a v z m T 8 6 ( } ~ 4 t w ; r E I - ",
"@ 4 j C &.#.k x 1 O O   y -.-.P K t 5 2 P v l j p 6 8 >.;.m s t 9 5 r x = @ ; x z #.&.W x s > o o   Q ;./ c D 7 % D m z j a 8 6 ( ,.{ x D q 9 w x 4 ; ",
"F s i m ! Q m k z k f y d ! ! W W r 5 w ~ C z x S 9 q ^ ^ V T H 0 0 H x K F s x j Q ! V c k z l d d m / W W Y 8 % I Q V j F 6 6 I / Q V Y 8 9 e K x x ",
"-.m y y j j m z #.&.Z n b j j { ;.) $ w =.;.v x r 5 7 4 j ! ;.) 9 0 D a / ,./ y y f f z m C $.$.n n k j v -.| e $ Y ;.{ x K 7 5 w x z -.:.t 6 t x v -.",
"#.b j i j d V M O.$.Z z b x k [ =.Y * 4 } =.v x e 7 w x j ! ;.~ ; w F j / -.! f y j i z n N #.O.n m c j m $.} 3 = Y -.! j K 2 7 r x v %.=.r 6 r D L =.",
"j + . i i z #.O.M l j j k j j k v T =./ l l j x x r K K x [ ;./ K K x x k j y . . j i ! $.A l z j c j j k b b { =.W k j j x r r K c v &.;.P r t 9 : I ",
"i y O i a z @.+.z k x x c a x c x V &.#.l x j d x x K K K { ;.! x k x j f d i + O s i ! %.[ k k x x x x s s b [ $.V j j d j x K K K P ;.;.P I t 0 q H ",
"v a s i 1 k +.$.v x x x a 3 2 p i m <.[ j j j x j i 4 w 3 L W v j k Q ! m c c s p i 1 C &.Z j x x x 4 2 3 a i | ;.V j j x j i 4 3 2 4 T V k L e 9 q H ",
"E c c p 1 j $.-.v j i i 1 # # 2 , T <.| j j j j 4 4 r % - p x x x k +.&.C m c x s 1 1 W &.[ j a < x > # * , i { ;.V j j j x 4 4 7 % 2 s s k c e 9 8 D ",
"W x p a p a ^ { c j v m v 1 3 2 : L { ] j l z W K 2 w w 2 e p a c k ! ! C W T s i p 1 T { W k k m m j , 3 : , ^ / z j l V P 4 w w 3 3 3 4 j k p ; S T ",
";.s + i x x s j j j Z &.+.M P 3 $ 3 L k x j #.;.~ % w 4 a , * 3 c a k k ! ;.! O 1 a F i s k y g @.%.Z m F ; - K c x x z ;.=.r 5 e x p ; * p x x x v -.",
"$.k + i c c a c s y N +.O.M v e $ e K k x j ! -.) 5 8 x z 1 = 2 c a j j [ $.W y + c x x x x s k O.O.Z V c 5 7 K x x x v #.=.w 5 r k x = * D s a j z %.",
"O.j . v $./ a s 4 1 s k n O.=.e $ 2 x j + O j K r 6 w } #.v 1 s x s + O Q -.W . O { $.m i s 1 y k l Z =._ % % K x d + + x K q 6 U -.! j F ; ; 3 c v -.",
"-.i   m ;.{ x s < > < j z #.>.r % 3 x j O o i x e - 3 #.&.V j j d y O O W ;.Q   u } ;.T a s > O j j ! -._ % % 4 x + o < a D 7 ; T &.X.j a 7 7 e x L ,.",
"m i 1 p D F F c x x x x v #.-.c 4 p x j i i x K F e a #.@.n y v ! C k s m R c , 1 F F D x a i a x j Q &./ 4 4 x x j d i x D r 4 C *.X.f x q 9 t K x m ",
"s p p 8 6 - D c x x x j l %.=.v x x j k j j s a a a c $.*.n i m &.$.V m z s a p 3 - - 3 s a j x x j Q ;.{ x x x k j j j s a a j ! &.[ k c 9 6 e x x x ",
"a : 8 8 8 3 c x P v l x x ! / v x x j k z m k j c m m W ^ c j m [ ! Z C z s a : 8 8 8 a x z v v j j V / W j x j j v m v s j v v T W W s s D D K c K D ",
"a : - S F x m m #.%.W j x x x x j j d k #.;.m i T ;.} = * p x x j z -.-.m s 1 - 6 F s v n V &.=.x j x x j x j j d Q ;.[ d k { ,.U & ; s x | ,.Q T L - ",
"s 8 7 e x k b n O.;.W j x x l x j l j z $.#.n f N -.} 3 ; 3 D s x c =.-.m a e 7 6 F i b n C #.#.l x x j k j j j d Q $.[ l k { >.U = : H F / $.Z C P - ",
", 7 6 S s k +.O.M z l x x j l ! @.V l l l l ! $.! k c } ..D 7 3 : i $.&.b O p 6 7 K d ! %.! z l j x j j z %.%.l l l l V O.#.v k W | _ ; : s k C +.^ 7 ",
"3 ; - p a z $.%.z j x x x x l [ &.Z d d d j { 2./ k v $.;.p - ; : i =.2.k = : - ; 4 j Z %.[ l l x K x j z %.%.g d d j v ,.>.v j Q <.{ ; : a s R -.{ ; ",
"= : : p k z #.&.n x 4 2 2 a < m V N Z Z k j L I I x k #.&.L 3 3 , , b v u = : : = a j Z %.O.j x 4 2 4 < l V M Z Z M d x U F L j C <.[ p S S : R ;./ 1 ",
"O = u u j z &.&.m j 4 % ; 3 , j f V @.O.k a ; - ; K z %.&.T x D 3 2 = o . u O u 1 j j ! ;.[ j x % % w 4 < d l O.&.V i r - - D a A <.[ s H 8 - U ,.O.k ",
"j y y y s b ! / v x s H H 8 e a j n [ ! 1 e 2 7 e x k ! [ v a e : : , , i k s y y y k C { W l x K r t w r x l Z [ v p e 8 8 a a V [ ] s S 8 7 J =.Q j ",
"<.C b h f f x x j j T >.` 8 7 p j d d i 2 % w r 4 x j j j + 1 3 7 ; , 1 Q <.[ M b f y k x x j x :.:.U 5 w 4 j d j > ; ; p 3 a k k y i p S 6 - S c j x ",
"$.N n h f k c s x 1 m -. .q 9 S x j l x # * < x i j j j j d 1 4 ; 7 : 3 ] $.[ M h h f k x x x j #.:.I 5 w K i l l , * : 1 i s i i s s u p u = p x x x ",
"z n h A [ ] k s < < 1 a p 7 9 S x T #./ v v ~ #.m < < j j Q #.~ D G 8 ; p b n n N [ { m j 4 > < 1 K w 0 w D x [ #.W x T { { y O i b b [ [ b m c x 4 2 ",
"y n N A -.$.k a < < < < 2 7 5 r a C <.+.m m [ ;.Q > < x j [ ;.! s H 6 9 p i k M N &.&.R s 1 < o < < 2 5 ; F x #.;.Z V C $.-.i > i i b @.o.N b b K r % ",
"y A ] ] W T k x 1 1 v W T x D x s c V C ! ! Q W v 1 i i 1 v C v i D 7 9 p i h A ] C R v x j 1 < W W K x x x c v V Q ! ! V W x i i u y A B A ] P 3 w r ",
"f A <.C s c a c x i Q ;.&.M m j j j j v #.;.v j c x 4 < o d j d i a 7 - i f M @.+.k s c c x j v %.,.! z v j j j j Q &./ j x x s i . y n h +.<.P % 7 K ",
"h [ *.] s c D F 4 j m #.[ C M k j j 1 k -.;.v j x K x + < d j j m c 3 : 1 f n *.&.b L D D D 1 j / O.Z V z j j j j W ;.{ i a L x i . y l h A { J 5 w K ",
"f [ <.Q x D ; 7 2 4 i j v $.#.v j 1 o y $.-.j   4 x s x j k j V &.#.v x a j m &.$.c x 3 7 2 1 1 x l ! %.! j x > O W 2.[ O , a s x x j d f d x e 5 8 r ",
"s { | Q x a = 8 3 4 4 x z $.&.v x 1 < 1 =.=.k o , D x F x x d m #.#.l l k j T :.} c x 3 2 w 2 4 x x ! ;./ j x < O T -.Q O O p F x K x j j k c 4 - w I ",
"1 e S s P m ' } r 7 r x z %.%.v j 1 o O i i i s p , 3 ; ; 4 j j v z O.! k 1 p 3 r P v ^ } ) % 2 K j Z %.! j x > o 1 i i i i u 3 2 * w x j [ %.Q v v x ",
"3 ; - p m V &.>.t 5 e x z %.%.v a 4 , O = O i j i , e 6 5 r K x x l +.+.c 1 3 - = v v [ ;.` 5 w r l ! %.! x x , o O o + j s 1 3 w 5 w I c #.;.! n z 1 ",
"t e 3 P [ Z v P 8 9 ; 1 d M V 4 w 2 4 > < y V Q L = 8 e G q e 3 4 l O.&.K 2 e e 3 Q ! V v H 6 6 3 y z V z 2 w 4 < < 1 j C Q 3 ; 8 e t e e T W Z X.Z j ",
"9 e a W ;.{ O : 7 6 ; o . d d 2 $ w a 4 j f ! ;.E $ 7 D H 8 5 ; 4 d #.-.I 5 w F c $.&.z o ; 6 6 * O X d i % 5 r 4 i j n &.-.: $ e F D - % D x Q ;.#.k ",
"7 D j C &.{ 1 3 7 ; = O X z v r 7 w r 4 x l Z { P - 9 U E e 7 8 e r / } D 5 8 a k O.&.v i : - ; < O f v x w 7 e r 4 l v ! { e 6 G Y F ; 8 G D Q ;.{ 4 ",
"- p a C &.+.x s 3 > O O d #.;.P D t % * P V l j 4 6 e ..-.P D r 5 5 K x w % w s z #.&.V x p , , O . C ;./ K I 7 % x W z j x ; 6 ) ,.{ x D 8 - ( >.' 2 ",
"* a i W -.{ c k y O O O d #.-.T K r 5 2 P V l x r 0 t :.-.v j r 9 9 D K 2 * 2 x k #.$.V k s + . . X C -./ x K w % K W z j a w 9 ( -.{ l L 0 6 ( >.' ; ",
"{ c y d z z m m ! [ N g k c v / =.U 5 8 ' #.v x t 9 5 L z Z #.) 9 q H x ^ } W y y z z n v m [ Z z k z v m { ' w 5 Y =.! x K 0 5 r P n ! ' e 9 G L P ' ",
"-.m d d j f z h O.&.Z n m k x { ,.Y % 2 :.;.m x r 5 7 4 j ! ;.~ 7 7 D a { 2.[ j y j y k z V &.$.M n x k m ;.:.2 @ Y ;.#.j K 7 5 e x z &.=.e 6 e a c ;.",
"C y + y j k Z Z Z C m c c j j W ~ Y Y P W W v x 4 w r x x ! ;.~ 3 S s s m C z y y i j V A Z Z C k z k j v W W Y U W W V x 4 3 e r x v #.#.F 3 D s k W ",
"y . . i s z +.@.z j k x x x x x a R 1.| j d d j x x K K x / ;./ x c x i j d X . O s i ! @.Z j j j c x j a k k | <.V i i j j x K K x P %.-.v x x x j d ",
"k i + i i z #.+.z k x x K 4 4 K s R <.{ l x j j j 4 K r K ~ #.W x k m v k k s u + i i Z @.A j j x x a 4 s s i +.*.V j j j j 1 x K r L =.Q v x k v z j ",
"T x s p 1 j $.+.z j x 4 4 2 % 4 u T ;.#.k j j k x 1 4 7 % 4 x k j k { $.C m P s x 1 1 Q &.O.j s x 4 3 # = 1 i #.<.V d j j c i 3 2 % 2 x l x j W &.O.m "
};
