/* XPM */
static char *result[] = {
/* columns rows colors chars-per-pixel */
"75 75 255 2 ",
"   c #2E6F1D",
".  c #2D6D2C",
"X  c #36682A",
"o  c #2B752A",
"O  c #36782A",
"+  c #347B2B",
"@  c #2D6C36",
"#  c #326B34",
"$  c #3A6837",
"%  c #336C3B",
"&  c #2C7434",
"*  c #327434",
"=  c #337C34",
"-  c #3B7937",
";  c #34743A",
":  c #347B3A",
">  c #6E5C1E",
",  c #53791B",
"<  c #6A681D",
"1  c #73771B",
"2  c #4D5E36",
"3  c #5F5E39",
"4  c #675F2D",
"5  c #7A5A28",
"6  c #675B39",
"7  c #785835",
"8  c #46672E",
"9  c #467A29",
"0  c #54782A",
"q  c #476736",
"w  c #596735",
"e  c #467835",
"r  c #577035",
"t  c #686A27",
"y  c #766527",
"u  c #677628",
"i  c #666235",
"p  c #6A7736",
"a  c #787230",
"s  c #376A42",
"d  c #337141",
"f  c #4C6241",
"g  c #8D571D",
"h  c #8E681C",
"j  c #A0641F",
"k  c #B97A1C",
"l  c #885429",
"z  c #8E562B",
"x  c #885732",
"c  c #866728",
"v  c #9A662C",
"b  c #89792A",
"n  c #986B32",
"m  c #927130",
"M  c #A26B2F",
"N  c #AA782A",
"B  c #B77A29",
"V  c #AD7934",
"C  c #B47B33",
"Z  c #C27E14",
"A  c #C37E23",
"S  c #2E8719",
"D  c #2E891C",
"F  c #328B15",
"G  c #31861C",
"H  c #338B1C",
"J  c #3A8A1C",
"K  c #3B9715",
"L  c #399416",
"P  c #36921B",
"I  c #3B941D",
"U  c #3D9A1D",
"Y  c #3FA00C",
"T  c #3FA317",
"R  c #3FA31C",
"E  c #2F8727",
"W  c #2E8923",
"Q  c #328623",
"!  c #3A8222",
"~  c #338B23",
"^  c #3A8D23",
"/  c #34852B",
"(  c #3B842C",
")  c #348A2A",
"_  c #3B8C2B",
"`  c #379224",
"'  c #3B9423",
"]  c #3E9A22",
"[  c #37902A",
"{  c #3C942A",
"}  c #3E9A29",
"|  c #348433",
" . c #388636",
".. c #398F31",
"X. c #47861B",
"o. c #439F15",
"O. c #4A9E14",
"+. c #44961D",
"@. c #439D1D",
"#. c #499E1C",
"$. c #529810",
"%. c #569819",
"&. c #6A9307",
"*. c #68881C",
"=. c #679719",
"-. c #769718",
";. c #44A20E",
":. c #4CA60F",
">. c #52AB0F",
",. c #44A315",
"<. c #49A514",
"1. c #46A917",
"2. c #4CAA15",
"3. c #44A21B",
"4. c #49A41B",
"5. c #4CAB1B",
"6. c #53AC15",
"7. c #57A81B",
"8. c #53AC1C",
"9. c #4FB11A",
"0. c #51B116",
"q. c #53B21C",
"w. c #5BB31D",
"e. c #57B91D",
"r. c #5CBA1E",
"t. c #68B41E",
"y. c #448827",
"u. c #588627",
"i. c #419525",
"p. c #439D23",
"a. c #4B9D24",
"s. c #46942B",
"d. c #439C2A",
"f. c #499D2B",
"g. c #559726",
"h. c #478B31",
"j. c #538837",
"k. c #489634",
"l. c #569B34",
"z. c #678A25",
"x. c #79882B",
"c. c #699427",
"v. c #789524",
"b. c #6C8E35",
"n. c #788B33",
"m. c #44A122",
"M. c #4BA424",
"N. c #4EAA23",
"B. c #46A029",
"V. c #4BA42A",
"C. c #53AD23",
"Z. c #57AA26",
"A. c #52AC2C",
"S. c #54B222",
"D. c #5BB524",
"F. c #5CBA23",
"G. c #55B22B",
"H. c #5AB52B",
"J. c #5CBB2B",
"K. c #4EA232",
"L. c #58A938",
"P. c #5CB735",
"I. c #6BAB2C",
"U. c #62BC25",
"Y. c #62BD2B",
"T. c #68B928",
"R. c #79B92A",
"E. c #63BC33",
"W. c #66B939",
"Q. c #77B939",
"!. c #5FC02C",
"~. c #64C325",
"^. c #69C726",
"/. c #65C42C",
"(. c #6BC42C",
"). c #67C92B",
"_. c #6AC92C",
"`. c #72C82C",
"'. c #65C334",
"]. c #6BC633",
"[. c #6BCA32",
"{. c #69C63A",
"}. c #6CC53B",
"|. c #73C636",
" X c #5F9442",
".X c #6ABC42",
"XX c #76B543",
"oX c #6DC542",
"OX c #73C343",
"+X c #8D9019",
"@X c #86981B",
"#X c #B98A1E",
"$X c #AF931C",
"%X c #93A31A",
"&X c #AFA619",
"*X c #8A872A",
"=X c #988728",
"-X c #8A9726",
";X c #969828",
":X c #988736",
">X c #8F9433",
",X c #A88426",
"<X c #B98728",
"1X c #A69725",
"2X c #B69626",
"3X c #A98432",
"4X c #BA8732",
"5X c #B49937",
"6X c #8BA82F",
"7X c #98A626",
"8X c #86B92A",
"9X c #98B225",
"0X c #8BB735",
"qX c #A4AC2D",
"wX c #ACAB2A",
"eX c #B9A826",
"rX c #C78919",
"tX c #CD8B1B",
"yX c #D18D1C",
"uX c #CA971C",
"iX c #D4931D",
"pX c #D6981B",
"aX c #DD9C1C",
"sX c #E19E1D",
"dX c #CAA51C",
"fX c #DAA21D",
"gX c #E4A61B",
"hX c #E4A41D",
"jX c #E8A51E",
"kX c #EAAA1E",
"lX c #C78727",
"zX c #CC8A23",
"xX c #C4852C",
"cX c #D18D22",
"vX c #C99725",
"bX c #DD9C23",
"nX c #D89827",
"mX c #C38934",
"MX c #E19D22",
"NX c #E29D28",
"BX c #CAA726",
"VX c #D6A425",
"CX c #E5A322",
"ZX c #E9A622",
"AX c #E4A824",
"SX c #EDAB24",
"DX c #E4A329",
"FX c #EBAB2B",
"GX c #ECAB2A",
"HX c #F1AD25",
"JX c #F1AD29",
"KX c #F1B126",
"LX c #F2B22A",
"PX c #8F8844",
"IX c #82BA44",
/* pixels */
").'.d.D B.{.'.4.3.m.m.p.F F @.,.F.[.F.:.,.,.,.,.@.] G G @.3.,.,.U W W p.,.q._.J.H J E.[.F.#.3.T 3.P G U 3.5.'.'.0.Y ,.3.1.[.].D.7.w._.~.:.<.` W J 3.;.",
").).3.F m.{.'.1.,.3.m.d.G F U ,.D._.!.,.,.1.<.3.3.U F G U 3.,.o.U G Q p.,.q._.J.H F P.[.w.,.3.4.p.^ D P 3.1.).(.9.,.,.3.4.].].w.6.w._.).,.3.P G ` 3.,.",
").).M.K @.N.q.D.J.m.` ' ] R D.F.q.q.5.3.1.3.<.3.3.3.U U U 3.3.,.o.I U 3.,.e.).J.@.+.N.S.S.~.G.L ` ' ] M.H.F.q.q.1.T ,.3.4.C.8.U.U.r.q.5.,.,.U I p.3.,.",
"[.[.q.R 3.o.,.).{.B.Q ~ m.4./._.q.,.,.3.3.3.1.3.3.3.3.,.o.o.3.<.,.3.3.4.<.S.)./.3.3.p.#.S.[.P.P G d.m.S.[./.<.,.,.,.3.3.#.4.;.U.`.r.,.3.3.3.3.,.3.m.4.",
"!.!.5.3.m.] p.'.{.B.Q ~ p.1.D.F.5.,.,.3.3.@.@.3.4.3.,.,.5.C.5.<.<.,.4.@.@.5.J.D.<.@.i.U S.[.E.H Q p.3.5.J.H.<.,.,.,.+.i.i.3.,.U._.r.:.1.3.3.5.q.N.U d.",
"R R 1.m.] Q ~ {.}.B.W ~ p.3.,.,.;.,.o.o.@.G S U @.3.3.<.).[.r.2.5.3.p.H S U ,.O.o.M.J S N.{.E.P G @.4.,.1.,.;.,.,.#.+.G J #.:.r.^.e.;.,.,.<.F.[.H.G H ",
"d.p.3.m.] ~ ` P.{.B.G I d.3.1.<.,.,.,.<.3.P G I p.@.3.3.J.).r.2.2.3.d.` G ' p.@.O.p.J H V.oXP.J P @.3.3.@.3.,.,.,.4.+.G J @.;.r.~.e.;.;.<.,.J.'.A.F ~ ",
"Q H U 3.3.m.] I I ] p.@.1.1.~.^.9.,.5././.C.V.i.H ` @.<.5.5.D.).J.F ~ } d.' ^ J @.3.3.d.' ` I p.@.3.3.@.3.m.@.3.T.E.T.N.M.` F o.1.,.;.1.!./.4.P ' d.d.",
"Q S U T ,.3.p.H G U R ,.1.1./.).e.Y 9._.).e.C.i.Q ~ m.<.#.<.F.[.P.F G d.p.' G H #.3.4.a.{ Q ~ m.m.3.3.@.3.#.@.3.Y.|.T.7.N.H ~ ] R 1.3.<.).].m.Q ` m.@.",
"' U T ,.,.,.@.^ W ] 1.,.3.1.9.9.1.;.1.q.q.F.E.f.D ` R T 3.3.D.].Y.o.U D.E.A.i.@.@.3.3.m.' Q ^ p.#.3.3.3.3.3.3.,.7.D.w.Y.H.H G ] R 3.3.1.^.[.p.G d.H.H.",
"m.3.,.;.;.,.@.^ G ] 1.1.3.R R R T ,.,.,.:./.}.a.S H R T 3.,.D.|.T.,.<.~.].D.#.3.3.3.3.M.] G P p.3.3.@.3.3.3.,.,.O.O.C.].P.F D U R 3.o.7.(.].d.G p.}.].",
"3.3.,.;.<.<.3.I P U 3.R U U 3.3.R ,.,.3.<./.].N.P ' R R 3.,.8.Y.r.:.>.T.`.w.,.3.3.3.3.p.] P I @.,.U @.@.3.3.,.,.4.O.D.].~.L P R R 4.@.3.F.Y.a.H M.]._.",
"m.3.,.,.<.q.q.3.m.4.@.d.D D 3.3.,.,.3.O.<.Y.(.S.3.3.R T R ,.T ;.<.6.t.T.`.U.,.3.#.,.o.3.m.m.3.o.3.H G I m.,.,.,.3.3.q._.).3.3.3.3.,.<.<.,.,.3.O.8.(._.",
"3.3.,.T 1.8.8.<.3.p.d.' W H p.3.3.1.<.<.<./.(.S.3.3.R 1.,.T ,.T :.7.7.W.XXZ.o.#.3.o.,.o.3.<.1.,.p.P H U p.1.4.<.<.<.8.'.J.<.3.4.<.<.,.<.,.<.:.;.8.].].",
"3.3.,.1.S././.4.m.` ~ ` p.@.o.3.D.].U.6.6.6.1.<.1.R 1.R 3.R R 3.6.T.Q.y.+ / ~ P 3.3.3.o.q.).J.F H ] p.m.m.M.P./.5.,.1.4.4.o.3.,.,.8././.<.<.r.(.C.L ' ",
"R 3.3.1.q.[.'.4.m.H G J O.,.3.#.D.[.T.6.6.:.T 1.3.m.R 3.R 1.3.m.N.|.OX+ . & / H m.3.3.o.q.[.Y.F G p.p.3.3.1.'.].5.,.3.m.3.o.,.O.;.q.[./.<.,.U.`.D.F S ",
"P I U 1.9._.).4.o.V.A.D.U.D.7.4.8.D.w.6.6.:.,.,.R R ` L G.J.] W i.}.}._ *  .s.' I I @.3.1.q.q.C.A.] P M.H.G.S.9.4.T ,.1.3.D.D.8.6.7.S.q.F.F.q.q.w.D.A.",
"F G ' 3.C.{.'.1.,.H.}.].`.].w.w.<.O.<.6.6.<.,.,.R R D D P.oXk.o ( oX}.y./ ..f.d.W H ] M.3.o.1.].].p.G M.{.'.1.R R 1.T ,.1.).(.e.6.<.O.4.].|.q.;.0._.].",
"P ^ U 3.N.J.H.3.o.C.Y.Y.E.H.U.D.7.O.4.w.S.,.R U ] ' H ` A.P...& ( W.W._ + _ d.] ~ Q _ h.h.' p.].|.i.O i.P.A.m.3.,.T ,.,.<.F.U.w.e.8.,.4.P.P.8.,.0._.(.",
"p.m.m.3.U F F p.3.#.O.@.S J W.|.Z.<.5._.'.U F Q Q ` ] ] ` E  . .( a.a.O . y.f.] ~ / * # # & / Q.Q.y.. * ) W B.U ,.,.,.1.3.o.;.U.(.F.,.@.H H +.o.6._.(.",
"B.d.m.m.U G F m.m.3.O.+.~ J W.E.D.,.5./.!.U G ) | _ i.} | | e e e k.j.9 8 0 g.a.~ + q f f d : .XXX0 8 q d  .k.d.#.O.,.,.3.O.#.F._.J.,.3.J H @.o.q.[.'.",
") ~ } m.@.@.] P F U M.@.p.@.w.w.<.,.<.<.1.p.d.( . =  ...& ; f w r 8 $ w 6 a :Xx.y.9 w w f % & V.Z.0 6 f s d ; O A.(.F.o.3.4.,.<.<.O.F J p.@.@.,.3.1.M.",
") W } B.m.3.m.H H ] #.<.,.,.5.8.7.3.3.o.o.m.f.( . *  .: ; q 6 6 6 f 2 6 7 n 3Xb < 0 i 7 3 q O s.u.< y 6 f f % o L.|.E.@.a.@.o.,.,.+.F F #.,.,.,.o.#.p.",
"{ { { ` ' 3.m.~ Q I #.<.D.D.#.+.+.I ] o.@.I [ _  .h.: s q 6 7 7 7 3 6 7 x M 4X,Xb b m n x t 8 g.c.b n c i r  XL.K.K.p.` I O.<.,.,.o.K +.,.,.q.r.8.3.3.",
"B.B.` W ` m.p.~ D ] ,.8.`.].K H Q Q ~ d.] ` W { f.h.* q i 7 x x x 7 x 7 x M mXA N B C C v 5 < c.=.=XV M 5 t IXOXd.Q / W H @.<.,.;.<.,.4.<.,.~.).F.;.T ",
"R m.` ) [ m.R ` P U ,.6.T.Y.U ` | =  ...[ / E { a.u.q 3 x z z x x x z z z V mXxXxXxXB 4XN h h +X+X=XC v l y Q.W.{ =  ...I 3.<.6.6.2.<.<.<.,.e.r.q.T ,.",
"1.3.` W [ m.3.m.m.3.,.<.O.o.R B.) & & & & = / ' l.u.4 7 M V z l z V C M N <XxXcXnXnXzXxXA mXmX,XN ,X<Xv 5 < %.g.+ @ | k.a.5.6.F.).F.2.2.1.3.;.;.;.,.,.",
"T 3.P W ` m.3.,.1.,.3.O.#.m.3.B.) o % $ q e 9 i.g.z.y l N B j z z C C B k lXzXcXnXnXtXtXcXA A A k N N v g 1 %.g.+ # - k.f.8.2.~.).~.0.0.1.3.O.,.,.,.3.",
",.,.U ] m.3.,.,.,.,.3.@.J H R m.d.h.j.w i i t b.Q.>XV M B B A A A mXxXxXlXnXFXNXcXtXiXbXcXA yXnXpXlXxXC N b =.g.r w w O Q i.<.<.<.q.~.r.,.,.,.;.;.,.,.",
",.,.3.1.,.,.;.,.<.3.M.d.( ~ } m.m.a.u.t y x y *X0X7XB A k k A xXxXlXlXlXrXbXLXDXtXtXpXsXiXtXyXMXVXcXlXxXB =X*.z.t 6 3 q O g.a.O.,.0.^.~.;.,.o.o.,.3.@.",
",.3.1.U 1.e.e.:.,.@.' ( o = ) ` ] m.g.0 u 5 5 *X;X1X<XA A A cXNXnXzXzXcXiXhXGXGXMXMXMXCXsXsXiXyXiXzXlXxX<X,X*X*Xy 7 6 3 r h.I +.R 9.).~.:.,.,.R U I ' ",
"R m.3.,.9._._.<.m.^ / : @ @ | / { m.@.%.z.y l m 3X,XlXA A cXnXDXNXzXtXbXCXjXkXSXJXJXHXJXZXNXaXtXtXzXzXlXlX<XB 3Xc 7 5 t w 9 Q } R q.).~.;.,.1.3.] W W ",
"] p.U 3.0.).).4.}  . .d ; * e 9 h.s.@.7.=.1 g N B A zXyXcXcXnXDXNXyXpXaXgXhXkXSXHXKXHXSXCXsXbXyXyXcXcXzXlXxXB V a < t u u e + ..} M./.F.1.,.R p.' ) ` ",
"W W ' 1.9._./.P / : & ; - 9 w i 9 J @.`.8X;X3XC xXcXNXNXNXDXDXVXDXSXAXGXGXSXKXSXHXHXkXgXMXsXaXMXMXaXbXnXzXlXN 3Xx.=.I.IXXXO & | Q I 3.,.,.1.' G ` B.d.",
"~ W ' m.N._.{.~ | ; & o ( 9 w i w , #.`.8X1X#XrXzXcXMXMXCXCXAXDXDXSXSXGXGXSXKXkXkXkXgXgXCXMXhXaXsXaXfXiXvX<XN >X=.$.S.|.W.O . / Q U @.3.,.@.` Q ` 3.o.",
"R ] P P K 5.M.~ / ..h.s.d.s.q 2 p n.v.R.8X1X#XyXpXaXMXCXSXSXSXFXGXCXCXcXpXgXKXkXkXgXsXsXhXaXCXZXSXpXtXvXpX2X@X*.%.O.<.2.4.+.i.L.W.H.,.,.,.3.` Q d.'.P.",
",.3.P D P 1.m.W E i.a.@.M.s.O X p >X-X8X9X&XrXpXhXaXjXjXkXkXkXGXFXCXbXtXrXaXkXkXjXsXsXsXjXsXsXHXGXiXrXiXVXeX=.%.%.>.$.;.;.3.4.E.|.Y.;.,.,.4.` G d.{.[.",
"e.S.' D ] H.A.~ E a.D.w.3.d._ ( c.6X7XwX&XuXuXaXZXCXhXjXKXKXSXKXGXZXAXbXaXhXKXkXSXsXgXgXjXZXSXHXZXpXpXpXbXeX%.X.=.@X=.$.,.,.,.C.D.w.w.q.,.3.` Q } H.S.",
").[.m.D B.oX{.~ G Z.|.T.O.p.d.f.E.8X9XeXVXfXsXCXGXSXjXjXLXLXKXKXSXSXSXSXSXSXSXkXSXSXSXJXHXJXJXsXsXhXaXaXbX5Xu., >X7X@X$.o.1.T ,.;.0.[.).<.3.` ~ ` #.;.",
").).m.P m.'.P.^ G A.T.F.o.M.{ i.A.U.9XBXpXsXaXDXFXSXSXkXLXLXKXSXSXSXSXSXSXSXSXHXHXSXJXJXJXJXHXsXhXsXaXsXbX5X0 e n.>Xv.%.@.3.,.1.<.5./.Y.,.3.I H ] @.,.",
").).9.m.M.3.m.D D U 1.1.R d.o o ^ #.-.$XtXpXsXjXGXGXJXKXKXLXSXkXkXAXSXSXZXSXSXHXSXSXJXZXZXCXjXZXsXgXaXsXMX5Xw X e 9 y.J J @.,.U._.F.;.,.,.3.m.p.p.m.o.",
").).N.3.m.B.B.H D ' p.B.d.k.& @  .g.-.2XtXsXaXCXGXGXKXKXLXLXSXkXhXSXSXSXSXSXSXSXSXSXJXJXHXZXCXMXfXfXdXfXbX4X> 8 e  .| ( J +.3.F.[.F.,.1.,.3.3.@.M.p.p.",
"5.9.1.R } ~ [ P.P.B.^ ( * ; % % ; 9 < ,XZ bXaXsXCXAXSXHXKXSXjXgXkXGXSXSXSXJXHXkXZXjXZXZXZXZXCXaXfX&X&X&XvXlX3XPXf ; : | ~ o.,.1.1.4.<.<.4.5.F./.A.~ ^ ",
"R 3.R m.} W ) .XoXf.Q = % # @ . . X < N Z iXaXhXZXjXSXJXSXkXkXgXgXSXKXSXSXHXSXSXjXjXZXMXCXCXCXVXBX9X8X7X2X2X5X3Xp q ;  .Q p.R 1.R 3.<.,.5.6./.}.P.Q Q ",
"` U U 3.] [ { K.L. .; - - O j.l.s.b.x.N k cXsXsXsXsXCXjXkXkXjXjXkXGXLXLXJXJXSXSXSXjXZXCXhXhXfXpXeX%Xt.t.@X@XqXqXx.p r - + [ U R 3.3.,.2.D.F.S.A.d.' _ ",
"W D U R 1.m.d.) / ; @ * + _ .XOX|.|.9X,Xk nXMXsXsXsXsXsXSXSXjXhXjXLXLXLXLXKXHXSXHXHXZXhXhXsXaX#X$X-.$.O.$.%.R.0X>XPXp # & E W } p.O.,.4.).].@.F I p.a.",
"[ P U 1.,.4.d.) | ; * = i.@.T.Y.T.(.R.+X$XvXbXaXMXsXsXsXkXkXjXZXSXLXLXKXJXHXHXHXGXGXZXZXsXaXpXrX2X=.+.o.o.<.U.R.-X>Xp # d : E { p.@.3.4.].}.d.G I M.N.",
"B.U ,.,.,.,.m.) / | / d.W.(.2.;.,.;.7.8X7X2XrXcXMXMXMXMXhXhXjXCXZXSXGXSXHXHXHXSXZXCXZXhXhXaXpXuX2X1 J I o.O.O.:.R.0Xl.& & | | ) H I 3.,.].}.p.D d.}.].",
"m.,.,.Y Y ,.U ^ W Q D 3.[.~.1.T 3.@.Z.8X9X2XuXvXBXpXMXMXhXhXCXMXAXGXGXKXHXHXjXSXAXZXjXjXfXbXnXlX4X1 , y.m.3.3.O.T.|.l.  o | | E Q I @.4.].}.p.F @.].].",
"m.T e.~.e.,.3.] d.] U ,.5.2.,.1.' +.u.-X1X#X$X$X+X%XnXsXhXCXMXCXhXkXgXkXgXkXjXZXZXMXsXsXpXtXzXA B =X*Xu.^ P o.,.4.C.A.W.L.~ E E Q I M.3.5.5.#.o.5.).).",
"R 1.F.[.J.,.#.m.3.m.m.1.,.o.@.B.^ O u :X,X#X1X-.&.-.eXVXVXVXVXhXhXhXgXgXgXgXhXAXVXVXfXVXvX<X<X,X3X3X:Xb.9 ~ m.,.,.3.C.|.{.D W W G I #.,.,.,.,.,.q.'.).",
"3.T 9.G.D.S.9.4.3.] ' ' I ' _ _ f.K.n.b m =X@X=.O.7.6X7X;X+X2XfXaXhXfXgXgXgXgXfX&X&X%X7X%X+X-X*X*Xa n.f - / d.3.3.3.V.A.V.P U ` I p.D.S.1.;.2.w.C.N.A.",
"m.3.3.T 5._./.1.3.` W ) Q / o   L.XX6Xt < z.%.O.,.O.%.%., , =XfXsXaXsXhXAXZXhX&X&.&.&.%.%.%.g.g.g.9 $ $ % * s.3.3.m.] H P ] 3.m.#.Z.|.).;.;.F.[.D.F F ",
"R ] U ,.5.[.).1.3.[ ) / _ / + Q l.XXb.u , a.M.R p.%.g.z.&.1 ;XnXaXaXaXaXVXhXhXdX+X&.-.=.%.i.@.3.d.E & d $ O p.1.1.3.p.J L 5.2.<.O.C./.U.2.:.r.).C.P I ",
"H P U R q.[./.1.m.` W ) d.a.W.XXu.  u.IXQ.Z.3.' J u.*X=X,X4X<XtXtXNXaXbXNXCXhXnX$X$X=X=Xz.X.` m.R B.} .. .( @.;.R R 5.Z.8.(.^.w.7.7.<.4.).^.0.;.0.).'.",
"D D U 3.N.{.'.M.3.' D ^ 4.4.].|.h.  ( OXW.M.f.s.9 p :XV 3X2X2XlXzXBXVXVXnXbXaXnXrXxX3X:Xb.( W } m.R B.} Q J K ,.1.3.M.7.7.^.(.t.7.<.#.4.'.].5.Y 0.^.[.",
"] ] U 3.3.R R 3.3.] ] U 3.<.(.].f.+ J M.N.~ | ; $ w x c >XqX2X,X<XqXwX2XpXbXNXnXrX4Xy w e h.) ~ P ] m.] U U ,.,.P P +.4.4.8.6.t.Y.D.,.@.@.p.@.,.9._.).",
"m.m.m.m.U D D m.m.3.3.3.3.<.(.[.M.D P ,.@.o @ % $ 2 t < 0X0X>X=X>X0X0X1X$XvXVXcX,X3Xi $ % : / W D ] m.3.3.1.<.3.F D ` M.4.o.;.F._.D.3.p.H G ] 3.q._.[.",
"} ` ] R U U ` ' ] 3.3.3.3.,.D.J.4.L K R ] E & : - j.n.z.I.I.v.x.x.I.T.6X7XwXwXwX;X>Xr % d  ./ _ ` R 3.3.,.<.<.3.U I ` ' I ,.<.r.^.D.K } I I p.3.5.J.J.",
"W W } m.m.3.m.P D U m.3.,.,.,.,.3.U 1.R R ~ / ..k.Z.Q.Q.7.#.+.O X.3.1.E.8X8X0X8X8XXXe # ; / ~ f.p.m.3.3.3.3.3.3.3.4.] Q H #.;.~._.G.S F p.p.#.o.,.3.3.",
") ~ { B.m.3.3.H ~ ] 4.1.1.<.,.3.3.3.<.1.,.J H ' ] V.'.W.M.} ` Q Q R 1.J.].R.8XQ.R.W._ O ! J I +.m.U 3.1.3.3.3.#.3.3.I Q ^ @.,.F./.A.G ^ p.3.1.1.1.3.m.",
"B.} ` W ` R p.W W d.5.q.).~.<.,.m.@.N.(.(.C.Z.i.Q ) [ [ ) ) ) ) ` 3.,.<.7.-.*Xv.%.<.H.}.H.8.8.<.,.1.o.3.3.3.3.<.<.3.+.Q ~ p.O.,.4.i.Q ~ p.3.F.).D.3.3.",
"R m.` W ` m.R ~ D 3.5.e.).~.<.3.3.@.7.`.(.7.8.I W E | | | |  .) ^ p.3.3.%.v.*X*Xg.o.!.[.F.6.>.;.,.,.3.3.3.4.1.<.,.O.U S H @.<.o.3.p.^ H 3.,.F._.F.,.3.",
"3.m.` ) ` d.m.U U G.~.r.0.2.<.,.3.o.6.`.^.6.<.T R { ) | : ; = | ! ^ J o.a.h.0 0 ^ P 1.0.r.U.U.;.,.,.3.3.3.1.<.1.r.U.C.M.M.@.#.D.J.C.U @.J.F.q.8.1.,.3.",
",.3.` W ` m.3.3.1.J.).F.;.,.3.3.,.,.6.`.`.5.<.<.4.+.Q ( ; @ ;  ./ ) ~ p.f.( . * ( Q m.3.T.|.T.,.,.,.3.3.3.3.5.6.~._./.8.N.4.1.J.[.J.,.<.(._.5.,.,.3.T ",
",.R U ` ' 3.3.3.,.r.(.F.,.<.U U o.3.5.F.D.@.I I I @.I _ ( | : & & | ) { s. .& ; : : .._ a.T.t.<.,.3.@.p.] p.1.2.D.F.F.D.S.1.,.S.F.w.w.0.F.F.5.,.R ,.T ",
",.3.3.m.3.,.,.,.,.F._.F.,.3.G H ] 3.<.,.@.H W Q Q ^ d.B.B.} | & & | ) ) ) | | : % % % O i.7.2.<.3.3.3.I H H 3.,.<.3.D.[.E.,.,.,.,.w.`.~.<.3.,.1.3.R ,.",
",.1.3.R 1.:.1.,.,.J.'.J.1.3.L I ] @.#.o.o.' ` ) ^ ` d.d.m.m.W o + ) ~ ~ ~ ) | : d s $ # y.8.5.o.3.3.4.p.J P 1.,.3.3.C.]./.,.,.,.,.8.`.~.<.3.3.3.3.R U ",
"3.m.3.,.5.).).<.3.] P U N.q./.'.C.3.3.,.,.J.'.A.m.d.Q ~ B.M.m.} d.p.p.p.p.' Q : d s e + i.#.#.P P M.5.D.'.J.2.2.1.o.S.(./.,.R ,.,.q._.).1.,.3.3.] H D ",
"B.m.m.3.9.).).1.m.' G K S.2.).[.G.3.3.Y ,./.{.S.m.} Q Q ' 3.3.1.m.3.3.@.p.` Q = & . + O i.a.d.Q H m.8.F._.~.q.5.4.,.q._./.1.3.#.,.8.[.).<.3.3.d.' D D ",
"[ ` ] m.q.)./.] ~ ' @.1.J.F.0.q.o.F K ;.;.2.G.@.H ' ] p.o.,.,.,.3.` H p.M.^ E ) L.L.( / ! { { i.p.H.Y.F.6.5.K U @.3.1.0.1.L P @.3.<.5.5.,.3.` ^ ` d.} ",
"E W } m.S.[.'._ Q ' 3.2.).^.,.,.L F L ,.,.,.3.P D ~ d.m.3.,.,.,.p.) Q d.p.` D } oXoXi.Q / / _ p.M.Y.[.F.;.o.F G U 3.,.,.3.G G ] m.3.,.T 1.m.~ W ` p.M.",
"` ` { ' M.!.H.[ E ] 3.8.^.~.1.,.U L U 3.3.,.3.@.B.d.' U 3.,.,.,.] ) ) K.A.V.B.B.G.A.i.' ) / ^ p.<.Y.[.F.,.#.P ` +.3.<.<.3.p.f.d.] U 1.R 3.m.) W { A.S.",
"m.m.P D P 3.R ) ) ' 1.0.^.).1.,.#.3.3.@.@.,.,.J.{.P.~ H @.3.,.<.p.~ Q P.{.[.oXP.G S d.B.{ Q ^ #.<.F.[.F.<.3.O.3.3.3.,.R 4.}.oXp.D P R ,.3.R ` Q B.|.[.",
"T 1.U D ` M.M.H G U 3.9._.).<.,.o.,.,.#.3.3.,.r.{.P.G ~ ] ,.,.,.d.Q ~ P.{.).[.P.Q Q ] m.I G F ,.<.Y.}.H.O.o.,.,.,.,.,.R 5.].}.p.D ` 3.T 1.p.{ ~ f.|.]."
};
