/* XPM */
static char *result[] = {
/* columns rows colors chars-per-pixel */
"75 75 255 2 ",
"   c #043B0B",
".  c #043C15",
"X  c #083916",
"o  c #0B361D",
"O  c #053C1C",
"+  c #0A3B1D",
"@  c #1C3D15",
"#  c #0C3622",
"$  c #063B21",
"%  c #0B3A22",
"&  c #0A3B26",
"*  c #113825",
"=  c #5E3817",
"-  c #0B490E",
";  c #164F0D",
":  c #044214",
">  c #074718",
",  c #0B431D",
"<  c #0C4C1C",
"1  c #13491A",
"2  c #085718",
"3  c #0B531C",
"4  c #15561A",
"5  c #314F0F",
"6  c #0C6319",
"7  c #126C13",
"8  c #16681B",
"9  c #18731B",
"0  c #306914",
"q  c #0D4423",
"w  c #0E4B23",
"e  c #0B4826",
"r  c #124425",
"t  c #124C24",
"y  c #15462A",
"u  c #124C2A",
"i  c #0D5223",
"p  c #0D5B24",
"a  c #0C5329",
"s  c #125324",
"d  c #125B24",
"f  c #13542A",
"g  c #145C2A",
"h  c #1B5A2A",
"j  c #155634",
"k  c #345527",
"l  c #0E6827",
"z  c #146424",
"x  c #1B6424",
"c  c #136A24",
"v  c #1B6B24",
"b  c #15632B",
"n  c #1A632D",
"m  c #146A2C",
"M  c #1B6B2B",
"N  c #177727",
"B  c #1B742C",
"V  c #1C7C2C",
"C  c #0D6E30",
"Z  c #186534",
"A  c #1C6B32",
"S  c #1C7834",
"D  c #24692A",
"F  c #247A2A",
"G  c #37742F",
"H  c #246B34",
"J  c #237D33",
"K  c #257837",
"L  c #4A590D",
"P  c #774317",
"I  c #4E7014",
"U  c #707617",
"Y  c #525032",
"T  c #794526",
"R  c #6E5030",
"E  c #4E722C",
"W  c #6E7332",
"Q  c #155B53",
"!  c #1A6C50",
"~  c #24655C",
"^  c #2F7455",
"/  c #2C756D",
"(  c #6E5449",
")  c #59605E",
"_  c #8D4D13",
"`  c #A25918",
"'  c #94691D",
"]  c #B26B16",
"[  c #894C27",
"{  c #955323",
"}  c #8E7333",
"|  c #B17D2F",
" . c #C67D1D",
".. c #C27821",
"X. c #8C7D57",
"o. c #1B841C",
"O. c #358B1D",
"+. c #34901D",
"@. c #1A8526",
"#. c #1C822B",
"$. c #1C8232",
"%. c #22832C",
"&. c #268928",
"*. c #348927",
"=. c #2C952C",
"-. c #3B9726",
";. c #288634",
":. c #368938",
">. c #2C9636",
",. c #359839",
"<. c #35A229",
"1. c #37A83A",
"2. c #508F18",
"3. c #449D1C",
"4. c #6A9318",
"5. c #46A30F",
"6. c #45A314",
"7. c #47A31A",
"8. c #53AC1B",
"9. c #56B41B",
"0. c #65B61D",
"q. c #469B27",
"w. c #4A9030",
"e. c #74872D",
"r. c #5BB824",
"t. c #4DAC30",
"y. c #64BC2B",
"u. c #6CB430",
"i. c #68C729",
"p. c #70C632",
"a. c #368B45",
"s. c #3A9A44",
"d. c #3CA745",
"f. c #3EB446",
"g. c #2E8E73",
"h. c #48964B",
"j. c #47A848",
"k. c #48B548",
"l. c #57B949",
"z. c #4FAD52",
"x. c #57BA59",
"c. c #65A766",
"v. c #57C64A",
"b. c #50C64C",
"n. c #57C555",
"m. c #65C757",
"M. c #6CCF53",
"N. c #69D65D",
"B. c #75D85B",
"V. c #73CB66",
"C. c #79D667",
"Z. c #7BE362",
"A. c #8C8F1A",
"S. c #B5981C",
"D. c #908C2D",
"F. c #B08B2A",
"G. c #A99428",
"H. c #90AC2C",
"J. c #B5A430",
"K. c #C9881A",
"L. c #DB9B1A",
"P. c #E29E1D",
"I. c #DAA31D",
"U. c #E6A51D",
"Y. c #E9A61D",
"T. c #E5A819",
"R. c #E9A91C",
"E. c #ECB01E",
"W. c #C59429",
"Q. c #DB9A24",
"!. c #E29C21",
"~. c #E69F30",
"^. c #D8A627",
"/. c #D1AF32",
"(. c #E4A322",
"). c #EAA622",
"_. c #ECAB23",
"`. c #E8AB27",
"'. c #F2AC26",
"]. c #F3AD29",
"[. c #E8B12A",
"{. c #F2B125",
"}. c #F8B62C",
"|. c #EBB035",
" X c #FAB737",
".X c #A08E4E",
"XX c #B5AE47",
"oX c #CAB647",
"OX c #F7BA43",
"+X c #84DD5E",
"@X c #83D56E",
"#X c #85E768",
"$X c #8EF46D",
"%X c #96F876",
"&X c #2D7A8C",
"*X c #35799B",
"=X c #2A77A9",
"-X c #2D7BAD",
";X c #3378A7",
":X c #327AAD",
">X c #2D7CB2",
",X c #2F7FB8",
"<X c #327CB2",
"1X c #367CB4",
"2X c #4A7089",
"3X c #647989",
"4X c #3A918F",
"5X c #388696",
"6X c #338CA6",
"7X c #3785A9",
"8X c #2E82B4",
"9X c #2F88BC",
"0X c #3383B4",
"qX c #3A86B4",
"wX c #3485BB",
"eX c #3B86BB",
"rX c #348ABC",
"tX c #3A8BBD",
"yX c #3B92BB",
"uX c #508C92",
"iX c #5DA69C",
"pX c #4A8CAC",
"aX c #4589B7",
"sX c #4793BA",
"dX c #5694BC",
"fX c #7193A8",
"gX c #2E87C2",
"hX c #3587C1",
"jX c #358CC1",
"kX c #3B8DC1",
"lX c #3C92C3",
"zX c #3B93C6",
"xX c #448FC3",
"cX c #4393C4",
"vX c #4697C7",
"bX c #4B9BCC",
"nX c #5597C5",
"mX c #4D9ED0",
"MX c #679DC7",
"NX c #59A3CE",
"BX c #66A4CA",
"VX c #6EAAD1",
"CX c #78B4D8",
"ZX c #7ABAE2",
"AX c #8C9BA6",
"SX c #91A5B1",
"DX c #B7BABE",
"FX c #99F083",
"GX c #96B7CD",
"HX c #86B6D9",
"JX c #A3BCD2",
"KX c #A0C9D0",
"LX c #98CBEC",
"PX c #ACD1EA",
"IX c #AAD7F5",
/* pixels */
"-X>X>X:X>X:X>X=X>X:X1X1XeX=X=X-X=X>X>X<XeXwXrX,XBXIXDX( T { `  . X}.Y.Y.P.Y.Y.Y.T.Y.U._.R._._._.R._._.].`.!.!.!.!.!.!.W.F.D.E &.-.<.7.7.q.=.+.-.t.t.*.",
"qX:X-X:X>X=X:X:X:X>X>X>X<X>X-X0X,XwXwXwXeXeXrX0XBXIXDX( T { `  . X}.'._._.).Y.Y.Y.U._.R._._._.`._.R._.].'.!.!.!.!.!.!.W.| D.I O.3.8.7.7.7.-.+.+.r.y.O.",
"1X:X=X:X:X>X>X1X>X=X>X:X:X>X>X9XhX9XwXsXNXNXcX0XCXIXDX( T { `  . X}.{.].'.'.).).Y.R._.`._._.{.[._.`.'.'.).!.(.(.P.P.P.Q.F.G.H.t.0.r.9.7.-.-.+.9.r.8.3.",
"1X=X=X=X:X>X1X,X>X:X:X>X>X,X,X9X9XhXkXsXZXZXxX-XVXIXDX( P ` `  . X X{.].'.'.'.Y.U.R._.'._.{.].'._.'.).'.'.!.^.Q.L.P.L.L.K.J.J.p.p.i.y.6.6.5.5.0.y.6.5.",
":X:X=X=X1X1X1X1X<X>X-X-X>XwXeXhXwXhXcXdXHXLX1X=XNXLXJX( P { `  . X X'.'.'.'._._._._._.[.{._._.`._._.).).(.!.(.L.L.L.L.L.K.S.G.H.u.0.y.8.9.9.9.9.9.8.6.",
":X:X:X1X1X=X1X=X<X<X:X-X:XeXeXwXwXeX0XsXIXIXnX;XnXHXAX( T { `  . X}._.)._.'.{.'.|.{.{.'.].`.).U.U.).U.P.P.(.P.^.I.I.L.L.K.S.F.D.4.2.9.i.i.i.i.9.8.y.6.",
":X1X=X1X=X=X=X=XeXeXeXeXeXaXeX>X:X=X*X1XPXPXdX;XvXHXSX( T { `  . X X`.).U.R.U.R.).T.T.R._.).R.I.L.).R.R._.R._.).U.P.!.Q.K.W.F.| A.2.8.i.i.i.i.9.9.r.7.",
"1X:X:X=X=X:X1X>X0XeXkXxXxXhXaX:X;X;X;X1XLXIXnX:XdXHXSXY = _ ` ] K.K.(.)._._.U.R.T.R.)._.).)._.).).R._._.{.{.{.{.Y.P.(.Q.K.K.| | } U U 9.5.i.i.9.9.y.7.",
":X:X:X<XeXeXtXtXtXeX0X8X0X1X1X:X:X:X:XpXLXIXfX;XnXHXSXY = { ` `  . .~.!.[._.U.U.U.R.R.R.).).`.).).E.T.E._.{.{.}.Y.Q.[./.S.J.| | } R W w.8.i.i.9.9.y.q.",
":X<X:X0XtXtXyXyX8X>X8X=X=X<X1X:X:X:X:XaXHXHX1X;XnXLXGX3X) ( [ { ] ] Q.P.'.{.U.R.T.T.T.U.U.U.R._.)._.).T.E._.{.}.`.S.A.A.4.D.F.| } Y E :.-.8.r.6.7.t.+.",
"1X<X:X0XrXrX0XrX-X=X8X8X<X:X:X:X:X:X=XqXZXHXaX;XMXIXPX3X3X( T [ ` ]  .L.'.{.).T.T.T.P.T.T.U.)._._.`.T.[.[.[.[.[.^.A.4.4.4.4.D.| W E G :.*.q.7.6.7.q.O.",
"xX:X=X0XqX9X8X8X9XrX9XrXrX<X<X:X:X:X-X7XMXVX1X;XdXPXJX2X) ( T [ ` ` Q.P.{.{.T.R.T.T.L.T.U.).).`.`.E.[.^.G.J.[.[.^.S.A.0.3.q.e.e.W G ^ ;.&.-.7.3.7.t.*.",
"eX<X:X1XrXrXrX9XlXzXlXyXkX<X,X<X-X8X-X=X1X:X7X*XdXHXAXY = R T _ ` ] OX X}.].R.).T.T.R.R.R.R.`.`.[.[.OXH.5 I /.[.I.^.W.H.2.O.w.4.w.G G :.*.-.7.6.8.t.*.",
"eXeXeXtXrXrXrXyXrXrXkXcXzXkXwX8X-X-X=X8X:X7X-X;XaXHX3X( P [ T [ ` `  X}.}.{.).R.R.R.R.R.R._.[.[.^./.oX4.0 2.J././.I.^.H.I w.w.t.w.w.*.=.+.q.6.6.r.y.+.",
"lXlXcXlXeXeXtXtXtXtXeXtXyXbXvXtXwX8X>X>X:X:X:X:X1X;X1XSXAXR = P ` ] '.}.}.}.R.R.T.R.R.)._.).`.[.|.4.I q.t.t.I L S.I.I.^.W.W.F.G.H.u.l.u.i.i.i.r.8.7.7.",
"yXyXyXcXxXxXcXsXsXvXbXbXvXcXcXcXkXhXwXwX<X-XqX7X;X;X;XHXSXR = P ` ] ].}.}.}.R.R.R.R.'.).'.).^./.oXE 7 =.b.b.7 0 G.^.^.^.^.Q.J.G.H.p.p.p.p.p.i.y.8.8.7.",
"4XyXyXzXvXlXcXcXbXmXmXmXbXvXvXcXzXkXhX,X1X;XVXZXMX*X;XdXfXY = _ ]  .}.}.}.{.R.R.Y.Y.'.].'.`.W.A.W G 9 t.Z.M.o.F U S.^.L.I.^.J.H.H.0.9.0.9.8.8.9.y.r.6.",
"4X6X9XyXyXyXrXtXcXcXvXnXnXvXvXlXkXtX,X,X<X;XHXIXCX;X=X;X&X) = _ ] K.}.}.}.{.U.U.Y.).].].].].J.L 8 F &.t.$XZ.o.o.5 A.^.T.I.S.H.p.0.8.5.3.6.5.5.r.p.i.6.",
"iX4XyX9X-X-X=X8XqXwXtXcXxXcXvXrXwXwX>X>X1X;XHXLXVX;X<XnXfX) = ` K.L.{.{.}.E.R.).).).].].].|.J.k v >.=.t.N.M.1.d.0 A.Q.L.L.S.H.0.t.q.q.3.3.7.6.r.y.r.6.",
"iX4X9X9X8X:X8X8XwXtXxXcXkXkXtXqX0X0X-X>X:X;XVXHXMX:XaXZXGXX.{ | OX}.E.R.E.E.).(.).~.].}.].|.XXI v f.b.1.o.-.#X$Xw.A.^.Q.K.G.U 2.*.*.*.*.O.q.7.3.7.7.6.",
"4X5X8X8XrXtXbXbXbXmXzXrX,X:X>X>X,X<X<X:X:X;XMXVXnXeXaXCXHX.X( F.OX}.R.R.R.R.U.).).).]. X^./.XX0 v k.v.t.o.=.$X$Xw.4.J.W.S.F.U E G :.:.G *.q.q.q.q.7.7.",
"g.4X=X0XtXyXmXmXmXmXcXwXwX1X>X>X>X-X=X:X:X:X1X1XeXrXxXLXIXSX) .XOX!.R.R.Y.R.R.R.).).~.|.F.L k D x N.%Xl.V =.v.n.*.0 I U F.W.F.D.W G H D D 9 9 O.O.-.3.",
"g.uXqXlXbXzXzXyXlXyX9X>X>X>X1X>X>X:X:X;X;X:X;X:X<X1XaXIXIXMXuX.X|.R.U.U.U.U.R.U.R.R.).|.e.; s n v B.%Xm.F =.k.k.>.9 7 I G.G.F.D.W G H x 8 c 8 F *.O.3.",
"g.4XyXvXmXmXrXrXrXrX8X-X>X=X=X-X:X:X;XqXVXVXpX;XxXNXBXVXVX2X( } OX'.'._._._._.{.R.`.)./.} ; d S 9 +X%Xm.F &.1.1.1.&.c *.H.H.D.H.E k D s.,.B v F -.3.r.",
"g.4XbXbXmXbXrXlXrXrX9X8X>X=X>X-X:X-X=XaXLXIXdX;XsXZXZX1X2X) = { OX|.{.]._.'.{.{.{.{.E./.4.; d %.o.B.%Xl.F ;.#.@.k.>.8 *.u.p.p.+XG - v x.l.F z *.q.8.p.",
"6XyXmXbXvXzXzXlXrXrXrXrXwXwX8X<X-X-X=XaXLXLXdX*XaXVXdX2X) Y = { OX}.{.].].{.{.{.E.E.E./.D.; d J &.M.#Xl.9 B %.#.d.;.8 o.y.y.r.w.*.6 F M.m.%.6 *.q.7.i.",
"yXzXbXzXzXzXzXzXrXrXrXrXhXrXrX<X:X-X=XpXCXHXaX;X1X:X2XY = T P |  X}.}.{.].{.[._.T.T.[./.e.1 p J &.t.n.>.2 2 J #.$.c 2 0 q.2.0 - c F <.$X$X;.8 *.7.6.5.",
"yXyX9XyXrXwXrX9XrXrXyXlXzXzXcXtXeXqXrXqXCXCXaX:X=X=X2XY = P _ ..OX X}.{.}.{.{.R.E.I./.oXe.1 p J @.f.b.>.2 2 S $.;.C 3 x w.w.7 - 9 +.<.$X$X;.8 O.7.6.5.",
"yX9XhXrXrXrX9X9XwX9XjXlXzXzXzXkXrX9X6X7X0XqXqX1X1X:X2X( T [ ` .. X}._._.`._.R.R.T./.U I G x m V @.>.>.N 2 p S $.B d r k D.e.k < h.#XB.v.n.;.8 ,.p.9.5.",
"yXyXrXrXwX9X8X8X>X8XwXjXjXkXjXjXlXyX9X9X8X0XeXeX1X1X3X( [ [ ` .. X}._.).).).T.^.^.oXI 0 x M B #.$.@.$.M i p S $.M 4 @ L .X} k 1 u.%X#Xv.n.V 7 w.M.y.6.",
"yX9X9X9XrX8X8X=X=X=X>XwXhXhXhXjXlXyXyXyXrXwXrXeXxXMX3X( [ { { ..OX X).).U.R.).W.' 4.w.w.J d z c N V S Z q e H H x E W } | } Y - l.%XB.1.d.>.,.-.3.3.3.",
"yX8X8X6X8X8X-X=X=X=X=X8XwXhXhXzXlXzXyXjXrXwXhXeXMXHXSX( T [ { ..OX X(.Q.^.^.[.G.5 ; j.n.:.3 p l C C C a O q A H 4 W oXXX| } k ; t.%XB.o.@.k.x.-.7 9 q.",
"6X8X,X<X8X8X8X-X=X=X-X>X>XwXgXzXzXzX9X9XhXgXhX0XMXJXSX( T T R } XXJ.G.S.G.W.^.G.5 2 ,.k.;.s f n b C Z a $ & Z n D W D.F.| | Y   h.$XM.o.&.k.n.,.6 v *.",
"vXkXeX1XtXrX=X=XrXeXwX0X8X6X9X9XzXjX9XgXgXgXrXqXBXPXDX( R Y 0 0 I 0 0 5 5 A./.G.5 < 6 v M h n t a b Z f $ & w 2 j.*.5 L .X.X5   :.v.t.@.&.k.n.;.2 2 9 ",
"sXkXkXxXeXeX=X=XrXkXwX0X0XyXzXjX9XgXgXgXgXgXhX1XBXPXDX( R k h D x 9 7 0 0 U J.H.5 > z m M b n f w c M i $ e e i d.#.2 0 D..X5   ;.x.k.#.&.k.n.:.3 p c ",
"yXbXbXcXkXeX0XeXeXhXrXwXrXrX9XzXzXjXhXwXhXhXeX1XVXPXDX( R E x ,.C.C.B.+XB.l.0 G 4 w n m M J H i i M K g $ & q > N 1.k.w.k Y @   c >.#.c N #.$.C > 3 J ",
"rXvXbXcX,X1X1X:XeXeXrXrXrX9XkXzXzXzXzXkXeX1XhX1XVXPXDX( Y Y x j.%X$X$X$X%Xk.8 h w a n M S K K i i B K g q & # , 9 1.n.j.- 1 X X b ;.S c l V $.l 2 4 V ",
"yXyXlXkX,X,X1X:XeXkXkXkXkXrXjXyXzXvXcXvXnXnXxX1XfXPXDX} R Y 4 =.Z.M.v.b.l.t.,.;.2 < f g n A M i a g n f q q % + N 1.b.1.c n 1 < i g z C l V $.l > 6 s.",
"5X5XrXrXwXwX1X<XkXzXkXkXkXjXrXrXrXtXaXsXHXCXnX1XVXIXDX( R k ; F v.b.&.o.@.d.n.d.> > w s g A n i i a i u e r + : 7 1.b.f.;.K d t > O > m l @.V z : z x.",
"! 4XsXtXkXkXtXtXtXkX9X>X8XrXrXrXrX:X=XpXHXHXMX1XVXIXDX( T Y 5 G t.1.$.#.@.>.f.d.> > t f f x g g g s s i f u , > l >.k.1.#.J d < w , 3 C l N S d : 4 z.",
"C 4XyXyXyXzXvXlXrXkX8X=X8X9XwXrXrX0X;XpXPXPXMX1XnXHXSX( R R R E ; 6 V #.%.N c c : , e w e 2 2 K K d 3 b K K s < - 7 &.#.;.K p a < s 3 c c 2 4 > : > ;.",
"S A ! &XsXlXvXyXlXlXkXrX9X9XwXrXwXeXqXdXPXPXfX&XiXCXAX( R W W Y 1 p K J J V B h , % y a a 3 l K K p 2 c ;.%.3 s > b K S ;.S p 3 4 4 6 c c 3 3 < : a S ",
"V S C / 5X=X6X8XrXyXhXrXrXzXzXrX0X<X0XaXPXPXuXQ ~ ^ ^ H Y k k 5 , > s 4 4 d h u % # * q w 3 2 p z z 6 w.C.m.9 b r q w i p p b 6 h.B.l.9 b < : f A A S ",
"d.V C ~ &X=X6X=XrXrXrXhXrXzXzXrX8X-X<XaXPXPXg.g m b n m 8 4 1 @ X O t 3 1 t f y * * * + q w < 2 3 b z k.%XC.9 l , O o O a a l 6 l.%XV.8 n , X h ! S K ",
"n.#.C / 6XpX:X0X,X8X8X8X8X9XrXrXeXeX1XxXHXKXa.Z S >.s.b.z.;.b f , r , t , r * * * * * % r t w i i l l ,.B.M.t.t.a.u X , e i C N k.C.l.8 h % O f V B c ",
"N.$.C ^ 4X*XaXtX>X>X>X>X>X8X>XwXeXxXkXaXCXVX/ g a.n.b.Z.FXd.S Z t y + + , + # * * * # % o O q f a b z >.v.v.$X$XV.K   X a i S #.1.n.j.3 u # $ i m l i ",
"$X&.c j j Q qXcXwX,X>X>X-X8X,XhX0X>X:XqXVXBX/ ! a.d.k.N.C.>.S C w t + + + r h h j k j h t , q u u g p J j.l.M.C.x.D : , s i S S d.z.s.g D j q a g l a ",
"$X*.l a a Q dXmXxXtX0X>X>X8XrXvXtX=X:X8X=X=X7XuX/ g 2 2 6 6 2 3 i s t , : K z.v.@X+Xx.z.a.b h f u q % % q q * y * * * e u f p B S $.$.S z.z.A w e e i ",
"$X-.#.m a Q NXNXsXtX0X=X=X=X=XsXeX-X-X:X:X;X7X5X/ u a a i 2 2 2 < a a e < v ;.&.=.=.#.B z 3 4 + o # $ $ O % + % # * * % , p 3 l B C $.S Z b w + , s 3 ",
"$X,.V C a Q sXvXbXvXyX0X-X=X=X8X7X=X<X:X:X*X/ ! ! Z n g b p < 3 3 a j j i b J V %.J m b g s r o o % $ $ $ $ % + % % + + : - 2 l m C K K j u r + , t < ",
"N.=.%.b a Q aXvXbXmXbXlXtX8X8X7X0X:X:X:X;X*X~ Z Z Z A b C p i p 2 , q % q i Z b b b d f s , r r y % # O O $ y q h Z K a.,.z.l.F p g Z g q q & % * , , ",
"n.>.%.v i Q 6XyXsXsXsXsXtXrXrX9X0X:X=X:X:X*XuXuXg.Z A A S $.$.$.6 O O o o q u a a a s s q O % y y + O + # & u u H K s.x.m.$XFX:.3 i w e $ # # # o o o ",
"f.&.$.N p Q / &X&X&X&X&X&X7XwX>X8XrX8X<X7X5XCXPXiXH Z ! ;.j.x.z.B O + o o * u e e u q t q % % u t 1 , % + % f g H J >.s.j.m.V.H w e u r # # # # % % o ",
"@.@.$.N c l Z Z e j & j Q 7XqX>XrXlXeXqX1X6XiXKXiXh Z S S s.d.s.l O + + X o O O X O X O O % q u u u u e + , h b F J b < 3 z M < O $ & # # $ # & # # o ",
"$.$.$.C c v N B a e y h H / &X*XpXrXwXeX0X;X/ ! D < i i p 3 > > , - - - @ - - - > : : O + # % f i a u q + , h v F K Z t u Z Z q $ # & % > > 1 - 1 - 1 ",
"C $.C l 2 v k.z.n < ^ FXV.j Q / *X6X6X7X6XuX! C 6 2 2 2 i > , O f z.j.V.+X+X+XB.j.z.4 O # $ % a a w a q O q h b d s 1 + O $ q # $ e n D j.j.m.@XC.C.@X",
"C C M d 3 M x.n.M > h.FX@X2 f ^ ^ ~ / ! / ! s.f.f.d.s.V S A H g n c.x.#X%X%X%X$Xb.x.z . $ $ % u u a f q $ + Z D s t 1 o o O $ O O w m N k.v.Z.$X$X%XFX",
"C l p g g M ;.:.x 3 a.C.m.N D D A C C l C C k.n.b.n.x.;.$.K K n d K J t.t.t.t.t.>.,.m s e + O q , , q % O # y e , @ * # # # & # q d B V >.<.v.M.l.:.w.",
"Z a a g Z M c c d 3 :.x.z.&.K 4 2 F a.:.N N ,.d.,.,.:.M z h.x.j.F + : m V @.@.o.#.#.M H f O o X X X X + # # O O o o o # # # o r t b J #.#.o.1.n.w.    ",
"m p i h A M m m i 2 H j.s.@.%.c 2 H h.s.$.S V V g O + X : h.V.m.,.* q Z B A A B M A b h u o + + , + X O q , q q t t 1 % % % + u g m S F #.@.s.j.:.< 1 ",
"V z 3 b K S m M p 3 3 2 6 %.%.J d X : < ! S C m d w u X : - ; 6 v r t f u u t u O , , , r + q u t , , < 2 2 8 7 B J B 2 z p 2 M B N N N F F v M M V V ",
"A p i b K S m n d i i 3 4 J F J f X X > J p s f f e u , + + , % % % r y 1 + > > 2 6 6 B J B 2 3 3 3 x F N #.#.#.%.F c v V N 6 2 > , , + + t t c V #.#.",
"p a a z A M d d i w 1 , , h d 4 n h O , p i e u t u u O + O + + # % y t q : > 3 2 x z D J D 3 s w s M J J V J K K H x D #.@.7 2 > X + X + t i n S V V ",
"w i i g Z n i s i s t + r t 1 3 M b . > w 1 , , q u w w < w w w e w D H h 1 t : , , < d x d i t q q 1 3 3 d z d h 4 - D V.m.t.1.;.M D t t u w m ;.S z ",
"i b M x d g i s i f q # % q 1 h.:.z < q q : : . : 4 < 3 3 < t s u d K K 8 < :   . O X , i s t t % # o X : t s i s q   G %X%XM.n.d.S S 3 w a a Z ;.A 2 ",
"i H ^ M 3 p w u i w , . X + X V.h.g 3 u + - G :.w.:.-.o.F z a w w e H v :.w.*.F D w q q q q e y # * * * * r q q e % X h c.z.,.,.;.$.S p g e q h M D :.",
"i A K b 3 w e e q q 1 D D + > z.h.d t r + 4 V.%X$X$X$Xv.x.K i q O O w 2 m.%X#Xv.z.z i , O O $ $ # # % o X X O O O O + X     1 2 M ;.J b Z q o q t G FX",
"n p 3 < i q O + O   h.FXV., X 3 w w , + o 4 c.@X#X#XZ.b.k.V 3 w O & e i z.@XB.l.f.9 l 3 > , $ & & + 1 4 4 ; 4 2 2 > O + # # r w Z ! B C b $ # & y D @X",
"b p i i t r + o #   w.%XV.2 > w t r # # # o 4 8 =.v.b.=.;.c c f . # & $ 4 8 7 &.&.f.z.>.K n : + X   c.#X#X+X+Xv.z.J O + % % # , a a a b b q O & $ , d ",
"n a s t q + + * o   K m.l.S A Z u # * # y X t 3 J x.k.;.;.B m s o $ $ $ r < x J $.x.x.s.K Z X X X   z.%X$X$X$Xv.x.V : : X o % # r u f D Z % O # # & r ",
"Z f u q + # * * o X K n.k.$.J S u * # # y h.f O h D m v B C m g O # & & & + i A S ;.;.M g s X + o   h.N.v.t.t.>.>.>.h.K , X + + & q % y r o o o # $ & ",
"f y y & # # r r % , M d.1.$.$.c u * * # y z.D X X + , x b Z Z j O # & & & O w Z m n n g t t O $ % X a.n.j.#.#.V #.d.n.j.: o + + + # # o o o o o O $ $ ",
"< X X + % % u y u t x S V #.V 6 1 y # # % s.v a u % , a i g Z e O # # & & $ q f h d h t r q $ O % O H h.a.B S V $.>.f.a., r o + + + # # # o o o o # # ",
"F x d d w w a u t < b %.#.>.&.o.h % % # * N $.a.Z : , O . w u q + $ % $ $ # # + O O X , + + O O o + O O w n l V #.@.$.A t y + o o o o o o o o o o # + ",
"$Xm.x.h.K H < r t i x %.&.k.b.Z.w.# + # r V $.$.C , O q # y y r # # # # # + # + + + X X + : O O X o o o q Z m J %.$.$.H u u # # o o o o o o o o o # # "
};
