/* XPM */
static char *result[] = {
/* columns rows colors chars-per-pixel */
"75 75 255 2 ",
"   c #053B0D",
".  c #073715",
"X  c #053B14",
"o  c #06351B",
"O  c #0B341D",
"+  c #053A1B",
"@  c #0B3A1C",
"#  c #10341C",
"$  c #382D07",
"%  c #2A3608",
"&  c #363304",
"*  c #3C2818",
"=  c #2B3815",
"-  c #333611",
";  c #0E2F22",
":  c #112F23",
">  c #0D3322",
",  c #073823",
"<  c #0C3B22",
"1  c #103123",
"2  c #113C25",
"3  c #382A23",
"4  c #293C2B",
"5  c #333A29",
"6  c #473504",
"7  c #523809",
"8  c #42241B",
"9  c #442A1A",
"0  c #46361A",
"q  c #54341D",
"w  c #593619",
"e  c #462A24",
"r  c #4A2B24",
"t  c #542F26",
"y  c #4D3324",
"u  c #543324",
"i  c #593724",
"p  c #09520D",
"a  c #074717",
"s  c #0B431C",
"d  c #0C4C1C",
"f  c #12491C",
"g  c #075518",
"h  c #0B531C",
"j  c #0C5A1C",
"k  c #14561C",
"l  c #294A1A",
"z  c #37491B",
"x  c #2D5313",
"c  c #0C650B",
"v  c #0C6719",
"b  c #15681D",
"n  c #15741D",
"m  c #1C7D1D",
"M  c #2B6D16",
"N  c #247C1B",
"B  c #0D4323",
"V  c #0D4C23",
"C  c #0E4829",
"Z  c #134425",
"A  c #124C24",
"S  c #144529",
"D  c #19452A",
"F  c #144C2A",
"G  c #0C5323",
"H  c #0D5A24",
"J  c #0D5829",
"K  c #135324",
"L  c #135B24",
"P  c #1B5925",
"I  c #13552A",
"U  c #1A542C",
"Y  c #145C2B",
"T  c #1B5C2C",
"R  c #164B36",
"E  c #0D5C31",
"W  c #185935",
"Q  c #2A4824",
"!  c #265A29",
"~  c #245739",
"^  c #305331",
"/  c #0C6424",
"(  c #0E6B25",
")  c #0C632B",
"_  c #0C6929",
"`  c #146425",
"'  c #136B24",
"]  c #1A6825",
"[  c #14642B",
"{  c #1B632C",
"}  c #146B2B",
"|  c #1B6B2B",
" . c #0F7123",
".. c #147324",
"X. c #1B7524",
"o. c #1C7D24",
"O. c #15722B",
"+. c #1C742C",
"@. c #157B28",
"#. c #1C7C2B",
"$. c #0E6233",
"%. c #136333",
"&. c #186934",
"*. c #1C7332",
"=. c #197637",
"-. c #1D7B33",
";. c #276729",
":. c #35682A",
">. c #267729",
",. c #227B2C",
"<. c #33742B",
"1. c #276836",
"2. c #237434",
"3. c #237B33",
"4. c #267838",
"5. c #367A37",
"6. c #5A4907",
"7. c #514A11",
"8. c #654A08",
"9. c #6B5609",
"0. c #765C08",
"q. c #654318",
"w. c #6A5812",
"e. c #775913",
"r. c #527412",
"t. c #776406",
"y. c #6E700C",
"u. c #434627",
"i. c #5D422C",
"p. c #67482B",
"a. c #654A2C",
"s. c #674833",
"d. c #654A33",
"f. c #6E5230",
"g. c #765737",
"h. c #526226",
"j. c #616B29",
"k. c #786133",
"l. c #7D623B",
"z. c #207341",
"x. c #7B5C43",
"c. c #7D6142",
"v. c #825F07",
"b. c #99780A",
"n. c #8D7010",
"m. c #825E39",
"M. c #856939",
"N. c #8C7236",
"B. c #997C3D",
"V. c #846642",
"C. c #977947",
"Z. c #9E7E53",
"A. c #1B8618",
"S. c #1B821C",
"D. c #2E8B0F",
"F. c #23831C",
"G. c #27881A",
"H. c #358A1B",
"J. c #2A941C",
"K. c #38941B",
"L. c #3FA016",
"P. c #1C8223",
"I. c #1A8329",
"U. c #1C8134",
"Y. c #288827",
"T. c #23832B",
"R. c #348928",
"E. c #2B9626",
"W. c #379727",
"Q. c #298733",
"!. c #358835",
"~. c #2B9333",
"^. c #369737",
"/. c #39A528",
"(. c #36AA28",
"). c #3AA439",
"_. c #439E1B",
"`. c #509117",
"'. c #71910E",
"]. c #44A215",
"[. c #4DAB16",
"{. c #44A11B",
"}. c #4BA819",
"|. c #71B01C",
" X c #478929",
".X c #459D27",
"XX c #469935",
"oX c #6B9622",
"OX c #44A223",
"+X c #48A728",
"@X c #51AC26",
"#X c #59B726",
"$X c #4CB333",
"%X c #6EB02A",
"&X c #63BC28",
"*X c #69C72B",
"=X c #79C62E",
"-X c #6AC636",
";X c #348A41",
":X c #3A9844",
">X c #3AA443",
",X c #4C954F",
"<X c #459948",
"1X c #47A748",
"2X c #55A647",
"3X c #48B449",
"4X c #55B84B",
"5X c #48A752",
"6X c #53A956",
"7X c #4DB953",
"8X c #55B958",
"9X c #64B54E",
"0X c #5BB760",
"qX c #58C34B",
"wX c #4DC250",
"eX c #58C456",
"rX c #68C85A",
"tX c #6ED054",
"yX c #75C865",
"uX c #76D965",
"iX c #79E26A",
"pX c #8F8811",
"aX c #B08F12",
"sX c #93A81A",
"dX c #B1AF1A",
"fX c #99843A",
"gX c #B09129",
"hX c #8FB428",
"jX c #B2B027",
"kX c #CAAB1B",
"lX c #D3AC1B",
"zX c #CBB419",
"xX c #D2B419",
"cX c #CDAE25",
"vX c #CFB22B",
"bX c #D2AE31",
"nX c #AAC11A",
"mX c #94C82C",
"MX c #A7C831",
"NX c #E4C51D",
"BX c #D1CD2B",
"VX c #E6C825",
"CX c #ECD728",
"ZX c #F1D631",
"AX c #9B8546",
"SX c #A4844A",
"DX c #A6854F",
"FX c #BBB249",
"GX c #C19A52",
"HX c #83EA5B",
"JX c #89D170",
"KX c #86E66A",
"LX c #8DEF72",
"PX c #EED543",
"IX c #97F180",
/* pixels */
"_._.{.OXW.N N W.OXK.m o.@.@.o.F.#.-.2.1.= * g.V.f.w w B.SXN.m.d.8 8 t t r 3 4 W %.z.z.o.S.@./ $.W W R D h.FXvXcXzXVXCXBX'.`.`.r.|.*X&X].].].].#X*X&X].",
"_.].{.OXK.N N .XOXH.>.#.#.#.o.>.o.@.3.:.= 8 g.C.m.w q.B.B.N.l.a.8 8 t t r 3 Q ~ W &.&.@.o.O./ ) %.W R D h.vXvXzXzXNXCXBX'.]. X`.#X=X&X]._.[.].#X*X&X].",
"+X{.#X#X@XK.K.{.+X>.' O.#.P.J.E.Y.P.Q.h.- * g.V.f.w w M.V.m.m.s.* 8 u u e 3 4 R R ~ ~ 5.T.o.X.X.>.:.l = 7.N.b.b.b.aXkXaXaXjXy.'.oX=X&X[.]._.].}.[.@X].",
"W.W.#X-X#XK.H.W.^.+.J } P.A.J.J.F.P.Q. X= 8 x.x.f.w w m.m.m.V.s.* 8 u i e e 5 4 ~ ^ 1.5.Y.o.F.>.>.<.x & 7.w.e.e.0.v.b.b.vXlXb.n.sXmX|.].].].].}.{.].].",
"H.H.#XtX@XM N Y.!.*.) _ I.A.S.N S.m Y.R.- 9 i.d.i.q w s.m.s.f.p.9 r r t r e 5 ^ ~ ~ 5.5.R.Y.o.o.#.<.x % 6 w.0.t.e.n.b.aXcXkXaXdXpXsXoX].{.{.{.OX.XK._.",
"R.R.$X$XOXD.G.R.!.*.} } @.@.o.o.F.E.G.:.u.i 9 * 8 q t w t w q w i y 8 3 r t u.^ ^ 1.~ ^ !./.m o.3.4.l & 6 6.6.t.0.n.b.aXkXzXVXZXsX9.r.].OX{.OXK.H.K._.",
"R.!.>.N H..XXXR.,.!.;X4.( / #.m (.(.).:.u.u 9 9 q t i i i w w i w i e e t t u.~ ~ 1.~ ~ 5./.o.#.2.5.Q $ 6 6.6.w.e.v.b.gXzXzXBXBXsXy.r..X.XOXOXW.H.W..X",
"R.R.>.>.Y.XXXXR.5.!.!.4./ ) +.o.E.$X+X:.- 9 0 q p.g.m.g.m.m.g.g.p.p.t t r r 5 ~ ~ ~ ~ ~ &.P.o.-.E R 3 $ 6.w.y.6.6.n.b.aXZXCXnXmXhXhX%X`.H..X{.]._.W.H.",
"@XXX>.b ;.!.!.| [ ,.Q.>.[ ) *.o.F.J.G.:.- e 0 w p.V.m.m.V.m.m.m.p.p.w i 9 e 5 ~ ~ R ~ ~ &.-.-.4.R R 5 $ 7 w.9.6.6.e.N.aXZXBXmX-X%XmX9XH.N .X[.].]..XH.",
"@X@XN j | !.Y.b v >.!.3.) $.*.o.m F.F.:.5 y a.f.f.s.f.s.s.g.s.f.p.s.p.f.i e Q ^ ~ ~ ~ ~ 1.@.} &.1.~ Q $ 6 9.8.6.6.e.n.b.MXMX%X@X@X.XXXR.R.@X#X[.].K.E.",
"#X&XR.n ,.W.W.!.!.Y.>.+.} $.O.O.m m N :.u.q f.k.f.a.i.s.s.s.s.s.d.a.g.l.s.y u.^ ~ ~ R ~ 4.O.$.$.z.5.z & 6 6.6.8.8.9.0.'.hX%XH.M <.H.R.!.R.&X-X#X].K.H.",
"=X*XXXR.R.OXOX-XtX<.j ` =.=.) / n N N :.7.q k.l.k.a.s.s.s.s.p.p.d.d.g.g.p.i u.:.~ ^ ~ ~ &.@.) } z.5.x & 6 6.6.q.8.9.e.y.hXhX|.|.oXoX X!.H.&X-X#X].{.K.",
"*X=X_.D.H.K.{.&X-XR.b &.=.O. . .m S.N :.z q V.AXM.a.d.y t i w i d.a.p.f.i i i.1.1.:.1.~ z.*.-.=.Q.Q.l $ 6 q.6.e.v.e.0.'.%XmXBXPXBXjXhXr.R.&X-X[.].].{.",
"*X*X@X.XK.D.D.-X-X.XQ.-./ / ~.).A.A.T.:.y 0 N.AXl.f.d.i t w t i d.a.p.s.i y u.^ ^ 1.1.~ &.*.#.#.U.4.Q % 6 7.8.e.e.0.9.y.hXMXBXZXxXzXhX XK.&X-X#X].].{.",
"*X-X[.}.W.N Y.&XtX_.R.>./ / ~.(.J.A.N :.= 0 M.AXM.p.d.d.s.p.p.p.a.f.g.x.i 9 5 :.1.1.:.W &.+._ ) &.[ T ! z $ 7 q.e.8.9.y.dXnXCXCXkXpXpX`.{.}.}.].]._.{.",
"[.[.}..XW.H.<.H.H._.W.R./ _ I.A.J.J.W.<.- * M.SXM.p.a.d.p.q.f.f.p.f.m.x.i 3 z ^ :.:.;.Y | *._ ) %.[ { P l $ 6 e.v.8.6.t.zXzXCXZXdXpX'.`.{.{.].].]._.}.",
"].{..X.XW.H.<.N m R.XX!./ / #.S.J.(.OXR.- 8 f.N.N.M.N.B.B.N.m.m.g.x.s.x.u * 5 :.;.>.>.Y.#.} O.O.[ %.&.*.x % 6 w.9.t.t.b.lXlXxXNXdXsX%X_.].]._.[.#X#X].",
"L.{._.W..XXXXXX.| ,.R.,... .o.S.K././. Xx $ f.m.N.SXB.GXGXDXZ.C.m.x.s.s.t 8 5 ^ ;.>.S.E.T.} -.3.) ) =.4.;.% 6 9.0.n.b.aXlXlXxXdXjXhX%X_._.}.}.#X-X*X].",
"L.(.K.Y..XtX9Xn $.$.[ ' P.S.P.m K./.+X Xz * f.k.M.C.B.SXZ.C.C.m.g.s.s.s.r * z :.M o.S.Y.#._ #.#.} =.=.*.;.& $ 8.9.n.aXaXlXkXkXgXhX=X|.].].].].[.*X#X[.",
"[.}.W.G..X-X9Xb E E [ | S.A.F.o.Y.W.~.:.u.i f.M.l.l.c.d.f.f.p.p.i i u t e 3 Q >.m P.#._ / _ #.I.-.=.&.W Q & $ 6.6.b.cXkXlXkXaXpXsX%X*X].]._.].].L.[.*X",
"&X-X.XH..XtX$X;.) &.4.Y././.G.I.n v b <.z q f.M.l.c.x.d.d.s.d.d.u u u y e 3 Q <.o.o.o. .v n o.#.U.U.&.W Q % 6 7 8.pXvXzXcXvXpXpXsX&X#X].}..X_._.].[.*X",
"*X-X.XD.K.-X&Xb H | 2.Y./.(.A.S. .v X.XX- 9 l.AXM.d.d.i i i.s.d.a.d.i t e * Q 1.,.o.S.Y.~.E.m o.U.U.z.W Q % 6 M.n.aXvXdXsXhXMXmX|.[.[.]._.H.H.K.].].*X",
"[.[.#X#X#X@X+XW.^.>.` X.G.J.J./.F...Q.XX= * V.DXM.a.a.u u d.d.d.f.s.i u e 3 Q <.m S.S.E./.W.F.,.z.z.z.%.Q % 6 n.b.aXkXdXsX=XMXMX|.[.].}._.H.H.K.L.@X-X",
"].].#X*X#X_..X.XXX!.T.I.m @.o.#.o.@.Y.XXl * c.DXM.i.i r 9 y y i i.i u u e * Q >.F.E.K.J.E.J.N T.=.$.$.W D & 6 b.kXvXVXBXnXdXdXsXhX|.&X].{.@X@X@X{.{.OX",
"].].#X*X#X].W.Y.Y.^.).W...*.) / ..#.Q.+Xl * l.DXM.q y 8 * 9 8 9 u q w t r * Q <.Y./.(.J.A.Y.>.>.W W W ~ Q $ 6 bXbXVXZXCXzXcXpXpXsXMX=X].].*X-X#X_._.H.",
"].].&X*X#XW.#.` ` Y.W.E.S.I._ / } -.T.^.% * l.C.g.q y y y u q q y y t w 9 3 Q 1.o.(.L.J.G.I.#.4.W R R W ^ 7.w.gXlXNXCXCXdXhX'.y.|.=X*XL.K.+X$X/._.[.K.",
"].].#X*X+X#.3.-.,.I.P.Y./.W.( ) O.#.#.;.= * f.l.q.* y x.c.c.x.d.* 8 q t r 3 4 W _ E.(.J.S.@./ E W W R D h.FXbXcXlXNXZXzX'.'.`.r.G.m S.S.T.../ _ W.#X].",
"].L.D.D.F.#.-.#.T.T.I.A.(.W.n / O.o.o.n % $ f.l.a.8 0 l.l.c.x.d.8 8 q t r 3 4 W ) ).(.I.@.O.) ) $.$.R Q h.jXzXxXlXNXCXBX'.`. XT.S.@.o.P.P.v v  .#.Y._.",
"].].Y.@.P.o.....eXiXwXA.J.3X3XI.( } [ L = * c.AXk.7 q C.AXc.c.d.8 8 u t r 3 4 W ) @.I. ._ } *.*.z.=.W D j.FXxXVXCXCXCXNXsXjXK.A. .v _ P.G.(.).E.@.F.].",
"L.J.I.@.,.#.( n uXIXeXA.J.wXqXI.} %.$.H = * c.DXM.7 6.C.AXM.c.d.8 r t t r 3 4 W ) =.O._ E &.-.#.Q.4.U l w.FXxXVXCXCXZXNXdXdXK.P. ./ _ P.Y.(.$XE.m T.W.",
"L.E.I.@.....@.@.eXiX>XA.E.tXiXE._ [ J h = * M.DXm.7 q.C.AXN.l.d.8 8 i i r 3 4 W $.=.&.E E E -.#.{ ;.h.h.n.BXNXNXNXlXdXdXdXhXH.P.@. . .O.m P.J.J./.W.K.",
"D.A.P. .( ..#.I.3XwX).I.E.iXiX(.` J g p % * V.DXM.7 q.B.AXN.l.a.8 8 t i r 3 4 W $.$.$.R C Y -.2.P D j.pXgXPXVXlXlXaXaXpXhX%XG.S.I.U.@.O.v n c J.$X(.G.",
"P.S.P...( @.Q.~.>X>X^.I.(.LXLXW.' E V p = 8 V.Z.g.q q.B.fXM.l.d.8 8 t i t 3 4 W $.$.z.R R E z.-.T Q h.n.aXbXbXbXvXaXb.n.sX|.G.A.A.I.@.O._ #.o.E.W.W.F.",
"S.S.N >.b -.8XwX).I.I.P.E.HXLX).#.} G g = * g.V.f.q q.B.AXN.l.d.8 8 t t t 3 R ~ $.z.z.z.W $.4.4.U Q z 6.9.v.v.VXPXaXv.0.y.r.+X$XE.I.@._  .5XeXR.c j >.",
"P.S.Y.n ] ,.8XwX~.I.@.#.E.LXLX).,.} g v !.u.l.AXM.7 q.B.fXN.k.d.8 8 t t e 3 4 ~ $.z.$.$.$.$.W ~ F Q u.6.8.t.v.VXPXgXv.0.y.N (.$XE.A.@.v  .3XeX~.p k ,.",
"v Y.W.N g ` ;XQ.U.U.O.v @.eXtX~.U.} h j b k <.5.<.! M ;.<.;.] Q 8 8 t t e 3 4 ~ %.W &.$.$.$.W ~ W Q u.7.8.w.H.&X%X XM M M P.P.P./.(.E.n  .rXiX3XX.| H ",
"v ~.).>.d k 3.U.U.T.} G b 8XwX~.U.| h J H H X.,.X.( } ' ( _ v L ! ! u t r 3 4 ~ W W R W &.&.Y ~ ^ 4 u.7.9.y.A.(.$XP.v v T.o.@.@.E.$X(.n n uXLX4XT.X.p ",
"G T.~.X.h I *.*.U.T.} g / >X>XU.U.O./ E [ [ | X.,.^.;X' ' ' ' O.X.| ^ i r 3 4 ~ W R R E z.=.Y ! 4 = 7.w.9.9.r.K.(.E.Y.T.O.} O.@.J.(.(.n n rXiXqX4X<Xc ",
"G | X.{ V I &.' -.T.' h j -.I.I.I.O.[ [ [ ` b  .~.eX7X+.' o.P.#.v ) ' l z z ~ 1.1.R I %.*.+.` ! = & 7.e.t.t.0.N A.E.wX)._ ) O.@.E.(.J.v v 3XqXuXLXyXc ",
"H *.3.[ K I T { +.,.] a j -.=.-.-.| [ } #.P.P.P.~.3X1X..` #.Y.X.H _ ( n J.(.E.-.-.' ' X.N m { ! = $ 7.w.0.0.t.;.@.E.(.~._ ) O.@.E.W.E.S.P.>X3XtXLXHXp ",
"V +.4.=.E Y H g ` ] k   a / _ O.( / h ` 7X7XwXqX).I.I.} } >.3.*.} } ' v E.(.E.v | ] ' X.S.m ] ! * $ 7 8.9.0.0.P g G./.E.../ *.#. .v S.7X7XQ.P.4XLXtXp ",
"A 2.3.| J H h h { { A X a } _ _ } Y h ` 8X7XwX7X>Xo.-.&.[ *.2.>.' | b n R./.Y.n n b ' X.#.I.>.<.- 6 7 8.8.0.0.k p Y.).~...( *.*.| ( I.eX7X~.P.4XLXtXk ",
"@ ;.>.] G } 1X<X| H B + a %.} J G I [ ] ,.I.I.~.U./ Y &.{ { L !.yXrXX.' ] b !.yXyX>.b ' _ / | b H.& 7 0.v.n.x <X5XT.v v ' ` } O./ j ..7X3XI.P.).rX2Xa ",
"  ;.<.n p ( wX0X| V B + , ) } G V I &.[ ` v @.U.} G I T W I p !.IXiX,.[ L p !.IXKXN ' J E ) ` n /.7.8.0.0.M j 6X8XQ.p h ` ' _ _ J g ..7X7X~.I.).eX<Xa ",
"  P ] 3.Q.Q.>X>X_ B < , B *.*.H d Y *.O.` ` [ | Y J F I Y z.Q.XXiXrX] L ` b W.uXrX] G E E $.[ ` T.& 7 0.6.g j ^.>X+.j ` ' ] O.=.[ d / :X).U.O.Q.>XQ.a ",
"@ a g Q.8X7XP.=.a + , , a 4.4.` h [ 4.*.} [ K d G F C J G <XrXqXqX3Xb h | o.~.wX3X/ V E E E [ L v x 7.7.x d k X.-.O.` { { ` *.4.[ V H U.I.O./ +.#.| a ",
"a k v ~.wX>XU.-.V + < + a =.4.I G [ *.*.` { K k A G C G h :X3X3X3X1XL h | o.~.5X<X/ V E E E [ b T.T.@.o.X.j j +.-.*.[ [ T [ 3.Q.{ d E U.U._ ) ] | { X ",
"F 2.Q.).wX3XU.-.V , B F J J G V d L { [ H K d A F V J d g } U.P.P.o.h d | 3.O.g J G G E E ) { >.uXLX^.v ' 3.2.' ` [ [ %.G I 5X0X4.X V =.=._ ) h a a V ",
"G 2.3.).wX3XU.4.C + B G G V I V G Y { [ K f f d K F G h g O.#.o.#.2.K V | 4.&.G G G h J Y P c M uXLX<X' *.2.+.' b ( [ %.G H 5X6X2.. V =.=.} } G + < F ",
"H +.U.Q.~.T.j V B V I 2.| G V &.2.{ L K d V s a d f G } O. . ./ d d < @ J J J J G | +.[ / !.tXtXrXeXR.j I J ` :X>XT.( ` h g Q.!.P X < Y ) ) [ L V A F ",
"G *.-.U.3.;.  + C G / ,.| h G 1.4.1.k d K F s . @ V J 4.4.O.' H X o , + B a g a g *.3.| j ^.LXHXqX7X3.h V d j 5X0X;X_ / h g >.4.k @ @ A H [ _ k d A G ",
"H [ *.[ [ U @ o F H Q.3X1Xb L { ;.L h V B Z # @ s V G E Y H G d + @ 1.4.| / | 5.3.' ] ` j  XLXHX(.:X+.V { <X^.:X>X4.H G a a | 4.{ I K A s L ` ,.XX!.L ",
"[ J G B + + + o I ' 3XLXuXn { k h d K V @ > > > 2 A V , o + + + + V 6X0X^.P.~.8X6Xk h K g R.LXKXE.I.) a Q.LXKXQ.>.Y K s   X ;.2.2.4.~ @ @ P ] 2XLXyXb ",
"} J G B + + G h X.Y.$XiXuXb { k f A V S < 1 < < < S S < < , < @ a j 5X7X^.P.^.1X,X] K K h !.KXuXR.#.[ G 4.iXuXQ.2.T Z Z @ @ { 1.2.2.;.@ @ U ] XXJXrXn ",
"=.J G s X k 6X7XuXKXtXqX3Xb k K A B @ < > > C F B @ < B F A V Y =.-.-.I.>X7X^.j k A V | -.~.4X3X..( | 2.!.8X4Xb K s @ O O @ S f k { L + O B d !.4X3Xo.",
"=.I V s   h 7X8XiXKXtX4X1Xb { K A Z < O O + C C S , s A A F V Y 4.U.=.@.<X8X<Xp f K G } -.~.8X3X@.` *.+.Q.8X6XT F 2 O O 2 O D A P { P @ , S B !.8X>X@.",
"=.H V V d h Q.~.(.).~.I.2.K K B B < > O D S B B C D Z @ . f d H _ O.-.-.*.| { f k ` ' +.#.I.Q.Q.' [ | 3.X...;.f @ @ O , > O 2 2 d K A f S A d +.~.Q.#.",
"4.L V V C K ,.#.#.@.| / L g f a X @ @ @ F I , , < S Z X   a g h _ [ 4.4.T V f k k +.+.-.3.,.,.2.} { &.2.| g d # O O O < > 2 > @ Z A S A Z U f ] ,.-.-.",
"&.V B B B V { ] [ | Y G P ,X X3.<.{ K F F K B B C W T ;.M !.<X5.L L { ;.F 2 Z s f { ` { ] { { { I I T &.T A f # O > < > 1 > > < < 2 Z # Z Z s I { } [ ",
"F + + + @ + F V V V B o ! JXLXrX8X<X2.2.h F F V T 4.Q.6X4XuXLX9Xa K d d s O # @ . Z f V V V V V @ o s G A f f # O O O > > , O o o . . . . O o @ A d s ",
"Z , + @ 1 2 S F A D 2 O k yXJX2X1X^.-.*.h G G h L *.3.1X1XrXyX,Xf Z f Z 2 > O # # S S D S S Z A @ @ K Y ;.M !   # O O O O O B a k P l f f @ @ < Z Z Z ",
"+ @ o < 1 # @ @ O O O O # f f p j ` 3.*.[ [ [ Y | 4.&.v h g s s X @ # O O O > O # # @ > > 2 # # Z f ;X2X9XJXJXf . @ > , O + W *.,XJXyX2X,X! Z < , , O ",
"@ + X a .     . X . # . O O # s G [ 4.4.} [ [ [ &.2.2.J V < o > O O O @ . . .   . . X o , > O @ f g !.6X9XJXJXP . O > > O + 1.*.8XLXJX4X6Xb f s o o O ",
"@ 5.<XXX9X9X9X9X<X<X1.. O # 1 @ , C E I [ [ [ [ [ E I , , > ; ; , < D F <.<X,X9X2X9X9X1.o Z U ;.!.^.^.R.!.<.<.@ O ; > > > > B d ] <.>.Q.R.^.:X3.Y U O ",
"a ,X8XyXLXLXLXLXrX8X5.  O # # O > < C V W &.T { I C C , O ; : : > , W ` <X8XrXLXKXKXJXh.. B 1.3.6X7X~.>.] a V < > > 1 1 , 1 , ; , B G O.@.1X8X;X2.~ . ",
". 4.!.1XrX4X9X9X1X<X3.a @ O O O O < B Z F F F F C B < > > # # 1 2 B &.' ~.^.$XtXtX2X6X1.o B %.{ ;X:X,.| { s 2 , , > 1 , , 1 , ; , , J &.X.!.:X3.[ U @ ",
"O , X G #.X.N N #.-.] ] ! . @ @ @ # > > > > , , o , O # # # ; 2 D I *.-.O.@.~.3X<Xp X . . o S V E J ` { F o , O > > > 1 : : , , , , , W ` Y Y L F Z O ",
"< > , E &.*.2.2.*.*.;.{ P @ O . @ @ O 1 : : ; > > > > O ; # O < D S &.*.=.O.Q.<X<Xs o O O > S S W W I U S . O s S < > : : : ; ; , 1 2 R U U W F S 2 > ",
"> > , + a a G h T T I f Z @ @ F P A O ; ; : ; > > ; ; : # ; O O S V [ { ` L k a . @ O O # O O O , + + X X . s <X6X~ > : 1 : ; > > 1 > # < O , > O > ; ",
"> > , O + + A F W ~ U Z Z O @ K { d o ; ; : ; > > ; # O ; # O > S F W T T T A . @ # @ O O . o . o + X X X X   <X6X1.o ; : 1 : : : 1 1 1 ; O O @ @ @ O ",
"2 < O O o O < < < B < < O O o K { K Z 2 > ; > ; # ; : ; ; ; : > < < B s s s < O # O o S W ~ T ~ @ o Z A I T ] <X6X1.B 2 > : : : : : : : O Z A A S S 2 ",
"D @ @ O , O , O > O O o O > O I ! U D D , ; ; > ; : # > 1 # > > , O o @ O O O o O # . U 1.4.1.1.# . S W T 2.2.5X6X4.V 2 > : : : 1 : : : O I P P P ~ D ",
"Z @ @ @ > > > > > > > > > > o F U U S S < < > # ; 1 : 1 # ; O ; > > > > , ; ; > , < < W 1.2.! ! @ # Z F [ 2.*.;X<X*.B Z > ; ; ; : : : ; O Z A K U D S ",
"A Z D 2 > 1 > > > > ; > > > o < Z Z S S D D 1 > : O O 1 ; 1 : # ; : ; 1 > > o > > B C T 1.T d f @ O s s K &.*.*.1.I C Z > ; ; ; : ; ; ; ; O . 1 D D D ",
"Z A A 2 O > > > 1 1 > > > > > S D A S S Z S 1 O : O : : O : ; > ; : : ; , o > > > C C T 1.~ f f # @ # Z F 1.2.1.1.T S 2 > ; ; ; ; ; ; ; ; ; : 2 2 D D "
};
