/* XPM */
static char *result[] = {
/* columns rows colors chars-per-pixel */
"75 75 255 2 ",
"   c #023A0D",
".  c #0E2F1D",
"X  c #112D1B",
"o  c #043514",
"O  c #043B15",
"+  c #0A3915",
"@  c #05351B",
"#  c #0B341D",
"$  c #063A1B",
"%  c #0B3A1C",
"&  c #11351D",
"*  c #0F2F22",
"=  c #112E24",
"-  c #0D3222",
";  c #073823",
":  c #0D3B22",
">  c #103123",
",  c #123D23",
"<  c #143E29",
"1  c #183E2C",
"2  c #06480F",
"3  c #08550D",
"4  c #044313",
"5  c #094817",
"6  c #06411C",
"7  c #0B421C",
"8  c #0D4D1D",
"9  c #13461C",
"0  c #124D1D",
"q  c #0C5314",
"w  c #085915",
"e  c #05531B",
"r  c #0B531C",
"t  c #0C5C1D",
"y  c #11531D",
"u  c #195518",
"i  c #125B1D",
"p  c #16730D",
"a  c #0A6717",
"s  c #0C631C",
"d  c #0C6A1C",
"f  c #12641D",
"g  c #16691C",
"h  c #136C1D",
"j  c #14731D",
"k  c #157C1D",
"l  c #1C781B",
"z  c #1B7E1C",
"x  c #257D0F",
"c  c #237C14",
"v  c #227D1D",
"b  c #0D4324",
"n  c #0D4C23",
"m  c #0D4829",
"M  c #124425",
"N  c #124B24",
"B  c #144429",
"V  c #134B2A",
"C  c #19482B",
"Z  c #0D5323",
"A  c #0A5325",
"S  c #0D5B24",
"D  c #0D5E2B",
"F  c #135424",
"G  c #1A5725",
"H  c #135B25",
"J  c #14532A",
"K  c #1A552B",
"L  c #145C2A",
"P  c #1A5C2C",
"I  c #164230",
"U  c #0C5C32",
"Y  c #195B31",
"T  c #215D2C",
"R  c #215832",
"E  c #056323",
"W  c #0C6424",
"Q  c #0D6B24",
"!  c #07612B",
"~  c #0B632B",
"^  c #0E6C2B",
"/  c #136424",
"(  c #1A6327",
")  c #136B24",
"_  c #1A6B24",
"`  c #14642B",
"'  c #1A642C",
"]  c #146B2B",
"[  c #1B6C2C",
"{  c #0F7123",
"}  c #147324",
"|  c #1B7524",
" . c #157C23",
".. c #1C7D24",
"X. c #15742B",
"o. c #1B742B",
"O. c #167B2B",
"+. c #1C7B2B",
"@. c #0C6432",
"#. c #176732",
"$. c #1C6B32",
"%. c #177634",
"&. c #1C7432",
"*. c #1D7B33",
"=. c #246A2C",
"-. c #227C24",
";. c #297A26",
":. c #21742D",
">. c #227C2C",
",. c #236B33",
"<. c #266836",
"1. c #227434",
"2. c #227B33",
"3. c #247439",
"4. c #287938",
"5. c #367838",
"6. c #487F39",
"7. c #1E830D",
"8. c #1C8315",
"9. c #1C871A",
"0. c #1C821C",
"q. c #27880F",
"w. c #248413",
"e. c #228B15",
"r. c #2B8C14",
"t. c #23841D",
"y. c #2A841D",
"u. c #238B1B",
"i. c #2C8C1D",
"p. c #358B18",
"a. c #328C1C",
"s. c #289216",
"d. c #25921B",
"f. c #2A931C",
"g. c #2D9B1C",
"h. c #359515",
"j. c #34931C",
"k. c #3A941C",
"l. c #339C1C",
"z. c #3C9C1C",
"x. c #3DAA0D",
"c. c #39A717",
"v. c #34A41E",
"b. c #3CA41C",
"n. c #3BAA1C",
"m. c #3BB61B",
"M. c #168223",
"N. c #1C8223",
"B. c #1D8823",
"V. c #1C822B",
"C. c #1F9020",
"Z. c #1D8131",
"A. c #228324",
"S. c #2A8424",
"D. c #248B23",
"F. c #2B8B23",
"G. c #23832B",
"H. c #28892A",
"J. c #2C8B2C",
"K. c #328C23",
"L. c #338A2A",
"P. c #259125",
"I. c #2C9323",
"U. c #2C9A24",
"Y. c #2B942A",
"T. c #2E9B2B",
"R. c #359423",
"E. c #3A9423",
"W. c #339C24",
"Q. c #3D9C23",
"!. c #32932B",
"~. c #3A962A",
"^. c #349C2B",
"/. c #3B9C2C",
"(. c #2B8333",
"). c #278836",
"_. c #2B8B33",
"`. c #348937",
"'. c #2C9733",
"]. c #2C9334",
"[. c #389737",
"{. c #339D33",
"}. c #2DA221",
"|. c #34A223",
" X c #3BA324",
".X c #35AA22",
"XX c #3BAB24",
"oX c #34A32A",
"OX c #3BA42C",
"+X c #35A929",
"@X c #3BAA2B",
"#X c #3DB228",
"$X c #38A437",
"%X c #449D1D",
"&X c #42B90F",
"*X c #43A415",
"=X c #47AA16",
"-X c #4BAA17",
";X c #43A31C",
":X c #4CAA1B",
">X c #45B817",
",X c #439E23",
"<X c #439D29",
"1X c #478738",
"2X c #439937",
"3X c #42A222",
"4X c #4AAA26",
"5X c #43A12B",
"6X c #53AD27",
"7X c #45B826",
"8X c #5AB428",
"9X c #44A534",
"0X c #45B734",
"qX c #5DB437",
"wX c #63BC31",
"eX c #3FC01B",
"rX c #53C41B",
"tX c #5EC226",
"yX c #66C62A",
"uX c #6BC42D",
"iX c #6CC533",
"pX c #71C93B",
"aX c #3A8B43",
"sX c #3A9945",
"dX c #3AA443",
"fX c #459B49",
"gX c #4A9550",
"hX c #47A749",
"jX c #54A34B",
"kX c #47B54A",
"lX c #55B84B",
"zX c #4BA853",
"xX c #56AB57",
"cX c #4CB654",
"vX c #55B958",
"bX c #65B959",
"nX c #5EB261",
"mX c #70BC65",
"MX c #56C24A",
"NX c #56C356",
"BX c #54C854",
"VX c #66C858",
"CX c #6FD058",
"ZX c #73DA5D",
"AX c #71CF63",
"SX c #79DA68",
"DX c #7DE767",
"FX c #83EA5D",
"GX c #85D568",
"HX c #8EDA76",
"JX c #88E669",
"KX c #88F56B",
"LX c #8EEF73",
"PX c #93EA7A",
"IX c #8DF676",
/* pixels */
"6Xa.a.k.*X*X-X*XtXuX6Xx K.%X%Xp.p.k.%X;X%X<Xk.6XpXqXx x %X*X*X;X;X,X/.t. .A.L.p.%X*X*X*X;X*X-XuXuX:X*X4X;X;X3X;X;X*X*X*X-XuXiX%Xx r.;X*X*X;X;XQ.!.l  .",
":Xk.L.E.*X*X*X*XrXyX6Xx %X,X,Xp.r.k.%X;X%X:XK.6XpXqXc x ,X;X;X;X3X,X/...| G.L.p.%X*X*X*X=X*X-XuXuX:X;X;X;X3X3X3X;X*X*X%X:XwXpXp.x r.;X;X*X;X3X,X!. .o.",
"8X%XK.E.%X*X*X*XtXuX8X%X,XwX8X%Xk.%X*X%X%X%Xp.k.,X<XE.K.a.r.k.3X,Xy.L.(.G.L.~.E.r.r.z.b.;X*X=X:X6X;X;X;X3X%Xr.e.%X*X*X;X%X,X<XE.E.j.r.r.b.3Xj.S.H.(.G.",
"wX%X;.%X*X*X*X*XuXuX8X-X:XuXuX6X;X;Xb.*X*X*Xj.y.p.K.<X<Xy.c k.5X~.v -.(.S.E.5Xk.x 7.W.XXb.*X*X*Xc.;X3X%X;Xz.w.7.l.;X;X;X%Xp.y.,X5XE.c w. X5XF.-.;.J.y.",
"wX%Xk.%X%X*X;X*XtX8X:X%X:XwXuX:Xh.z.c.*X*X;Xj.j.k.E.~.E.S.v S.L.L.-.-.Y.W.b.;Xz.r.s.I.j.z.*X*X>X=Xn.;X;X;Xz.r.r.j.j.b.;X%Xj.a.E.E.K.t.y.F.L.S.-.S.W.h.",
"uX:X%X%X;X%X;X;X%X%X-X*X:XwXwX%Xx p.=X*X*X;X3X;X,X<Xa.F.y.;._ s / >.w.4X7X:Xb.b.;X5Xe.8.s.*X=X>X>X=X*X*X*Xc.b..Xu.8.i.;Xb.*X;Xj.a.i.S.-.s s | t.R.7X7X",
"wX:X%X:X;X3X,Xz.*X*X*X*X-XwXwX%Xc i.;Xz.;Xb.Q.b.;X3Xf.K.y.;.| W _ >.t.5X7Xn.c.*Xz.Q.e.z i.3Xb.>X>Xm.&X-X=X*Xx.v.u.0.r.;X*X*X*Xh.i.y.S.-.) W o.-.a.7X7X",
":X:X%X%X;X,Xw.w.z.*X%X%X%Xp.1X%X,Xj.w.r.;X3Xr.b.7X:X;XQ.a.S.(.(.2./ s t.w.c.7Xn.r.A.|  .H.F.h.;Xx.x.&X>XyXtXx.n.f.e.h.*X-XyXuX:XQ.R.y.A.(.).] Q j y.8.",
"c.b.;X;X%Xz.x 7.z.;X;X;XQ.a.y.Q.<XR.c y.<X5XS.l.>X7XOX5XF.y.S._.2.W ~ o.0.l.7Xn.w.v ..} G.).L.,X&Xm.m.rXyXyXn..Xs.w.p.;X-XyXuX6X<X~.t.S.J.(.] S ] -.8.",
">X;Xb.c.*Xb.g.g.f.r.l.;X;Xz.k.k.R.K.t.-.-.-.-.W.7Xn.t.| ;.-.K.~.`.~ ~ 1.z }.7X>Xl.!.G. .G._.L.!.h.m.&XeX>X4Xr.i.j.z.h.h.h.6X8Xp.-.>.-.S.~.~.X.D ] >.0.",
">X*X*X*Xc.*X*XXXu.l s.;X*X=X;Xj.i.y.y.-.s W | /.7XOXs W | l K.9X`.s W o...W.7X7X3X5XD.z G.L.(.`.F.@X0Xm.v..Xw.v E.5Xz.w.q.,X<Xl t ) | t.<X2X-.S ^ >.0.",
"&X&X=X>X-X=Xc.v.u.t.j.;X=X-X:Xh.j.K.t.>.] ) o.I.@X!.) ) G.u.I.!.R.l  ...N.Y.OXoXW.^.i.D.G.J.(.2.2.].oXT.U.U.-.-.L.W.j.f.s..XOX>.^ +.F.I.~.~.v l ....z ",
"x.&X&X8XyXyXm.n.d.e.k.*X-XyXuX-XQ.R.y.S._.).) k e.N.V.V.{.+XP.8.A.OXoXu.z 0.0.N.A.A.W.OXI.0. .t S W W } A.v -...0.8.d.+XXXv.+XP. .P.$X}.0.z ^.@XU.8.0.",
"b.&Xm.rXyXtX.X|.s.q.h.;X-XyXuX4X<XL.S.S.L._.] } N.D.0.0.T.{.P.M.N.|.v.7.8.0.M.+.A.N.!.|.f.8.0.s ~ U U [ ;.A.z -.0.8.d.+X.X|..XC.9.P.{.{.N.k U.|.f.8.8.",
"g.#XeXx.x.v.w.t.E.3Xk.q.p.:X4Xv g | -.y.<X2X[ | 9.u..XW.k d X. .0.9.e.g.|.I.A.N.N.N.t.u.}.#X+XN.&.@.S -./.j.t.t.W.^.d.9.9.C.e.g.v.u.d Q O.k 9.e.s.v.l.",
"P.#X0Xm.v.|.v -.E.5Xk.q.q. X,X=.W ] ..t.<X2Xj } M.e.b..Xd s ^ O.k N.8.c.n.f.t.N.A.G.N.M.W.0X@X9..._ s -.5Xl.8.8.W.OXP.0.9.9.7.c.n.9.a E O. ...0.e.n.n.",
"X.Z.V.D.I.F...-.F.i.f.W.g.n.+XV.X.V.T.I.f.F.D.A.N.e.n.v.0.{  .M.M. .0.v.n.f.v -.) ) O.M.D.U.g.|.|.A.j v i.s.g.U.D.D.A.....t.w.c.c.f.j }  .M. .0.d.n.v.",
"S D D _ -.v -...0.8.d.XX.X.X+XC.N.P.$XoX0.0.^.Y.M.u.v.v.9.9.M.M.M. .0.oX XI.-.o.s W X.V.B.8.8.7X7Xu.z ..8.8.|..XB.O.+.>.A.A.e.g.n.g.9.N.M.B.M.N.D.+X|.",
"` @.U :.S.S.z 0.u.u.d.U.}.}.}.s.9.D.Y.P.M.N.P.B. .0..Xv.e.8.9.C.B.M.M.H.Y.G.-.| | o.X.O.O...w.#X#Xd.0.v 0.u.v.+XB.O.+.>.-. .z g.n.l.8.9.d.C.B. .V.Y.Y.",
"&.] / H.5Xj.A.z Y.W.I.z 0.8.9.g.XXF.d E X. .0. .E j W.v.e.z D.T.P. .X.Q d j A.F.{.[.} d ) v u.|.g.8.0.A.N.t.}.U.N.+.+.>.>.} a u.v.f.v t.T.^.V.O.X.d d ",
"*...P.oXU.N.*.~ / | A. .E ~ +.+.!.$X_.E ! %. .P.u.s ) ..N.N. .O.Z.*.W d j 9.d.|.oXB.M.M.0.i.v.W.j s S.OXI.+.).*.+.+...D. XW.j s  .A.....+.*.*.] E d ..",
"W Q  .9.M.M.*.~ W G.{.Y.} %.~ W | +.O.@.@.%.O.I.R.l -.^.^.H.V.X.~ Q O. .I.|.g.9.B. .M.+.N.t.D.A.) W | H...~ @.%.*.o.O.t.v. X0.k H./.U.| +.] ! %.*.N.^.",
"E W } 0.z V.*.~ W H.$XT.k X.~ W X.O.X.! @.%.O.Y.!.v S.OXOXD.+.X.~ ! *.N.U.@XW.0.M.M. . ...A.-.+.W E } >.O.! @.%.%.o...t. Xv.t.8.R.$X^.-.+.@.U ^ O.D.oX",
"W W G.!.D.+.*.X.X.G.F.I.I._.Q ! ] *.%.^ X.*.O.+.v v v I.D.D.N.X.E E %. .9.P.D.N.V.T.{.B...A.-.-.} ) } ..+.] ] @.^ o...0.i.i.w.z u.f.D.0.+.` U X.O.B.Y.",
"f s J.5X^.+.2.*.+.+...u. X^.) W X.+. .+.+.>.2.) h w.v -.N.N.z } E E %.M.M.k .. .A.0X0XU.z ..-.-.-.......O.+.%.@.E X.A.0.z z 8.v 0.k 0.A...Q E ^ O. .t.",
"W W G.^.J.+.*.o.].sXJ.u.l.@XB.Q { O.| | +...G.+.| t.v O.O.M.N.0. . .O.V.V.D.A.-.e.XX@Xg.d.A.| | -.0.-.-.| O.%.@.! X...w.e.r.8.0.M.{  ...t.k k  .O.N.G.",
"E X.O.+.>.+.) j AXIXMX8.P.lXlXG./ @.@.~ +.0.I.oXj.v -.W E O.M.U.#XdXB. .!.<XW.y.8.e.7..X0XT.d ~ -.t.A.-.G.+.%.@.@.X...u.XXW.u.0.{ s Q V.e.9X0XT. .G.5X",
"E O.O.+.+.+.{ j AXIXMX0.C.MXBXG.] #.D / A.w.g. XI.t.| W ~ O.V.Y.#X#XC.9.!.OXR.w.9.9.7.c.#XT.s E 2.>.G.>.N.B.*.@.! X.0.f. XQ.u...{ E Q V...@X0XU.0.F.3X",
"M.M.M.} } } O.V.BXBX$XB.T.DXJX].) D r a W.l.s.u.A.-.+.o.+.] E  .C.e.@X@XI.y.y.y.A.A.8.v.7X|...&.] / o.>.D.T.'.^ ! V.oXg.e.t.9.N.O.O.O.) h k p f.4X|.d.",
"V.M.N. .Q { V.V.dXBXdXM.}.DXKX!.Q L e w  Xn.e.0.N.0...-.+.) E Q M.8.0X0XI.v -.A.A.-.8.v.7Xn.z 1.` D [ -.d.+XoX^ W H.+Xv.t...8.0.0.V.O.^ Q d p i.0X9Xu.",
"M.N.N.| ) | dX$XdXdX'.M.T.KXKX/.o.` A a |.n.u.z D.T.U.t.>.| X.O.M.9.XX#Xi.-.>.A.A. .0.g.m.}.8.+.~ ~ +.Y.f.d.H.X.) I.XXl.t.N.U.U.9.V.O.^ ) _.[.J.y.y.-.",
"M.9.v | ) >.vXNX'.M.M.V.T.KXIX$X2.` e s ^.XXu.0.Y.0X0X0.-.V.V.B.0.8.|.|.u. ...-.z  .k g.n.g.0.+.~ E D.+XU.0. ...z f.3XW.0.0.9X0XU.M.O.^ { cXNXJ.3 w -.",
" .y.S.v f o.zXcX).+.+.X.H.DXDX{.G.] A t J.!.G...H.$X{. .|  .+.M. .0.T.^.A...N.u.y.z k F.|.I.8. .^ d D..Xg.9.0.u.u.I.!.L.....oXoXU.u.B.Q j kXVX[.s H :.",
"w J.{.-.q S ).Z.Z.).] w Q MXBX'.Z.^ e S H s -.>...} ) ) ) W W { V. .+...O.V.D.OXW.z z e.9.9.9.M.O.V.U..Xg.8.9.7X0XD.a h -... .k T.0X$Xj j SXKXlX>.o.r ",
"t ].$X>.q F 2.*.*.).] e Q vXBX).Z.^ A A S H o.>.o.) ] ) ) ^ W ) +.%.o.o.M.M.d.OX/.t.v -.u.0.9.M.V.| I..Xg.l 9.#X0XD.a _ +.+.*. .U.7X|.j j SXIXlXy.-.r ",
"t | G._ n J ' ] *.*.) r s ).'.V.V.%.` ` #./ ) j (.cXhX} ) | | } Q ) _ d F.}.g.B.A.j h ..t.u.T.T. .O.B.u.9.0.0.u.d.U.$X].^ ! X. .U.XXl.a d lXBXCXSXbXw ",
"Z [ >.` n J $.[ +.2._ y i 2.V.Z.O.%.` ] ^ d d a Y.NXvXX.Q | H. .W W / a f..X}.N.+._ f l t.D.$XoX0. . .N.....| >...oX0X$XW ! %. .P.OXW.p a cXMXZXLXCX3 ",
"Z &.&.$.U J L H [ o.i 2 r %.X.X.X.] L / aX[.[.'.{.$X[.X._ | G.o.~ ~ ) p f..Xd.| o.] ) | z e.P.U.u.d.9.0. .f ) ( f Y.@XT.Q ! %. .N.A.D.].'.sXOXVXLXCX3 ",
"F 1.2.$.D H 8 q ( [ i   4 ! ^ ^ ) H e ) vXBXBXBXdXM.+.] ' 1.2.:./ ) ) d I.@XU.d ) ) ) | ..N.z t. XXXd.0.} r r r 3 A.@XY.) W %.o.} d  .NXNXH.k lXLXCXu ",
"0 ,.2.] D S ) _ ( P N O 6 @.^ ` ` L Z ) dXkXkXdX{.o.&.#.` <.:.2._.(.) ) G.!.L.J.(._ g | | +.>.z b.n.e.0._ r Z ( g S.^.H.) ) %.o.) W +.NXBXV...kXLXCXq ",
"  =.;._ r ) vXvX[ n b @ 6 #.` S n J #.` f d  .Z.X.S S #.' J r `.PXSX*.] i 3 `.PXHX-./ W ! ~ / j Q.n.d.t._ r i zXvX2.3 w Q W ^ ] W e } cXcXH.V.$XMXfX4 ",
"+ =.5.g 3 d cXvX[ n b ; 6 ` $.A n H $.` / / o.).$.A J Y Y H q ~.IXSX>.' F q L.PXJX;./ D U U #.h /.oXi...| r t zXvX(.q S _ _ ^ ] S e ) cXcX).V.[.vXsX4 ",
"+ u i 2.zXdX).).e 6 ; $ n &.*.H n L *.&.] / S H J A J A S aXhXlXVXlXf r ( | [.BXNXf Z U U @.` / | k 0..._ r i G._.o./ L / [ &.&.@.8 / ).].O.Q +.].2.4 ",
"  y 3 ).NXkXZ.*.A 6 ; $ 5 3.4.` r ` 2.&.#./ F N V A m V Z fXvXvXlXlX/ r o.+.].vXcXS n U U L ` / a a j N._ q r o.2.%./ ` ' ` &.2.#.n H *.Z.^ ^ X.2.[ 4 ",
"5 L ^ '.BXdXZ.Z.n $ b b Z ` #.F Z L &.[ L H F 0 N F V A e ).dX$X$X[.i r [ >.Z.].).F A U U U ' _ fXhX_.| _ / ) [ o.] / ` H ` aXsX=.7 Z *.*.^ ~ / H H 5 ",
"J ,.).dXBXdXV.aXm $ b J S n Z n 8 H ' ` Z y 0 F N F n e e ) +.M. .+.r 8 [ 2.X.e A Z n J U L i l SXIXhXf [ 2.2.f W ` #.U Z F zXnX4.O n &.%.^ ` Z 4 % N ",
"S &.).{.kXdXX.$.m % n L F n J S H L ' H F N 8 8 N n A S w X.O.o.o.$.N b ' 3.#.A A S t H L _ ;.a.ZXJX[.H ' &.&.*.+.} ` ` Z r sXxX=.O b $.%.^ ] A 6 b m ",
"Z &.Z.V.V.+.4 6 n n ` 3.&.Z N <.3.$.y y Z N 4 + 6 n S %.*.{ Q t 4 $ ; $ n n A n e &.2.] W `.JXJXMXlXG.q Z Z S sXvX).Q / q e >.4.F @ b S S ! ` H N V J ",
"Z &.2.2.2.=.O % b A ) >.>.t y ,.4.=.r y N V % + 7 n Z 3.3.X.` A @ ; $ b 5 r r Z r :.>.[ f E.KXFXMXcXZ.r A A t zXcX).W H r q o.4.F $ 7 V r / / t q 0 J ",
"/ D L A A b % @ J W [.SXbXg H H H H 8 n % : , : , n n n n 5 5 b $ n aXfX4.| 2.fXsXf H F q 1XJXDXoX_.` e &.mXbX[.).%.i 0 O 2 =.2.[ <.P , 7 P g fXAXjX( ",
"@.D A m $ $ $ O Z s hXIXSX| ( H 0 8 n V % > - - : B B ; @ ; $ @ $ 8 zXnX[.z !.vXxXH y Z q L.LXJXF.>.~ e (.LXJX`.2.P N M O + =.3.4.4.=.% @ K g jXPXAXg ",
"#.S n b $ 7 ,.>.2X9XMXZXVXg / u N 8 b M # , M : b b b b b b b n S / sXdX$X'.[.`.`.G N P H L.SXVXG.X.` L ).AXVX-.,.V 7 , % % K P [ =.P % # J u 2XCXlXj ",
"*.D N 4 o u nXNXDXKXZXlXhXg H F N b % : ; ; m V b : % N V V N L 2.*.O.V.dXvXsX3 0 N Z ' *.'.cXkX| d $.1.`.lXlX/ N 7 @ # # # M N F _ G % # M 5 `.lXhX .",
"&.D n 7 O t hXkXCXZXBXkXdX/ H F M < # # : ; m m m : % M N N N L *.%.*.*.sXzX`.0 0 F S X.O._.kXhXX.` &.:.(.hXgXG N , # : , - B M G G F % : B 8 4.cX$XO.",
"*.D n n 5 S +.N.C.D. .) ( y N 7 : : # : C C b ; < I B O O 7 0 t ~ ^ *.3./ r y y i ' o.O.+.>.>.>.) ~ $.2.X.w F 4 % # # - - - & % M N 0 N N N 8 _ G.V.+.",
"3.J n n V J 1.>.+.*.$./ P q q 5 4 O % % J V b ; : V N O   3 3 t / ` 3.4.P N N N 0 :.o.>.2.:.2.1.' ' $.3.[ 8 N % # # ; : > , > : M N N V C V n ' 2.1.&.",
"P 5 $ b $ b G H H H Z 6 H mXbX2XfX5.( P Z N N b K <.:.aX2XvXbXfXr F H G 0 % , % 7 y u H H F H F n b F G G 9 9 & # # : - - - : ; @ & % & % , % 8 H i S ",
"m 6 @ @ : : C N N m : @ T HXPXAXvXhX2.1.r Z N 8 H 1.2.vXvXSXPXbXr N 0 F % - # # # 9 M N m N N M % @ 7 8 0 9 u & # # # > - # @ @ o o + o + @ @ 7 N n M ",
"m % # : ; - M M : M , # & jXjX1X`.).2.&.S H H Z ( 2.2.`.`.fXjX5.5 M % & & & > # & , , < < B b M % 7 T 5.5.1X6.& # # & # ; @ V Z =.6.6.=.=.9 & < : M : ",
": @ O % % @ + + @ @ # # & + + q e / 3.&.` ` #.` $.3.&.r q   o o @ @ & + @ # @ # # + % # - - # # 9 8 `.bXbXHXHXu + # # # # @ <.o.xXHXGXlXxXT M : @ ; # ",
"% 9 8 q u u u u 9 M 9 @ & & # M m L 3.&.` / ` ~ #.$.$.m M : * - - - & % 9 0 0 u u u u & - : % 9 u t `.hXlXAXmXu - ; = ; . @ Y ,.jXAXAXhXhXg i 8 ; : # ",
"O fXxXVXGXGXJXGXbXxX5.o + X & # $ b m A ' ` ` ` D n m ; ; # * - ; : K L aXxXbXGXGXGXGX<.@ M <.:.hXzX!.A.| i u & ; = ; = - ; % O 5 i i +.-.hXzXaX$.Y + ",
"+ gXvXAXLXJXJXJXNXvX5.  + & & - ; : m V Y Y Y Y J V m ; # = = - ; ; P / sXcXVXGXJXJXHX5.o m <.1.zXcX_.>.' n I ; = ; = ; ; - ; # b n S &.| hXcX`.[ <.+ ",
"@ J =.;.$X2X2X2X]._.:.u N # # # % - : , M M b b b : : ; = # & > I V #.o.G._.$XMXlX;.=.0 @ $ J L 1.2.o.( H b ; = ; = ; = = - - - - ; b ' _ o.2.[ F C # ",
": @ @ S %.+.:.o.+.1.o.=.G @ # @ + & & > > - - ; - - # . # # . , B V 3.*.X.O.J.kXjX2 o # @ # M C L U L P J o # o . # - - = - - ; * - b Y Y L L J N B # ",
"; - ; m @.` $.' $.,.' F G # @ 7 9 % % - - = = - - - & . & . # > V V #.[ X._ :.`.5.% # . # % < < V J Z N M # @ T <.I - * > * - - = ; > V V V V B < < * ",
"- ; ; @ O 4 n n K Y J n M @ @ G ( N @ & - = = - - * - # = # # , V m P ` ` H y   o # @ # @ # # # ; $ O O o + 5 gXxX<.; = = - = * * = * - # # ; - - - & ",
"- - - ; @ % M N K R C M M # # F ( N @ - * * - . * - - = & > - > B m K G G J C # & # # % % % % , @ # @ 6 4 7 2 fXxX,.@ - = > = > = * - = = # % % % - # ",
"M & # ; % # % @ # ; @ @ # - @ J P K M 1 - - - > . - & = * = # - - % $ % @ @ @ . # # # J <.<.<.R # o M J P ,.,.hXxX3.B < - = = = & = = > # C G G G C C ",
"C % @ # ; - - - ; - - - - # # J T K C I # # - * = > * # - . > - ; # ; # # . ; - # # @ Y <.3.<.<.& # C Y P 3.&.fXzX3.b < # . = = = > = = # J G G K K M ",
"N 7 M % - > - - - - - - - - # b C C M B < < & * - & = = # = * # - - * - - - - ; # : b Y 3.=.G G % # M n J &.&.(.`.Y n M - * * * * * * * > % 6 M C C C ",
"M N B M - - - - - * - * - # # M N M C M B B : # * = # > > > . = = = - - - @ - - - B m Y <.R 9 9 & + : b J <.3.$.,.L B M * * * * * * = . - . # , I B B ",
"M M N , . - - - - - - ; . * # ; < M N B N C > # * # # = > * * # * * = - < B : - ; m m K T J 9 & X + & % N Y <.=.R G , > . * * * * * = . * * = > 1 1 B ",
"C N N : # - - - ; . # * ; . ; . # : B N M M % > = = = - & * # = * * = - Y <.Y - * I I V B < + & X X X & > M b J R , & > * = * * * * * * = = = = - - B ",
"B C B : # # # ; - * - ; ; * - . # : C M M M # # # = & * - * * - * * - ; K <.J - * 1 I B B < - . X X X X > 1 1 R R > = = = = X = * * * * * = = = > > 1 "
};
