/* XPM */
static char *result[] = {
/* columns rows colors chars-per-pixel */
"75 75 256 2 ",
"   c #2F2E05",
".  c #392C05",
"X  c #2B3709",
"o  c #333103",
"O  c #3C3203",
"+  c #3D2A14",
"@  c #3B261B",
"#  c #3A281B",
"$  c #3D2A1A",
"%  c #2C3617",
"&  c #2B3B13",
"*  c #383A19",
"=  c #372A23",
"-  c #293B2B",
";  c #343928",
":  c #253E3A",
">  c #462F09",
",  c #493505",
"<  c #54390A",
"1  c #422814",
"2  c #42241B",
"3  c #442A1B",
"4  c #492B1C",
"5  c #49351C",
"6  c #54341D",
"7  c #59351A",
"8  c #442922",
"9  c #4A2B24",
"0  c #532F26",
"q  c #4C3124",
"w  c #4B3628",
"e  c #543323",
"r  c #583423",
"t  c #543924",
"y  c #5B3A24",
"u  c #573629",
"i  c #5C3B2B",
"p  c #623E29",
"a  c #0B5E1C",
"s  c #2D4609",
"d  c #2B4D18",
"f  c #364818",
"g  c #0A651D",
"h  c #136B1C",
"j  c #16761C",
"k  c #1C7D1D",
"l  c #257B10",
"z  c #25781A",
"x  c #247D1B",
"c  c #144D2D",
"v  c #0B5E29",
"b  c #175A2D",
"n  c #174A37",
"m  c #195937",
"M  c #2A4823",
"N  c #374426",
"B  c #275828",
"V  c #365D2D",
"C  c #254939",
"Z  c #255739",
"A  c #355B34",
"S  c #0C6424",
"D  c #0D6927",
"F  c #0C632C",
"G  c #146B24",
"H  c #17682B",
"J  c #126A2C",
"K  c #177724",
"L  c #1C7D24",
"P  c #15732C",
"I  c #1C742D",
"U  c #1C7B2B",
"Y  c #0D6334",
"T  c #136334",
"R  c #186A37",
"E  c #1B7433",
"W  c #1C7B32",
"Q  c #197638",
"!  c #2A6829",
"~  c #35682A",
"^  c #237B24",
"/  c #26762A",
"(  c #247B2B",
")  c #387729",
"_  c #2A6536",
"`  c #257935",
"'  c #327235",
"]  c #5C4B04",
"[  c #594709",
"{  c #594614",
"}  c #514D10",
"|  c #664B08",
" . c #6A560A",
".. c #735E0B",
"X. c #785A08",
"o. c #63411A",
"O. c #6C5712",
"+. c #775914",
"@. c #54750B",
"#. c #7A6406",
"$. c #706F0D",
"%. c #434525",
"&. c #594627",
"*. c #674728",
"=. c #63442C",
"-. c #644A2D",
";. c #6A4C2C",
":. c #6E532C",
">. c #634532",
",. c #664A33",
"<. c #6B4B32",
"1. c #6B4C39",
"2. c #714F30",
"3. c #6C5231",
"4. c #755836",
"5. c #7B5D3C",
"6. c #516827",
"7. c #6C7026",
"8. c #7C6335",
"9. c #7D623B",
"0. c #1F6641",
"q. c #267242",
"w. c #7B5C42",
"e. c #7D6143",
"r. c #866809",
"t. c #8E6D09",
"y. c #8A7A09",
"u. c #9A7909",
"i. c #886A15",
"p. c #997814",
"a. c #A07A06",
"s. c #835E3C",
"d. c #886A36",
"f. c #83643C",
"g. c #856C3C",
"h. c #877730",
"j. c #997D3E",
"k. c #815F43",
"l. c #876841",
"z. c #8E7642",
"x. c #987945",
"c. c #A27E46",
"v. c #1C880F",
"b. c #1A8517",
"n. c #1C821C",
"m. c #2D890D",
"M. c #23831C",
"N. c #2A861A",
"B. c #238B1C",
"V. c #378718",
"C. c #338B1C",
"Z. c #29961C",
"A. c #3A941C",
"S. c #3B981B",
"D. c #3DA419",
"F. c #1C8223",
"G. c #1A822A",
"H. c #1B8236",
"J. c #2C8523",
"K. c #288826",
"L. c #2D842B",
"P. c #338A22",
"I. c #368628",
"U. c #338A2B",
"Y. c #2D9626",
"T. c #3B9423",
"R. c #389826",
"E. c #2E8534",
"W. c #328734",
"Q. c #2B9533",
"!. c #389732",
"~. c #39A526",
"^. c #3DAD2F",
"/. c #488617",
"(. c #578F11",
"). c #489C16",
"_. c #429D1D",
"`. c #579917",
"'. c #738D10",
"]. c #679916",
"[. c #45A10E",
"{. c #50A40E",
"}. c #44A215",
"|. c #49A313",
" X c #44A11B",
".X c #4BA91A",
"XX c #53AA18",
"oX c #54B41C",
"OX c #5BBA1E",
"+X c #70B21B",
"@X c #498C2A",
"#X c #489525",
"$X c #429C23",
"%X c #439C2B",
"&X c #459B33",
"*X c #719B28",
"=X c #45A123",
"-X c #48A528",
";X c #4FAD2F",
":X c #55B323",
">X c #5BBA24",
",X c #5AB828",
"<X c #5BB734",
"1X c #6FAE28",
"2X c #65BC28",
"3X c #7ABB28",
"4X c #65BB37",
"5X c #64C22C",
"6X c #6AC628",
"7X c #6BCA2C",
"8X c #76C62B",
"9X c #6BCB33",
"0X c #69C438",
"qX c #79C834",
"wX c #59B043",
"eX c #63BB45",
"rX c #6BC442",
"tX c #88850B",
"yX c #929214",
"uX c #A9860B",
"iX c #AC8F17",
"pX c #B99618",
"aX c #90AF1C",
"sX c #B4AC1A",
"dX c #9E8739",
"fX c #B7932B",
"gX c #8FB028",
"hX c #88BA28",
"jX c #ADB429",
"kX c #B8B425",
"lX c #C29D1B",
"zX c #CBAB1B",
"xX c #D3AC1B",
"cX c #CAB51A",
"vX c #D4B519",
"bX c #CCAA25",
"nX c #CFAA2B",
"mX c #D3AC28",
"MX c #CAB326",
"NX c #D0B42C",
"BX c #A5C019",
"VX c #8DCC2C",
"CX c #A8CC31",
"ZX c #E5C91E",
"AX c #D1D12C",
"SX c #EAC828",
"DX c #ECD529",
"FX c #E0D632",
"GX c #EFD433",
"HX c #9D8545",
"JX c #9F8351",
"KX c #A3844A",
"LX c #AB894E",
"PX c #BDB448",
"IX c #C1A04F",
"UX c #EFD744",
/* pixels */
"-X=X,X7X>XS.S. X-X/ F D L b.Z.~.N.k L.@X% @ 1.e.,.6 7 8.s.s.s.<.@ 2 e e 4 = ; : C Z 0.W.E.G.B.z / ) f o , +.+.X.r.t.a.a.mXmXp.p.*XVX6X{.D.[.|. X X X}.",
"P.C.,X9X:Xm.N.Y.U.E v D G.b.B.B.M.k U.@X% @ 1.e.3.6 r 5.s.s.k.<.+ 2 e u 3 @ = : C A _ 6.L.n.L ^ ( ) d o } +.....r.r.a.uXmXmXuXtXyXhX2X). X}. X_.=X_.}.",
"J.P.;X0X;Xl x L.W.E v D G.n.n.L k k K.) * q t t t 6 7 p p *.*.y 5 9 4 4 9 w ; A A Z _ A L.Y.^ L K.` d o } ]  . .X.i.u.uXbXcXvXMXaX'.(.`._. X=X$XA.A._.",
"P.W.&X-X$XC.P.U.E.` ` R P K L L Y.Z.Y.~ %.e 3 + 4 r r r 7 6 6 7 r e 2 2 w i %.A A q._ Z W.^.k U ` ' d o O ] ] $.X.r.p.uXzXcXDXFXiX .@.`.=X X$XS.C.C.=X",
"U.U.( z P.&X-XU.E.W.W.E.S S I k ~.;X^.~ * e 4 4 6 p =.p *.=.=.&.y r 4 4 9 w ; A Z Z 0.Z ` Y.L / R _ f   , |  . . .i.p.iXvXAXAXAXgX'.'.#XT.$X-XS.A.T.T.",
"T.U./ / ( &X!.) ` W.W.` F F U L Y.^.R.! * 3 5 t *.k.w.9.9.8.e.4.;.-.y e 9 = ; C m C Z C _ L L W c n - + < O.O. .] i.p.pXGXFXaXhXhXhX4X) C.=X X X XT.C.",
":X;X/ v / W.W.H F / L.` F F I L F.B.N.~ * 3 5 { *.9.5.8.9.9.5.4.;.*.y t 0 = ; Z m Z Z C R U W ` n C ; . < O.O.} [ +.p.fXFXAXVX2X4X4X<XI.N.=X.X|.}.$XP.",
"XX-Xz a H W.L.h h / E.` F F Q U L M.x ~ N t -.4.:.-.<.-.<.<.<.<.<.<.4.4.i w w A Z m C Z ` P Y T q.q.f . , ] ] ] ]  .i.$.VXhX)./.T.@XI.U.P.<X7XoX).S.P.",
"6X4X#X/ L.R.$X;XwX) G H R P J D K x x ~ %.7 3.8.:.>.>.1.p <.<.<.>.<.4.9.=.5 %.V _ Z c A ` P v Y q.' d . , [ | | ]  ...$.hX4X/.V.6.V.) U.P.<X7XoX}._.C.",
"6X7X$XV.R.=X=X4XrXL.g D Q Q D S j k x ~ 5 6 8.z.9.,.,.i p p i p >.;.3.3.=.t %.V ! Z Z Z R I R P E.( d . > | < | | +.+.'.hXVXVXjXgXgX*XI.C.4X7XoX}. XS.",
"6X6X-XA.T.C.S.2X0X#XI R D P U G.n.b.M.~ f 7 g.HX9.3.p 0 0 0 6 y >.-.-.-.i t &.V _ _ 0.Z R U W W H.E.d   , [ | +.i.r.| $.hXhXFXUXAXkXgX/.C.<X9X:X}.). X",
"6X7X:X XS.M.m.4X0X-XL.` S S Q.~.B.b.x ~ * 5 d.HXh.-.<.i i r 7 =.-.<.3.4.i w N V ~ _ _ Z R U P P Q ` B & * < < +.r.o.| $.jXBXFXGXNXpXgX/.S.:X5X:X}.}. X",
"6X5X.X XT.x N.<X<X$XJ.E.S S Y.Y.Z.v.K.~ % 1 g.KXg.*.<.,.<.<.*.;.;.<.5.w.0 = ; V _ ! ! m H I D F Y J b B d o , O...| ] #.kXcXZXDXpXtXtX`. X X}.}.}. X X",
"|.|. X=XT.C.J.z N.A.%XU.S F U b.Z.~.R.) & + f.HXg.:.*.:.+.;.2.;.;.2.w.k.0 2 ; V ! ! ! H P P D F T T H H d o >  ... .] r.zXvXZXDXsXtX'.XX|.}.}. X|.}.}.",
"D. X=XR.#XI.I.^ L U.&XL.g S K n.Z.~.R.@XX + :.d.d.j.j.LXLXc.x.l.4.5.1.1.0 @ ; V ! / ^ Y.( J Q E F F R ` !   o O...r.t.uXxXxXvXcXjXhX1X). X X}.oX5X>X X",
"}. XR.R.&XwX;XG J H I U K K G.F.S.~.=X#Xs + 2.d.d.KXdXIXIXLXKXx.9.e.3.1.0 = ; ~ ! x n.Y.K.J U U J F E ` !   O O.#.r.a.uXxXvXmXBXjXhX3X|.|. X}.>X9X5X}.",
"D.D.T.J.%XrXeXG v m v G F.n.F.x Y.=XR.) f q 4.9.f.l.z.l.l.f.5.4.-.>.i i 9 # M ~ j F.n.G.P D U U E Q Q R B X O ] | p.pXlXxXxXpXiXaX3X2X|.}. X}..XoXoX>X",
"oX:XR.N.%X0XeXG v T R I B.Z.n.F.K.K.K.! %.y 2.5.8.e.w.,.,.,.,.i e e u 0 9 # M / L L U D S D ( L W Q R m M   . < [ yXMXzXxXmXuXtXaXqX,X_.|._. X).[.|.7X",
"5X9X=XN.%XrXeXh v R ` K.~.~.b.F.G g h ) f 5 4.g.9.5.4.=.>.,.,.>.y i r 0 9 = M ' L L L K j K L G.H.Q R H M   > O. .iXbXcXkXjXyXyX+X1XoX|. X$X_._.}.}.6X",
"5X5X-XS.=X4X<Xz H H / L.~.R.B.B.j S U &X* $ l.KXg.-.>.t t p ,.,.,.<.r 0 8 = M / L ^ L Y.^.Y.k L H.H.R m d   > i.p.pXbXjXaXVXCXCX+X[.}.}. XV.V.A. X.X7X",
".X[.>X5X,X X_.%X&X` v G n.v.Y.~.K.L Q.&X& # l.JXg.=.>.t e i ,.,.,.-.6 t 9 = M ! k n.M.Z.~.Y.M.^ Q q.0.T M X > i.a.pXvXkXaXhXBXCX+X{.[..X$XA.V.R.D..X0X",
".X[.OX7X>X X_.$X&X/ v J F.v.~.^.Y.L L.-X& # l.KXd.y t 2 3 4 4 5 t t 6 r 9 = f / J.Y.~.Z.B.K.M.( T Y m m M   > fXbXSXGXSXkXkXyXyXVXVX7X|._.,X2X:X X=XS.",
"D.[.OX7X>X}._.A.U.I F J G.b.B.B.M.n.U.&Xs # l.JXf.6 e 2 2 2 1 4 t e r e 9 # M / B.~.D.Z.B.K.K.` m n m 0.B   , fXmXSXGXDXsXkXyXtXaXCXqX[.}.2X9XoX}.D.m.",
"[.[.5X9X>X X$XC.I.I v D n.b.b.n.M.k K.T.& + 4.z.:.4 q >.-.,.,.&.4 4 6 r 9 = M Z j ~.~.Z.n.U G R m m n n V h.p.bXxXZXDXAXyXaX'.(.+XVX6X[.}.:X:XoX>X:XS.",
"D.[..X-X-XT.T.T.!.J.^ ( n.b.B.K.B.k U.I.X + *.8.-.1 5 5.e.e.e.,.@ 2 0 6 9 = - n D Q.^.Z.b.P F v m m c c 6.PXmXxXxXZXDXcX{.(././.:X8XOX[.}. X X>X7X>X}.",
"[.[.m.v.x P.P.&X%X$X%XY.K b.~.~.B.k L.I.& + :.g.:.1 5 9.l.9.e.,.2 2 r r 4 = - m F Q.Y.G.P P J J J b c - 6.nXcXZXxXZXDXAX'.+X/.@.*XqX6X)._._. X>X7X5X|.",
"}.}.m.m.M.L.U.%X-X$XR.R.L F.R.R.N.k ^ ! % $ l.JXs.5 { x.HXl.w.,.2 2 0 r 9 = - m F K P D D J Q U ` ` b c 6.PXmXSXZXDXDXZXsXjX$.$.].VX2XV.I.R.}.:X7X2X|.",
"). X_._.R.x x $X=XC.x L K U F.M.N.N.x ! % 2 l.JXs.< { HXHXg.e.,.2 2 0 r 0 = - m F Q Q Y Y Y W U ( ` B f 6.nXvXSXDXDXDXSXcXsX#.@.].8X<XC.C.T. X,X0X4X X",
"). X X=XR.x x _.=XP.^ U W U U ^ x ^ K.@X% + l.JXd., | j.c.d.9.,.2 2 u u 9 = - m Y Y Y m c Y ` E H M 6.7.p.GXSXvXvXlXuXiXaXhX'.(.`..X.X%X%X X XS.A.S. X",
" X XA.T.K.z M.$X=X^ D P W W U / I h L #X& + l.JXs.< o.j.dXd.8.,.2 2 0 0 9 = C m Y Y Y m c b W W b d 7.yXfXGXUXxXxXpXtXyXgXhX].{.{.}. X X_. X}./.V.C.-X",
"}._.A.C.N.x M.D.=Xk a J W W I W D v G ) % + 5.x.s.7 o.j.dXd.8.,.2 2 r 0 0 = - m Y 0.Q m m Y ` ` b M &...i.fXfXmXZXuXr.$.'.'.{.|.}.D.D._. X:X,X.X_.T.T.",
":X:X_.A.P.K.N.S.=XK.G R E W U I P G G ~ % $ 4.l.2.7 o.j.KXd.8.<.2 2 r r 9 = C m Y Q 0.R m T E _ c M f } | r.t.SXUXiXX.#.#.@.(.{.D.D. X_.).6X9X:X).$XP.",
"9X0X:X XR.P.P.$X%XR.W./ D U I L ^ ^ ( ~ % + g.KXd.7 o.j.KXd.9.,.2 2 0 r 9 = - C Y Y Y Y Y Y m B B M N } | #.r.mXSXiXt.t.#.$.].{.|.D. X.XoX5X7XoX}.%XI.",
"5X5X:X}. XC.R.!.!.R.U.L.S U I I F S G ~ % + f.x.s.< o.j.dXd.8.,.2 9 0 0 9 = - m 0.Y n Y Y 0.b Z C M %.} | X.#.u.a.pXNXpXtXtX3X8XoX}..X5X6X6X7XOX}.$XP.",
".X|. X X:X0XeXj h J.%XU.F I E E J v G ! % 2 3.d.+.7 o.x.KXh.f.,.2 4 0 r 0 = - Z n n n Y 0.Q Y B C N %.|  ...r.u.a.lXxXpXtXtX3X3XoX}..X7X6X6X7XOX_._.C.",
"|._.}.D..X9X4Xj a J.&XU.g D U W P P I ! % $ ;.s.2.7 { dXKXd.9.<.2 2 0 r 9 = - Z 0.n n n 0.Q Y c % % } O.X.X.X.u.a.bXSXAXaX+X3X6XoXD.D..X.X.X.X}.}._._.",
"$X_.:X>X>X.X;XC.P.^ ^ I P S U K.L P W ! % + 4.x.s.7 7 j.KXd.s.,.1 2 0 0 8 = - : n m n m _ / v B & X { +.#.#.X.p.uXMXDXCXhX8X6X6X:XD.D.}.}.}.}.}._.|.|.",
"-X=X5X9X>XD. X=X%X^ a G U D G.Q.F.U ` ! % . d.KXs.< o.c.KXd.f.<.@ 2 6 r 9 = - : n m 0.Y ` / H B % . <  . ...X.r.#.sXCXVX+XoX.X.X=XD.D.D.}.}. X X_.}. X",
"%XS.,X9X:XA.A.S.!./ v D G.S Q.~.F.K W _ % + s.x.s.7 o.x.KXd.k.,.+ 2 0 r 8 @ - : n Z Z T R ! ! ~ & > < ] | X...X. .'.VX+X)._.S.m.C.D.D.D.}._. X_. X X_.",
"N.N.<X9X:Xm.M.J.W.H v D G.j Y.~.Z.L ` ~ % 2 <.s.*.7 o.x.KXg.s.<.$ 2 r 0 4 = ; C Z C m R E ! W.@XX . < |  .r.r.i.$.aXgX+X].].(./._._.D.}.}._. X$X_._. X",
"P.P.;XeX;Xl x U.W.E F J G.F.~.D.Z.j ` ! % + 1.e.<.7 o.x.x.d.s.1.$ 2 t 6 4 @ = : C Z Z R F K ~.@X. 1 7 X.r.a.a.lXmXiXu.yXgXgXtXtX'.[.D.}.}.}. XA.C.A.=X",
"U.W.L.N.P.%X%XP.E.E.' ` D b.Z.~.Z.F.( @X* @ 1.e.;.6 7 s.d.f.k.<.# $ r r 8 = - : C Z _ T g k ~.#XO > o.r.r.a.a.mXnXpXu.tXhXhX'.tX].{.[.[. X). XA.P.P.-X",
"P.U.` / L.&X&XL.E.W.W.` D b.b.M.n.k L.@X% @ 1.e.<.7 r s.s.s.k.<.+ 2 e u 9 = = : C Z _ / L B.=X/.o > < | | r.t.lXnXpXp.'.].{.+XhX3X2X>X}.}.,X5X;X%XR.P.",
"_.T.A.C.$X<X<X^ G W.&XE.g j Y.Y.M.n.K.) * q w &.r 6 r p p 2.p p 5 4 9 8 w w w A Z _ V / n.N.~.#Xs O < < | r.r.nXnXpXt.tX].{.6X8X6X7X5X|.}.5X9X,X X$XP.",
"=X X.X:XoX:X;XN.J.J.L.^ D n.Z.~.~.Y.P.~ %.t 3 + 3 6 6 6 6 6 6 6 r t 2 1 9 w %.A _ _ 0./ b.M.V.V.s O <  .| X.X.p.pXpXpXyX'.].{.OXoX>XoX}.}.5X7XoX|.%XP.",
"=X X5X9X>XD.}.-X&XL a S G.b.~.~.^.;X-X~ 5 q 4 4 e p p =.y *.*.p y r 4 4 9 w N A _ Z Z / b.b.k l X O o.+.X.< | t.u.pXNXsXtX'.].{.[.[.).).}.5X9XOX X_.C.",
"%X$X,X0X>XS.S.$XR.( S D G.b.Y.~.^.^.R.' % 5 5 6 *.l.5.9.9.9.k.4.;.*.r r 9 = ; C Z n Z E k n.B.) X O [ O.O.| | i.p.pXmXpXu.y.'.(.XXXX.X}.}.>X5XoX}._.C.",
"C.C.:X7X:Xv.N.J.E.P F D G.b.b.b.b.v.M.~ * 3 6 7 *.5.5.9.9.9.s.4.;.*.7 y e 2 ; Z Z C C R n.B.~.#Xs   } ] | +.r.X.X.iXNXsXu.u.X.@.].8XOX|.}.|.[.}. X X$X",
"J.P.;XrX;Xl x U.W.E F G G.G.F.x k M.x ~ %.e ,.4.:.-.-.;.2.<.<.1.,.,.4.4.p w N A Z m Z H F.B.~.#Xs   s ] { +...+.X.iXnXlXa.a.r...].qX2X{.}.|.}.}. X X X",
"U.U.U.P.C.R.R.P.W.` q.` G D L L x k x ~ %.6 3.7.:.-.,.,.1.p <.p ,.,.4.9.=.t %.A B B C I F.K.K.N.z ~ f O } +.X.X.X.u.a.lXbXfXp.y.yX8X5X}.}.}.}.}._. X}.",
"P.L.( / ) &X-XU.E.W.W.E.S F I F.k k x ~ %.7 8.HX9.-.,.i i p p =.,.-.3.3.p e %.~ _ _ Z I b.n.n.F.K.) s o [ +.+...r.r.a.uXbXzXu.y.aXhX3X|.}.}. X.X=X X).",
"$X&X/ I ` &X!./ / ` W.` F F I L k n.x ~ * 7 8.HX9.>.,.t 0 6 6 y ,.-.-.-.i t %.V ! _ 0.K.Y.K.F.K W ) d o , O. .#.X.r.a.a.zXzXzXsXyX*X]..X X X XR.T.S. X",
":X;X/ a ! E.E.F a / W./ F F W L b.b.^ ~ * 5 g.HXh.,.p i u u r p -.;.3.3.i 9 %.V _ A _ !.<X^.G.U W ' d   > ] ] $.#.i.p.uXbXcXDXFXiX$.@.`.=X X=XT.C.C. X",
"XX;Xx h I U.U.L K ( L.E F Y E I b.v.K.~ % 1 9.KXg.-.<.<.<.<.;.;.;.3.5.w.i @ ; V ! ! ! !.^.Y.b.P Q _ f   , ] ] O.+.i.p.iXvXvXAXAXaX$.@.#X$X=X=XT.C.A.$X",
"6X7X#XL.U.=X=X4XeXW.S D P Q F D K.~.R.) & 1 g.HXh.:.;.+.;.:.O.2.*.<.5.w.u = N A ! ! ! j n.F.U ` m n % + [ O.O. .] #.p.pXGXFXBXVXhXhX1XV.C.$X X}._.T.C.",
"8X6X#XC.C.=X X<X4XI.g J Q Q D g N.~.~.@Xs 1 :.d.d.x.j.LXLXc.x.l.5.w.p w.q $ ; V ! / ^ j K U G.Q m n ; . , O...} ] +.p.fXFXFXVX3X3XeX4XI.C._..X}. X$XP.",
"6X7X:X$XA.N.V.5XqX%X( E D D K.Q.R.D.-X@XX + 3.8.d.c.KXIXIXLXc.z.k.5.1.1.0 # ; ~ ! x n.b.n.P D Q 0.q.N O , ] | [ [ +.+.tXCXhX`.&X#X#X&XU.P.;X5XoX}._.P.",
"6X6X:X XR.N.m.4XrX%XJ.` S g Q.~.~.^.~.) f 5 :.5.g.z.l.l.l.l.w.4.-.>.i i 9 = f ~ z L L j G.P Y Y q.' f o , [ ] | |  .#.$.hX3X/.V.) ) ) I.C.4X7XoX}.S.C.",
":X>X.X$XR.N.N.%X;X_.T.L.S D K.Y.B.K.K.~ %.t 4.f.s.s.w.,.,.>.,.=.e e e e 8 # M / L L U L j P D Y E.` f o , ] | | | +...'.3XqX3XgX*X*X*XI.C.<X7XoX}.).S.",
"}.}.=X%XT.V.J.x x C.%XW.S S U b.h g G ) f q 4.g.f.5.4.>.>.>.,.>.y i e e 8 = M ' U L F.L P G.H.W E.` d . > [ < +.+.+...$.hXhXAXUXAXjXgX/.C.<X9X>XD. X X",
"}.D.$XR.T.T.I./ I L.&X( S D U b.j g U &X& + l.JXl.-.-.e e =.,.,.<.>.r 0 9 = M ! L L n.L U U U Q Q E.B X O { [ +.+.X. .$.gXjXAXDXvXMXgX/.A.,X5X:X}.}.}.",
"D. XR.P.%XeXeXH D b T P K F.L n.k U E.%X& # l.JXg.=.-.q e p ,.,.<.<.6 r 9 = M / k n.M.k U P S F J Y b B f O , O.+. .] $.kXcXDXDXsXuX'.(.=X X X|.}.}. X",
"}.}.C.J.%XrXeXG v Y v G n.b.F.k k k Q.&X& $ l.JXf.y t 2 3 4 4 5 t t e r 8 = M ) M.Y.R.K.U P S F T T v b d   > O.X.| ] #.cXvXZXDXsXy.'.`..X). X}.}.). X",
">X<XR.C.%X0XeXG m T E K.R.Y.n.F.K.M.K.&Xs # f.KXf.t t 2 2 1 1 4 t 6 6 r 8 # M ' K.~.~.K.D J I I T F R / !   > O...#.r.u.zXvXvXZXsXgX1X). X}.}.oX>X,X}.",
"7X9X~.N.%X0XeXh v H / U.~.~.b.b.n.n.J.%X% + 4.z.:.4 q =.>.=.>.i 4 4 0 r 4 @ - _ j ~.~.j v D U W D F Q ` ! X >  ...t.u.uXxXxXxXMXjX3X1X|.}. X}.>X7X5XD.",
">X>X:X X-X,X<XN./ I H ( R.Z.Z.K.K.n.J.I.X . -.8.*.+ 9 w.l.e.e.,.2 2 6 r 8 = - m D !.~.G.F D U U P R R ` B   O ]  .t.iXpXxXxXpXsXgX3X2X}. X}.}.XXOXOXoX",
".X[.>X7X>XS._.%X&X` F G n.v.~.~.B.k K.I.% + 4.l.:.1 5 g.l.9.e.,.2 2 r 0 9 = - m Y Q.Y.G.S F G.U H.Q Q T M o O { [ yXMXzXxXbXa.y.aX8X2X). X X X}.D.{.7X",
"}.}.OX7XOX)._.$X&X/ v J F.b.~.~.N.k ^ ~ & + l.JX8., { x.HXl.e.,.2 2 r r 9 = - n F K K j h j L U H.Q R m M   > [ [ uXbXcXMXkXyXyX*X2X2X[. X_._. X}.}.7X",
"[.[.OX7X>X}.=XC.L.I v H F.b.b.M.M.M.^ ! & 1 l.JX8.< { HXHXl.e.,.2 2 0 r 9 = - m F P Q Q.Q.Y.k L H.H.Q m d   > +.t.pXbXkXaXhXCXCX+X|.}.|._.A.C.A. X.X7X",
"[.[.>X7X5X X$XC.I./ F h n.n.n.n.K.J.J.I.& + l.JXd.< 7 j.HXh.9.,.2 2 0 r 9 = C m Y Y Y Q.~.Y.M.^ Q q.R T M X , i.a.lXbXkXaXaXCXCX3X{.}.|. XV.V.A.D.-X9X",
"D.[.S.S.A.R.R.T.!.U.L.K.F.b.Y.Z.L h ^ @X& + l.JXf.< o.j.HXh.8.,.2 2 0 u 9 = - m Y Y Y G.Y.B.M.( R Y T m M   , fXlXSXSXAXkXkXyXaXaX8X6X[._.:X:X-X X=X X",
"[.}.m.l x J.U.&X-X~.-XY.F.j ~.~.K v G ) & 2 5.x.4.7 o.dXHX8.9.,.2 8 0 u 0 = - R Y Q 0.G.B.K.J.` Y n m Z B   , fXmXSXGXDXcXkXyXtXaXVXqX|.).4X7X>X|._.m.",
"}. Xm.C.J.J.J.%X=XS.R.K.L F.Y.R.L D I ! % 2 1.f.2.7 o.c.c.d.d.*.2 2 0 r 0 = - m Y q.q.K.B.L I ` m n m m A O.+.fXvXSXDXZXaXaXtX$.hXVX8X{.}.:X>XOXoX.XA.",
"}. X X=XT.x x $X-XC.z L P U K k U Q ` ~ % + 4.l.2.7 o.j.j.d.9.*.2 8 0 0 9 = : Z T Q Q K k P F v m m n n 6.PXNXMXcXSXSXAX'.`././.OX8XOX[. X}..X:X7X2X}.",
" X}.=X=XR.x M.$X-XJ.U ` W U L ^ L U ` _ % 2 f.JXs.< o.j.dXd.9.<.2 2 0 u 9 = - m Y T T K L P F v v v n - 6.nXcXvXvXZXDXCX(.`./.@.,X8X6X{. X=X|.OX6X2X}."
};
