/* XPM */
static char *result[] = {
/* columns rows colors chars-per-pixel */
"75 75 253 2 ",
"   c #5C340D",
".  c #593617",
"X  c #653613",
"o  c #763C11",
"O  c #503A27",
"+  c #6D3F23",
"@  c #2D7A29",
"#  c #32722E",
"$  c #347C29",
"%  c #376A38",
"&  c #357837",
"*  c #77451B",
"=  c #4D7B18",
"-  c #6A771C",
";  c #564B38",
":  c #764525",
">  c #7A4529",
",  c #6B522F",
"<  c #4F752B",
"1  c #476837",
"2  c #566835",
"3  c #6E6B2F",
"4  c #3C6941",
"5  c #4E4D49",
"6  c #585956",
"7  c #6C5850",
"8  c #53654A",
"9  c #736B55",
"0  c #786258",
"q  c #4F5D65",
"w  c #516872",
"e  c #6F7166",
"r  c #894D11",
"t  c #8A4A1A",
"y  c #9D5A18",
"u  c #A75C0C",
"i  c #A95D0E",
"p  c #A35A17",
"a  c #A25A1B",
"s  c #B3690D",
"d  c #A66415",
"f  c #B76D17",
"g  c #B77417",
"h  c #BA7216",
"j  c #884A23",
"k  c #8D5022",
"l  c #915022",
"z  c #925125",
"x  c #915F24",
"c  c #995A25",
"v  c #A15822",
"b  c #8C7032",
"n  c #B17A2A",
"m  c #A67B34",
"M  c #C27A12",
"N  c #2E8613",
"B  c #36891C",
"V  c #3B961C",
"C  c #3FA412",
"Z  c #2E892A",
"A  c #348524",
"S  c #348A24",
"D  c #388A26",
"F  c #33842C",
"G  c #3A9223",
"H  c #3B9627",
"J  c #2F8436",
"K  c #338233",
"L  c #378534",
"P  c #4A8819",
"I  c #5A891D",
"U  c #46971B",
"Y  c #439D1C",
"T  c #4A9D1C",
"R  c #58981A",
"E  c #728F15",
"W  c #778B19",
"Q  c #679519",
"!  c #46A50E",
"~  c #45A214",
"^  c #4CA917",
"/  c #45A11C",
"(  c #49A51A",
")  c #53AB1B",
"_  c #57B61B",
"`  c #73AC1E",
"'  c #498725",
"]  c #568829",
"[  c #449D23",
"{  c #469928",
"}  c #579526",
"|  c #4C9032",
" . c #658826",
".. c #6E8D26",
"X. c #789527",
"o. c #46A122",
"O. c #4AA523",
"+. c #56AA25",
"@. c #5AB727",
"#. c #5CBC24",
"$. c #5FAF3C",
"%. c #64BA27",
"&. c #6DB42D",
"*. c #5FC01F",
"=. c #68C62A",
"-. c #6AC634",
";. c #77C430",
":. c #6CB445",
">. c #6FC641",
",. c #908F1B",
"<. c #AA931E",
"1. c #99B41D",
"2. c #ABAB1C",
"3. c #878B27",
"4. c #8F8E2E",
"5. c #978527",
"6. c #A98826",
"7. c #B78628",
"8. c #A69A26",
"9. c #B99626",
"0. c #AF8933",
"q. c #90AC2B",
"w. c #86BA26",
"e. c #99B624",
"r. c #A4AA29",
"t. c #B7A926",
"y. c #B3AD2C",
"u. c #A6B323",
"i. c #C98A1B",
"p. c #D28C18",
"a. c #D99819",
"s. c #DD9D1C",
"d. c #E19D16",
"f. c #E29D1B",
"g. c #C8A81D",
"h. c #D9A21D",
"j. c #E2A217",
"k. c #E8A917",
"l. c #E5A41C",
"z. c #E9A61D",
"x. c #E7A91B",
"c. c #E9A91D",
"v. c #C68B25",
"b. c #CB8C29",
"n. c #C99926",
"m. c #D79726",
"M. c #DD9D21",
"N. c #E29D22",
"B. c #E49D2C",
"V. c #E29C30",
"C. c #C9A724",
"Z. c #CEAC2A",
"A. c #DCA423",
"S. c #D6A825",
"D. c #E5A422",
"F. c #E9A522",
"G. c #E7A824",
"H. c #ECAC23",
"J. c #EEAD29",
"K. c #F1AD25",
"L. c #F1AF29",
"P. c #EFB027",
"I. c #F1B125",
"U. c #F3B22A",
"Y. c #F9B62D",
"T. c #FBBA2E",
"R. c #ECA634",
"E. c #F7B536",
"W. c #FDBA32",
"Q. c #FBB63C",
"!. c #FBB93A",
"~. c #83C024",
"^. c #8F8959",
"/. c #D4AB43",
"(. c #E8B244",
"). c #F6B644",
"_. c #2B6F9D",
"`. c #246EA0",
"'. c #2B74A5",
"]. c #2877A8",
"[. c #2C76AA",
"{. c #2D7BAD",
"}. c #3275A4",
"|. c #3679A5",
" X c #3276AB",
".X c #327AAD",
"XX c #3A7BAB",
"oX c #2D7DB1",
"OX c #337DB2",
"+X c #397DB4",
"@X c #51778F",
"#X c #66798A",
"$X c #407FA9",
"%X c #2C80AE",
"&X c #3883AB",
"*X c #2E82B3",
"=X c #2E84B9",
"-X c #3383B5",
";X c #3983B5",
":X c #378AB5",
">X c #3486BB",
",X c #3A85BA",
"<X c #358ABB",
"1X c #3A8BBD",
"2X c #3691BC",
"3X c #3B91BE",
"4X c #588397",
"5X c #63848B",
"6X c #5188AA",
"7X c #4688B8",
"8X c #4793BC",
"9X c #5694BC",
"0X c #6C91A9",
"qX c #77A5BA",
"wX c #2F88C1",
"eX c #3585C1",
"rX c #368BC2",
"tX c #3B8DC1",
"yX c #3D92C2",
"uX c #3C95C8",
"iX c #418FC2",
"pX c #4293C5",
"aX c #4796C7",
"sX c #4699CA",
"dX c #4B9CCC",
"fX c #559AC5",
"gX c #4E9ED0",
"hX c #659EC6",
"jX c #4CA1CE",
"kX c #5CA1CB",
"lX c #4EA1D3",
"zX c #67A5CA",
"xX c #73AFCF",
"cX c #6AAAD3",
"vX c #74ADD7",
"bX c #79B4DA",
"nX c #7BB8E1",
"mX c #878E8B",
"MX c #96ABBD",
"NX c #91B0BB",
"BX c #94B3C7",
"VX c #85B7D9",
"CX c #A1B4C0",
"ZX c #89BDE4",
"AX c #90BEE0",
"SX c #98C2D9",
"DX c #B4C3CE",
"FX c #BBCAD7",
"GX c #8EC2E8",
"HX c #95C7E8",
"JX c #A7CFEB",
"KX c #A7D7F6",
"LX c #AAD5F4",
/* pixels */
"1X1X1X1X<X1X1X*X*X<X1X1X1X<X>X>X=X%X%X-X%X{.{.{.{.%X&X|.xXCX9   r u i R.W.I.k.k.k.k.c.c.H.H.H.H.J.G.H.H.J.F.D.Z.1.;.+.D < 4.^.2 % & # $ { T ~ ~ ~ ~ / ",
"yXtXyXyXyX<X<X{.].<XpXuXyXyXuXsXpXpXpXyX1X1X:X{.'.{.:X&XbXBXe o o y i R.W.I.c.k.k.c.c.H.H.H.H.J.H.H.J.J.J.K.l.S.2.w.+.= - 4.4.3 1 1 % & | T ~ ~ ~ ~ / ",
"pXyXuXyXyXyX2X=X=X2XuXpXpXpXdXlXlXdXdXpXpX1X,XzXbXcX;X:XfXhXe . o s s R.T.K.k.c.k.k.c.H.F.F.x.x.j.G.G.H.K.F.z.G.g.u.r.5.b m m b 8 8 4 % ' H Y Y ~ ~ ~ ",
"<X:X>X>X1X2X2X<X=XyXpXpXpXpXsXdXpXpXyX1XtX<X;XbXKXGX;X<X,X$X6 . r h M J.W.K.l.k.k.c.H.H.G.x.l.h.f.l.l.z.K.K.N.f.h.h.n.b.7.m m b , 8 % & $ A { [ / / / ",
"{.{.{.{.*X<X2X<X<XtXpXpXpXpXtX1X1X<X<X<X>X-X+XvXKXZX,X+XaX0Xe + r b.p.K.Y.K.c.z.F.H.G.J.H.G.z.j.j.l.j.G.c.F.F.F.f.f.p.v.7.3.3.3 2 < | | | { { Y V / T ",
"*X-XOXOX*X<X=X=X-X1X1XyXyXtX1X<X:X2X1X-X>X-X.XhXZXvX7X+XvXVX^.z f ).!.H.k.k.c.z.G.G.J.H.H.H.F.z.z.f.s.l.l.l.z.N.s.f.m.i.9.W  .' < } :.;.-.>.[ N V o.O.",
"dXdXtX,X>XoX{.oXoX%X*X-X<X1XyXyXsXjXsX>X>X[.'.fXnXcX.X XbXBXmX9 m ).W.c.c.c.c.z.D.D.J.P.P.H.H.x.G.j.j.l.l.l.f.F.f.s.a.i.<.E Q I = R &.%.-.-.[ B V [ [ ",
"gXgXpXtX<X{.oX{.{.].].%X<X<X<X<XuXdXdX,X;X.X XXX1X+XOXXXZXLXBX#X^./.F.k.k.c.c.c.z.G.H.H.H.P.P.c.H.H.H.H.K.J.F.F.l.f.f.f.n.6.,.b 5.X.+.^ ( ( @.-.@.Y [ ",
"tXrXpXdXsX,X>XOXoX-X:X1XdXsX2X<XuXjXsX,X,X X}.XX X|.XX|.HXLXVX5X^.Z.G.l.k.c.k.k.k.z.H.H.P.P.H.P.I.I.I.H.H.H.D.D.f.s.d.s.m.6.5.m 5.X.T Y ( Y #.-.#.Y [ ",
">X>XsXlXdX,X;X{.].].{.:XdXjXuXyXsXjXsX1X7XvXbX8X|.7XfXkXzXhX#X6 9 (.L.H.k.I.I.I.I.H.H.P.P.U.I.P.H.H.I.I.H.H.F.D.f.f.s.h.C.3.W E E I U G [ ( #.-.#.T / ",
"1X<XsXdXdXiXiXOXoX].{.:XjXjX2X2X3X8X:X-X;XHXKXcX&X8XbXGX9X0X6 O r ).T.K.I.I.T.I.I.U.H.P.P.U.U.P.H.I.I.c.H.c.F.F.j.s.h.Z.y.Q R } } [ A Z [ ( #.=.#.Y T ",
"uXuXpXsXdXgXgXiXtX1X-X1XjXdX2X:X-X{.{.{.XXVXKXcX3XjXcXxX4X#X7 X y ).W.U.I.I.I.I.P.H.c.P.I.U.U.P.I.I.I.H.k.I.l.D.f.h.n.8.4.} H H H H S H { o.@.%._ Y ~ ",
"yXyXyXyXpXaXaXpXiXpXpXpXdXdX:X:X%X[.{.*X%XxXVXkX3X3X8X6X5 O + * y !.Y.U.U.I.U.H.c.z.H.P.P.H.P.U.I.U.U.H.z.c.f.D.l.g.<.= ' A @ @ @ $ { o.[ T ~ ~ ! ! T ",
"<X<X<X<X>X1X1X1X7XaXdXaX:X,X1X1X;X].%X1X:XbXVXfX:X2X8X4X5 X + t d Q.W.U.U.I.c.H.c.G.H.H.P.P.H.U.I.U.I.I.l.z.l.D.g.t.3.P F F @ % % & | o.T T T ~ Y ! ! ",
"<X<X:X>X1X;X>X-X-XpXjXfX1X1X1X,X&X{.-X1X3XfXjX3X:X2X2X4X6 + z z g Q.T.H.c.c.c.c.c.z.z.x.c.x.F.H.H.H.H.c.H.z.h.C.t.e.` Y { @ & % % & D B [ T ~ T ~ ! ! ",
"{.*X-X-X<X-X,X,X,XpXjXaX1X1X1X,X1X,X1X>X<X1X2X2X2X:X&X4X7 > z y g (.T.G.c.c.x.x.z.G.x.z.z.x.x.H.c.H.H.H.J.H.h.C.e.w.` R ' 1 % % % & K Z [ T T ( T T T ",
"].*X-X-X>X:X<X1XyXsXdXsX1X<X>X:X:X:X:X:X<XrX<XwX>X7XzXNX7 > l p g Q.Y.z.j.x.j.x.c.l.z.z.c.z.z.z.x.H.H.F.F.F.s.C.1.~.` ,.4.b 3 3 2 1 & Z H H [ / Y V V ",
"].{.%X%X-X*X-X1X1XpXpXpX1X1X>X:X%X|.&X3X2XrXrXrXtXfXVXNX0 + t y g Q.T.c.d.j.k.j.c.c.c.l.l.z.l.d.j.c.K.G.F.D.s.g.1.e.r.8.0.0.^.b 3 2 8 J J Z [ o.V A N ",
"{.{.{.%X{.{.%X<X<X<X>X1XuXpX1X3X:X:X:X3XuXuXuXuXpXfXAXCX0 > l p g E.T.z.j.l.j.j.z.z.z.l.l.j.j.j.l.c.H.F.N.F.f.g.t.2.t.i.7.m m 3 2 < & J J J H [ [ G D ",
"{.%X{.{.{.{.{.-X-X-X-X>XyX3X3X3X3X8X8XuXuXuXuXuXtXkXKXFX0 > l p g E.T.z.l.f.j.j.z.z.z.z.z.j.d.l.j.z.F.z.F.F.f.s.h.C.n.i.6.- = } | | @ & K F D S B [ [ ",
"{.{..X.X{.oX{.oX{.{.{.oX-X<X:X*XuXjXjX3X2X2X=X=X;XfXKXFX0 + l y g E.T.c.z.l.s.j.x.z.x.z.l.d.j.l.l.z.z.F.K.N.f.f.N.M.a.i.9.- < { { D @ J S S A A G [ ( ",
"%X{..X.X{.oX{..XoX[.{.OX;X:X:X=XuXlXsXpXuX=X=X2X;XfXLXFX0 : l p h E.T.c.F.z.j.x.z.x.x.F.z.z.K.z.z.z.z.z.K.J.N.f.M.N.N.m.n.5.X.] D H H o.[ H S A H O.( ",
";X;X.X X.X.X.XOXOX X{.OXOX-XoXoX<XrXyXdXdX:X:X>X+XfXLXFX0 + t a h !.T.H.z.z.x.z.c.z.F.c.c.K.H.H.K.z.z.K.K.F.N.s.N.M.f.M.m.7.m < A V O./ / o.V N V Y ~ ",
":X,X.X X[..X.XOXOXOX X X.X.X.XoX*X=X1XdXgXkXkXpX+XfXLXFX0 j k p h !.T.I.J.G.H.H.x.z.z.H.F.J.K.K.z.K.z.K.K.J.D.D.M.s.s.s.m.7.8.3.+.@.#._ / / V C / @.@.",
";X+X X'.[. XOX+X+X+X X.X.X.XOX+X,XiXiXaXaXvXnXfX.XfXLXFX0 + z y h E.T.I.I.I.H.H.x.x.H.H.H.L.K.L.K.H.J.K.F.J.N.D.M.s.s.d.a.i.8.e.w.;.-.=.~ ~ ! ! ^ =.-.",
"{..X'.'.[..XOX+XOXOX X.X.XOX+X,XsXgXaX+X7XVXGXfX'.9XHXDX0 + z a h E.T.I.I.I.I.H.H.c.H.G.K.L.K.H.J.J.F.F.F.D.D.N.A.s.s.s.a.i.9.r.e.&.=.%.^ ^ _ _ _ #.#.",
"oX X.XOX.X.XOX.X.XOXOXOX[.[.>X;XpXfXiX XXXHXLXhXXX$XVXBX0 , k y h E.T.k.k.K.I.I.P.H.H.J.J.L.J.G.l.F.G.f.f.f.f.M.s.s.s.s.a.p.v.6.,.E R ^ -.-.=.=.*.! / ",
".X{.OX X X{.{. X[.+X,X,X7X,X,X,X-X.X X[.|.SXJXzX X+XVXMX7 : k y s Y.T.k.k.k.P.P.H.P.P.P.J.J.J.G.F.F.F.N.f.f.N.M.s.s.s.s.M.i.i.7.n 3.Q ) %.=.=.=._ ! C ",
".X.X XoX X.XoX{..XOX,X7XpXtXtX,X%X.X.X{.|.HXKXkX X+XVXMX; X r d i M p.f.z.K.U.U.c.c.H.H.H.H.H.G.H.x.F.F.G.G.G.F.f.f.d.j.D.b.b.n n b - - +.) =.=.*.~ ! ",
".X.XoX.XoX+X,X,XeXtX1X>X-X-X*XoX.X.X|.{.|.HXKXzXXX7XVXMX5 . * c p M M B.F.L.Y.U.x.c.G.H.G.H.H.H.F.H.H.H.P.G.G.D.f.f.A.h.Z.9.b.7.n m , 3  .( #.-.*.~ ~ ",
".XOX.X XOXtXtXtXtX-XoXoX{.{.oX{..X.X{. X&XVXHXfX}.6XHXSX#X6 7 k a f s p.M.D.J.J.x.c.H.H.P.H.G.x.F.x.l.G.P.G.G.G.N.D.9.2.q.3.4.6.m b 2 2 | G O.#.) ~ / ",
"OXOXOXOXOXtX,X>X,XoX].{.oXoX{.oX{..X|.{.XXcXnXfX}.9XLXLX0X5X9 : t v u i.p.s.G.D.F.x.H.H.H.P.P.l.l.j.j.A.P.H.H.J.F.S.<.E Q R Q 3.m b 2 & @ S H / ~ C / ",
",X,X+X.X;X<X>X=X*X=X=X>X1X=XoX[.{..X|.{..XhXcXaX$X$XJXJX#Xq 7 : j a p p.N.f.F.F.x.x.H.H.J.H.H.l.l.l.s.z.P.x.x.H.G.S.t.,.` U P E 4.3 & & J J H / / ( o.",
"7X1X;X.X-X2X<X<X>X1XyXyX<XrX*XoX{..X[.{. X+XXX X X+XVXMX6 O + > j a i R.Q.R.F.F.x.x.G.G.G.z.G.f.s.l.G.c.I.I.S.H.G.G.S.g.1.P B } } | L L J Z H o.C / / ",
",X1X,X,X1X:X<X:X:X<XrXtXuXuXrX>XOX.X{.|.{.&XOX X X$XVXMX; X o > j v u R.!.L.F.J.c.G.l.c.l.F.G.j.l.z.j.x.c.c.c.h.Z.Z.Z.g.r.P B { o.{ S Z Z Z V C ( C o.",
"+X+X.X XOX<X>X:X<X2XrXtXuXuXeX,X-X{.{.[.[.+XOXOXXX+XiX#XO X * j j v i R.W.L.F.F.c.c.G.G.F.G.H.H.H.J.H.H.c.H.G.S.t.u.1.E Q B A Z Z H [ Y Y Y @.=.#.@.-.",
";X+XOX[.%XyX2X3XyXrXrXrXrXrX<X>XOX{.{.{..XoXoX X+X X X@X; . * > j v u R.W.I.z.H.c.c.H.H.H.H.H.L.J.J.U.H.P.H.l.Z.1.w.` R } = $ K J Z o.H C C #.-.-.-.>.",
",X,X-XOX-XyX3X<X2X<XrXrXeXeXeX,X-XoX{..X.XoXoX X X X X}.5Xe 8 X o c u R.W.I.x.c.c.x.c.c.H.G.H.K.J.H.H.H.H.H.x.Z.1.=.@.V '  .] < # & D G [ ~ ) _ _ @.@.",
"1X2X1X1X2X<X<X%X{.=XrXrXeX>XeX+XOX.X.X{.oXOXOX X X+X+X+XbXSXe   o p u R.T.I.x.c.k.c.c.F.H.H.G.H.H.H.J.J.H.J.D.Z.1.~.@.' < 4.^.3 4 % % $ { T ~ ! C ~ / ",
"pXpXyXpXyX2X<X%X].=X>X>XeXeXOX+XOXoX.X.XoXOX>X7X7XiX+X+XcXxXe   o p s R.W.I.k.j.k.k.c.H.F.H.H.c.G.H.G.H.J.H.l.S.t.e.X.- - m m 3 2 1 % # | [ T ~ C / ~ ",
"pX3XyX2XyX3X2X<X<X<X>X>XeX>X+X+XOXOXoXoXoX+X+XvXKXZX+X>XtX6X6 . r f M R.W.I.c.k.k.c.c.H.G.x.j.l.f.l.z.z.K.K.z.F.h.C.9.0.0.m m b 7 8 1 # $ D V / ~ ~ ~ ",
"%X%X%X%X*X2X<X<X=XrXuXrXwXeXtX1X+XeX+XoXoXoX[.vXLXZXOX.X-X6X6 . r M M R.T.I.j.c.c.c.H.H.G.F.F.h.d.z.z.z.z.F.F.f.l.h.p.v.b.6.m 3 , 2 # $ $ A [ O./ / C ",
"{.%X].%X*X2X:X<X=XyXuXtX>X>X<X1XeX7XeXOXOX[.`.hXAXxX|.XXzXqX:.j d R.R.K.K.c.z.z.G.G.H.J.H.H.F.l.z.j.f.z.z.F.F.F.h.s.m.v.7.W ..= < ] $.$.$.$.O.B V Y / ",
"3X8X2X=X-X%X*XoXoX*X>X=XeXeXrXtXeXeXeX+X+X`._.fXVXzX|.|.xXNXmXz n ).W.K.c.c.z.G.G.G.J.H.P.H.H.z.z.s.d.f.z.f.F.N.x.s.a.i.<.W } I = } >.;.;.-.o.N B o.o.",
"jXjX3X<X>X{.{.{.oX{.{.oXrX1X3X3XiX+XeX+XeX[._.7XhXfX X|.VXDXmX6 b (.U.c.k.H.x.G.F.D.H.P.H.I.H.H.H.x.G.z.l.z.f.F.f.f.s.p.9.,.W -  .Q ` _ #.@.O.O.( o.o.",
"sXpX3XyX2X%X%X{.oXoXoX-XyX8X:X:XeXeXeXeXeX X X XXXXX XXXSXLXhXw e /.z.k.z.c.H.z.l.l.c.H.P.H.H.P.H.P.I.H.K.K.F.F.f.f.f.N.m.6.5.6.5.X.U ~ ~ ^ #.>.@.o.o.",
":X:XsXgXaX1X<X].{.-X,XtXgXdX2X2X,X,XeXeX,XiX7X$XXXXX7X6XVXSX0X@X9 Z.L.c.z.K.H.F.z.x.c.P.H.I.I.P.P.I.P.H.K.K.F.F.f.f.d.f.n.6.5.5.3.W T Y / / #.-.@.Y o.",
":X=XsXlXdX1X1X].].].].-XdXdXyXyXeXeXeXeX7XAXJXhXXX+XbXbX6X@Xq O x (.E.I.K.U.U.K.H.K.H.K.I.U.U.H.H.I.I.c.c.K.K.z.f.d.f.h.t.W I R R U B S o./ #.-.@.C o.",
"uXyXsXsXsXsXsX7X,XoX].{.>X1X<X<X*X*XoXoX+XGXJXzX}.7XbXVX$Xw 5 . r ).T.I.K.U.U.U.I.P.H.P.U.U.U.P.I.P.P.c.K.c.c.F.z.d.M.Z.r.} } O.[ { S S [ o.#.-.#./ / ",
"uXuXuXuXsXdXgXiXiX>XOX-X-X-X>X=X*XoXoXoXXXvXSX9X}.&X7X$Xq O + + d ).W.I.L.U.U.H.c.c.c.H.P.I.U.U.I.U.I.I.c.z.z.f.f.f.<.W ] ' D F $ F H { [ T ( ^ ^ / ~ ",
"tXrXtXrXtXpXiX,X1X,X,X>XoX-X%X*X{.{.{.oX+XcXbX8X[.oXXX@X5   o t d ).T.U.U.U.H.J.c.c.H.H.H.P.P.U.U.U.Y.K.z.z.F.D.f.C.,.= A F @ % & K { o.{ R T ~ C ~ ~ ",
"rX=X>XeX>X>X,X>X>X;X,X-X[.{.{.{.[.{.[.{.{.fXkX7X{.oXOX@X5 o > l d ).T.I.K.H.J.H.c.x.c.c.H.c.H.H.I.I.I.K.z.F.f.A.C.r.q.P D @ # & % & H V ( T / ~ / ~ ! ",
"=X=XwX=XeX>X;XoXoXoX>XoX].{..X.X{.{.|.%XoX>X-X*X*X*X|.@X7 + z v g !.T.H.c.l.F.c.x.c.x.z.c.H.c.H.H.c.H.H.F.K.h.g.u.w.` T | # # 1 % & $ B o.( / / / / / ",
"oXoX=X=X>X<X>X].].[.{.[.{.{.{.{.{._.{.>X>XrXtXeX:X:X9X0X7 j v v g !.W.H.c.z.F.z.c.x.z.z.F.x.x.H.H.H.J.H.F.F.f.C.u.&.` Q ..< 2 2 1 % K F { H / / Y Y C ",
"].oXoXwX>X-X-XOXoXOXOX.XoX{.].'.`.`.`.-X>X=XwX=X>X8XVXMX0 + z v h Q.T.c.d.f.F.G.x.z.x.l.z.x.j.d.j.c.G.H.F.N.s.g.1.w.q.8.0.5.m 3 3 2 L J Z S H O.G B S ",
"].oXoXoXoXOX;X-X;X;X;XOX{.[.].`.`.`._.;X>XrXwXwX=X8XVXCX0 + z v h Q.T.c.d.f.D.z.z.z.z.j.x.x.j.s.j.x.H.F.F.F.s.g.2.u.r.7.b.m 0.k 3 2 & & J Z H [ H B S ",
"oX{.{.[.[.{.{.>X,X,X,X;XOXoX[.[.'.'.{.:X>X>XwXwX>XfXJXDX0 : l p h ).Y.F.f.z.f.z.l.z.c.l.j.j.j.j.d.l.K.z.N.F.f.s.g.C.n.7.7.- -  .] | & & J F S G G H H ",
"].{.{.{.[.{.{.OX-XOXOXOX-XOX{.{..X{.|.{.OXeXeXwX=X8XLXFX0 : l a M Q.Y.K.F.f.d.f.c.z.c.l.j.d.h.j.l.z.z.N.F.N.f.f.s.A.a.v.6.- = } { H @ # F F A A G o.O.",
"oX{.{.OXoXoXoX{.OX{. XOX;X;X{.].].{.{.oXoXeXeXeX=XfXLXFX0 : l a f Q.Y.F.F.f.f.F.l.z.x.z.l.j.j.z.c.c.z.F.K.F.f.N.N.N.M.p.v.-  .' H S S S S H S A H o.( ",
"oXoXOX{.OX{..X.XoX{.oXOX-X&X%X%X{.oXoX-X-X,X,X>X=X9XLXFX0 * k a f ).Y.K.z.z.F.F.l.x.x.x.c.H.H.H.H.z.F.J.K.J.f.N.M.N.N.N.m.0.4.] B H O.o./ o.H A G o.( ",
"-X,XOX[. XoXOX{.OXoX.X.X.X.XOX{.*X>X=X>X>XyX8X1X>XfXKXFX0 > l p f Q.Y.K.K.F.K.F.z.c.z.z.H.H.H.H.H.H.H.H.K.F.B.N.N.f.f.f.m.7.6. .' / ) ^ ~ / V V V O.( ",
"OX;X X[.[.oX{.OXOXoX[.{.{.{.oXoX=XeXwXeX1XcXnXsX%XfXKXFX0 : l p M Q.W.K.K.K.K.K.z.x.z.H.G.H.I.J.H.H.F.K.K.J.N.F.M.f.f.d.M.b.0.q.;.;.=.*.( ~ V C ) =.-.",
"OX.X[.[.[..XOXOX>XOX{..XoXOX-XeXeXwXrXyX8XbXbXsX{.8XKXFX0 : l a f ).W.U.L.L.K.F.H.z.H.H.H.U.L.P.K.L.K.K.K.F.D.D.N.s.h.d.a.i.9.r.w.;.=.=.^ C C ! _ =.=.",
"oX X X X{..XOXOXOXOXoX{.[.[.>X>X>X<XrX:X8XGXJXzX}.7XSXSX7 : l p f Q.T.K.K.K.K.K.J.P.H.L.J.J.H.G.H.F.F.f.N.N.N.N.h.s.s.s.a.i.9.8.,.` ) _ #.#.*.*._ ^ ^ ",
".X X X XOX XoX X{.OX-X+XOX+X;X1XOXOX*X{.$XHXLXzX}.7XVXMX7 + z y f ).Q.K.z.K.I.I.H.U.U.J.U.J.J.G.z.D.G.h.f.s.f.N.f.s.s.f.s.p.b.7.5.W R ) -.=.=.=._ ! ~ ",
".XoXOX X XoX[.[.{.;X1X1XiX1X1X7XOX{.{.'.$XAXLXhX X7XVXBX7 + t a f R.B.F.N.K.I.K.H.H.J.J.J.L.J.F.z.G.F.F.G.l.N.N.f.f.f.f.l.v.b.n m 5.- ] &.@.=.=.*.C ~ ",
"oXoX XoXOXOXoXoX-X-X1X2XtXtX,X,X&X.X{..X$XAXLXhX X7XAXMX5 X t v d M M B.F.J.L.I.x.H.H.J.H.H.G.z.F.c.H.H.J.H.F.F.f.f.x.h.A.b.b.7.n b 3 - Q ( *.=.*.! C ",
" X.XOX XOXeXtXtXyX1X-X=X{..X+X X.X.X.X.X+XZXJXhX}.$XAXBX6 ; > c v f M V.B.L.U.K.x.H.G.H.H.G.H.H.F.G.x.G.H.K.F.F.f.h.h.g.y.8.0.0.n m , 3 ] T %.=.#.C ( ",
"{..X.X.XOX1X<XtXrX=X].].].{.OXOX.X.X.X.XXXvXZX9X}.hXLXJX0X#X0 + t a i p.a.f.c.c.x.c.c.H.G.H.H.z.j.k.h.S.H.H.c.H.D.S.8.,.Q Q W 5.0.b 2 1 L Z [ ( ^ C / ",
",X,X+X[.OX1X-X=X*X*X%X=X>XeXoX.X X.X{.{..XvXbX9X}.$XJXJX0Xw q j j a i M p.s.F.c.j.x.H.H.H.H.G.z.j.h.k.x.H.G.x.H.D.S.<.E R R R 3.4.3 1 & J Z H o./ C / ",
"1X1X+X[.%X<X<X=X*X<XyXrXrX<XoXoX+X{.{.{..X8X9X7X}.$XAXBXq 5 7 > j v i V.L.J.l.j.k.k.c.c.H.G.z.s.j.j.h.x.x.H.x.S.G.D.g.<.q.P P } X.| & L J Z H / o./ H ",
",X7X,X-X;X<X<X<X<X1XyXyXyXtX>X-XOX{.{.{.{.%XXX|.XX$XvXMX7 X + j j v i R.W.K.x.x.k.j.x.z.l.D.l.s.h.l.k.k.I.x.c.H.D.G.A.g.u.P S | | | F J Z S H / C C C ",
">X,X,X>X>X<X-X<X1X<X<XyXyXpX1X>X*X%X{.{.{.OXOX{. X$XkX0X5 X o j j v i R.W.I.x.x.k.z.z.l.z.F.G.z.z.x.z.x.c.c.c.S.Z.C.2.2.q.= F H | | H H H V o.O._ O.@.",
"OX-XoX].oX1X1X1X1X1X1X2XyX1X<X>X*X{.{.{.{.oX{.oX XXX X@X5 X + + j v i R.W.I.G.z.z.c.c.K.J.J.H.U.I.P.P.H.H.G.G.Z.u.w.` R R A $ F L H { o.o./ #.-.-.-.-.",
"-XOXoX{.-XtXyXyXyX<X<X<X<X1X1X>X%X].].*X{.oXoX[. X X X@X5 O + j t v i R.W.U.c.H.k.K.z.K.H.H.H.I.I.I.H.H.c.G.G.Z.1.;.%.} | ' < ' J L { o.O.C #.-.-.-.-."
};
