/* XPM */
static char *result[] = {
/* columns rows colors chars-per-pixel */
"75 75 234 2 ",
"   c #010101",
".  c #0C0804",
"X  c #150D05",
"o  c #1B1817",
"O  c #261302",
"+  c #2C1602",
"@  c #2A1C08",
"#  c #321901",
"$  c #321B04",
"%  c #241708",
"&  c #1E3500",
"*  c #1A2A02",
"=  c #3B230A",
"-  c #223701",
";  c #233902",
":  c #2F3907",
">  c #313E09",
",  c #322B10",
"<  c #2A2A2A",
"1  c #353636",
"2  c #383838",
"3  c #383837",
"4  c #492C0E",
"5  c #44290A",
"6  c #4B2D12",
"7  c #412C17",
"8  c #4C3412",
"9  c #513215",
"0  c #563919",
"q  c #563511",
"w  c #463626",
"e  c #354907",
"r  c #365903",
"t  c #39511A",
"y  c #334C0F",
"u  c #396601",
"i  c #396701",
"p  c #3A4B27",
"a  c #514A16",
"s  c #62431E",
"d  c #416E03",
"f  c #417107",
"g  c #67701B",
"h  c #52512F",
"j  c #694B26",
"k  c #7C5C2E",
"l  c #75552A",
"z  c #7E5E30",
"x  c #745934",
"c  c #6C532E",
"v  c #51613D",
"b  c #7C7328",
"n  c #6C6323",
"m  c #3D3D41",
"M  c #772E6F",
"N  c #414144",
"B  c #47474C",
"V  c #4B4B53",
"C  c #474F57",
"Z  c #53535E",
"A  c #545457",
"S  c #5B5043",
"D  c #5B5B64",
"F  c #5E5E6D",
"G  c #565662",
"H  c #595C75",
"J  c #4E5167",
"K  c #536674",
"L  c #61606E",
"P  c #626272",
"I  c #6B6B7C",
"U  c #67667A",
"Y  c #75757B",
"T  c #6D7277",
"R  c #626358",
"E  c #BF181F",
"W  c #BE1922",
"Q  c #BA1926",
"!  c #B01E33",
"~  c #B72734",
"^  c #C1161C",
"/  c #C1171D",
"(  c #B37B1E",
")  c #AF791F",
"_  c #815F33",
"`  c #8C662D",
"'  c #976C29",
"]  c #836232",
"[  c #8B6733",
"{  c #967339",
"}  c #8E712E",
"|  c #AA7622",
" . c #A67527",
".. c #B47D21",
"X. c #A77835",
"o. c #A7601B",
"O. c #D36629",
"+. c #98244A",
"@. c #952B53",
"#. c #A62E57",
"$. c #A92D52",
"%. c #903B7B",
"&. c #A54C5B",
"*. c #977245",
"=. c #967651",
"-. c #A27A45",
";. c #9C4A6E",
":. c #5A890A",
">. c #5F920B",
",. c #6D9215",
"<. c #6DA20E",
"1. c #71A60E",
"2. c #73A90E",
"3. c #71AE1C",
"4. c #788821",
"5. c #6EB22F",
"6. c #73C13E",
"7. c #738660",
"8. c #B9852D",
"9. c #B38738",
"0. c #AF8A2A",
"q. c #CA963A",
"w. c #C59229",
"e. c #C18D18",
"r. c #FDD836",
"t. c #AC8544",
"y. c #B58C4D",
"u. c #8A927E",
"i. c #B59773",
"p. c #C79A4A",
"a. c #C49656",
"s. c #D19F5B",
"d. c #D7A64B",
"f. c #D7A65B",
"g. c #DEB058",
"h. c #CEA251",
"j. c #E3B459",
"k. c #E1B856",
"l. c #C99960",
"z. c #DCA961",
"x. c #DAA760",
"c. c #D8B469",
"v. c #E5BA6B",
"b. c #F5BC77",
"n. c #E8B26E",
"m. c #E4C356",
"M. c #F1C979",
"N. c #374AAE",
"B. c #3549B4",
"V. c #3349BB",
"C. c #535985",
"Z. c #455194",
"A. c #5E628B",
"S. c #6B6A83",
"D. c #727284",
"F. c #787889",
"G. c #656895",
"H. c #7E7E94",
"J. c #4355BA",
"K. c #4A57A8",
"L. c #5B65AB",
"P. c #5B67B2",
"I. c #777BA7",
"U. c #666BAC",
"Y. c #7955BA",
"T. c #223EC8",
"R. c #1E3BC6",
"E. c #2641C5",
"W. c #2A43C4",
"Q. c #2944C9",
"!. c #354AC9",
"~. c #3950CD",
"^. c #485AD5",
"/. c #7458C2",
"(. c #6B5BD0",
"). c #5265C9",
"_. c #5768D3",
"`. c #6A6ED3",
"'. c #5A65EA",
"]. c #5E6AF4",
"[. c #636AEC",
"{. c #676DE3",
"}. c #616BF3",
"|. c #6A71ED",
" X c #515EE1",
".X c #663990",
"XX c #8B498F",
"oX c #87788D",
"OX c #8A748E",
"+X c #8872B6",
"@X c #7E81AB",
"#X c #7E81B4",
"$X c #7E8096",
"%X c #7D86EF",
"&X c #818095",
"*X c #85859C",
"=X c #8A8A9C",
"-X c #838189",
";X c #8A8AA2",
":X c #8687A4",
">X c #9797AA",
",X c #918FB6",
"<X c #A5A3AA",
"1X c #A6A6B8",
"2X c #B8B3B2",
"3X c #9DAAA3",
"4X c #CEB296",
"5X c #E2BE8A",
"6X c #BAD399",
"7X c #F9C788",
"8X c #E7D489",
"9X c #F8D488",
"0X c #E6CE81",
"qX c #F2D0AA",
"wX c #FBE3BD",
"eX c #C4C2BC",
"rX c #858BCA",
"tX c #B5B5C7",
"yX c #ADA9DE",
"uX c #99A0DB",
"iX c #AFD5FA",
"pX c #AEDBF2",
"aX c #C3C3D4",
"sX c #CBCBDA",
"dX c #C7C7D8",
"fX c #D0CBCF",
"gX c #FCEBD3",
"hX c #FEECCF",
"jX c #D0D1E1",
"kX c #DBE3FB",
"lX c #F6FDFE",
"zX c #E9F0F3",
"xX c #EADCC8",
"cX c None",
/* pixels */
"cXcXcXcXcXcXcXcXcXcXcXcXcXcXcXcXcXcXcXcXcXcXcXcXcXcXcXcXcXcXcXcXcXcXcXcXcXcXcXcXcXcXcXcXcXcXcXcXcXcXcXcXcXcXcXcXcXcXcXcXcXcXcXcXcXcXcXcXcXcXcXcXcXcXcX",
"cXcXcXcXcXcXcXcXcXcXcXcXcXcXcXcXcXcXcXcXcXcXcXcXcXcXcXcXcXcXcXcXcXcXcXcXcXcXcXcXcXcXcXcXcXcXcXcXcXcXcXcXcXcXcXcXcXcXcXcXcXcXcXcXcXcXcXcXcXcXcXcXcXcXcX",
"cXcXcXcXcXcXcXcXcXcXcXcXcXcXcXcXcXcXcXcXcXcXcXcXcXcXcXcXcXcXcXcXcXcXcXcXcXcXcXcXcXcXcXcXcXcXcXcXcXcXcXcXcXcXcXcXcXcXcXcXcXcXcXcXcXcXcXcXcXcXcXcXcXcXcX",
"cXcXcXcXcXcXcXcXcXcXcXcXcXcXcXcXcXcXcXcXcXcXcXcXcXcXcXcXcXcXcXcXcXcXcXcXcXcXcXcXcXcXcXcXcXcXcXcXcXcXcXcXcXcXcXcXcXcXcXcXcXcXcXcXcXcXcXcXcXcXcXcXcXcXcX",
"cXcXcXcXcXcXcXcXcXcXcXcXcXcXcXcXcXcXcXcXcXcXcXcXcXcXcXcXcXcXcXcXcXcXcXcXcXcXcXcXcXcXcXcXcXcXcXcXcXcXcXcXcXcXcXcXcXcXcXcXcXcXcXcXcXcXcXcXcXcXcXcXcXcXcX",
"cXcXcXcXcXcXcXcXcXcXcXcXcXcXcXcXcXcXcXcXcXcXcXcXcXcXcXcXcXcXcXcXcXcXcXcXcXcXcXcXcXcXcXcXcXcXcXcXcXcXcXcXcXcXcXcXcXcXcXcXcXcXcXcXcXcXcXcXcXcXcXcXcXcXcX",
"cXcXcXcXcXcXcXcXcXcXcXcXcXcXcXcXcXcXcXcXcXcXcXcXcXcXcXcXcXcXcXcXcXcXcXcXcXcXcXcXcXcXcXcXcXcXcXcXcXcXcXcXcXcXcXcXcXcXcXcXcXcXcXcXcXcXcXcXcXcXcXcXcXcXcX",
"cXcXcXcXcXcXcXcXcXcXcXcXcXcXcXcXcXcXcXcXcXcXcXcXcXcXcXcXcXcXcXcXcXcXcXcXcXcXcXcXcXcXcXcXcXcXcXcXcXcXcXcXcXcXcXcXcXcXcXcXcXcXcXcXcXcXcXcXcXcXcXcXcXcXcX",
"cXcXcXcXcXcXcXcXcXcXcXcXcXcXcXcXcXcXcXcXcXcXcXcXcXcXcXcXcXcXcXcXcXcXcXi i i i i i u u u i cXcXcXcXcXcXcXcXcXcXcXcXcXcXcXcXcXcXcXcXcXcXcXcXcXcXcXcXcXcX",
"cXcXcXcXcXcXcXcXcXcXcXcXcXcXcXcXcXcXcXcXcXcXcXcXcXcXcXcXcXcXcXcXcXcXcXd f i f f f f f f f cXcXcXcXcXcXcXcXcXcXcXcXcXcXcXcXcXcXcXcXcXcXcXcXcXcXcXcXcXcX",
"cXcXcXcXcXcXcXcXcXcXcXcXcXcXcXcXcXcXcXcXcXcXcXcXcXcXcXcXcXcXi i u u i >.1.3.5.5.5.6.5.<.<.i i i i i cXcXcXcXcXcXcXcXcXcXcXcXcXcXcXcXcXcXcXcXcXcXcXcXcX",
"cXcXcXcXcXcXcXcXcXcXcXcXcXcXcXcXcXcXcXcXcXcXcXcXcXcXcXcXcXcXi i i i i <.3.5.6.6.6.6.5.1.2.i i i i i cXcXcXcXcXcXcXcXcXcXcXcXcXcXcXcXcXcXcXcXcXcXcXcXcX",
"cXcXcXcXcXcXcXcXcXcXcXcXcXcXcXcXcXcXcXcXcXcXcXcXcXcXcXcX& e >.>.g n n b b ,.3.3.5.3.3.b b n n g >.:.- - cXcXcXcXcXcXcXcXcXcXcXcXcXcXcXcXcXcXcXcXcXcXcX",
"cXcXcXcXcXcXcXcXcXcXcXcXcXcXcXcXcXcXcXcXcXcXcXcXcXcXcXcX& e <.1.b _ ] ] _ 4.<.1.1.1.,.] _ ] z 4.2.>.; - ; cXcXcXcXcXcXcXcXcXcXcXcXcXcXcXcXcXcXcXcXcXcX",
"cXcXcXcXcXcXcXcXcXcXcXcXcXcXcXcXcXcXcXcXcXcXcXcXcXcXcXcX- e <.1.] ] ] ] _ 4.1.1.2.2.,.z ] _ _ 4.2.:.; - ; cXcXcXcXcXcXcXcXcXcXcXcXcXcXcXcXcXcXcXcXcXcX",
"cXcXcXcXcXcXcXcXcXcXcXcXcXcXcXcXcXcXcXcXcXcXcXcXcXcXcXcX- > b b y.p.p.0. .' b b b b }  .| p.p.9.b n ; ; ; cXcXcXcXcXcXcXcXcXcXcXcXcXcXcXcXcXcXcXcXcXcX",
"cXcXcXcXcXcXcXcXcXcXcXcXcXcXcXcXcXcXcXcXcXcXcXcXcXcXcXcX- > x _ p.j.k.8.(  ._ _ z z ` ( 0.d.k.t._ c & - & cXcXcXcXcXcXcXcXcXcXcXcXcXcXcXcXcXcXcXcXcXcX",
"cXcXcXcXcXcXcXcXcXcXcXcXcXcXcXcXcXcXcXcXcXcXcXcXcXcXcXy a j t.t.c.m.v.p.q.X.' ' ' ' X.q.q.c.M.h.t.{ a a a cXcXcXcXcXcXcXcXcXcXcXcXcXcXcXcXcXcXcXcXcXcX",
"cXcXcXcXcXcXcXcXcXcXcXcXcXcXcXcXcXcXcXcXcXcXcXcXcX- ; a z { g.j.0X8X8Xv.g.q.( ( 0.( 8.j.g.0X8Xv.k.h.z ] n & - cXcXcXcXcXcXcXcXcXcXcXcXcXcXcXcXcXcXcXcX",
"cXcXcXcXcXcXcXcXcXcXcXcXcXcXcXcXcXcXcXcXcXcXcXcXcX> e a [ } d.d.M.8X0Xg.p.q.| | | ) 0.h.h.M.8Xv.d.p.` [ l > > cXcXcXcXcXcXcXcXcXcXcXcXcXcXcXcXcXcXcXcX",
"cXcXcXcXcXcXcXcXcXcXcXcXcXcXcXcXcXcXcXcXcXcXcXcXcXz z ' ( ( 8...h.j.g.{ ] ] ] ` ] ] ` ] [ f.g.q.8.( ) (  .k k cXcXcXcXcXcXcXcXcXcXcXcXcXcXcXcXcXcXcXcX",
"cXcXcXcXcXcXcXcXcXcXcXcXcXcXcXcXcXcXcXcXcXcXcXcXcX] z ' ( ( ( ..d.g.g.{ _ _ ] ] ] ] _ _ ] h.k.q.( ( ( (  .z ] cXcXcXcXcXcXcXcXcXcXcXcXcXcXcXcXcXcXcXcX",
"cXcXcXcXcXcXcXcXcXcXcXcXcXcXcXcXcXcXO O O O O O + l ] X.d.q.} ` X.w.8.} _ -.a.a.a.a.t.] ] 8.w. .` X.d.d.9.] z , O O O O O O cXcXcXcXcXcXcXcXcXcXcXcXcX",
"cXcXcXcXcXcXcXcXcXcXcXcXcXcXcXcXcXcXO O O O O O O c ] t.j.h.] ] | ( ( [ _ t.f.f.f.f.a.] ] | ( ' k { g.g.p.] k = O O O O O O O cXcXcXcXcXcXcXcXcXcXcXcX",
"cXcXcXcXcXcXcXcXcXcXcXcXcXcXcXcXcXcXO @ O + + + @ j _ -.j.h.[ z | ....` _ t.z.x.x.x.y.z ]  .( ' ] { g.j.a.] z = @ + O O O O O cXcXcXcXcXcXcXcXcXcXcXcX",
"cXcXcXcXcXcXcXcXcXcXcXcXcXcXcXcXcXcXcXcXO O *.l.l.*._ t.j.p.6 5 @ @ @ -.a.s.x.x.x.x.x.l.a.7 @ = 5 s g.j.a.] ] y.l.j O O cXcXcXcXcXcXcXcXcXcXcXcXcXcXcX",
"cXcXcXcXcXcXcXcXcXcXcXcXcXcXcXcXcXcXcXcXO O a.M.M.-._ t.j.p.$ # .     y.f.s.x.x.x.x.x.z.f.@   X O 0 g.j.h.z [ n.7X_ O O cXcXcXcXcXcXcXcXcXcXcXcXcXcXcX",
"cXcXcXcXcXcXcXcXcXcXcXcXcXcXcXcXcXcXcXcXO O _ *.*.] _ X.q.8.$ # V K K F.OX4Xv.n.v.v.c.oXoXK K 3 + q q.q.9.] _ { *.j O cXcXcXcXcXcXcXcXcXcXcXcXcXcXcXcX",
"cXcXcXcXcXcXcXcXcXcXcXcXcXcXcXcXcXcXcXcXcXcXO O O j ] ' ( o.# # 1XiXiX^.R.;XM.9X9XM.4XQ.T.pXpXT + 4 ( ( | ] k = O cXcXcXcXcXcXcXcXcXcXcXcXcXcXcXcXcXcX",
"cXcXcXcXcXcXcXcXcXcXcXcXcXcXcXcXcXcXcXcXcXcXO O O j c ` ) ' 4 4 uXiXiX XQ.>X9X9X9X9X4X~.!.iXpX=.5 q ) ( ' l j $ O cXcXcXcXcXcXcXcXcXcXcXcXcXcXcXcXcXcX",
"cXcXcXcXcXcXcXcXcXcXcXcXcXcXcXcXcXcXcXcXcXcXcXcXcX+ + 0 ` ` X.X.xXzXzX%X].yXgXgXgXhXfX'.}.kXlX4XX.' ] ] j @ O cXcXcXcXcXcXcXcXcXcXcXcXcXcXcXcXcXcXcXcX",
"cXcXcXcXcXcXcXcXcXcXcXcXcXcXcXcXcXcXcXcXcXcXcXcXcXO O 9 z ` X.X.xXlXlXrX[.yXgXgXgXgXjX[.|.kXlX4XX. .] ] j O O cXcXcXcXcXcXcXcXcXcXcXcXcXcXcXcXcXcXcXcX",
"cXcXcXcXcXcXcXcXcXcXcXcXcXcXcXcXcXcXcXcXcXcXcXcXcXcXcXw B w S h i.8X5X4X4XqXgXgXgXgXxX4X4X8X5X*.7 6 cXcXcXcXcXcXcXcXcXcXcXcXcXcXcXcXcXcXcXcXcXcXcXcXcX",
"cXcXcXcXcXcXcXcXcXcXcXcXcXcXcXcXcXcXcXcXcXcXcXcXcXcXcXcX2 1 1 2 y.f.f.b.b.qXgXgXgXgXhXM.7Xz.z.l O O cXcXcXcXcXcXcXcXcXcXcXcXcXcXcXcXcXcXcXcXcXcXcXcXcX",
"cXcXcXcXcXcXcXcXcXcXcXcXcXcXcXcXcXcXcXcXcXcXcXcXcXcXcXcXw m 2 2 y.f.f.n.n.qXgXgXgXgXwX7X7Xz.f.l O % cXcXcXcXcXcXcXcXcXcXcXcXcXcXcXcXcXcXcXcXcXcXcXcXcX",
"cXcXcXcXcXcXcXcXcXcXcXcXcXcXcXcXcXcXcXcXcXcX2 2 2 2 1 V G H F.F.Z B S S S i.7X7X7X7Xb.n.z.j 7 8 6 5 ; - - cXcXcXcXcXcXcXcXcXcXcXcXcXcXcXcXcXcXcXcXcXcX",
"cXcXcXcXcXcXcXcXcXcXcXcXcXcXcXcXcXcXcXcXcXcX1 2 2 2 1 B F P *X*XB 1 1 1 1 =.5Xb.5XM.b.z.f.7 X = 9 8 & & & cXcXcXcXcXcXcXcXcXcXcXcXcXcXcXcXcXcXcXcXcXcX",
"cXcXcXcXcXcXcXcXcXcXcXcXcXcXcXcXcXcX2 cXcXcXB V V D F F.>X>X1X1XD.D F Z V R =.=.=.=.*._ k s 0 9 8 8 r e e & cXcXcXcXcXcXcXcXcXcXcXcXcXcXcXcXcXcXcXcXcX",
"cXcXcXcXcXcXcXcXcXcXcXcXcXcXcXcXcXcX1 2 1 1 G P P $X;X1XdXsXdXsX>X;X:XS.H V w m 1 1 < % O l [ j 6 a u i r & & cXcXcXcXcXcXcXcXcXcXcXcXcXcXcXcXcXcXcXcX",
"cXcXcXcXcXcXcXcXcXcXcXcXcXcXcXcXcXm N N B B H C.C.I.:X,XtXtXtXtX,X+X:XC.C.J B V N N 1 @ @ j x s 8 a r r u p v cXcXcXcXcXcXcXcXcXcXcXcXcXcXcXcXcXcXcXcX",
"cXcXcXcXcXcXcXcXcXcXcXcX2 2 2 2 1 B L P *X*XJ.W.W.'.[.U.P P P P _.{.'.~.E.P.*XH.L L G 1 1 2 2 t i r ; - v aXtXY F cXcXcXcXcXcXcXcXcXcXcXcXcXcXcXcXcXcX",
"cXcXcXcXcXcXcXcXcXcXcXcX2 2 1 1 1 B L U =X*XJ.E.Q. X].L.L P F F `.'.].!.Q.P.=X&XL L Z 1 1 1 2 t i r - - v dXaXS.F cXcXcXcXcXcXcXcXcXcXcXcXcXcXcXcXcXcX",
"cXcXcXcXcXcXcXcXcXcXcXcX2 2 3 A D H C.C.U.I.K.N.N.`.{.P.C.C.A.A.`.`.`.J.N.K.I.U.C.C.H D D m p t r r p p R jXsXY F cXcXcXcXcXcXcXcXcXcXcXcXcXcXcXcXcXcX",
"cXcXcXcXcXcXcXcXcXcXcXcX2 2 2 <XsXrXE.W.W.Q.C.L P &X=XP.E.!.].[.#X*X*XU F Z.W.W.E.E.).aXaXC 1 < & p =X=X1XlXzXF.F cXcXcXcXcXcXcXcXcXcXcXcXcXcXcXcXcXcX",
"cXcXcXcXcXcXcXcXcXcXcXcX2 2 2 >XfX%XE.E.Q.V.C.H P $X;XP.V.~.{.|.#X:X*XI L Z.Q.Q.Q.E.).aXtXA 1 , - p H.&X1XzXzXD.F cXcXcXcXcXcXcXcXcXcXcXcXcXcXcXcXcXcX",
"cXcXcXcXcXcXcXcXcXcXcXcX2 2 2 H.>XU.E.!.'.'.I.$X=X`.{.oX{ t.m.m.,X{.{.@X-X`. X XW.E.J.>X;XB 1 t u r w , w x c 7 , cXcXcXcXcXcXcXcXcXcXcXcXcXcXcXcXcXcX",
"cXcXcXcXcXcXcXcXcXcXcXcX2 2 2 D.=XL.E.!.].].#X:X:X{.|.oXe.w.r.r.rX].[.#X;X#X]. XQ.T.J.*X*XB 3 t d r + # $ 9 6 $ + cXcXcXcXcXcXcXcXcXcXcXcXcXcXcXcXcXcX",
"cXcXcXcXcXcXcXcXcXcXcXcX2 2 p P F.G.P.U.%.%.;.&.&./.}.XXo.O.O.O.Y.[.[.;.&.;.XXXXP.P.U.D.D.N 1 t u e # + 5 j j 6 5 $ # cXcXcXcXcXcXcXcXcXcXcXcXcXcXcXcX",
"cXcXcXcXcXcXcXcXcXcXcXcX2 2 2 Z F D.:XOXW ^ E E W /.].XX^ E W W Y.].[.! ^ / / ~ =X;XH.F F m 2 t u e $ # 4 ] k 0 9 5 # # cXcXcXcXcXcXcXcXcXcXcXcXcXcXcX",
"cXcXcXcXcXcXcXcXcXcXcXcX2 2 2 D S.F.$XoX+.+.Q E Q XX/.%./ W W W XX/.Y.$.E ~ +.@.H.$XF.I U N 2 t d e # # 4 _ k 0 9 = + # cXcXcXcXcXcXcXcXcXcXcXcXcXcXcX",
"cXcXcXcXcXcXcXcXcXcXcXcX2 2 2 D.:XF.L H B.W.+.E ^ Q Q W W W W W Q Q W W / M Q.N.F P I *X*XB 1 7 9 4 # + 4 _ _ 0 9 5 # # cXcXcXcXcXcXcXcXcXcXcXcXcXcXcX",
"cXcXcXcXcXcXcXcXcXcXcXcX2 2 2 D.:XF.F H V.E.+.E ^ W W ^ / / / W W W E E ^ M Q.B.H F I ;X*XN 1 3 9 4 # + 5 _ k 0 6 $ # # cXcXcXcXcXcXcXcXcXcXcXcXcXcXcX",
"cXcXcXcXcXcXcXcXcXcXcXcXcX2 2 P S.I I A.V.E.%.#.#.! ^ ! +.+.#.#.~ ^ W $.#..XQ.B.S.I I D.S.A v a s a = @ 8 -.*._ l 9 + # cXcXcXcXcXcXcXcXcXcXcXcXcXcXcX",
"cXcXcXcXcXcXcXcXcXcXcXcXcXcXcX2 1 D =X@XW.E. X[.[.$.^ M T.Q.[.[.$.^ Q /.}.^.T.V.*X;XD.2 m 5.6.5.1.:.- - n M.b.z.x.l + # cXcXcXcXcXcXcXcXcXcXcXcXcXcXcX",
"cXcXcXcXcXcXcXcXcXcXcXcXcXcXcX2 1 D ;X@X!.V.^.'.[.#.Q M !.~.{.`.#.Q ~ /.].^.W.J.;X;XF.2 2 5.6.3.<.:.; - a n.n.x.s.l # # cXcXcXcXcXcXcXcXcXcXcXcXcXcXcX",
"cXcXcXcXcXcXcXcXcXcXcXcXcXcXcX2 1 T aXtX@XI.^.!.!.(.(.OXX.9.m.m.+X(.(.~.Q.P.I.,XtXaX>X2 p ,.2.:.d u ; ; : 8 6 6 4 5 cXcXcXcXcXcXcXcXcXcXcXcXcXcXcXcXcX",
"cXcXcXcXcXcXcXcXcXcXcXcXcXcXcX2 1 Y jXaX;X;XJ.W.W.'.}.OXe.w.r.r.rX[.'.!.T.L.=X>XaXsX<X3 3 >.2.:.u r ; - - # # # # cXcXcXcXcXcXcXcXcXcXcXcXcXcXcXcXcXcX",
"cXcXcXcXcXcXcXcXcXcXcXcXcXcXcXcXcXD Y Y D.D.N.Q.W.K.U.G.U I oX-XG.U.L.V.T.K.D.D.Y Y F.=X=X6X6X3Xu.7.; - - cXcXcXcXcXcXcXcXcXcXcXcXcXcXcXcXcXcXcXcXcXcX",
"cXcXcXcXcXcXcXcXcXcXcXcXcXcXcXcXcXcX1 2 F F N.T.W.C.D Z.E.T.T.T.C.L F B.T.Z.L G 1 1 D sXsXlXlXzXjX3X: ; - cXcXcXcXcXcXcXcXcXcXcXcXcXcXcXcXcXcXcXcXcXcX",
"cXcXcXcXcXcXcXcXcXcXcXcXcXcXcXcXcXcX2 m Z G Z.B.N.A.T L.).).).).G.U I K.B.C.G V < < B <X<XeXeX2X<X-X* * * cXcXcXcXcXcXcXcXcXcXcXcXcXcXcXcXcXcXcXcXcXcX",
"cXcXcXcXcXcXcXcXcXcXcXcXcXcXcXcXcXcXcXcX2 2 G L L $X:X1XdXaXdXdX>X*X*XU H V 2 <     X 9 9 9 9 9 0 5       cXcXcXcXcXcXcXcXcXcXcXcXcXcXcXcXcXcXcXcXcXcX",
"cXcXcXcXcXcXcXcXcXcXcXcXcXcXcXcXcXcXcXcX1 2 G L L oX:X1XsXdXdXdX>X:X:XI P V w <     X 8 9 9 8 6 9 5       cXcXcXcXcXcXcXcXcXcXcXcXcXcXcXcXcXcXcXcXcXcX",
"cXcXcXcXcXcXcXcXcXcXcXcXcXcXcXcXcXcXcXcX2 2 V Z Z I I ;XtXtXtXtX&XI S.D J m < <     X 9 9 0 s s s 9 X X X cXcXcXcXcXcXcXcXcXcXcXcXcXcXcXcXcXcXcXcXcXcX",
"cXcXcXcXcXcXcXcXcXcXcXcXcXcXcXcXcXcXcXcXcXcX3 3 3 3 3 D ;X*X:X=XV 2 2 2 2 o         X 9 9 z ] ] ] k 9 9 9 cXcXcXcXcXcXcXcXcXcXcXcXcXcXcXcXcXcXcXcXcXcX",
"cXcXcXcXcXcXcXcXcXcXcXcXcXcXcXcXcXcXcXcXcXcX2 2 2 2 1 D &X*X&X&XB 1 1 1 1 o         X 7 6 c x l x j 6 6 6 cXcXcXcXcXcXcXcXcXcXcXcXcXcXcXcXcXcXcXcXcXcX",
"cXcXcXcXcXcXcXcXcXcXcXcXcXcXcXcXcXcXcXcXcXcXcXcXcXcXcXN N N N N o .     .   cXcXcXcXcX. . . X X X X . .   cXcXcXcXcXcXcXcXcXcXcXcXcXcXcXcXcXcXcXcXcXcX",
"cXcXcXcXcXcXcXcXcXcXcXcXcXcXcXcXcXcXcXcXcXcXcXcXcXcXcXcX2 2 2 2 X         cXcXcXcXcXcX                    cXcXcXcXcXcXcXcXcXcXcXcXcXcXcXcXcXcXcXcXcXcX",
"cXcXcXcXcXcXcXcXcXcXcXcXcXcXcXcXcXcXcXcXcXcXcXcXcXcXcXcXcXcXcXcXcXcXcXcXcXcXcXcXcXcXcXcXcXcXcXcXcXcXcXcXcXcXcXcXcXcXcXcXcXcXcXcXcXcXcXcXcXcXcXcXcXcXcX",
"cXcXcXcXcXcXcXcXcXcXcXcXcXcXcXcXcXcXcXcXcXcXcXcXcXcXcXcXcXcXcXcXcXcXcXcXcXcXcXcXcXcXcXcXcXcXcXcXcXcXcXcXcXcXcXcXcXcXcXcXcXcXcXcXcXcXcXcXcXcXcXcXcXcXcX",
"cXcXcXcXcXcXcXcXcXcXcXcXcXcXcXcXcXcXcXcXcXcXcXcXcXcXcXcXcXcXcXcXcXcXcXcXcXcXcXcXcXcXcXcXcXcXcXcXcXcXcXcXcXcXcXcXcXcXcXcXcXcXcXcXcXcXcXcXcXcXcXcXcXcXcX",
"cXcXcXcXcXcXcXcXcXcXcXcXcXcXcXcXcXcXcXcXcXcXcXcXcXcXcXcXcXcXcXcXcXcXcXcXcXcXcXcXcXcXcXcXcXcXcXcXcXcXcXcXcXcXcXcXcXcXcXcXcXcXcXcXcXcXcXcXcXcXcXcXcXcXcX",
"cXcXcXcXcXcXcXcXcXcXcXcXcXcXcXcXcXcXcXcXcXcXcXcXcXcXcXcXcXcXcXcXcXcXcXcXcXcXcXcXcXcXcXcXcXcXcXcXcXcXcXcXcXcXcXcXcXcXcXcXcXcXcXcXcXcXcXcXcXcXcXcXcXcXcX",
"cXcXcXcXcXcXcXcXcXcXcXcXcXcXcXcXcXcXcXcXcXcXcXcXcXcXcXcXcXcXcXcXcXcXcXcXcXcXcXcXcXcXcXcXcXcXcXcXcXcXcXcXcXcXcXcXcXcXcXcXcXcXcXcXcXcXcXcXcXcXcXcXcXcXcX",
"cXcXcXcXcXcXcXcXcXcXcXcXcXcXcXcXcXcXcXcXcXcXcXcXcXcXcXcXcXcXcXcXcXcXcXcXcXcXcXcXcXcXcXcXcXcXcXcXcXcXcXcXcXcXcXcXcXcXcXcXcXcXcXcXcXcXcXcXcXcXcXcXcXcXcX",
"cXcXcXcXcXcXcXcXcXcXcXcXcXcXcXcXcXcXcXcXcXcXcXcXcXcXcXcXcXcXcXcXcXcXcXcXcXcXcXcXcXcXcXcXcXcXcXcXcXcXcXcXcXcXcXcXcXcXcXcXcXcXcXcXcXcXcXcXcXcXcXcXcXcXcX"
};
