/* XPM */
static char *result[] = {
/* columns rows colors chars-per-pixel */
"75 75 226 2 ",
"   c #000000",
".  c #0E0804",
"X  c #1A0800",
"o  c #061B02",
"O  c #000718",
"+  c #0B0C16",
"@  c #161516",
"#  c #220E00",
"$  c #230600",
"%  c #330901",
"&  c #251201",
"*  c #2D1401",
"=  c #2A1B07",
"-  c #331A01",
";  c #321903",
":  c #261B15",
">  c #1E3600",
",  c #15250E",
"<  c #2C2402",
"1  c #272C02",
"2  c #3B240C",
"3  c #34270B",
"4  c #223601",
"5  c #2C3604",
"6  c #233902",
"7  c #3A3607",
"8  c #392817",
"9  c #3C3614",
"0  c #29201B",
"q  c #363A2D",
"w  c #363636",
"e  c #383839",
"r  c #383737",
"t  c #2A3E26",
"y  c #43260C",
"u  c #492C0E",
"i  c #4C2E11",
"p  c #432E15",
"a  c #4E3113",
"s  c #493519",
"d  c #513214",
"f  c #5A3B1B",
"g  c #54381B",
"h  c #47310F",
"j  c #422E20",
"k  c #453523",
"l  c #533C27",
"z  c #433839",
"x  c #2D4E02",
"c  c #2D410F",
"v  c #294402",
"b  c #375903",
"n  c #36491A",
"m  c #345109",
"M  c #396602",
"N  c #3C6902",
"B  c #396805",
"V  c #297901",
"C  c #367011",
"Z  c #3A4731",
"A  c #574C1C",
"S  c #49510F",
"D  c #486609",
"F  c #447304",
"G  c #47760A",
"H  c #457211",
"J  c #546717",
"K  c #5A4222",
"L  c #564225",
"P  c #494136",
"I  c #5C4534",
"U  c #4D522C",
"Y  c #6B4C24",
"T  c #664B27",
"R  c #6B5527",
"E  c #75552A",
"W  c #7B5B2D",
"Q  c #79572C",
"!  c #624B3A",
"~  c #7E5E31",
"^  c #7B5E3C",
"/  c #704D27",
"(  c #4E6F22",
")  c #6D6223",
"_  c #7C622C",
"`  c #7D7228",
"'  c #7B643A",
"]  c #62661B",
"[  c #3D3D40",
"{  c #48474A",
"}  c #4C4C52",
"|  c #54565A",
" . c #584B49",
".. c #6B5B57",
"X. c #60514A",
"o. c #576256",
"O. c #5D5D6B",
"+. c #585864",
"@. c #5F5E71",
"#. c #605F72",
"$. c #5B6870",
"%. c #61656C",
"&. c #626273",
"*. c #696B7A",
"=. c #77757B",
"-. c #73706D",
";. c #736647",
":. c #B37B1E",
">. c #AF791F",
",. c #825E2F",
"<. c #825E31",
"1. c #8B662E",
"2. c #83612F",
"3. c #95692A",
"4. c #826132",
"5. c #886439",
"6. c #946F3B",
"7. c #937636",
"8. c #A57424",
"9. c #AA7621",
"0. c #A97828",
"q. c #B57E21",
"w. c #A47836",
"e. c #B07935",
"r. c #9C7744",
"t. c #88734F",
"y. c #A77E45",
"u. c #857365",
"i. c #558508",
"p. c #5F910A",
"a. c #59941A",
"s. c #4E8312",
"d. c #63950B",
"f. c #699D0D",
"g. c #649B13",
"h. c #759517",
"j. c #648914",
"k. c #6EA20E",
"l. c #71A60E",
"z. c #72A90E",
"x. c #71AA16",
"c. c #71AC1A",
"v. c #71A710",
"b. c #6CA311",
"n. c #6E9820",
"m. c #61A52B",
"M. c #71B428",
"N. c #71BE3B",
"B. c #72BA33",
"V. c #67AF32",
"C. c #5C9D26",
"Z. c #73C13E",
"A. c #75C440",
"S. c #B6883C",
"D. c #B6842F",
"F. c #91843C",
"G. c #CB973C",
"H. c #C18B2E",
"J. c #AA8343",
"K. c #B38A45",
"L. c #BB8E55",
"P. c #B89845",
"I. c #968777",
"U. c #9E8863",
"Y. c #A18E7A",
"T. c #C69A4B",
"R. c #C79757",
"E. c #CB9859",
"W. c #D7A54A",
"Q. c #CCA151",
"!. c #D5A35D",
"~. c #DAA959",
"^. c #DFB057",
"/. c #E3B459",
"(. c #E6B559",
"). c #E0AB5F",
"_. c #DCAA63",
"`. c #D8A566",
"'. c #D2B86F",
"]. c #F2BA76",
"[. c #F5BD7A",
"{. c #F8BF7B",
"}. c #E6B46B",
"|. c #E4C675",
" X c #F9C57D",
".X c #EECA76",
"XX c #767588",
"oX c #7D7D94",
"OX c #3149C8",
"+X c #646CEC",
"@X c #6A70EB",
"#X c #857B8D",
"$X c #7A8283",
"%X c #85859C",
"&X c #87879A",
"*X c #908C8A",
"=X c #8A8AA4",
"-X c #9897A9",
";X c #9B9BB1",
":X c #A6A7B2",
">X c #AEB1B8",
",X c #B6B4B9",
"<X c #A4998B",
"1X c #D6B793",
"2X c #E7D58A",
"3X c #F5CB97",
"4X c #F1C78E",
"5X c #D8C8AF",
"6X c #FFEAAC",
"7X c #B9B9C8",
"8X c #BEBED0",
"9X c #92B9E7",
"0X c #B4DEEC",
"qX c #B8E4F2",
"wX c #C8C8D9",
"eX c #CCD1CD",
"rX c #E0D3D7",
"tX c #DAE8D9",
"yX c #FFF0D6",
"uX c #D1D5E9",
"iX c #DCE2E8",
"pX c #E2E5EC",
"aX c #FAFFFF",
"sX c #F5FCFB",
"dX c #EEF1F6",
"fX c None",
/* pixels */
"fXfXfXfXfXfXfXfXfXfXfXfXfXfXfXfXfXfXfXfXfXfXfXfXfXfXfXfXfXfXfXfXfXfXfXfXfXfXfXfXfXfXfXfXfXfXfXfXfXfXfXfXfXfXfXfXfXfXfXfXfXfXfXfXfXfXfXfXfXfXfXfXfXfXfX",
"fXfXfXfXfXfXfXfXfXfXfXfXfXfXfXfXfXfXfXfXfXfXfXfXfXfXfXfXfXfXfXfXfXfXfXfXfXfXfXfXfXfXfXfXfXfXfXfXfXfXfXfXfXfXfXfXfXfXfXfXfXfXfXfXfXfXfXfXfXfXfXfXfXfXfX",
"fXfXfXfXfXfXfXfXfXfXfXfXfXfXfXfXfXfXfXfXfXfXfXfXfXfXfXfXfXfXfXfXfXfXfXfXfXfXfXfXfXfXfXfXfXfXfXfXfXfXfXfXfXfXfXfXfXfXfXfXfXfXfXfXfXfXfXfXfXfXfXfXfXfXfX",
"fXfXfXfXfXfXfXfXfXfXfXfXfXfXfXfXfXfXfXfXfXfXfXfXfXfXfXfXfXfXfXfXfXfXfXfXfXfXfXfXfXfXfXfXfXfXfXfXfXfXfXfXfXfXfXfXfXfXfXfXfXfXfXfXfXfXfXfXfXfXfXfXfXfXfX",
"fXfXfXfXfXfXfXfXfXfXfXfXfXfXfXfXfXfXfXfXfXfXfXfXfXfXfXfXfXfXfXfXfXfXfXfXfXfXfXfXfXfXfXfXfXfXfXfXfXfXfXfXfXfXfXfXfXfXfXfXfXfXfXfXfXfXfXfXfXfXfXfXfXfXfX",
"fXfXfXfXfXfXfXfXfXfXfXfXfXfXfXfXfXfXfXfXfXfXfXfXfXfXfXfXfXfXfXfXfXfXfXfXfXfXfXfXfXfXfXfXfXfXfXfXfXfXfXfXfXfXfXfXfXfXfXfXfXfXfXfXfXfXfXfXfXfXfXfXfXfXfX",
"fXfXfXfXfXfXfXfXfXfXfXfXfXfXfXfXfXfXfXfXfXfXfXfXfXfXfXfXfXfXfXfXfXfXfXfXfXfXfXfXfXfXfXfXfXfXfXfXfXfXfXfXfXfXfXfXfXfXfXfXfXfXfXfXfXfXfXfXfXfXfXfXfXfXfX",
"fXfXfXfXfXfXfXfXfXfXfXfXfXfXfXfXfXfXfXfXfXfXfXfXfXfXfXfXfXfXfXfXfXfXfXfXfXfXfXfXfXfXfXfXfXfXfXfXfXfXfXfXfXfXfXfXfXfXfXfXfXfXfXfXfXfXfXfXfXfXfXfXfXfXfX",
"fXfXfXfXfXfXfXfXfXfXfXfXfXfXfXfXfXfXfXfXfXfXfXfXfXfXfXfXfXfXfXfXfXfXfXfXfXfXfXfXfXfXfXfXfXfXfXfXfXfXfXfXfXfXfXfXfXfXfXfXfXfXfXfXfXfXfXfXfXfXfXfXfXfXfX",
"fXfXfXfXfXfXfXfXfXfXfXfXfXfXfXfXfXfXfXfXfXfXfXfXfXfXfXfXfXfXfXfXfXfXfXfXfXfXfXfXfXfXfXfXfXfXfXfXfXfXfXfXfXfXfXfXfXfXfXfXfXfXfXfXfXfXfXfXfXfXfXfXfXfXfX",
"fXfXfXfXfXfXfXfXfXfXfXfXfXfXfXfXfXfXfXfXfXfXfXfXfXfXfXfXfXfXfXfXN M N N M N N B M N M M M fXfXfXfXfXfXfXfXfXfXfXfXfXfXfXfXfXfXfXfXfXfXfXfXfXfXfXfXfXfX",
"fXfXfXfXfXfXfXfXfXfXfXfXfXfXfXfXfXfXfXfXfXfXfXfXfXfXfXfXfXfXfXfXM M M M M N N B M M M M M fXfXfXfXfXfXfXfXfXfXfXfXfXfXfXfXfXfXfXfXfXfXfXfXfXfXfXfXfXfX",
"fXfXfXfXfXfXfXfXfXfXfXfXfXfXfXfXfXfXfXfXfXfXfXfXfXfXfXfX4.4.4.~ j.p.p.p.p.p.p.p.m.m.m.m.m.F M fXfXfXfXfXfXfXfXfXfXfXfXfXfXfXfXfXfXfXfXfXfXfXfXfXfXfXfX",
"fXfXfXfXfXfXfXfXfXfXfXfXfXfXfXfXfXfXfXfXfXfXfXfXfXfXfXfX4.' 4.2.h.l.z.z.l.l.l.c.Z.Z.Z.Z.Z.H M fXfXfXfXfXfXfXfXfXfXfXfXfXfXfXfXfXfXfXfXfXfXfXfXfXfXfXfX",
"fXfXfXfXfXfXfXfXfXfXfXfXfXfXfXfXfXfXfXfXfXfXfXfXfXfXfXfX' ~ 4.' h.l.k.l.l.z.z.c.N.Z.N.Z.N.C N fXfXfXfXfXfXfXfXfXfXfXfXfXfXfXfXfXfXfXfXfXfXfXfXfXfXfXfX",
"fXfXfXfXfXfXfXfXfXfXfXfXfXfXfXfXfXfXfXfXfXfXfXfXfX4.~ J.Q.Q.'.'.F.` ` ` ` ] F i.x.c.M.N.N.V.m.a.M M fXfXfXfXfXfXfXfXfXfXfXfXfXfXfXfXfXfXfXfXfXfXfXfXfX",
"fXfXfXfXfXfXfXfXfXfXfXfXfXfXfXfXfXfXfXfXfXfXfXfXfX~ ~ S.^./.2X2XJ.,._ 2.2.J M F l.l.c.Z.Z.Z.Z.a.M M fXfXfXfXfXfXfXfXfXfXfXfXfXfXfXfXfXfXfXfXfXfXfXfXfX",
"fXfXfXfXfXfXfXfXfXfXfXfXfXfXfXfXfXfXfXfXfXfXfXfXfXS.J.R.|.|.|.|.F.3.3.e.J.1.J J i.i.g.M.V.N.Z.a.M M fXfXfXfXfXfXfXfXfXfXfXfXfXfXfXfXfXfXfXfXfXfXfXfXfX",
"fXfXfXfXfXfXfXfXfXfXfXfXfXfXfXfXfXfXfXfXfXfX4.<.2.Q.^.|.2X2X^./.H.:.D.W.(.K.4.) N M F l.x.B.Z.a.M M fXfXfXfXfXfXfXfXfXfXfXfXfXfXfXfXfXfXfXfXfXfXfXfXfX",
"fXfXfXfXfXfXfXfXfXfXfXfXfXfXfXfXfXfXfXfXfXfX4.1.1.T.W.}.2X|.W.W.H.q.:.T.^.S.1._ D D G f.g.B.Z.C.N G fXfXfXfXfXfXfXfXfXfXfXfXfXfXfXfXfXfXfXfXfXfXfXfXfX",
"fXfXfXfXfXfXfXfXfXfXfXfXfXfXfXfXfXfXfXfX4.4.8.:.>.:.q.G.(.^.:.D.:.:.:.q.q.:.>.8._ ~ ) N N B.Z.N.N.m.N B M fXfXfXfXfXfXfXfXfXfXfXfXfXfXfXfXfXfXfXfXfXfX",
"fXfXfXfXfXfXfXfXfXfXfXfXfXfXfXfXfXfXfXfX4.4.8.:.:.>.:.G./.W.:.:.:.:.:.:.:.:.:.9.<.4.) N B V.Z.Z.A.V.N B M fXfXfXfXfXfXfXfXfXfXfXfXfXfXfXfXfXfXfXfXfXfX",
"fXfXfXfXfXfXfXfXfXfXfXfXfXfXfXfXfXfXfXfX4.4.P.W.W.w.1.0.H.D.3.1.9.:.:.3.3.S.W.T.4.4.R v x H H g.c.g.B N M fXfXfXfXfXfXfXfXfXfXfXfXfXfXfXfXfXfXfXfXfXfX",
"fXfXfXfXfXfXfXfXfXfXfXfXfXfXfXfXfXfXfXfX4.<.T.^./.7.4.3.:.>.4.<.9.:.:.1.W K.(.Q.4.4.R 6 6 b N i.v.d.N N N fXfXfXfXfXfXfXfXfXfXfXfXfXfXfXfXfXfXfXfXfXfX",
"fXfXfXfXfXfXfXfXfXfXfXfXfXfXfXfXfXfXfXfX4.4.T./.^.7.~ 3.:.:.1.,.9.9.9.1.4.K./.Q.4.4.R 4 6 b M i.l.d.M M M fXfXfXfXfXfXfXfXfXfXfXfXfXfXfXfXfXfXfXfXfXfX",
"fXfXfXfXfXfXfXfXfXfXfXfXfXfXfXfXfXfXfXfX4.4.T./.~.L : 4.}.).R.R.A 2 2 E 4.K./.Q.5.4.Y < = 1 < 5 7 5 < < 5 M N fXfXfXfXfXfXfXfXfXfXfXfXfXfXfXfXfXfXfXfX",
"fXfXfXfXfXfXfXfXfXfXfXfXfXfXfXfXfXfXfXfX4.4.T.(.^.p   ^  X]._.~.p   . / ~ K./.Q.4.4.T # X & # & & & # # < N M fXfXfXfXfXfXfXfXfXfXfXfXfXfXfXfXfXfXfXfX",
"fXfXfXfXfXfXfXfXfXfXfXfXfXfXfXfXfXfXfXfX4.4.S.G.G.y . t.3X4X#X#X*.$.$.;.W S.G.S.4.4.4.5.5.5.5.g & < S S D M M fXfXfXfXfXfXfXfXfXfXfXfXfXfXfXfXfXfXfXfX",
"fXfXfXfXfXfXfXfXfXfXfXfXfXfXfXfXfXfXfXfX4.4.8.:.>.u & t.6X5XOXOX9XqX0Xt.W 3.:.>.,.W y.[.{. X4X5.$ 5 l.z.d.M M fXfXfXfXfXfXfXfXfXfXfXfXfXfXfXfXfXfXfXfX",
"fXfXfXfXfXfXfXfXfXfXfXfXfXfXfXfXfXfXfXfX4.4.8.9.9.y & t.6X5XOXOX9XuX0XU.6.w.9.8.6.6.y.].].`.`.4.3 S x.x.g.F F fXfXfXfXfXfXfXfXfXfXfXfXfXfXfXfXfXfXfXfX",
"fXfXfXfXfXfXfXfXfXfXfXfXfXfXfXfXfXfXfXfXfXfX4.4.2.2 & u.yXrX@X+XuXsXsX4X].L.2.7.!.!.`.~.!.d * ( N.N.N.Z.M.b.f.F M fXfXfXfXfXfXfXfXfXfXfXfXfXfXfXfXfXfX",
"fXfXfXfXfXfXfXfXfXfXfXfXfXfXfXfXfXfXfXfXfXfX4.4._ 2 X u.yXrX@X+XuXsXsX3X{.L.~ 6.!.!.!.`.E.i # ( Z.Z.Z.Z.B.l.k.F M fXfXfXfXfXfXfXfXfXfXfXfXfXfXfXfXfXfX",
"fXfXfXfXfXfXfXfXfXfXfXfXfXfXfXfXfXfXfXfXe e z P P = # ' ].4X1X1X5X3X3X4X{.E.0.3.f g g g g ; & J c.M.N.Z.N.B.B.d.d.i.M M fXfXfXfXfXfXfXfXfXfXfXfXfXfXfX",
"fXfXfXfXfXfXfXfXfXfXfXfXfXfXfXfXfXfXfXfXw e e e e : & Q `.(.2X X X X[.[.{.E.e.1.& & & & & & $ D z.x.N.Z.Z.Z.N.x.l.i.M N fXfXfXfXfXfXfXfXfXfXfXfXfXfXfX",
"fXfXfXfXfXfXfXfXfXfXfXfXfXfXfXfXfXfXfXfXe e e e e : & E !.`..X4X X[.[.].].E.e.1.= & & & & & & D k.x.N.Z.N.Z.N.x.k.G N M fXfXfXfXfXfXfXfXfXfXfXfXfXfXfX",
"fXfXfXfXfXfXfXfXfXfXfXfXfXfXfXe e e w [ +.+.XXXXXXl h 8 8 L _._._._.`./ d i y y b b x 1 4 4 1 b F i.x.x.M.Z.N.x.l.i.M N fXfXfXfXfXfXfXfXfXfXfXfXfXfXfX",
"fXfXfXfXfXfXfXfXfXfXfXfXfXfXfXe e w w e #.#.#X=X=XI d =   8 !._._._.!.h X & & < M N b > 6 > > x M F l.l.c.Z.Z.x.l.i.M M fXfXfXfXfXfXfXfXfXfXfXfXfXfXfX",
"fXfXfXfXfXfXfXfXfXfXfXfXfXfXfXe w | &X=. .I ......E Y K s L ~ 4.,.2.4.X. .{ e P C V V v x x x m n n G D G a.a.f.l.G x x fXfXfXfXfXfXfXfXfXfXfXfXfXfXfX",
"fXfXfXfXfXfXfXfXfXfXfXfXfXfXfXe w =.wX,Xl i a a a Q <.5.5.E ; * * * = XX=XXXO.o.V V V N B N M n Z q 4 4 v B N f.z.D > 4 fXfXfXfXfXfXfXfXfXfXfXfXfXfXfX",
"fXfXfXfXfXfXfXfXfXfXfXfXfXfXfXe w -.wX:Xf a f f f Q 4.W E T j 8 j p k &X;X&XXX-.C C C B B ( ( U e w 4 4 v N N p.p.M 4 6 fXfXfXfXfXfXfXfXfXfXfXfXfXfXfX",
"fXfXfXfXfXfXfXfXfXfXfXfXfXfXfXe w +.=X#Xg d E ~ ~ 4.4.A 6 n #X=X=X#X=XiXsXiXwX>X#.@.o.M B $X&XO.w e fXfXfXfXfX6 5 fXfXfXfXfXfXfXfXfXfXfXfXfXfXfXfXfXfX",
"fXfXfXfXfXfXfXfXfXfXfXfXfXfXfXe w +.=X#Xg i E 4.4.4.4.A > n %X=X=X=X=XpXaXpXwX>X&.#.| M B $X=XO.w e fXfXfXfXfX4 4 fXfXfXfXfXfXfXfXfXfXfXfXfXfXfXfXfXfX",
"fXfXfXfXfXfXfXfXfXfXfXfXfXfXfXe w +.oXXXX.I / Q E _ 1.A > n *.=.=.=.XX,XeXeXuX7X&.@.o.N B XXoX+.w e fXfXfXfXfX6 6 fXfXfXfXfXfXfXfXfXfXfXfXfXfXfXfXfXfX",
"fXfXfXfXfXfXfXfXfXfXfXfXfXfXfXe w { @.&.%X=XI a g Q 4.A 4 5 d d d d d d a <XaXiX&.O.o.N B o.#.} w e fXfXfXfXfXfXfXfXfXfXfXfXfXfXfXfXfXfXfXfXfXfXfXfXfX",
"fXfXfXfXfXfXfXfXfXfXfXfXfXfXfXe w { &.&.%X=XI d a E ~ A 6 5 d d d f d d d <XsXeX%.%.o.N B o.&.} w e fXfXfXfXfXfXfXfXfXfXfXfXfXfXfXfXfXfXfXfXfXfXfXfXfX",
"fXfXfXfXfXfXfXfXfXfXfXfXfXfXfXe w +.%XoX*.&.l d g 7 c 7 a i - - Y Q Q f i g L K n.n.j.M N XX%X+.w e fXfXfXfXfXfXfXfXfXfXfXfXfXfXfXfXfXfXfXfXfXfXfXfXfX",
"fXfXfXfXfXfXfXfXfXfXfXfXfXfXfXe w +.=X%X#.@.l g a 5 > 7 a u - - Y 4.<.f a 2 * 7 l.l.d.N B *X=XO.w e fXfXfXfXfXfXfXfXfXfXfXfXfXfXfXfXfXfXfXfXfXfXfXfXfX",
"fXfXfXfXfXfXfXfXfXfXfXfXfXfXfXfXfX} O.@.XXXXI d g 5 > A w.1.- - / <.<.f d y * h l.l.d.M B | O.} fXfXfXfXfXfXfXfXfXfXfXfXfXfXfXfXfXfXfXfXfXfXfXfXfXfXfX",
"fXfXfXfXfXfXfXfXfXfXfXfXfXfXfXfXfXfXw { $X=X! a a 5 > ` (.T.2 - Y ,.,.f i y * 7 k.l.p.M M Z w fXfXfXfXfXfXfXfXfXfXfXfXfXfXfXfXfXfXfXfXfXfXfXfXfXfXfXfX",
"fXfXfXfXfXfXfXfXfXfXfXfXfXfXfXfXfXfXw { =X;X..I I 9 5 ) P.w.< - ,.r.r.Q / d * 7 h.h.j.D b q e fXfXfXfXfXfXfXfXfXfXfXfXfXfXfXfXfXfXfXfXfXfXfXfXfXfXfXfX",
"fXfXfXfXfXfXfXfXfXfXfXfXfXfXfXfXfXfXq } 8XwX;X%X%XI i 7 6 5 ; - R.].].).!.,.* y W 2.E d d r e fXfXfXfXfXfXfXfXfXfXfXfXfXfXfXfXfXfXfXfXfXfXfXfXfXfXfXfX",
"fXfXfXfXfXfXfXfXfXfXfXfXfXfXfXfXfXfXe } 8XwX;X%X=XI d 7 4 4 * - R.4X4X_._.<.* 2 ,.4.E d d z e fXfXfXfXfXfXfXfXfXfXfXfXfXfXfXfXfXfXfXfXfXfXfXfXfXfXfXfX",
"fXfXfXfXfXfXfXfXfXfXfXfXfXfXfXfXfXfXw } -X-X&XoXoXl d 7 6 4 < < 6.R.L.y.y.R 1 h ) ) R 7 p q e fXfXfXfXfXfXfXfXfXfXfXfXfXfXfXfXfXfXfXfXfXfXfXfXfXfXfXfX",
"fXfXfXfXfXfXfXfXfXfXfXfXfXfXfXfXfXfXfXfXe e | &.#.l d 7 4 4 > 6 - % ; % * 7 N N M M b 4 6 fXfXfXfXfXfXfXfXfXfXfXfXfXfXfXfXfXfXfXfXfXfXfXfXfXfXfXfXfXfX",
"fXfXfXfXfXfXfXfXfXfXfXfXfXfXfXfXfXfXfXfXe r +.O.O.l d 9 c c c c < ; ; ; ; S H H H H B c c fXfXfXfXfXfXfXfXfXfXfXfXfXfXfXfXfXfXfXfXfXfXfXfXfXfXfXfXfXfX",
"fXfXfXfXfXfXfXfXfXfXfXfXfXfXfXfXfXfXfXfXfXfX[ [ [ , o ..,X>X>X>XZ o , *X>XeXtXtXtXtXeX>X:Xn o fXfXfXfXfXfXfXfXfXfXfXfXfXfXfXfXfXfXfXfXfXfXfXfXfXfXfXfX",
"fXfXfXfXfXfXfXfXfXfXfXfXfXfXfXfXfXfXfXfXfXfXe e w , o %.uXwXwXwXZ o , :XwXpXaXaXaXaXdXwXwXt o fXfXfXfXfXfXfXfXfXfXfXfXfXfXfXfXfXfXfXfXfXfXfXfXfXfXfXfX",
"fXfXfXfXfXfXfXfXfXfXfXfXfXfXfXfXfXfXfXfXfXfX@ @ @ 9 A ;.Y.I.u.u.P 3 3 } O.-.I.I.I.I.I.u.-.@ + fXfXfXfXfXfXfXfXfXfXfXfXfXfXfXfXfXfXfXfXfXfXfXfXfXfXfXfX",
"fXfXfXfXfXfXfXfXfXfXfXfXfXfXfXfXfXfXfXfXfXfX      T 1.2.<.Q d d a d d + O : a u i i i d i + O fXfXfXfXfXfXfXfXfXfXfXfXfXfXfXfXfXfXfXfXfXfXfXfXfXfXfXfX",
"fXfXfXfXfXfXfXfXfXfXfXfXfXfXfXfXfXfXfXfXfXfX      s T K T l 2 2 y y u 0 : s f f d d d d d + O fXfXfXfXfXfXfXfXfXfXfXfXfXfXfXfXfXfXfXfXfXfXfXfXfXfXfXfX",
"fXfXfXfXfXfXfXfXfXfXfXfXfXfXfXfXfXfXfXfXfXfX                    $ % % / ~ 4.4.Q d d d d d + O fXfXfXfXfXfXfXfXfXfXfXfXfXfXfXfXfXfXfXfXfXfXfXfXfXfXfXfX",
"fXfXfXfXfXfXfXfXfXfXfXfXfXfXfXfXfXfXfXfXfXfX                    $ % % E 4.4.4.W d s d d a + O fXfXfXfXfXfXfXfXfXfXfXfXfXfXfXfXfXfXfXfXfXfXfXfXfXfXfXfX",
"fXfXfXfXfXfXfXfXfXfXfXfXfXfXfXfXfXfXfXfXfXfXfX                  X $ $ s K L L g 2 2 2 2 2 + O fXfXfXfXfXfXfXfXfXfXfXfXfXfXfXfXfXfXfXfXfXfXfXfXfXfXfXfX",
"fXfXfXfXfXfXfXfXfXfXfXfXfXfXfXfXfXfXfXfXfXfXfXfXfXfXfXfXfXfXfXfX                          fXfXfXfXfXfXfXfXfXfXfXfXfXfXfXfXfXfXfXfXfXfXfXfXfXfXfXfXfXfX",
"fXfXfXfXfXfXfXfXfXfXfXfXfXfXfXfXfXfXfXfXfXfXfXfXfXfXfXfXfXfXfXfX                          fXfXfXfXfXfXfXfXfXfXfXfXfXfXfXfXfXfXfXfXfXfXfXfXfXfXfXfXfXfX",
"fXfXfXfXfXfXfXfXfXfXfXfXfXfXfXfXfXfXfXfXfXfXfXfXfXfXfXfXfXfXfXfXfXfXfXfXfXfXfXfXfXfXfXfXfXfXfXfXfXfXfXfXfXfXfXfXfXfXfXfXfXfXfXfXfXfXfXfXfXfXfXfXfXfXfX",
"fXfXfXfXfXfXfXfXfXfXfXfXfXfXfXfXfXfXfXfXfXfXfXfXfXfXfXfXfXfXfXfXfXfXfXfXfXfXfXfXfXfXfXfXfXfXfXfXfXfXfXfXfXfXfXfXfXfXfXfXfXfXfXfXfXfXfXfXfXfXfXfXfXfXfX",
"fXfXfXfXfXfXfXfXfXfXfXfXfXfXfXfXfXfXfXfXfXfXfXfXfXfXfXfXfXfXfXfXfXfXfXfXfXfXfXfXfXfXfXfXfXfXfXfXfXfXfXfXfXfXfXfXfXfXfXfXfXfXfXfXfXfXfXfXfXfXfXfXfXfXfX",
"fXfXfXfXfXfXfXfXfXfXfXfXfXfXfXfXfXfXfXfXfXfXfXfXfXfXfXfXfXfXfXfXfXfXfXfXfXfXfXfXfXfXfXfXfXfXfXfXfXfXfXfXfXfXfXfXfXfXfXfXfXfXfXfXfXfXfXfXfXfXfXfXfXfXfX",
"fXfXfXfXfXfXfXfXfXfXfXfXfXfXfXfXfXfXfXfXfXfXfXfXfXfXfXfXfXfXfXfXfXfXfXfXfXfXfXfXfXfXfXfXfXfXfXfXfXfXfXfXfXfXfXfXfXfXfXfXfXfXfXfXfXfXfXfXfXfXfXfXfXfXfX",
"fXfXfXfXfXfXfXfXfXfXfXfXfXfXfXfXfXfXfXfXfXfXfXfXfXfXfXfXfXfXfXfXfXfXfXfXfXfXfXfXfXfXfXfXfXfXfXfXfXfXfXfXfXfXfXfXfXfXfXfXfXfXfXfXfXfXfXfXfXfXfXfXfXfXfX",
"fXfXfXfXfXfXfXfXfXfXfXfXfXfXfXfXfXfXfXfXfXfXfXfXfXfXfXfXfXfXfXfXfXfXfXfXfXfXfXfXfXfXfXfXfXfXfXfXfXfXfXfXfXfXfXfXfXfXfXfXfXfXfXfXfXfXfXfXfXfXfXfXfXfXfX",
"fXfXfXfXfXfXfXfXfXfXfXfXfXfXfXfXfXfXfXfXfXfXfXfXfXfXfXfXfXfXfXfXfXfXfXfXfXfXfXfXfXfXfXfXfXfXfXfXfXfXfXfXfXfXfXfXfXfXfXfXfXfXfXfXfXfXfXfXfXfXfXfXfXfXfX",
"fXfXfXfXfXfXfXfXfXfXfXfXfXfXfXfXfXfXfXfXfXfXfXfXfXfXfXfXfXfXfXfXfXfXfXfXfXfXfXfXfXfXfXfXfXfXfXfXfXfXfXfXfXfXfXfXfXfXfXfXfXfXfXfXfXfXfXfXfXfXfXfXfXfXfX",
"fXfXfXfXfXfXfXfXfXfXfXfXfXfXfXfXfXfXfXfXfXfXfXfXfXfXfXfXfXfXfXfXfXfXfXfXfXfXfXfXfXfXfXfXfXfXfXfXfXfXfXfXfXfXfXfXfXfXfXfXfXfXfXfXfXfXfXfXfXfXfXfXfXfXfX"
};
