/* XPM */
static char *result[] = {
/* columns rows colors chars-per-pixel */
"75 75 221 2 ",
"   c #000000",
".  c #0A0807",
"X  c #0F1504",
"o  c #220E00",
"O  c #251202",
"+  c #2A1705",
"@  c #291D04",
"#  c #2D1C0D",
"$  c #0F2308",
"%  c #34280A",
"&  c #253704",
"*  c #332D08",
"=  c #282828",
"-  c #353536",
";  c #393939",
":  c #383937",
">  c #313129",
",  c #4A3519",
"<  c #472D0E",
"1  c #443C31",
"2  c #2A4602",
"3  c #335407",
"4  c #396602",
"5  c #3A6702",
"6  c #3F443F",
"7  c #4C4E14",
"8  c #437204",
"9  c #44740B",
"0  c #516C0F",
"q  c #68681E",
"w  c #5F4927",
"e  c #445238",
"r  c #4F4C37",
"t  c #614825",
"y  c #6E5528",
"u  c #7C5D31",
"i  c #6C5432",
"p  c #537431",
"a  c #79672A",
"s  c #7D7328",
"d  c #3E3E41",
"f  c #752D72",
"g  c #4A4A4E",
"h  c #5D5445",
"j  c #4A4A54",
"k  c #55555C",
"l  c #58555B",
"z  c #565044",
"x  c #645745",
"c  c #685E51",
"v  c #5F5F6D",
"b  c #575763",
"n  c #5C5E73",
"m  c #55597C",
"M  c #605F6C",
"N  c #61616E",
"B  c #6B6C6C",
"V  c #646473",
"C  c #6A6A7B",
"Z  c #676779",
"A  c #716E78",
"S  c #646962",
"D  c #BF171F",
"F  c #BD1923",
"G  c #BB1B29",
"H  c #B52837",
"J  c #A3203F",
"K  c #BF2C1D",
"L  c #C1171C",
"P  c #C1181E",
"I  c #C83723",
"U  c #B37B1E",
"Y  c #AE781F",
"T  c #805F32",
"R  c #8B652E",
"E  c #8F682C",
"W  c #976C29",
"Q  c #9D7028",
"!  c #826132",
"~  c #896537",
"^  c #916D38",
"/  c #99743B",
"(  c #81762C",
")  c #AA7724",
"_  c #B57D21",
"`  c #A57C39",
"'  c #AC2746",
"]  c #A72D54",
"[  c #A53457",
"{  c #963A76",
"}  c #9B2247",
"|  c #957141",
" . c #A45462",
".. c #9C4F6B",
"X. c #548609",
"o. c #5F910A",
"O. c #4B8113",
"+. c #589116",
"@. c #64970B",
"#. c #659818",
"$. c #658F17",
"%. c #6EA30E",
"&. c #71A60E",
"*. c #73AA0F",
"=. c #72AA17",
"-. c #6BA51A",
";. c #63A82B",
":. c #72B428",
">. c #72BA31",
",. c #71BD3C",
"<. c #6AAE36",
"1. c #5F9B2B",
"2. c #73C13E",
"3. c #75C440",
"4. c #BC891E",
"5. c #B58530",
"6. c #C9953A",
"7. c #DAAD2F",
"8. c #FCD439",
"9. c #AB8347",
"0. c #B38A47",
"q. c #B38A4E",
"w. c #968767",
"e. c #BB9F64",
"r. c #C99B48",
"t. c #C79852",
"y. c #D7A64B",
"u. c #CDA353",
"i. c #D9A858",
"p. c #DDBD5E",
"a. c #E3B459",
"s. c #E2B257",
"d. c #E1AB5F",
"f. c #D3AF6B",
"g. c #E6B76B",
"h. c #EAB776",
"j. c #F3BB77",
"k. c #CA9A60",
"l. c #E4C574",
"z. c #FBC27D",
"x. c #E4C26E",
"c. c #D6C37E",
"v. c #3F3EB0",
"b. c #443AA7",
"n. c #3348B4",
"m. c #3D52BD",
"M. c #3E4DAC",
"N. c #565B84",
"B. c #475397",
"V. c #545A95",
"C. c #6C5283",
"Z. c #5F6086",
"A. c #6F6F80",
"S. c #656785",
"D. c #737486",
"F. c #76768A",
"G. c #79798C",
"H. c #7F7689",
"J. c #7E7E94",
"K. c #73769B",
"L. c #636795",
"P. c #4356B8",
"I. c #4C57A6",
"U. c #7858BD",
"Y. c #5B67B0",
"T. c #767AA7",
"R. c #6E74B2",
"E. c #243FC6",
"W. c #1F3BC6",
"Q. c #2641C5",
"!. c #2A43C4",
"~. c #2844CA",
"^. c #3249CC",
"/. c #3952CF",
"(. c #4558C2",
"). c #4454D7",
"_. c #535FDD",
"`. c #7458C4",
"'. c #4E62C8",
"]. c #5666D3",
"[. c #6A6EDB",
"{. c #6B70DA",
"}. c #7579C6",
"|. c #525EE2",
" X c #5E6BF5",
".X c #5D65ED",
"XX c #656BE5",
"oX c #6269ED",
"OX c #6466E7",
"+X c #616AF1",
"@X c #933F81",
"#X c #8D779B",
"$X c #7E80B5",
"%X c #7B83EF",
"&X c #86869E",
"*X c #88859C",
"=X c #92929F",
"-X c #8687A2",
";X c #8A8AA2",
":X c #8D8EAB",
">X c #9A9AA7",
",X c #9D9CB4",
"<X c #8B88BD",
"1X c #A8A8B9",
"2X c #A1A1AC",
"3X c #BEA994",
"4X c #CFB28F",
"5X c #CAB8A2",
"6X c #F0D28C",
"7X c #FFEBAB",
"8X c #848AC4",
"9X c #848FD0",
"0X c #BBBBCD",
"qX c #B5B5C7",
"wX c #B4AFDE",
"eX c #AFDCEF",
"rX c #BAE1EF",
"tX c #C8C8D8",
"yX c #FFF0D5",
"uX c #F1F8FC",
"iX c None",
/* pixels */
"iXiXiXiXiXiXiXiXiXiXiXiXiXiXiXiXiXiXiXiXiXiXiXiXiXiXiXiXiXiXiXiXiXiXiXiXiXiXiXiXiXiXiXiXiXiXiXiXiXiXiXiXiXiXiXiXiXiXiXiXiXiXiXiXiXiXiXiXiXiXiXiXiXiXiX",
"iXiXiXiXiXiXiXiXiXiXiXiXiXiXiXiXiXiXiXiXiXiXiXiXiXiXiXiXiXiXiXiXiXiXiXiXiXiXiXiXiXiXiXiXiXiXiXiXiXiXiXiXiXiXiXiXiXiXiXiXiXiXiXiXiXiXiXiXiXiXiXiXiXiXiX",
"iXiXiXiXiXiXiXiXiXiXiXiXiXiXiXiXiXiXiXiXiXiXiXiXiXiXiXiXiXiXiXiXiXiXiXiXiXiXiXiXiXiXiXiXiXiXiXiXiXiXiXiXiXiXiXiXiXiXiXiXiXiXiXiXiXiXiXiXiXiXiXiXiXiXiX",
"iXiXiXiXiXiXiXiXiXiXiXiXiXiXiXiXiXiXiXiXiXiXiXiXiXiXiXiXiXiXiXiXiXiXiXiXiXiXiXiXiXiXiXiXiXiXiXiXiXiXiXiXiXiXiXiXiXiXiXiXiXiXiXiXiXiXiXiXiXiXiXiXiXiXiX",
"iXiXiXiXiXiXiXiXiXiXiXiXiXiXiXiXiXiXiXiXiXiXiXiXiXiXiXiXiXiXiXiXiXiXiXiXiXiXiXiXiXiXiXiXiXiXiXiXiXiXiXiXiXiXiXiXiXiXiXiXiXiXiXiXiXiXiXiXiXiXiXiXiXiXiX",
"iXiXiXiXiXiXiXiXiXiXiXiXiXiXiXiXiXiXiXiXiXiXiXiXiXiXiXiXiXiXiXiXiXiXiXiXiXiXiXiXiXiXiXiXiXiXiXiXiXiXiXiXiXiXiXiXiXiXiXiXiXiXiXiXiXiXiXiXiXiXiXiXiXiXiX",
"iXiXiXiXiXiXiXiXiXiXiXiXiXiXiXiXiXiXiXiXiXiXiXiXiXiXiXiXiXiXiXiXiXiXiXiXiXiXiXiXiXiXiXiXiXiXiXiXiXiXiXiXiXiXiXiXiXiXiXiXiXiXiXiXiXiXiXiXiXiXiXiXiXiXiX",
"iXiXiXiXiXiXiXiXiXiXiXiXiXiXiXiXiXiXiXiXiXiXiXiXiXiXiXiXiXiXiXiXiXiXiXiXiXiXiXiXiXiXiXiXiXiXiXiXiXiXiXiXiXiXiXiXiXiXiXiXiXiXiXiXiXiXiXiXiXiXiXiXiXiXiX",
"iXiXiXiXiXiXiXiXiXiXiXiXiXiXiXiXiXiXiXiXiXiXiXiXiXiXiXiXiXiXiXiXiXiXiXiXiXiXiXiXiXiXiXiXiXiXiXiXiXiXiXiXiXiXiXiXiXiXiXiXiXiXiXiXiXiXiXiXiXiXiXiXiXiXiX",
"iXiXiXiXiXiXiXiXiXiXiXiXiXiXiXiXiXiXiXiXiXiXiXiXiXiXiXiXiXiXiXiXiXiXiXiXiXiXiXiXiXiXiXiXiXiXiXiXiXiXiXiXiXiXiXiXiXiXiXiXiXiXiXiXiXiXiXiXiXiXiXiXiXiXiX",
"iXiXiXiXiXiXiXiXiXiXiXiXiXiXiXiXiXiXiXiXiXiXiXiXiXiXiXiXiXiXiXiX5 5 5 5 4 4 5 4 5 5 5 5 5 iXiXiXiXiXiXiXiXiXiXiXiXiXiXiXiXiXiXiXiXiXiXiXiXiXiXiXiXiXiX",
"iXiXiXiXiXiXiXiXiXiXiXiXiXiXiXiXiXiXiXiXiXiXiXiXiXiXiXiXiXiXiXiX4 5 5 5 4 4 4 4 4 4 5 5 5 iXiXiXiXiXiXiXiXiXiXiXiXiXiXiXiXiXiXiXiXiXiXiXiXiXiXiXiXiXiX",
"iXiXiXiXiXiXiXiXiXiXiXiXiXiXiXiXiXiXiXiXiXiXiXiXiXiXiXiXiXiX5 5 1.;.;.1.;.+.@.@.o.o.@.o.o.a ~ u ! ! iXiXiXiXiXiXiXiXiXiXiXiXiXiXiXiXiXiXiXiXiXiXiXiXiX",
"iXiXiXiXiXiXiXiXiXiXiXiXiXiXiXiXiXiXiXiXiXiXiXiXiXiXiXiXiXiX5 5 <.3.3.3.3.:.*.*.&.&.&.&.&.a u u ! ! iXiXiXiXiXiXiXiXiXiXiXiXiXiXiXiXiXiXiXiXiXiXiXiXiX",
"iXiXiXiXiXiXiXiXiXiXiXiXiXiXiXiXiXiXiXiXiXiXiXiXiXiXiXiXiXiX4 4 ;.3.,.2.2.:.*.*.%.&.&.%.&.a u u ! ~ iXiXiXiXiXiXiXiXiXiXiXiXiXiXiXiXiXiXiXiXiXiXiXiXiX",
"iXiXiXiXiXiXiXiXiXiXiXiXiXiXiXiXiXiXiXiXiXiXiXiXiXiXiXiX5 5 ;.;.,.,.,.<.=.+.8 9 s s s s ( f.f.f.u.0.! ! ~ iXiXiXiXiXiXiXiXiXiXiXiXiXiXiXiXiXiXiXiXiXiX",
"iXiXiXiXiXiXiXiXiXiXiXiXiXiXiXiXiXiXiXiXiXiXiXiXiXiXiXiX5 9 ,.3.2.3.,.=.*.X.3 0 u u u T ^ 4X6Xl.s.r.u ! u iXiXiXiXiXiXiXiXiXiXiXiXiXiXiXiXiXiXiXiXiXiX",
"iXiXiXiXiXiXiXiXiXiXiXiXiXiXiXiXiXiXiXiXiXiXiXiXiXiXiXiX5 9 ,.2.>.:.:.o.o.0 0 q 9.5.` W Q p.l.x.x.p.9.9.` iXiXiXiXiXiXiXiXiXiXiXiXiXiXiXiXiXiXiXiXiXiX",
"iXiXiXiXiXiXiXiXiXiXiXiXiXiXiXiXiXiXiXiXiXiXiXiXiXiXiXiX4 9 2.2.=.&.%.8 4 q T / s.a.y.U 4.u.s.l.6Xl.s.s.t.u ! iXiXiXiXiXiXiXiXiXiXiXiXiXiXiXiXiXiXiXiX",
"iXiXiXiXiXiXiXiXiXiXiXiXiXiXiXiXiXiXiXiXiXiXiXiXiXiXiX5 9 O.,.2.-.@.@.0 4 q R ^ y.i.r.Y 4.y.y.g.6Xl.s.y.r.R R iXiXiXiXiXiXiXiXiXiXiXiXiXiXiXiXiXiXiXiX",
"iXiXiXiXiXiXiXiXiXiXiXiXiXiXiXiXiXiXiXiXiXiXiXiXiX5 4 +.,.,.2.2.O.5 8 a a W _ _ 4._ _ U U _ _ r.p.u.U U U U ) R ! iXiXiXiXiXiXiXiXiXiXiXiXiXiXiXiXiXiX",
"iXiXiXiXiXiXiXiXiXiXiXiXiXiXiXiXiXiXiXiXiXiXiXiXiX5 4 +.2.2.2.3.9 5 4 a u W U _ ) U U U U U U 6.p.y.U U U U U R ! iXiXiXiXiXiXiXiXiXiXiXiXiXiXiXiXiXiX",
"iXiXiXiXiXiXiXiXiXiXiXiXiXiXiXiXiXiXiXiXiXiXiXiXiX5 4 X.=.-.O.9 3 2 2 y T 5.y.r.E E W U U W E ` 6.5.E E ` y.r.E ! iXiXiXiXiXiXiXiXiXiXiXiXiXiXiXiXiXiX",
"iXiXiXiXiXiXiXiXiXiXiXiXiXiXiXiXiXiXiXiXiXiXiXiXiX5 4 X.*.@.5 4 2 & & y u 0.s.u.~ ! E U U R T W U ) a u ` s.i.^ ! iXiXiXiXiXiXiXiXiXiXiXiXiXiXiXiXiXiX",
"iXiXiXiXiXiXiXiXiXiXiXiXiXiXiXiXiXiXiXiXiXiXiXiXiX4 4 X.&.@.8 5 2 & & y T 0.s.u.~ a E U ) E T Q _ ) T u / s.i.^ ! iXiXiXiXiXiXiXiXiXiXiXiXiXiXiXiXiXiX",
"iXiXiXiXiXiXiXiXiXiXiXiXiXiXiXiXiXiXiXiXiXiX4 4 4 * @ * * < @ @ @ X @ y ! 0.s.t.u ~ i % % 9.t.u.h.q.# # w s.s.^ ! iXiXiXiXiXiXiXiXiXiXiXiXiXiXiXiXiXiX",
"iXiXiXiXiXiXiXiXiXiXiXiXiXiXiXiXiXiXiXiXiXiX4 5 4 @ O O O O o o O o O y ! 0.a.u.~ u t . o q.d.g.j.k.X . , a.i.^ ! iXiXiXiXiXiXiXiXiXiXiXiXiXiXiXiXiXiX",
"iXiXiXiXiXiXiXiXiXiXiXiXiXiXiXiXiXiXiXiXiXiX4 5 5 7 8 * O % T ~ ! ~ ~ u ! ` 6.6.~ ~ u Z.Z G.#X4X6Xk.O X , 6.6.R u iXiXiXiXiXiXiXiXiXiXiXiXiXiXiXiXiXiX",
"iXiXiXiXiXiXiXiXiXiXiXiXiXiXiXiXiXiXiXiXiXiX5 4 5 @.*.0 o , 6Xj.z.z.j.| u Q U Y T T | rXeX/.W.,X7X4X@ O < U U R ! iXiXiXiXiXiXiXiXiXiXiXiXiXiXiXiXiXiX",
"iXiXiXiXiXiXiXiXiXiXiXiXiXiXiXiXiXiXiXiXiXiX8 8 5 %.=.0 % 7 k.k.h.j.j.^ i E Q Q | ^ w.rXeX_.~.,X7X4X@ O < ) Y R ! iXiXiXiXiXiXiXiXiXiXiXiXiXiXiXiXiXiX",
"iXiXiXiXiXiXiXiXiXiXiXiXiXiXiXiXiXiXiXiX5 5 o.%.*.>.2.,.,.1.% # 9.d.k.h ; ; : i h.h.6XuXuX%X.XwXyX5X+ O % ~ ! iXiXiXiXiXiXiXiXiXiXiXiXiXiXiXiXiXiXiXiX",
"iXiXiXiXiXiXiXiXiXiXiXiXiXiXiXiXiXiXiXiX5 5 @.&.*.>.3.2.2.1.# + ` d.i.z - ; - h h.6X6XuXuX%X.XwXyX5X+ O < ! ! iXiXiXiXiXiXiXiXiXiXiXiXiXiXiXiXiXiXiXiX",
"iXiXiXiXiXiXiXiXiXiXiXiXiXiXiXiXiXiX4 8 o.@.:.>.>.,.,.:.=.$.> > z x x l b V D.A c x c B B 3X5X4Xz.e.O O # iXiXiXiXiXiXiXiXiXiXiXiXiXiXiXiXiXiXiXiXiXiX",
"iXiXiXiXiXiXiXiXiXiXiXiXiXiXiXiXiXiX4 8 %.&.>.3.,.3.,.:.&.$.e ; - - - b v D.;XF.- - - - d f.6Xg.i.0.+ O O iXiXiXiXiXiXiXiXiXiXiXiXiXiXiXiXiXiXiXiXiXiX",
"iXiXiXiXiXiXiXiXiXiXiXiXiXiXiXiXiXiX5 8 %.&.>.2.3.,.,.:.%.$.; ; d ; ; v V F.:XF.d ; ; - d f.6Xg.d.9.+ O + iXiXiXiXiXiXiXiXiXiXiXiXiXiXiXiXiXiXiXiXiXiX",
"iXiXiXiXiXiXiXiXiXiXiXiXiXiXiXiXiXiX5 5 %.&.>.3.,.p e e e e b b S.F.G.1XqXqXqXqXG.G.A.b b h x h z r iXiXiXiXiXiXiXiXiXiXiXiXiXiXiXiXiXiXiXiXiXiXiXiXiX",
"iXiXiXiXiXiXiXiXiXiXiXiXiXiXiXiXiXiX5 8 %.&.>.3.2.e - - - ; v n #X;X;X0XtXtXtX0X;X;X#Xn v ; - - - - iXiXiXiXiXiXiXiXiXiXiXiXiXiXiXiXiXiXiXiXiXiXiXiXiX",
"iXiXiXiXiXiXiXiXiXiXiXiXiXiXiXiXiXiX2 3 p 0 p p p k j b v n B.B.R.}.}.:X>X=X>X:X}.}.R.B.B.n M l j g ; iXiXiXiXiXiXiXiXiXiXiXiXiXiXiXiXiXiXiXiXiXiXiXiX",
"iXiXiXiXiXiXiXiXiXiXiXiXiXiXiXiXiXiX& & - : - - - k N D.=XT.!.~.|. XoXZ.M V v N.oX+X|.!.~.T.=XD.N b - > : : ; iXiXiXiXiXiXiXiXiXiXiXiXiXiXiXiXiXiXiXiX",
"iXiXiXiXiXiXiXiXiXiXiXiXiXiXiXiXiXiX& & - : g k k m N.L.T.R.n.n.].[.[.V.N.N.Z.L.{.{.].n.n.R.T.L.N.m k k g ; ; iXiXiXiXiXiXiXiXiXiXiXiXiXiXiXiXiXiXiXiX",
"iXiXiXiXiXiXiXiXiXiXiXiXiXiXiXiXiXiXiXiX; ; >XtXtX'.Q.!.!.n.n n J.-X-Xm.Q.).oX[.-X-XJ.n m n.!.!.!.'.0XtX>X- ; iXiXiXiXiXiXiXiXiXiXiXiXiXiXiXiXiXiXiXiX",
"iXiXiXiXiXiXiXiXiXiXiXiXiXiXiXiXiXiXiXiX; ; 2XtXtX'.E.Q.Q.n.n v J.-X*X^.Q.). X[.-X-X$Xv n n.E.E.E.'.tXtX2X: ; iXiXiXiXiXiXiXiXiXiXiXiXiXiXiXiXiXiXiXiX",
"iXiXiXiXiXiXiXiXiXiXiXiXiXiXiXiXiXiXiXiX; ; >XqXqX(.~.^././.Z C T.$X$XV.V.R.<X<X$X$XJ.Z S.P./.^.Q.(.qX0X=X: ; iXiXiXiXiXiXiXiXiXiXiXiXiXiXiXiXiXiXiXiX",
"iXiXiXiXiXiXiXiXiXiXiXiXiXiXiXiXiXiXiXiX; ; A.;X-Xm.E.).+X[.-X&X{.+XXXq.4.7.8.p.XXoX{.&X-X[.oX).~.P.&X;XD.; ; iXiXiXiXiXiXiXiXiXiXiXiXiXiXiXiXiXiXiXiX",
"iXiXiXiXiXiXiXiXiXiXiXiXiXiXiXiXiXiXiXiX; ; C -X&Xm.!./.XX[.&X#X{.oXXX9.4.7.8.a.XXoX{.*X*X{.XX).!.P.-X-XA.; ; iXiXiXiXiXiXiXiXiXiXiXiXiXiXiXiXiXiXiXiX",
"iXiXiXiXiXiXiXiXiXiXiXiXiXiXiXiXiXiXiXiX; : b C V K.T...' ' H H `.oXXX] K I I [ XX XU.H H H ' { T.K.Z Z b ; ; iXiXiXiXiXiXiXiXiXiXiXiXiXiXiXiXiXiXiXiX",
"iXiXiXiXiXiXiXiXiXiXiXiXiXiXiXiXiXiXiXiX; ; k N n #X;X .L L D F U. X+X] L D D ] oX XU.P F L L  .;XJ.v n k ; ; iXiXiXiXiXiXiXiXiXiXiXiXiXiXiXiXiXiXiXiX",
"iXiXiXiXiXiXiXiXiXiXiXiXiXiXiXiXiXiXiXiX; ; V F.H.D.D.V f f F F [ @X{ H L F D G { @X{ L G f f Z D.D.F.F.V : ; iXiXiXiXiXiXiXiXiXiXiXiXiXiXiXiXiXiXiXiX",
"iXiXiXiXiXiXiXiXiXiXiXiXiXiXiXiXiXiXiXiX; ; D.;X;XC v B.E.M.F D D D L L P D P P D D D L F v.~.B.v C ;X;XD.: ; iXiXiXiXiXiXiXiXiXiXiXiXiXiXiXiXiXiXiXiX",
"iXiXiXiXiXiXiXiXiXiXiXiXiXiXiXiXiXiXiXiX; - V F.D.C C B.Q.v.] ] G D D J } ' ] ' D D G ] ] v.~.B.Z C D.F.V ; ; iXiXiXiXiXiXiXiXiXiXiXiXiXiXiXiXiXiXiXiX",
"iXiXiXiXiXiXiXiXiXiXiXiXiXiXiXiXiXiXiXiXiXiX; ; ; D.;XY.Q.^.oXoX] D G b.Q.).oX`.F D ] XX.X^.Q.Y.;XD.; ; ; iXiXiXiXiXiXiXiXiXiXiXiXiXiXiXiXiXiXiXiXiXiX",
"iXiXiXiXiXiXiXiXiXiXiXiXiXiXiXiXiXiXiXiXiXiX; : ; D.;XY.Q.^.oXoX] L F b.~.).+X`.F L ] oX.X^.Q.Y.&XF.; ; : iXiXiXiXiXiXiXiXiXiXiXiXiXiXiXiXiXiXiXiXiXiX",
"iXiXiXiXiXiXiXiXiXiXiXiXiXiXiXiXiXiXiXiXiXiX: : ; *X1XR.P.(._._.{ [ [ C.V.R.<X#X[ [ @X|._.(.P.R.2X*X; ; ; iXiXiXiXiXiXiXiXiXiXiXiXiXiXiXiXiXiXiXiXiXiX",
"iXiXiXiXiXiXiXiXiXiXiXiXiXiXiXiXiXiXiXiXiXiX- : ; 2XtX1X*X$X!.!.|.oX X9.4.7.8.p.XX+X|.!.!.T.*XqXtX2X; : ; iXiXiXiXiXiXiXiXiXiXiXiXiXiXiXiXiXiXiXiXiXiX",
"iXiXiXiXiXiXiXiXiXiXiXiXiXiXiXiXiXiXiXiXiXiX; : ; 2XtX1X&XK.!.!._.XXOX9.5.7.8.p.XXXX_.!.!.T.*X1XtX2X: - - iXiXiXiXiXiXiXiXiXiXiXiXiXiXiXiXiXiXiXiXiXiX",
"iXiXiXiXiXiXiXiXiXiXiXiXiXiXiXiXiXiXiXiXiXiXiXiXiXj g l V Z.!.!.V.Z.Z.M.M.M.P.I.S.N.V.!.!.N.V b g 6 $ $ $ iXiXiXiXiXiXiXiXiXiXiXiXiXiXiXiXiXiXiXiXiXiX",
"iXiXiXiXiXiXiXiXiXiXiXiXiXiXiXiXiXiXiXiXiXiXiXiXiX: - g N m !.Q.N.v n n.E.Q.E.n.n N N.!.!.N.n g - = X $ X iXiXiXiXiXiXiXiXiXiXiXiXiXiXiXiXiXiXiXiXiXiX",
"iXiXiXiXiXiXiXiXiXiXiXiXiXiXiXiXiXiXiXiXiXiXiXiXiXiXiXg g j B.B.S.D.G.8X9X9X%X$XF.G.S.B.B.j g z i r 7 7 *     iXiXiXiXiXiXiXiXiXiXiXiXiXiXiXiXiXiXiXiX",
"iXiXiXiXiXiXiXiXiXiXiXiXiXiXiXiXiXiXiXiXiXiXiXiXiXiXiXiX: d v N $X&X=X0XtXtXtX0X;X;XJ.V M d - t ! ! ! ~ t .   iXiXiXiXiXiXiXiXiXiXiXiXiXiXiXiXiXiXiXiX",
"iXiXiXiXiXiXiXiXiXiXiXiXiXiXiXiXiXiXiXiXiXiXiXiXiXiXiXiX: d k b B D.D.1X0X0X0X1XD.D.C b k - = 1 w w w w ,     iXiXiXiXiXiXiXiXiXiXiXiXiXiXiXiXiXiXiXiX",
"iXiXiXiXiXiXiXiXiXiXiXiXiXiXiXiXiXiXiXiXiXiXiXiXiXiXiXiXiXiX; ; ; ; d G.=X&X;XG.; ; ; ; ; .                   iXiXiXiXiXiXiXiXiXiXiXiXiXiXiXiXiXiXiXiX",
"iXiXiXiXiXiXiXiXiXiXiXiXiXiXiXiXiXiXiXiXiXiXiXiXiXiXiXiXiXiX; : ; ; ; G.=X&X*X$X; : ; ; : .                   iXiXiXiXiXiXiXiXiXiXiXiXiXiXiXiXiXiXiXiX",
"iXiXiXiXiXiXiXiXiXiXiXiXiXiXiXiXiXiXiXiXiXiXiXiXiXiXiXiXiXiX; : = = = v A.C B S = = = = = .                   iXiXiXiXiXiXiXiXiXiXiXiXiXiXiXiXiXiXiXiX",
"iXiXiXiXiXiXiXiXiXiXiXiXiXiXiXiXiXiXiXiXiXiXiXiXiXiXiXiXiXiXiXiX      > ; - : =           iXiXiXiXiXiXiXiXiXiXiXiXiXiXiXiXiXiXiXiXiXiXiXiXiXiXiXiXiXiX",
"iXiXiXiXiXiXiXiXiXiXiXiXiXiXiXiXiXiXiXiXiXiXiXiXiXiXiXiXiXiXiXiX      > - ; ; >           iXiXiXiXiXiXiXiXiXiXiXiXiXiXiXiXiXiXiXiXiXiXiXiXiXiXiXiXiXiX",
"iXiXiXiXiXiXiXiXiXiXiXiXiXiXiXiXiXiXiXiXiXiXiXiXiXiXiXiXiXiXiXiXiXiXiXiXiXiXiXiXiXiXiXiXiXiXiXiXiXiXiXiXiXiXiXiXiXiXiXiXiXiXiXiXiXiXiXiXiXiXiXiXiXiXiX",
"iXiXiXiXiXiXiXiXiXiXiXiXiXiXiXiXiXiXiXiXiXiXiXiXiXiXiXiXiXiXiXiXiXiXiXiXiXiXiXiXiXiXiXiXiXiXiXiXiXiXiXiXiXiXiXiXiXiXiXiXiXiXiXiXiXiXiXiXiXiXiXiXiXiXiX",
"iXiXiXiXiXiXiXiXiXiXiXiXiXiXiXiXiXiXiXiXiXiXiXiXiXiXiXiXiXiXiXiXiXiXiXiXiXiXiXiXiXiXiXiXiXiXiXiXiXiXiXiXiXiXiXiXiXiXiXiXiXiXiXiXiXiXiXiXiXiXiXiXiXiXiX",
"iXiXiXiXiXiXiXiXiXiXiXiXiXiXiXiXiXiXiXiXiXiXiXiXiXiXiXiXiXiXiXiXiXiXiXiXiXiXiXiXiXiXiXiXiXiXiXiXiXiXiXiXiXiXiXiXiXiXiXiXiXiXiXiXiXiXiXiXiXiXiXiXiXiXiX",
"iXiXiXiXiXiXiXiXiXiXiXiXiXiXiXiXiXiXiXiXiXiXiXiXiXiXiXiXiXiXiXiXiXiXiXiXiXiXiXiXiXiXiXiXiXiXiXiXiXiXiXiXiXiXiXiXiXiXiXiXiXiXiXiXiXiXiXiXiXiXiXiXiXiXiX",
"iXiXiXiXiXiXiXiXiXiXiXiXiXiXiXiXiXiXiXiXiXiXiXiXiXiXiXiXiXiXiXiXiXiXiXiXiXiXiXiXiXiXiXiXiXiXiXiXiXiXiXiXiXiXiXiXiXiXiXiXiXiXiXiXiXiXiXiXiXiXiXiXiXiXiX",
"iXiXiXiXiXiXiXiXiXiXiXiXiXiXiXiXiXiXiXiXiXiXiXiXiXiXiXiXiXiXiXiXiXiXiXiXiXiXiXiXiXiXiXiXiXiXiXiXiXiXiXiXiXiXiXiXiXiXiXiXiXiXiXiXiXiXiXiXiXiXiXiXiXiXiX",
"iXiXiXiXiXiXiXiXiXiXiXiXiXiXiXiXiXiXiXiXiXiXiXiXiXiXiXiXiXiXiXiXiXiXiXiXiXiXiXiXiXiXiXiXiXiXiXiXiXiXiXiXiXiXiXiXiXiXiXiXiXiXiXiXiXiXiXiXiXiXiXiXiXiXiX",
"iXiXiXiXiXiXiXiXiXiXiXiXiXiXiXiXiXiXiXiXiXiXiXiXiXiXiXiXiXiXiXiXiXiXiXiXiXiXiXiXiXiXiXiXiXiXiXiXiXiXiXiXiXiXiXiXiXiXiXiXiXiXiXiXiXiXiXiXiXiXiXiXiXiXiX",
"iXiXiXiXiXiXiXiXiXiXiXiXiXiXiXiXiXiXiXiXiXiXiXiXiXiXiXiXiXiXiXiXiXiXiXiXiXiXiXiXiXiXiXiXiXiXiXiXiXiXiXiXiXiXiXiXiXiXiXiXiXiXiXiXiXiXiXiXiXiXiXiXiXiXiX"
};
