/* XPM */
static char *result[] = {
/* columns rows colors chars-per-pixel */
"75 75 207 2 ",
"   c #010100",
".  c #0A0602",
"X  c #0E0A05",
"o  c #100C06",
"O  c #190F06",
"+  c #1B1108",
"@  c #271403",
"#  c #2C1602",
"$  c #281B02",
"%  c #301700",
"&  c #321901",
"*  c #3A1F06",
"=  c #1A2A02",
"-  c #1F3400",
";  c #252402",
":  c #292402",
">  c #3C230C",
",  c #382506",
"<  c #223601",
"1  c #243902",
"2  c #2A3E0A",
"3  c #2A3C08",
"4  c #3A350A",
"5  c #3B2511",
"6  c #372212",
"7  c #363636",
"8  c #383838",
"9  c #393735",
"0  c #46290E",
"q  c #492C0F",
"w  c #42250A",
"e  c #48320F",
"r  c #422911",
"t  c #4C2E12",
"y  c #412A17",
"u  c #502F13",
"i  c #4E3113",
"p  c #4C3319",
"a  c #513215",
"s  c #52351B",
"d  c #5A3B1A",
"f  c #563917",
"g  c #4B382B",
"h  c #553C28",
"j  c #274001",
"k  c #294403",
"l  c #2D4B02",
"z  c #2D420F",
"x  c #314C04",
"c  c #374506",
"v  c #355202",
"b  c #345B02",
"n  c #38580A",
"m  c #34570C",
"M  c #376301",
"N  c #396601",
"B  c #3B6902",
"V  c #3D4D2B",
"C  c #4E450E",
"Z  c #405C06",
"A  c #5B5413",
"S  c #4C4B17",
"D  c #61421E",
"F  c #416D04",
"G  c #4A6F08",
"H  c #436607",
"J  c #447204",
"K  c #487805",
"L  c #42740A",
"P  c #4E7908",
"I  c #4E7D14",
"U  c #616713",
"Y  c #53422C",
"T  c #43562A",
"R  c #5A5B20",
"E  c #5A5720",
"W  c #594535",
"Q  c #465537",
"!  c #4C472A",
"~  c #654521",
"^  c #6B4B24",
"/  c #694722",
"(  c #75552A",
")  c #77582D",
"_  c #7A5A2E",
"`  c #76532A",
"'  c #634C3A",
"]  c #6F573F",
"[  c #7F5F31",
"{  c #635626",
"}  c #537322",
"|  c #7F7D36",
" . c #706F2D",
".. c #4A494E",
"X. c #434348",
"o. c #584B48",
"O. c #4D4D54",
"+. c #54535B",
"@. c #57545A",
"#. c #665B5B",
"$. c #644F44",
"%. c #555561",
"&. c #5A5A65",
"*. c #5D5D6C",
"=. c #5C5760",
"-. c #655E64",
";. c #666061",
":. c #676167",
">. c #706364",
",. c #626272",
"<. c #696979",
"1. c #736D7A",
"2. c #787779",
"3. c #805F31",
"4. c #826132",
"5. c #886638",
"6. c #916D3C",
"7. c #9A7245",
"8. c #A57C47",
"9. c #8C7E7D",
"0. c #558508",
"q. c #5A860B",
"w. c #5C8B0B",
"e. c #548508",
"r. c #5F910A",
"t. c #62950B",
"y. c #65990B",
"u. c #6A9E0D",
"i. c #669C11",
"p. c #709015",
"a. c #6EA20D",
"s. c #71A60E",
"d. c #73A90F",
"f. c #69A41A",
"g. c #71A610",
"h. c #71AA16",
"j. c #71AC19",
"k. c #4E8222",
"l. c #59952A",
"z. c #6B9F34",
"x. c #6D9725",
"c. c #5FA02F",
"v. c #72B325",
"b. c #72B62B",
"n. c #72B82F",
"m. c #65AB32",
"M. c #61A331",
"N. c #6FBA3A",
"B. c #6DB638",
"V. c #72BA32",
"C. c #72BF3A",
"Z. c #6EAC20",
"A. c #73C13E",
"S. c #6F835B",
"D. c #75C640",
"F. c #988344",
"G. c #AA8548",
"H. c #88917C",
"J. c #8DA07F",
"K. c #8CA56A",
"L. c #D19F5B",
"P. c #C6995F",
"I. c #CB9A61",
"U. c #D9A764",
"Y. c #CBA062",
"T. c #F9BF7D",
"R. c #E9B270",
"E. c #727284",
"W. c #7D798A",
"Q. c #777687",
"!. c #6F6F82",
"~. c #807C8D",
"^. c #84849B",
"/. c #8B8B9C",
"(. c #85849B",
"). c #918A8A",
"_. c #A4BA84",
"`. c #8B8BA3",
"'. c #8B8CA6",
"]. c #9798A4",
"[. c #9C9CB3",
"{. c #9EA3A6",
"}. c #AAA1A6",
"|. c #A4A5AA",
" X c #A8ACB2",
".X c #AEB1B7",
"XX c #BAB5B4",
"oX c #C2BFBA",
"OX c #B1CA8E",
"+X c #B2CC93",
"@X c #BEDA9A",
"#X c #FFCA83",
"$X c #C3C0BB",
"%X c #BABBC7",
"&X c #BCBCD0",
"*X c #BCC1C6",
"=X c #C8C8D7",
"-X c #CBCAC2",
";X c #CECDE1",
":X c #D0CFE4",
">X c #D7D9E6",
",X c #DDE3E5",
"<X c #E3E7EE",
"1X c #FBFFFF",
"2X c #F1F6F8",
"3X c #E5EAF0",
"4X c None",
/* pixels */
"4X4X4X4X4X4X4X4X4X4X4X4X4X4X4X4X4X4X4X4X4X4X4X4X4X4X4X4X4X4X4X4X4X4X4X4X4X4X4X4X4X4X4X4X4X4X4X4X4X4X4X4X4X4X4X4X4X4X4X4X4X4X4X4X4X4X4X4X4X4X4X4X4X4X4X",
"4X4X4X4X4X4X4X4X4X4X4X4X4X4X4X4X4X4X4X4X4X4X4X4X4X4X4X4X4X4X4X4X4X4X4X4X4X4X4X4X4X4X4X4X4X4X4X4X4X4X4X4X4X4X4X4X4X4X4X4X4X4X4X4X4X4X4X4X4X4X4X4X4X4X4X",
"4X4X4X4X4X4X4X4X4X4X4X4X4X4X4X4X4X4X4X4X4X4X4X4X4X4X4X4X4X4X4X4X4X4X4X4X4X4X4X4X4X4X4X4X4X4X4X4X4X4X4X4X4X4X4X4X4X4X4X4X4X4X4X4X4X4X4X4X4X4X4X4X4X4X4X",
"4X4X4X4X4X4X4X4X4X4X4X4X4X4X4X4X4X4X4X4X4X4X4X4X4X4X4X4X4X4X4X4X4X4X4X4X4X4X4X4X4X4X4X4X4X4X4X4X4X4X4X4X4X4X4X4X4X4X4X4X4X4X4X4X4X4X4X4X4X4X4X4X4X4X4X",
"4X4X4X4X4X4X4X4X4X4X4X4X4X4X4X4X4X4X4X4X4X4X4X4X4X4X4X4X4X4X4X4X4X4X4X4X4X4X4X4X4X4X4X4X4X4X4X4X4X4X4X4X4X4X4X4X4X4X4X4X4X4X4X4X4X4X4X4X4X4X4X4X4X4X4X",
"4X4X4X4X4X4X4X4X4X4X4X4X4X4X4X4X4X4X4X4X4X4X4X4X4X4X4X4X4X4X4X4X4X4X4X4X4X4X4X4X4X4X4X4X4X4X4X4X4X4X4X4X4X4X4X4X4X4X4X4X4X4X4X4X4X4X4X4X4X4X4X4X4X4X4X",
"4X4X4X4X4X4X4X4X4X4X4X4X4X4X4X4X4X4X4X4X4X4X4X4X4X4X4X4X4X4X4X4X4X4X4X4X4X4X4X4X4X4X4X4X4X4X4X4X4X4X4X4X4X4X4X4X4X4X4X4X4X4X4X4X4X4X4X4X4X4X4X4X4X4X4X",
"4X4X4X4X4X4X4X4X4X4X4X4X4X4X4X4X4X4X4X4X4X4X4X4X4X4X4X4X4X4X4X4X4X4X4X4X4X4X4X4X4X4X4X4X4X4X4X4X4X4X4X4X4X4X4X4X4X4X4X4X4X4X4X4X4X4X4X4X4X4X4X4X4X4X4X",
"4X4X4X4X4X4X4X4X4X4X4X4X4X4X4X4X4X4X4X4X4X4X4X4X4X4X4X4XN N N M N N N N N 4X4X4X4X4X4X4X4X4X4X4X4X4X4X4X4X4X4X4X4X4X4X4X4X4X4X4X4X4X4X4X4X4X4X4X4X4X4X",
"4X4X4X4X4X4X4X4X4X4X4X4X4X4X4X4X4X4X4X4X4X4X4X4X4X4X4XB F F L L L L L F F F 4X4X4X4X4X4X4X4X4X4X4X4X4X4X4X4X4X4X4X4X4X4X4X4X4X4X4X4X4X4X4X4X4X4X4X4X4X",
"4X4X4X4X4X4X4X4X4X4X4X4X4X4X4X4X4X4X4X4X4X4XN B N B N 0.a.f.B.B.N.V.B.f.a.e.N N B N B 4X4X4X4X4X4X4X4X4X4X4X4X4X4X4X4X4X4X4X4X4X4X4X4X4X4X4X4X4X4X4X4X",
"4X4X4X4X4X4X4X4X4X4X4X4X4X4X4X4X4X4X4X4X4X4XN N N N N e.s.h.A.A.A.A.A.h.s.e.N B N N N 4X4X4X4X4X4X4X4X4X4X4X4X4X4X4X4X4X4X4X4X4X4X4X4X4X4X4X4X4X4X4X4X",
"4X4X4X4X4X4X4X4X4X4X4X4X4X4X4X4X4X4X4X4X1 1 P t.t.r.r.f.n.V.C.A.A.A.C.V.V.f.t.w.r.r.P 1 1 4X4X4X4X4X4X4X4X4X4X4X4X4X4X4X4X4X4X4X4X4X4X4X4X4X4X4X4X4X4X",
"4X4X4X4X4X4X4X4X4X4X4X4X4X4X4X4X4X4X4X4X1 1 w.d.s.s.s.v.D.A.A.A.A.A.A.A.D.v.s.s.d.d.w.1 1 4X4X4X4X4X4X4X4X4X4X4X4X4X4X4X4X4X4X4X4X4X4X4X4X4X4X4X4X4X4X",
"4X4X4X4X4X4X4X4X4X4X4X4X4X4X4X4X4X4X4X4X< 1 q.g.g.s.s.v.A.A.A.A.A.A.A.A.C.v.a.s.s.d.w.< 1 4X4X4X4X4X4X4X4X4X4X4X4X4X4X4X4X4X4X4X4X4X4X4X4X4X4X4X4X4X4X",
"4X4X4X4X4X4X4X4X4X4X4X4X4X4X4X4X4X4X4X4X< 1 q.s.s.b.V.V.A.A.A.A.A.A.A.A.D.N.V.b.g.s.w.1 1 4X4X4X4X4X4X4X4X4X4X4X4X4X4X4X4X4X4X4X4X4X4X4X4X4X4X4X4X4X4X",
"4X4X4X4X4X4X4X4X4X4X4X4X4X4X4X4X4X4X4X4X1 - q.g.g.V.A.A.C.A.A.A.A.A.A.A.C.A.A.V.g.g.q.1 1 4X4X4X4X4X4X4X4X4X4X4X4X4X4X4X4X4X4X4X4X4X4X4X4X4X4X4X4X4X4X",
"4X4X4X4X4X4X4X4X4X4X4X4X4X4X4X4X4X4X4X3 l l w.d.g.V.A.A.A.A.A.A.A.A.A.A.A.A.A.C.g.g.t.l l 3 4X4X4X4X4X4X4X4X4X4X4X4X4X4X4X4X4X4X4X4X4X4X4X4X4X4X4X4X4X",
"4X4X4X4X4X4X4X4X4X4X4X4X4X4X4X4X4X4X1 3 M M t.d.g.V.A.A.A.A.A.A.A.A.A.A.A.A.A.V.s.s.t.B M j < 4X4X4X4X4X4X4X4X4X4X4X4X4X4X4X4X4X4X4X4X4X4X4X4X4X4X4X4X",
"4X4X4X4X4X4X4X4X4X4X4X4X4X4X4X4X4X4X1 k B J i.h.j.V.A.A.A.A.A.A.A.A.A.A.A.A.A.V.h.h.i.J B j 1 4X4X4X4X4X4X4X4X4X4X4X4X4X4X4X4X4X4X4X4X4X4X4X4X4X4X4X4X",
"4X4X4X4X4X4X4X4X4X4X4X4X4X4X4X4X4X4X< l u.a.n.C.C.C.D.C.A.A.A.A.A.A.A.A.A.A.A.A.A.A.n.a.a.l - 4X4X4X4X4X4X4X4X4X4X4X4X4X4X4X4X4X4X4X4X4X4X4X4X4X4X4X4X",
"4X4X4X4X4X4X4X4X4X4X4X4X4X4X4X4X4X4X< l a.s.V.A.A.A.C.D.A.A.A.A.A.A.A.A.A.A.A.A.A.A.V.a.a.l < 4X4X4X4X4X4X4X4X4X4X4X4X4X4X4X4X4X4X4X4X4X4X4X4X4X4X4X4X",
"4X4X4X4X4X4X4X4X4X4X@ @ @ @ @ @ @ ; < l a.s.n.A.A.A.A.A.A.A.A.A.A.A.A.A.A.A.A.A.A.A.V.s.a.x j ; @ @ @ @ @ @ @ 4X4X4X4X4X4X4X4X4X4X4X4X4X4X4X4X4X4X4X4X",
"4X4X4X4X4X4X4X4X4X4X@ @ @ # @ @ @ ; < l u.a.V.A.A.A.A.A.A.A.A.A.A.A.A.A.A.A.A.A.A.A.V.s.a.x - ; @ @ @ @ @ @ @ 4X4X4X4X4X4X4X4X4X4X4X4X4X4X4X4X4X4X4X4X",
"4X4X4X4X4X4X4X4X4X4X@ @ @ @ @ # # ; 1 l u.g.V.A.A.A.A.A.A.A.A.A.A.A.A.A.A.A.A.A.A.A.V.s.a.l - ; @ @ @ @ # @ @ 4X4X4X4X4X4X4X4X4X4X4X4X4X4X4X4X4X4X4X4X",
"4X4X4X4X4X4X4X4X4X4X4X4X@ @ @ 7.I.5.- l u.s.n.A.A.A.A.A.A.A.A.A.A.A.A.A.A.A.A.A.A.A.V.d.a.x - [ I.8.# @ @ 4X4X4X4X4X4X4X4X4X4X4X4X4X4X4X4X4X4X4X4X4X4X",
"4X4X4X4X4X4X4X4X4X4X4X4X@ @ @ I.#XG.- x a.g.V.A.A.A.A.A.A.A.A.A.A.A.A.A.A.A.A.A.A.A.V.s.a.x = F.#XI.# @ @ 4X4X4X4X4X4X4X4X4X4X4X4X4X4X4X4X4X4X4X4X4X4X",
"4X4X4X4X4X4X4X4X4X4X4X4X4X@ @ 4.7.{ - k 0.w.f.b.v.C.A.A.A.A.A.A.A.A.A.A.A.A.A.C.b.b.f.w.0.l < { 7.7.# @ 4X4X4X4X4X4X4X4X4X4X4X4X4X4X4X4X4X4X4X4X4X4X4X",
"4X4X4X4X4X4X4X4X4X4X4X4X4X4X4X@ + ; < 1 N N t.s.s.V.A.A.A.A.A.A.A.A.A.A.C.A.D.V.s.s.t.B N 1 1 ; O @ 4X4X4X4X4X4X4X4X4X4X4X4X4X4X4X4X4X4X4X4X4X4X4X4X4X",
"4X4X4X4X4X4X4X4X4X4X4X4X4X4X4X@ @ ; < < b b t.g.g.b.V.C.A.A.A.A.A.A.A.A.A.C.V.n.g.g.t.b b 1 < ; + @ 4X4X4X4X4X4X4X4X4X4X4X4X4X4X4X4X4X4X4X4X4X4X4X4X4X",
"4X4X4X4X4X4X4X4X4X4X4X4X4X4X4X4X4X4X@ $ 1 1 q.g.g.g.g.v.A.A.A.A.A.A.A.A.A.v.g.g.g.s.w.1 1 $ @ 4X4X4X4X4X4X4X4X4X4X4X4X4X4X4X4X4X4X4X4X4X4X4X4X4X4X4X4X",
"4X4X4X4X4X4X4X4X4X4X4X4X4X4X4X4X4X4X@ $ < 1 q.g.s.s.s.v.A.A.A.A.A.A.A.A.A.v.s.g.s.g.w.1 < $ @ 4X4X4X4X4X4X4X4X4X4X4X4X4X4X4X4X4X4X4X4X4X4X4X4X4X4X4X4X",
"4X4X4X4X4X4X4X4X4X4X4X4X4X4X4X4X4X4X4X4X< < B K K a.s.v.A.A.A.A.A.A.A.A.A.v.g.i.K K B < 1 ;.1.+.7 8 7 8 8 4X4X4X4X4X4X4X4X4X4X4X4X4X4X4X4X4X4X4X4X4X4X",
"4X4X4X4X4X4X4X4X4X4X4X4X4X4X4X4X4X4X4X4X1 < b M N r.s.v.A.A.A.A.A.A.A.D.A.v.s.y.B N b 1 2 Q.'.;.7 7 8 7 7 4X4X4X4X4X4X4X4X4X4X4X4X4X4X4X4X4X4X4X4X4X4X",
"4X4X4X4X4X4X4X4X4X4X4X4X4X4X4X4X4X4X4X4X1 < b M N r.a.v.C.A.A.A.A.A.C.C.A.v.s.t.B M b 1 3 E.^.&.8 8 8 8 8 4X4X4X4X4X4X4X4X4X4X4X4X4X4X4X4X4X4X4X4X4X4X",
"4X4X4X4X4X4X4X4X4X4X4X4X4X4X4X4X4X4X4X4X1 1 3 j k B J w.j.j.A.A.A.A.A.Z.j.w.J H k j j - 1 Y W ;.W.!.&.&.+.8 8 8 8 4X4X4X4X4X4X4X4X4X4X4X4X4X4X4X4X4X4X",
"4X4X4X4X4X4X4X4X4X4X4X4X4X4X4X4X4X4X4X4X1 - 1 < - b M e.d.h.A.A.A.A.A.j.s.e.B b 1 - < 1 1 e i >.'.^.,.,.%.7 8 7 7 4X4X4X4X4X4X4X4X4X4X4X4X4X4X4X4X4X4X",
"4X4X4X4X4X4X4X4X4X4X4X4X4X4X4X4X4X4X1 3 l x H J G b l P d.g.v.v.v.v.v.g.s.P l v G G H l l 4 4 W #.#.o.W o.*.*.O.O.X.4X4X4X8 4X4X4X4X4X4X4X4X4X4X4X4X4X",
"4X4X4X4X4X4X4X4X4X4X4X4X4X4X4X4X4X4X- 1 M B y.g.g.v - H g.d.a.s.a.g.a.d.g.G - v d.d.t.B N j - 4 u q u u ' `.`.,.,...7 7 7 8 8 4X4X4X4X4X4X4X4X4X4X4X4X",
"4X4X4X4X4X4X4X4X4X4X4X4X4X4X4X4X4XQ T T b b w.y.y.x - H y.y.d.g.s.g.s.u.y.H < l t.t.w.M M V T ! h h d d ' W.2.-.@.@.+.O.8 8 8 4X4X4X4X4X4X4X4X4X4X4X4X",
"4X4X4X4X4X4X4X4X4X4X4X4X4X4X4X,.*./.=X Xz 1 b B B k - l B K a.g.s.s.a.K B x - k N B M 1 k  X=X/.*.#.4.4.` a s a a ).=X|.8 8 8 4X4X4X4X4X4X4X4X4X4X4X4X",
"4X4X4X4X4X4X4X4X4X4X4X4X4X4X4X,.*./.=X.Xz - b N N k - l N J a.d.g.d.a.K B x - k N N b - 2  X=X`.*.-.4.4.` a u u u ).;X|.8 8 8 4X4X4X4X4X4X4X4X4X4X4X4X",
"4X4X4X4X4X4X4X4X4X4X4X4X4X4X4X-.*.].>X*XQ V m b M m m m b B r.t.t.t.t.N b m m m b b m V V *X>X].*.-.4.4.) d d a u 9.%X].8 8 8 4X4X4X4X4X4X4X4X4X4X4X4X",
"4X4X4X4X4X4X4X4X4X4X4X4X4X4X4X,.*.{.1X3X'.^.V - - M.D.k.- k M B B N N j 1 } D.M.1 - V ^.`.<X1X|.*.;.4.4.4.4.3.f u >.`.E.8 8 8 4X4X4X4X4X4X4X4X4X4X4X4X",
"4X4X4X4X4X4X4X4X4X4X4X4X4X4X4X*.&.].2X<X/.^.V 1 3 c.A.k.3 k M M M M M k 1 k.D.M.j 1 V ^.(.,X2X|.*.#.4.4.4.[ _ d s >.`.E.8 8 8 4X4X4X4X4X4X4X4X4X4X4X4X",
"4X4X4X4X4X4X4X4X4X4X4X4X4X4X4X6 > h ] ' g 5 x M M m.A.B.m.l.l j j k 3 l.m.B.A.m.M b n 5 y ' ] h 6 p [ 4.` d h 2.W.<.<.&.8 8 8 4X4X4X4X4X4X4X4X4X4X4X4X",
"4X4X4X4X4X4X4X4X4X4X4X4X4X4X4X% # , t q % % v B B m.A.A.A.m.3 - < - 1 M.D.D.A.B.B B v % & q t > # 0 4.4.` t h ~.'.E.,.%.8 8 8 4X4X4X4X4X4X4X4X4X4X4X4X",
"4X4X4X4X4X4X4X4X4X4X4X4X4X& % w w a ^ D * % v B N f.v.V.A.B.k.} S 4 4 } } x.b.i.B B v & & ~ ^ f w 0 f s f u s <.E.E.Q.,.7 8 8 4X4X4X4X4X4X4X4X4X4X4X4X",
"4X4X4X4X4X4X4X4X4X4X4X4X& & % t a D 4.) * & v B B t.s.v.D.D.D.D.E u a u u U s.y.B B v % * ` 4.^ a q # # * a s =.*.W.'.E.8 8 8 4X4X4X4X4X4X4X4X4X4X4X4X",
"4X4X4X4X4X4X4X4X4X4X4X4X& % # 0 f D 4.) * % c Z Z p.p.x.z.M.z.z.E u a a a U p.p.N Z c & * ` 4.^ t t % % * u s -.!.!.Q.<.8 7 8 4X4X4X4X4X4X4X4X4X4X4X4X",
"4X4X4X4X4X4X4X4X4X4X4X4X& % & q a D 4.` & % 0 a f ) 4.^ a a a s u t a a a / 4.) a a q % & ( 4.D t t & % * u s ~.`.%.7 8 4X4X4X4X4X4X4X4X4X4X4X4X4X4X4X",
"4X4X4X4X4X4X4X4X4X4X4X4X% & % 0 i D 3.` * % 0 u u ` 4.^ t u i p u u u u u / 4.) a a 0 % * ^ 4.D t q % % * u s ~.`.%.7 7 4X4X4X4X4X4X4X4X4X4X4X4X4X4X4X",
"4X4X4X4X4X4X4X4X4X4X4X4X& % & D ` 5.8.6., : C A A  .6. .R R } A E E E R E  .|  .A A C : : 6.8.5.` / & % r ' $./.[.,.7 8 4X4X4X4X4X4X4X4X4X4X4X4X4X4X4X",
"4X4X4X4X4X4X4X4X4X4X4X4X% & & G.U.R.T.U.2 < q.s.d.n.A.A.A.A.A.A.D.A.A.D.A.C.A.V.g.g.w.1 3 U.T.R.U.G.& % g `.`.&X=X1.7 8 4X4X4X4X4X4X4X4X4X4X4X4X4X4X4X",
"4X4X4X4X4X4X4X4X4X4X4X4X% & & 8.L.U.R.Y.2 1 q.s.s.n.C.C.A.A.A.A.N.C.N.C.C.C.C.n.a.s.q.1 3 P.R.U.L.8.* % g `.`.%X=X1.7 7 4X4X4X4X4X4X4X4X4X4X4X4X4X4X4X",
"4X4X4X4X4X4X4X4X4X4X4X4X4X4X4Xq q u a q 1 1 b J F u.h.h.h.i.B B L L L i.h.j.h.u.J G b 1 1 i a t u q u q g ,.,.O.....4X4X4X4X4X4X4X4X4X4X4X4X4X4X4X4X4X",
"4X4X4X4X4X4X4X4X4X4X4X4X4X4X4X% # % % % < < b N M t.s.s.s.u.B M M M B t.s.a.a.y.B N b j - : # # # * a u g *.*.X.9 4X4X4X4X4X4X4X4X4X4X4X4X4X4X4X4X4X4X",
"4X4X4X4X4X4X4X4X4X4X4X4X4X4X4X4X4X4X4X: 1 1 S.J.J.OX@XOX_.K.x l l l l K._.OX@XOXJ.).S.- 1 > w Y =.#.o.o.O.....V 4X4X4X4X4X4X4X4X4X4X4X4X4X4X4X4X4X4X4X",
"4X4X4X4X4X4X4X4X4X4X4X4X4X4X4X4X4X4X4X4X< 1 {.:X=X2X1X3X;X.X2 < 1 1 3  X:X3X1X2X;X;X|.1 1 i i >.'.~.,.,.%.8 8 4X4X4X4X4X4X4X4X4X4X4X4X4X4X4X4X4X4X4X4X",
"4X4X4X4X4X4X4X4X4X4X4X4X4X4X4X4X4X4X4X4X= = 2.}.}.oX-XXX}.).< = = = = ).}.XX$X$X}.}.H.= = Y W >.Q.!.%.%.O.8 8 4X4X4X4X4X4X4X4X4X4X4X4X4X4X4X4X4X4X4X4X",
"4X4X4X4X4X4X4X4X4X4X4X4X4X4X4X4X4X4X4X4X    > s a a s a f r           r f a a a a a 5   . !.`.*.8 8 8 8 8 4X4X4X4X4X4X4X4X4X4X4X4X4X4X4X4X4X4X4X4X4X4X",
"4X4X4X4X4X4X4X4X4X4X4X4X4X4X4X4X4X4X4X4X    > i a u a a a r           w a a i a a a >   . E.`.*.7 8 8 7 8 4X4X4X4X4X4X4X4X4X4X4X4X4X4X4X4X4X4X4X4X4X4X",
"4X4X4X4X4X4X4X4X4X4X4X4X4X4X4X4X4X4X4X4X+ + i ~ D D d d a r           r a d D D D D p + + *.!.%.7 8 8 8 4X4X4X4X4X4X4X4X4X4X4X4X4X4X4X4X4X4X4X4X4X4X4X",
"4X4X4X4X4X4X4X4X4X4X4X4X4X4X4X4X4X4X4X4Xa i ` 4.4.4.4.^ a r           5 a / 4.4.4.4.` a s 9 8 4X4X4X4X4X4X4X4X4X4X4X4X4X4X4X4X4X4X4X4X4X4X4X4X4X4X4X4X",
"4X4X4X4X4X4X4X4X4X4X4X4X4X4X4X4X4X4X4X4Xt t / _ _ ) _ ~ t 5           5 t Y _ ) ) _ ^ t t 9 8 4X4X4X4X4X4X4X4X4X4X4X4X4X4X4X4X4X4X4X4X4X4X4X4X4X4X4X4X",
"4X4X4X4X4X4X4X4X4X4X4X4X4X4X4X4X4X4X4X4X. . X o o o X X . . 4X4X4X4X4X. . o o o o o X . . 4X4X4X4X4X4X4X4X4X4X4X4X4X4X4X4X4X4X4X4X4X4X4X4X4X4X4X4X4X4X",
"4X4X4X4X4X4X4X4X4X4X4X4X4X4X4X4X4X4X4X4X                    4X4X4X4X4X                    4X4X4X4X4X4X4X4X4X4X4X4X4X4X4X4X4X4X4X4X4X4X4X4X4X4X4X4X4X4X",
"4X4X4X4X4X4X4X4X4X4X4X4X4X4X4X4X4X4X4X4X4X4X4X4X4X4X4X4X4X4X4X4X4X4X4X4X4X4X4X4X4X4X4X4X4X4X4X4X4X4X4X4X4X4X4X4X4X4X4X4X4X4X4X4X4X4X4X4X4X4X4X4X4X4X4X",
"4X4X4X4X4X4X4X4X4X4X4X4X4X4X4X4X4X4X4X4X4X4X4X4X4X4X4X4X4X4X4X4X4X4X4X4X4X4X4X4X4X4X4X4X4X4X4X4X4X4X4X4X4X4X4X4X4X4X4X4X4X4X4X4X4X4X4X4X4X4X4X4X4X4X4X",
"4X4X4X4X4X4X4X4X4X4X4X4X4X4X4X4X4X4X4X4X4X4X4X4X4X4X4X4X4X4X4X4X4X4X4X4X4X4X4X4X4X4X4X4X4X4X4X4X4X4X4X4X4X4X4X4X4X4X4X4X4X4X4X4X4X4X4X4X4X4X4X4X4X4X4X",
"4X4X4X4X4X4X4X4X4X4X4X4X4X4X4X4X4X4X4X4X4X4X4X4X4X4X4X4X4X4X4X4X4X4X4X4X4X4X4X4X4X4X4X4X4X4X4X4X4X4X4X4X4X4X4X4X4X4X4X4X4X4X4X4X4X4X4X4X4X4X4X4X4X4X4X",
"4X4X4X4X4X4X4X4X4X4X4X4X4X4X4X4X4X4X4X4X4X4X4X4X4X4X4X4X4X4X4X4X4X4X4X4X4X4X4X4X4X4X4X4X4X4X4X4X4X4X4X4X4X4X4X4X4X4X4X4X4X4X4X4X4X4X4X4X4X4X4X4X4X4X4X",
"4X4X4X4X4X4X4X4X4X4X4X4X4X4X4X4X4X4X4X4X4X4X4X4X4X4X4X4X4X4X4X4X4X4X4X4X4X4X4X4X4X4X4X4X4X4X4X4X4X4X4X4X4X4X4X4X4X4X4X4X4X4X4X4X4X4X4X4X4X4X4X4X4X4X4X",
"4X4X4X4X4X4X4X4X4X4X4X4X4X4X4X4X4X4X4X4X4X4X4X4X4X4X4X4X4X4X4X4X4X4X4X4X4X4X4X4X4X4X4X4X4X4X4X4X4X4X4X4X4X4X4X4X4X4X4X4X4X4X4X4X4X4X4X4X4X4X4X4X4X4X4X",
"4X4X4X4X4X4X4X4X4X4X4X4X4X4X4X4X4X4X4X4X4X4X4X4X4X4X4X4X4X4X4X4X4X4X4X4X4X4X4X4X4X4X4X4X4X4X4X4X4X4X4X4X4X4X4X4X4X4X4X4X4X4X4X4X4X4X4X4X4X4X4X4X4X4X4X"
};
